<?xml version="1.0" standalone="no"?>
<!DOCTYPE svg PUBLIC "-//W3C//DTD SVG 1.1//EN" "http://www.w3.org/Graphics/SVG/1.1/DTD/svg11.dtd" >
<svg xmlns="http://www.w3.org/2000/svg" xmlns:xlink="http://www.w3.org/1999/xlink" version="1.1">
<metadata>
Created by FontForge 20170731 at Thu Apr 12 11:08:11 2018
 By Aleksey,,,
Copyright (c) 2003 by Bitstream, Inc. All Rights Reserved.
DejaVu changes are in public domain
Changes by Saber Rastikerdar are in public domain.
Non-Arabic(Latin) glyphs and data in extended version are imported from Roboto font under the Apache License, Version 2.0.
</metadata>
<defs>
<font id="Vazir-Light-FD" horiz-adv-x="0" >
  <font-face 
    font-family="Vazir FD"
    font-weight="300"
    font-stretch="normal"
    units-per-em="2048"
    panose-1="2 11 6 3 3 8 4 2 2 4"
    ascent="1638"
    descent="-410"
    x-height="1052"
    cap-height="1441"
    bbox="-945 -943.608 3214.01 2347"
    underline-thickness="100"
    underline-position="-700"
    unicode-range="U+0002-FFFD"
  />
<missing-glyph horiz-adv-x="507" 
 />
    <glyph glyph-name="uni0622" unicode="&#x627;&#x653;" horiz-adv-x="633" 
d="M254 1252.54h143v-1238.16h-143v1238.16zM253 1466q-22 3 -44 1.5t-42.5 -8.5t-41 -18.5t-39.5 -27.5t-37 -37l-92 96q115 161 278 135l148 -24q97 -16 218 43l59 -124q-124 -75 -266 -55z" />
    <glyph glyph-name="uni0623" unicode="&#x627;&#x654;" horiz-adv-x="477" 
d="M171 1191.88h143v-1176.22h-143v1176.22zM128 1429q-71 55 -71 155q0 85 57 145q34 35 77 53q42 18 95 18q70 0 133 -40l1 -113q-59 35 -120 35q-13 0 -25 -2q-12 -1 -23 -4t-20 -7q-10 -5 -18 -11q-9 -5 -16 -13q-31 -31 -30 -74q0 -10 3 -19q2 -9 6 -17t11 -15
q6 -8 14 -15t18 -13t22 -12q12 -5 25 -10q15 -6 28 -3q66 13 131 25v-110l-391 -94v107l90 21l16 4z" />
    <glyph glyph-name="afii57412" unicode="&#x648;&#x654;" horiz-adv-x="860" 
d="M306 986q-71 55 -71 155q0 85 57 145q34 35 77 53q42 18 95 18q70 0 133 -40l1 -113q-59 35 -120 35q-13 0 -25 -2q-12 -1 -23 -4t-20 -7q-10 -5 -18 -11q-9 -5 -16 -13q-31 -31 -30 -74q0 -10 3 -19q2 -9 6 -17t11 -15q6 -8 14 -15t18 -13t22 -12q12 -5 25 -10
q15 -6 28 -3q66 13 131 25v-110l-391 -94v107l90 21l16 4zM122 -361q141 28 244 78t168 123t91 169l6 22l-23 -3q-23 -3 -43.5 -5.5t-37.5 -4t-30 -3t-23 -2t-16 -0.5q-178 -1 -264 69.5t-86 215.5q0 118 50 223q90 188 271 188q196 0 280 -219q57 -147 57 -322
q0 -272 -147.5 -436t-445.5 -223zM626 203q-11 170 -62.5 258.5t-146.5 88.5q-107 0 -151 -130q-19 -57 -19 -107q0 -76 55 -114t157 -38q75 1 156 26l11 4v12z" />
    <glyph glyph-name="uni0625" unicode="&#x627;&#x655;" horiz-adv-x="477" 
d="M133 -505q-71 55 -71 155q0 85 57 145q34 35 77 53q42 18 95 18q70 0 133 -40l1 -113q-59 35 -120 35q-13 0 -25 -2q-12 -1 -23 -4t-20 -7q-10 -5 -18 -11q-9 -5 -16 -13q-31 -31 -30 -74q0 -10 3 -19q2 -9 6 -17t11 -15q6 -8 14 -15t18 -13t22 -12q12 -5 25 -10
q15 -6 28 -3q66 13 131 25v-110l-391 -94v107l90 21l16 4zM166 1393h143v-1377h-143v1377z" />
    <glyph glyph-name="afii57414" unicode="&#x64a;&#x654;" horiz-adv-x="1504" 
d="M480 794q-71 55 -71 155q0 85 57 145q34 35 77 53q42 18 95 18q70 0 133 -40l1 -113q-59 35 -120 35q-13 0 -25 -2q-12 -1 -23 -4t-20 -7q-10 -5 -18 -11q-9 -5 -16 -13q-31 -31 -30 -74q0 -10 3 -19q2 -9 6 -17t11 -15q6 -8 14 -15t18 -13t22 -12q12 -5 25 -10
q15 -6 28 -3q66 13 131 25v-110l-391 -94v107l90 21l16 4zM263 84q0 -83 19.5 -150.5t58 -118.5t96 -85t134 -51t170.5 -18q181 0 324 67q76 35 133 93q59 61 59 139q0 35 -25 53.5t-68 18.5l-114 1q-120 0 -177 45.5t-57 138.5q0 183 116 310q150 164 425 164h6v-163h-7
q-165 0 -273 -76q-56 -39 -85.5 -88.5t-30.5 -107.5q0 -17 5 -31t16 -24q21 -17 64 -17h119q114 1 168 -44.5t54 -139.5q0 -280 -279 -408q-166 -76 -378 -76q-208 0 -345 62.5t-205 187.5t-68 315q0 205 103 453l130 -54q-88 -218 -88 -396z" />
    <glyph glyph-name="uni06C0" unicode="&#x647;&#x654;" horiz-adv-x="942" 
d="M188 1235q58 -12 109 -12q80 0 136 13t89 39q24 20 37 41.5t13 45.5q-1 31 -45 32l-100 3q-56 1 -82.5 28.5t-26.5 84.5q0 118 121 195q42 27 101.5 41t133.5 15l-8 -111q-74 -2 -126 -16.5t-81.5 -42t-35.5 -68.5l-1 -10l-1 -9h8l112 -3q111 -3 130 -96q18 -94 -65 -186
q-48 -52 -127 -78.5t-189 -26.5q-56 0 -119 10zM452 655q-195 -170 -195 -304q0 -36 9 -65t27 -51t44.5 -36.5t61 -22t76.5 -7.5q108 0 164.5 46.5t55.5 136.5q0 125 -224 304l-10 8zM387 927q449 -333 449 -581q0 -181 -158 -279q-37 -23 -87.5 -35t-114.5 -13
q-117 0 -200 41q-160 80 -160 286q0 201 223 418l12 11l-12 11l-35 30z" />
    <glyph glyph-name="fi" unicode="fi" horiz-adv-x="1074" 
d="M352 30h-150v939h-171v113h171v109q0 89 26 158q14 34 32.5 62.5t40.5 51.5q46 46 111 70q66 24 149 24q66 0 130 -17q62 -16 128 -39l-25 -126q-14 5 -28.5 10t-30 9.5t-32.5 9.5q-60 16 -129 16q-28 0 -53 -3.5t-46 -10.5t-39 -18t-31 -26q-27 -29 -40 -72t-13 -99
v-109h205v-113h-205v-939zM913 1067v-1052h-156v1052h156z" />
    <glyph glyph-name="uniFBA5.fina" unicode="&#xfeea;&#x654;" horiz-adv-x="1053" arabic-form="final" 
d="M342 1166q58 -12 109 -12q80 0 136 13t89 39q24 20 37 41.5t13 45.5q-1 31 -45 32l-100 3q-56 1 -82.5 28.5t-26.5 84.5q0 118 121 195q42 27 101.5 41t133.5 15l-8 -111q-74 -2 -126 -16.5t-81.5 -42t-35.5 -68.5l-1 -10l-1 -9h8l112 -3q111 -3 130 -96q18 -94 -65 -186
q-48 -52 -127 -78.5t-189 -26.5q-56 0 -119 10zM116 406q0 283 508 439l13 4l-2 13l-6 31l132 28l80 -576q8 -57 33.5 -96.5t67.5 -59.5t100 -20h18q7 -12 7 -57v-24q0 -28 -2.5 -47.5t-5.5 -25.5h-21q-133 0 -209 53.5t-100 161.5l-5 25l-19 -17q-39 -34 -80.5 -56.5
t-86 -33.5t-92.5 -11q-215 0 -298 139q-6 10 -11 21.5t-9 24t-6.5 26t-4 28t-1.5 30.5zM636 707q-185 -67 -278.5 -138t-93.5 -151q0 -68 45.5 -102.5t130.5 -34.5q40 0 81 12.5t81 36.5q104 64 82 205l-20 133l-5 28l-2 18l-18 -6z" />
    <glyph glyph-name="uniFDF2" unicode="&#x627;&#xfedf;&#xfee0;&#xfeea;" horiz-adv-x="2769" arabic-form="isolated" 
d="M1350 1681v386h72v-386h-72zM1416 1583q1 -20 1.5 -38t0.5 -37q0 -100 74 -99q19 0 34 7.5t24.5 21t14.5 33.5t5 46q0 8 -0.5 17t-2 19.5t-3 22.5t-4 25t-5.5 28l74 11q15 -57 15 -113q0 -33 -4 -60.5t-11.5 -49t-19 -38t-27 -27t-34.5 -16t-43 -5.5q-60 0 -100 51
l-10 12l-3 -15q-29 -111 -145 -112q-64 1 -96.5 40.5t-33.5 121.5q-1 54 11 100l63 -10q-8 -43 -8 -77q0 -22 5 -39t14.5 -28.5t23.5 -17.5t33 -7q17 0 32 5t26 15t18.5 25t12 34t4.5 42q2 48 2 112h62zM116 406q0 283 508 439l13 4l-2 13l-6 31l132 28l80 -576
q8 -57 33.5 -96.5t67.5 -59.5t100 -20h18q7 -12 7 -57v-24q0 -28 -2.5 -47.5t-5.5 -25.5h-21q-133 0 -209 53.5t-100 161.5l-5 25l-19 -17q-39 -34 -80.5 -56.5t-86 -33.5t-92.5 -11q-215 0 -298 139q-6 10 -11 21.5t-9 24t-6.5 26t-4 28t-1.5 30.5zM636 707
q-185 -67 -278.5 -138t-93.5 -151q0 -68 45.5 -102.5t130.5 -34.5q40 0 81 12.5t81 36.5q104 64 82 205l-20 133l-5 28l-2 18l-18 -6zM1084 15h-29q-21 0 -32 16.5t-11 56.5v19q0 35 10.5 48.5t32.5 13.5h31q121 0 183.5 67t62.5 195v708h144v-708q0 -128 55 -195t163 -67
h11q2 0 5.5 -3.5t7 -18.5t3.5 -40v-19q0 -46 -7 -61v-1q-3 -5 -5 -8t-2.5 -3h-1.5h-8q-194 0 -291 136l-13 18l-12 -18q-94 -136 -297 -136zM1696 15q-33 0 -33 73v19q0 35 8.5 48.5t24.5 13.5h58q104 0 157.5 57.5t53.5 168.5v907h144v-913q0 -189 -89 -281.5t-272 -92.5
h-52zM2439 1393h143v-1377h-143v1377z" />
    <glyph glyph-name="uniFE70" unicode="&#x20;&#x64b;" horiz-adv-x="791" arabic-form="isolated" 
d="M53 1088v87l441 180v-87zM53 1300v87l441 180v-87z" />
    <glyph glyph-name="uniFE72" unicode="&#x20;&#x64c;" horiz-adv-x="791" arabic-form="isolated" 
d="M301 1722q-21 -25 -22 -58q0 -20 8.5 -37.5t24 -30.5t38.5 -23q5 -2 10.5 -4.5t12.5 -4.5t15 -5t17 -5.5t20 -5.5l5 -2l3 5q14 24 21.5 48.5t7.5 49.5q0 51 -22.5 78t-66.5 27q-15 0 -28 -3.5t-24 -10.5t-20 -18zM30 1507q7 -227 142 -225q18 0 37.5 5t38.5 14.5t38 24
t39 33.5q45 45 85 124l5 8l-10 3l-29 6q-98 21 -133 67q-30 41 -30 88q0 17 1.5 31.5t5 27t9.5 22.5q42 82 140 82q69 0 110 -39q23 -22 34.5 -54t11.5 -75q0 -9 -1 -20.5t-4 -25t-7 -29t-9 -32.5l-3 -9h9l30 -2l52 -2v-63h-10.5h-9t-8 0.5t-6.5 0.5h-5h-3l-77 8h-5l-2 -5
q-46 -110 -132 -184q-78 -69 -161 -69q-88 0 -134 71.5t-49 217.5h40z" />
    <glyph glyph-name="uniFE74" unicode="&#x20;&#x64d;" horiz-adv-x="791" arabic-form="isolated" 
d="M59 -435v88l440 180v-88zM59 -223v88l440 180v-88z" />
    <glyph glyph-name="uniFE76" unicode="&#x20;&#x64e;" horiz-adv-x="791" arabic-form="isolated" 
d="M23 1360v88l440 180v-88z" />
    <glyph glyph-name="uniFE78" unicode="&#x20;&#x64f;" horiz-adv-x="791" arabic-form="isolated" 
d="M524 1472q-28 0 -50 1t-40 3l-31 5h-5l-2 -4q-122 -172 -351 -186v63q185 10 276 139l7 10l-12 2q-42 9 -87 33q-82 46 -82 127q0 62 34 103q44 52 121 52q58 0 101 -34q31 -25 45 -61q9 -27 9 -60q0 -56 -25 -116l-4 -9l10 -1l20 -2q35 -3 66 -2v-63zM366 1557l6 14
q21 49 22 93q-1 45 -28 67q-9 8 -18.5 13t-20 8t-21.5 3q-49 1 -76 -35q-18 -24 -19 -58q1 -52 71 -84q23 -11 75 -25l6 -2z" />
    <glyph glyph-name="uniFE7A" unicode="&#x20;&#x650;" horiz-adv-x="791" arabic-form="isolated" 
d="M69 -334v87l441 180v-87z" />
    <glyph glyph-name="uniFE7C" unicode="&#x20;&#x651;" horiz-adv-x="791" arabic-form="isolated" 
d="M320 1761q1 -20 1.5 -38t0.5 -37q0 -100 74 -99q19 0 34 7.5t24.5 21t14.5 33.5t5 46q0 8 -0.5 17t-2 19.5t-3 22.5t-4 25t-5.5 28l74 11q15 -57 15 -113q0 -33 -4 -60.5t-11.5 -49t-19 -38t-27 -27t-34.5 -16t-43 -5.5q-60 0 -100 51l-10 12l-3 -15q-29 -111 -145 -112
q-64 1 -96.5 40.5t-33.5 121.5q-1 54 11 100l63 -10q-8 -43 -8 -77q0 -22 5 -39t14.5 -28.5t23.5 -17.5t33 -7q17 0 32 5t26 15t18.5 25t12 34t4.5 42q2 48 2 112h62z" />
    <glyph glyph-name="uniFE7E" unicode="&#x20;&#x652;" horiz-adv-x="791" arabic-form="isolated" 
d="M125 1461.5q0 39.5 13.5 73t40.5 60.5q55 54 133.5 54t133.5 -54q27 -27 40.5 -60.5t13.5 -72.5q0 -20 -3.5 -38t-10 -35t-17 -32t-23.5 -29q-55 -54 -133.5 -54t-133.5 54q-27 28 -40.5 61t-13.5 72.5zM196 1461q0 -50 35 -85q34 -34 84 -34t85 34q17 17 25.5 38.5
t8.5 46.5q0 50 -34 84q-35 35 -85 35t-84 -35q-35 -34 -35 -84z" />
    <glyph glyph-name="uniFEF5" unicode="&#xfedf;&#xfe82;" horiz-adv-x="1219" arabic-form="isolated" 
d="M214 1499q-22 3 -44 1.5t-42.5 -8.5t-41 -18.5t-39.5 -27.5t-37 -37l-92 96q115 161 278 135l148 -24q97 -16 218 43l59 -124q-124 -75 -266 -55zM253 1327q283 -685 395 -1108l4 -15l15 5q241 76 241 431v753h143v-754q0 -313 -162.5 -467t-492.5 -154q-126 0 -208 13
v152q164 -20 313 -10l19 2l-5 17q-115 397 -400 1055z" />
    <glyph glyph-name="uniFEF6" unicode="&#xfee0;&#xfe82;" horiz-adv-x="1293" arabic-form="final" 
d="M667 209q241 76 241 431v753h143v-844q0 -380 226 -380h23q7 -13 7 -62v-19q0 -57 -8 -73h-36q-232 0 -294 215l-8 30l-18 -25q-158 -217 -547 -217q-126 0 -208 13v152q161 -20 313 -10l19 2l-5 17q-116 395 -400 1055l138 80q283 -685 395 -1108l4 -15zM214 1499
q-22 3 -44 1.5t-42.5 -8.5t-41 -18.5t-39.5 -27.5t-37 -37l-92 96q115 161 278 135l148 -24q97 -16 218 43l59 -124q-124 -75 -266 -55z" />
    <glyph glyph-name="uniFEF7" unicode="&#xfedf;&#xfe84;" horiz-adv-x="1219" arabic-form="isolated" 
d="M81 1505q-71 55 -71 155q0 85 57 145q34 35 77 53q42 18 95 18q70 0 133 -40l1 -113q-59 35 -120 35q-13 0 -25 -2q-12 -1 -23 -4t-20 -7q-10 -5 -18 -11q-9 -5 -16 -13q-31 -31 -30 -74q0 -10 3 -19q2 -9 6 -17t11 -15q6 -8 14 -15t18 -13t22 -12q12 -5 25 -10
q15 -6 28 -3q66 13 131 25v-110l-391 -94v107l90 21l16 4zM253 1327q283 -685 395 -1108l4 -15l15 5q241 76 241 431v753h143v-754q0 -313 -162.5 -467t-492.5 -154q-126 0 -208 13v152q164 -20 313 -10l19 2l-5 17q-115 397 -400 1055z" />
    <glyph glyph-name="uniFEF8" unicode="&#xfee0;&#xfe84;" horiz-adv-x="1293" arabic-form="final" 
d="M667 209q241 76 241 431v753h143v-844q0 -380 226 -380h23q7 -13 7 -62v-19q0 -57 -8 -73h-36q-232 0 -294 215l-8 30l-18 -25q-158 -217 -547 -217q-126 0 -208 13v152q161 -20 313 -10l19 2l-5 17q-116 395 -400 1055l138 80q283 -685 395 -1108l4 -15zM81 1505
q-71 55 -71 155q0 85 57 145q34 35 77 53q42 18 95 18q70 0 133 -40l1 -113q-59 35 -120 35q-13 0 -25 -2q-12 -1 -23 -4t-20 -7q-10 -5 -18 -11q-9 -5 -16 -13q-31 -31 -30 -74q0 -10 3 -19q2 -9 6 -17t11 -15q6 -8 14 -15t18 -13t22 -12q12 -5 25 -10q15 -6 28 -3
q66 13 131 25v-110l-391 -94v107l90 21l16 4z" />
    <glyph glyph-name="uniFEF9" unicode="&#xfedf;&#xfe88;" horiz-adv-x="1219" arabic-form="isolated" 
d="M173 -497q-71 55 -71 155q0 85 57 145q34 35 77 53q42 18 95 18q70 0 133 -40l1 -113q-59 35 -120 35q-13 0 -25 -2q-12 -1 -23 -4t-20 -7q-10 -5 -18 -11q-9 -5 -16 -13q-31 -31 -30 -74q0 -10 3 -19q2 -9 6 -17t11 -15q6 -8 14 -15t18 -13t22 -12q12 -5 25 -10
q15 -6 28 -3q66 13 131 25v-110l-391 -94v107l90 21l16 4zM253 1327q283 -685 395 -1108l4 -15l15 5q241 76 241 431v753h143v-754q0 -313 -162.5 -467t-492.5 -154q-126 0 -208 13v152q164 -20 313 -10l19 2l-5 17q-115 397 -400 1055z" />
    <glyph glyph-name="uniFEFA" unicode="&#xfee0;&#xfe88;" horiz-adv-x="1293" arabic-form="final" 
d="M173 -497q-71 55 -71 155q0 85 57 145q34 35 77 53q42 18 95 18q70 0 133 -40l1 -113q-59 35 -120 35q-13 0 -25 -2q-12 -1 -23 -4t-20 -7q-10 -5 -18 -11q-9 -5 -16 -13q-31 -31 -30 -74q0 -10 3 -19q2 -9 6 -17t11 -15q6 -8 14 -15t18 -13t22 -12q12 -5 25 -10
q15 -6 28 -3q66 13 131 25v-110l-391 -94v107l90 21l16 4zM667 209q241 76 241 431v753h143v-844q0 -380 226 -380h23q7 -13 7 -62v-19q0 -57 -8 -73h-36q-232 0 -294 215l-8 30l-18 -25q-158 -217 -547 -217q-126 0 -208 13v152q161 -20 313 -10l19 2l-5 17
q-116 395 -400 1055l138 80q283 -685 395 -1108l4 -15z" />
    <glyph glyph-name="uniFEFB" unicode="&#xfedf;&#xfe8e;" horiz-adv-x="1219" arabic-form="isolated" 
d="M253 1327q283 -685 395 -1108l4 -15l15 5q241 76 241 431v753h143v-754q0 -313 -162.5 -467t-492.5 -154q-126 0 -208 13v152q164 -20 313 -10l19 2l-5 17q-115 397 -400 1055z" />
    <glyph glyph-name="uniFEFC" unicode="&#xfee0;&#xfe8e;" horiz-adv-x="1293" arabic-form="final" 
d="M667 209q241 76 241 431v753h143v-844q0 -380 226 -380h23q7 -13 7 -62v-19q0 -57 -8 -73h-36q-232 0 -294 215l-8 30l-18 -25q-158 -217 -547 -217q-126 0 -208 13v152q161 -20 313 -10l19 2l-5 17q-116 395 -400 1055l138 80q283 -685 395 -1108l4 -15z" />
    <glyph glyph-name="uni0651064B" unicode="&#x64b;&#x651;" 
d="M341 1270v87l441 180v-87zM341 1482v87l441 180v-87zM608 1220q1 -20 1.5 -38t0.5 -37q0 -100 74 -99q19 0 34 7.5t24.5 21t14.5 33.5t5 46q0 8 -0.5 17t-2 19.5t-3 22.5t-4 25t-5.5 28l74 11q15 -57 15 -113q0 -33 -4 -60.5t-11.5 -49t-19 -38t-27 -27t-34.5 -16
t-43 -5.5q-60 0 -100 51l-10 12l-3 -15q-29 -111 -145 -112q-64 1 -96.5 40.5t-33.5 121.5q-1 54 11 100l63 -10q-8 -43 -8 -77q0 -22 5 -39t14.5 -28.5t23.5 -17.5t33 -7q17 0 32 5t26 15t18.5 25t12 34t4.5 42q2 48 2 112h62z" />
    <glyph glyph-name="uni0651064C" unicode="&#x64c;&#x651;" 
d="M576 1794q-21 -25 -22 -58q0 -20 8.5 -37.5t24 -30.5t38.5 -23q5 -2 10.5 -4.5t12.5 -4.5t15 -5t17 -5.5t20 -5.5l5 -2l3 5q14 24 21.5 48.5t7.5 49.5q0 51 -22.5 78t-66.5 27q-15 0 -28 -3.5t-24 -10.5t-20 -18zM305 1579q7 -227 142 -225q18 0 37.5 5t38.5 14.5t38 24
t39 33.5q45 45 85 124l5 8l-10 3l-29 6q-98 21 -133 67q-30 41 -30 88q0 17 1.5 31.5t5 27t9.5 22.5q42 82 140 82q69 0 110 -39q23 -22 34.5 -54t11.5 -75q0 -9 -1 -20.5t-4 -25t-7 -29t-9 -32.5l-3 -9h9l30 -2l52 -2v-63h-10.5h-9t-8 0.5t-6.5 0.5h-5h-3l-77 8h-5l-2 -5
q-46 -110 -132 -184q-78 -69 -161 -69q-88 0 -134 71.5t-49 217.5h40zM625 1214q1 -20 1.5 -38t0.5 -37q0 -100 74 -99q19 0 34 7.5t24.5 21t14.5 33.5t5 46q0 8 -0.5 17t-2 19.5t-3 22.5t-4 25t-5.5 28l74 11q15 -57 15 -113q0 -33 -4 -60.5t-11.5 -49t-19 -38t-27 -27
t-34.5 -16t-43 -5.5q-60 0 -100 51l-10 12l-3 -15q-29 -111 -145 -112q-64 1 -96.5 40.5t-33.5 121.5q-1 54 11 100l63 -10q-8 -43 -8 -77q0 -22 5 -39t14.5 -28.5t23.5 -17.5t33 -7q17 0 32 5t26 15t18.5 25t12 34t4.5 42q2 48 2 112h62z" />
    <glyph glyph-name="uni064B0651" unicode="&#x64d;&#x651;" 
d="M506 1746q1 -20 1.5 -38t0.5 -37q0 -100 74 -99q19 0 34 7.5t24.5 21t14.5 33.5t5 46q0 8 -0.5 17t-2 19.5t-3 22.5t-4 25t-5.5 28l74 11q15 -57 15 -113q0 -33 -4 -60.5t-11.5 -49t-19 -38t-27 -27t-34.5 -16t-43 -5.5q-60 0 -100 51l-10 12l-3 -15q-29 -111 -145 -112
q-64 1 -96.5 40.5t-33.5 121.5q-1 54 11 100l63 -10q-8 -43 -8 -77q0 -22 5 -39t14.5 -28.5t23.5 -17.5t33 -7q17 0 32 5t26 15t18.5 25t12 34t4.5 42q2 48 2 112h62zM290 881v87l441 180v-87zM290 1093v87l441 180v-87z" />
    <glyph glyph-name="uni0651064E" unicode="&#x64e;&#x651;" 
d="M326 1468v88l440 180v-88zM613 1428q1 -20 1.5 -38t0.5 -37q0 -100 74 -99q19 0 34 7.5t24.5 21t14.5 33.5t5 46q0 8 -0.5 17t-2 19.5t-3 22.5t-4 25t-5.5 28l74 11q15 -57 15 -113q0 -33 -4 -60.5t-11.5 -49t-19 -38t-27 -27t-34.5 -16t-43 -5.5q-60 0 -100 51l-10 12
l-3 -15q-29 -111 -145 -112q-64 1 -96.5 40.5t-33.5 121.5q-1 54 11 100l63 -10q-8 -43 -8 -77q0 -22 5 -39t14.5 -28.5t23.5 -17.5t33 -7q17 0 32 5t26 15t18.5 25t12 34t4.5 42q2 48 2 112h62z" />
    <glyph glyph-name="uni0651064F" unicode="&#x64f;&#x651;" 
d="M801 1459q-28 0 -50 1t-40 3l-31 5h-5l-2 -4q-122 -172 -351 -186v63q185 10 276 139l7 10l-12 2q-42 9 -87 33q-82 46 -82 127q0 62 34 103q44 52 121 52q58 0 101 -34q31 -25 45 -61q9 -27 9 -60q0 -56 -25 -116l-4 -9l10 -1l20 -2q35 -3 66 -2v-63zM643 1544l6 14
q21 49 22 93q-1 45 -28 67q-9 8 -18.5 13t-20 8t-21.5 3q-49 1 -76 -35q-18 -24 -19 -58q1 -52 71 -84q23 -11 75 -25l6 -2zM610 1221q1 -20 1.5 -38t0.5 -37q0 -100 74 -99q19 0 34 7.5t24.5 21t14.5 33.5t5 46q0 8 -0.5 17t-2 19.5t-3 22.5t-4 25t-5.5 28l74 11
q15 -57 15 -113q0 -33 -4 -60.5t-11.5 -49t-19 -38t-27 -27t-34.5 -16t-43 -5.5q-60 0 -100 51l-10 12l-3 -15q-29 -111 -145 -112q-64 1 -96.5 40.5t-33.5 121.5q-1 54 11 100l63 -10q-8 -43 -8 -77q0 -22 5 -39t14.5 -28.5t23.5 -17.5t33 -7q17 0 32 5t26 15t18.5 25
t12 34t4.5 42q2 48 2 112h62z" />
    <glyph glyph-name="uni064E0651" unicode="&#x650;&#x651;" 
d="M598 1633q1 -20 1.5 -38t0.5 -37q0 -100 74 -99q19 0 34 7.5t24.5 21t14.5 33.5t5 46q0 8 -0.5 17t-2 19.5t-3 22.5t-4 25t-5.5 28l74 11q15 -57 15 -113q0 -33 -4 -60.5t-11.5 -49t-19 -38t-27 -27t-34.5 -16t-43 -5.5q-60 0 -100 51l-10 12l-3 -15q-29 -111 -145 -112
q-64 1 -96.5 40.5t-33.5 121.5q-1 54 11 100l63 -10q-8 -43 -8 -77q0 -22 5 -39t14.5 -28.5t23.5 -17.5t33 -7q17 0 32 5t26 15t18.5 25t12 34t4.5 42q2 48 2 112h62zM362 1010v88l440 180v-88z" />
    <glyph glyph-name="uni0654064E" unicode="&#x64e;&#x654;" 
d="M332 1736v88l440 180v-88zM454 1325q-71 55 -71 155q0 85 57 145q34 35 77 53q42 18 95 18q70 0 133 -40l1 -113q-59 35 -120 35q-13 0 -25 -2q-12 -1 -23 -4t-20 -7q-10 -5 -18 -11q-9 -5 -16 -13q-31 -31 -30 -74q0 -10 3 -19q2 -9 6 -17t11 -15q6 -8 14 -15t18 -13
t22 -12q12 -5 25 -10q15 -6 28 -3q66 13 131 25v-110l-391 -94v107l90 21l16 4z" />
    <glyph glyph-name="uni0654064F" unicode="&#x64f;&#x654;" 
d="M779 1683q-28 0 -50 1t-40 3l-31 5h-5l-2 -4q-122 -172 -351 -186v63q185 10 276 139l7 10l-12 2q-42 9 -87 33q-82 46 -82 127q0 62 34 103q44 52 121 52q58 0 101 -34q31 -25 45 -61q9 -27 9 -60q0 -56 -25 -116l-4 -9l10 -1l20 -2q35 -3 66 -2v-63zM621 1768l6 14
q21 49 22 93q-1 45 -28 67q-9 8 -18.5 13t-20 8t-21.5 3q-49 1 -76 -35q-18 -24 -19 -58q1 -52 71 -84q23 -11 75 -25l6 -2zM447 1107q-71 55 -71 155q0 85 57 145q34 35 77 53q42 18 95 18q70 0 133 -40l1 -113q-59 35 -120 35q-13 0 -25 -2q-12 -1 -23 -4t-20 -7
q-10 -5 -18 -11q-9 -5 -16 -13q-31 -31 -30 -74q0 -10 3 -19q2 -9 6 -17t11 -15q6 -8 14 -15t18 -13t22 -12q12 -5 25 -10q15 -6 28 -3q66 13 131 25v-110l-391 -94v107l90 21l16 4z" />
    <glyph glyph-name="uni066E.fina" unicode="&#x66e;" horiz-adv-x="1901" 
d="M860 15q-377 0 -561 118q-185 118 -185 353q0 124 47 237l131 -47q-29 -80 -29 -163q0 -344 592 -344q526 0 654 135q38 40 38 132q0 35 -2 58l-4 67l135 16l15 -199q16 -209 205 -209h11q3 -5 5 -22t2 -40v-19q0 -57 -8 -73h-10q-202 0 -287 169l-9 19l-15 -16
q-53 -56 -150 -94t-241 -58q-143 -20 -330 -20h-4z" />
    <glyph glyph-name="uni066F.fina" unicode="&#x66f;" horiz-adv-x="1526" 
d="M747 -505q-631 0 -630 566q0 199 84 410l131 -55q-69 -185 -69 -353q0 -209 124.5 -315t366.5 -106q156 0 265.5 39.5t171 119.5t72.5 199l1 16h-16h-149q-72 0 -128.5 11.5t-98.5 34t-69.5 56.5t-41 79t-13.5 102q0 59 12.5 114.5t37.5 108.5q89 188 271 188
q289 0 334 -527l1 -14h14h114q7 -13 7 -62v-19q0 -28 -2.5 -47.5t-5.5 -25.5l-115 1h-13l-2 -14q-28 -254 -190 -380t-464 -127zM1265 186q-23 364 -208 365q-35 0 -64 -15t-50.5 -44t-36.5 -71q-6 -19 -10.5 -37t-6.5 -35.5t-2 -34.5q0 -72 52.5 -108t149.5 -36h161h16z
" />
    <glyph glyph-name="uni06A1.init" unicode="&#x6a1;" horiz-adv-x="914" 
d="M446 387q-158 0 -235 63.5t-79 192.5q0 42 8 80q29 154 109 237q79 81 197 81q80 0 139 -38q161 -105 195 -407q7 -65 7 -122q0 -275 -129 -372q-116 -87 -413 -87h-252q-21 0 -32 16.5t-11 56.5v19q0 35 10.5 48.5t32.5 13.5h263q395 0 405 212q0 6 -0.5 11t-0.5 10
l-3 18l-17 -6q-29 -9 -60.5 -15t-65 -9t-68.5 -3zM267 670q0 -70 50 -105t142 -34q86 0 175 27l12 3l-2 13q-4 29 -9 56.5t-11.5 52.5t-14.5 47.5t-17 43.5q-53 117 -153 117q-115 0 -160 -145q-12 -40 -12 -76z" />
    <glyph glyph-name="uni06A1.medi" unicode="&#x6a1;" horiz-adv-x="1022" 
d="M410 652q-64 -64 -64 -128q0 -14 3 -28t8.5 -28.5t13.5 -29t18.5 -29t23.5 -30.5q78 -90 124 -90q25 0 54.5 22.5t68.5 67.5q68 78 68 144q0 80 -96 158q-28 22 -53 33.5t-48 11.5q-46 0 -121 -74zM524 141q-170 -126 -490 -126h-41q-21 0 -32 16.5t-11 56.5v19
q0 34 10.5 48t32.5 14h41q235 1 317 34l23 10l-19 16q-154 128 -154 305q0 168 191 301q67 46 145 46q77 0 133 -34q204 -123 204 -324q0 -167 -155 -294l-21 -17l25 -9q48 -17 116.5 -25.5t158.5 -8.5h30q7 -13 7 -62v-19q0 -57 -8 -73h-27q-290 0 -458 126l-9 7z" />
    <glyph glyph-name="uni06A1.fina" unicode="&#x6a1;" horiz-adv-x="1995" 
d="M1383 652q-64 -64 -64 -128q0 -34 17 -70t50 -75q78 -90 124 -90q25 0 54.5 22.5t68.5 67.5q68 78 67 144q1 80 -95 158q-56 45 -101 45q-25 0 -54.5 -18.5t-66.5 -55.5zM1497 142q-183 -127 -633 -127h-34q-362 0 -539 118q-177 117 -177 353q0 124 47 237l131 -47
q-29 -80 -29 -163q0 -173 147 -258q146 -86 431 -86q369 0 482 34l26 8l-21 18q-154 128 -154 305q0 168 191 301q67 46 145 46q77 0 133 -34q52 -31 90 -67t64 -76q25 -41 37 -86q13 -45 13 -95q0 -167 -155 -294l-21 -17l25 -9q48 -17 117 -26q68 -8 158 -8h30
q7 -14 7 -62v-19q0 -57 -8 -73h-27q-290 0 -458 126l-9 7z" />
    <glyph glyph-name="uni06CA.fina" unicode="&#x6ca;" horiz-adv-x="873" 
d="M437 1036l125 125l126 -126l-125 -125zM133 1036l125 125l126 -126l-125 -125zM605 15h-146q-179 0 -265 70.5t-86 212.5q0 118 50 223q90 188 271 188q299 0 334 -527l1 -14h14h100q8 -15 8 -70v-10q0 -57 -8 -73l-112 1h-13l-2 -12q-72 -394 -578 -495l-51 130
q425 84 498 357l5 19h-20zM626 185q-24 364 -208 365q-36 0 -65 -15t-50.5 -44t-36.5 -71q-19 -55 -19 -107q0 -48 24 -80.5t69 -48t109 -15.5h162h16z" />
    <glyph glyph-name="uni06D5.fina" unicode="&#x6d5;" horiz-adv-x="1053" 
d="M116 406q0 283 508 439l13 4l-2 13l-6 31l132 28l80 -576q8 -57 33.5 -96.5t67.5 -59.5t100 -20h18q7 -12 7 -57v-24q0 -28 -2.5 -47.5t-5.5 -25.5h-21q-133 0 -209 53.5t-100 161.5l-5 25l-19 -17q-39 -34 -80.5 -56.5t-86 -33.5t-92.5 -11q-215 0 -298 139
q-6 10 -11 21.5t-9 24t-6.5 26t-4 28t-1.5 30.5zM636 707q-185 -67 -278.5 -138t-93.5 -151q0 -68 45.5 -102.5t130.5 -34.5q40 0 81 12.5t81 36.5q104 64 82 205l-20 133l-5 28l-2 18l-18 -6z" />
    <glyph glyph-name="uniFB56" unicode="&#x67e;" horiz-adv-x="1807" arabic-form="isolated" 
d="M861 15q-377 0 -561 118q-185 118 -185 353q0 124 47 237l131 -47q-29 -79 -29 -162q0 -49 13 -92q12 -43 36 -78t60 -63q36 -29 83.5 -49.5t106.5 -34.5t128 -21q70 -7 151 -7q506 0 640 99q71 51 71 177q0 87 -33 235l135 34q23 -71 34 -134t11 -120q0 -229 -132 -321
q-177 -124 -704 -124h-3zM797.373 -569.373l131.604 131.604l130.533 -131.604l-131.604 -130.533zM962.145 -300.816l131.604 131.604l130.533 -130.533l-131.604 -131.604zM636.881 -300.816l131.604 131.604l130.533 -130.533l-131.604 -131.604z" />
    <glyph glyph-name="uniFB57" unicode="&#x67e;" horiz-adv-x="1901" arabic-form="final" 
d="M779.373 -569.373l131.604 131.604l130.533 -131.604l-131.604 -130.533zM944.145 -300.816l131.604 131.604l130.533 -130.533l-131.604 -131.604zM618.881 -300.816l131.604 131.604l130.533 -130.533l-131.604 -131.604zM860 15q-377 0 -561 118q-185 118 -185 353
q0 124 47 237l131 -47q-29 -80 -29 -163q0 -344 592 -344q526 0 654 135q38 40 38 132q0 35 -2 58l-4 67l135 16l15 -199q16 -209 205 -209h11q3 -5 5 -22t2 -40v-19q0 -57 -8 -73h-10q-202 0 -287 169l-9 19l-15 -16q-53 -56 -150 -94t-241 -58q-143 -20 -330 -20h-4z" />
    <glyph glyph-name="uniFB58" unicode="&#x67e;" horiz-adv-x="673" arabic-form="initial" 
d="M69 15h-76q-21 0 -32 16.5t-11 56.5v19q0 35 10.5 48.5t32.5 13.5h76q164 0 224 34q93 54 93 222q0 14 -0.5 29t-1.5 30t-2.5 30.5t-4 31.5t-5 32.5t-5.5 33t-6.5 33.5t-8.5 34l135 34q44 -147 44 -285q0 -238 -135 -339q-97 -74 -327 -74zM146.373 -569.373
l131.604 131.604l130.533 -131.604l-131.604 -130.533zM311.145 -300.816l131.604 131.604l130.533 -130.533l-131.604 -131.604zM-14.1191 -300.816l131.604 131.604l130.533 -130.533l-131.604 -131.604z" />
    <glyph glyph-name="uniFB59" unicode="&#x67e;" horiz-adv-x="717" arabic-form="medial" 
d="M146.373 -569.373l131.604 131.604l130.533 -131.604l-131.604 -130.533zM311.145 -300.816l131.604 131.604l130.533 -130.533l-131.604 -131.604zM-14.1191 -300.816l131.604 131.604l130.533 -130.533l-131.604 -131.604zM730 88q0 -28 -2.5 -47.5t-5.5 -25.5h-7
q-189 0 -259 133l-12 22l-14 -20q-95 -135 -334 -135h-104q-14 0 -22.5 6.5t-14 23t-5.5 43.5v19q0 35 10 48.5t32 13.5h99q243 0 270 144q7 37 7 86q0 51 -3 96l-5 67l135 16l15 -215q5 -64 30 -107t69.5 -65t107.5 -22h5q8 -15 8 -71v-10z" />
    <glyph glyph-name="uniFB7A" unicode="&#x686;" horiz-adv-x="1366" arabic-form="isolated" 
d="M140 -145q0 287 175 468.5t529 259.5l10 2l49 11l-47 18q-8 3 -23.5 9.5t-38 15t-51.5 20.5q-198 80 -273 80q-121 0 -198 -100l-21 -26l-128 63l8 14q121 200 340 201q124 0 297 -84q151 -74 269 -114t205 -46l-11 -146q-169 -11 -282 -37q-669 -155 -669 -593
q0 -192 138.5 -288t407.5 -96q211 0 406 89l30 -144q-97 -45 -209 -67.5t-241 -22.5q-193 0 -329.5 44t-217.5 132q-42 45 -69.5 97t-41.5 112t-14 128zM692.373 -215.373l131.604 131.604l130.533 -131.604l-131.604 -130.533zM857.145 53.1836l131.604 131.604
l130.533 -130.533l-131.604 -131.604zM531.881 53.1836l131.604 131.604l130.533 -130.533l-131.604 -131.604z" />
    <glyph glyph-name="uniFB7B" unicode="&#x686;" horiz-adv-x="1386" arabic-form="final" 
d="M570.244 -265.244l116.799 116.799l115.85 -116.799l-116.799 -115.85zM716.48 -26.8984l116.799 116.799l115.85 -115.85l-116.799 -116.799zM427.807 -26.8984l116.799 116.799l115.85 -115.85l-116.799 -116.799zM1242 647l-11 -146q-97 -8 -183 -20l-13 -2v-13v-8
q0 -95 33.5 -159.5t99.5 -97t163 -32.5h61q1 -2 2.5 -7t2.5 -12t1.5 -17t0.5 -21v-24q0 -57 -8 -73h-60q-211 0 -315 101t-105 308v12v19l-18 -5q-613 -153 -613 -579q0 -192 138.5 -288t407.5 -96q211 0 406 89l30 -144q-48 -22 -100.5 -39t-108.5 -28.5t-116.5 -17
t-124.5 -5.5q-193 0 -329.5 44t-217.5 132q-125 135 -125 337q0 287 175 468.5t529 259.5l10 2l49 11l-47 18q-8 3 -23.5 9.5t-38 15t-51.5 20.5q-198 80 -273 80q-121 0 -198 -100l-21 -26l-128 63l8 14q122 201 341 201q123 0 296 -84q101 -49 186.5 -83t157.5 -53.5
t130 -23.5z" />
    <glyph glyph-name="uniFB7C" unicode="&#x686;" horiz-adv-x="1337" arabic-form="initial" 
d="M-7 15q-21 0 -32 16.5t-11 56.5v19q0 35 10.5 48.5t32.5 13.5h60q334 0 823 253l74 38l34 17l-37 10q-12 4 -67 25.5t-148 58.5q-100 40 -166.5 60t-105.5 20q-60 0 -110 -25t-88 -75l-21 -26l-128 63l8 14q25 40 53 72t60 56.5t68 40.5t75.5 24t83.5 8q124 0 297 -84
q302 -148 475 -160l-2 -147q-25 -3 -56.5 -12.5t-69.5 -24t-83 -34.5t-96.5 -45t-110.5 -57q-426 -224 -774 -224h-48zM560.373 -569.373l131.604 131.604l130.533 -131.604l-131.604 -130.533zM725.145 -300.816l131.604 131.604l130.533 -130.533l-131.604 -131.604z
M399.881 -300.816l131.604 131.604l130.533 -130.533l-131.604 -131.604z" />
    <glyph glyph-name="uniFB7D" unicode="&#x686;" horiz-adv-x="1351" arabic-form="medial" 
d="M560.373 -569.373l131.604 131.604l130.533 -131.604l-131.604 -130.533zM725.145 -300.816l131.604 131.604l130.533 -130.533l-131.604 -131.604zM399.881 -300.816l131.604 131.604l130.533 -130.533l-131.604 -131.604zM947 487q-23 6 -215 84q-100 40 -166.5 60
t-105.5 20q-60 0 -110 -25t-88 -75l-21 -26l-128 63l8 14q25 40 53 72t60 56.5t68 40.5t75.5 24t83.5 8q124 0 297 -84q302 -148 475 -160l-2 -146q-82 -11 -199 -70l-8 -4v-9q4 -161 293 -161h41q8 -12 8 -57v-24q0 -57 -8 -73h-57q-179 0 -273 63.5t-109 191.5l-3 21
l-19 -9q-13 -7 -26.5 -13.5t-27.5 -14t-28 -15.5q-426 -224 -774 -224h-48q-21 0 -32 16.5t-11 56.5v19q0 35 10.5 48.5t32.5 13.5h60q334 0 823 253l74 38l35 18z" />
    <glyph glyph-name="uniFB8A" unicode="&#x698;" horiz-adv-x="840" arabic-form="isolated" 
d="M593 513q76 -192 76 -356q1 -265 -151 -426t-460 -222l-51 130q519 104 521 513q1 133 -73 311zM322.373 1125.43l130.533 130.534l131.604 -131.604l-130.533 -130.534zM487.145 856.875l130.533 130.534l131.604 -131.604l-130.533 -130.533zM161.881 856.875
l130.533 130.534l131.604 -131.604l-130.533 -130.533z" />
    <glyph glyph-name="uniFB8B" unicode="&#x698;" horiz-adv-x="870" arabic-form="final" 
d="M322.373 1125.43l130.533 130.534l131.604 -131.604l-130.533 -130.534zM487.145 856.875l130.533 130.534l131.604 -131.604l-130.533 -130.533zM161.881 856.875l130.533 130.534l131.604 -131.604l-130.533 -130.533zM663 55q-56 -437 -605 -546l-51 130
q519 104 521 513q1 133 -73 311l137 49l57 -179q53 -164 202 -164h25q2 -3 3.5 -10t3 -19.5t1.5 -27.5v-24q0 -58 -8 -73h-14q-70 0 -113 12.5t-59 34.5l-22 30z" />
    <glyph glyph-name="uniFB8E" unicode="&#x6a9;" horiz-adv-x="1848" arabic-form="isolated" 
d="M1488 649q126 -136 124 -298q-7 -336 -598 -336h-181q-364 0 -541 118q-178 117 -178 353q0 124 47 237l131 -47q-29 -81 -29 -165q1 -172 146 -257q144 -85 424 -85h180q450 0 449 206q0 104 -108 206q-39 36 -75 69q-36 32 -71 62q-34 30 -66 56.5t-62 50.5
q-109 84 -109 175q0 119 131 169l673 255v-148l-663 -247l-24 -9l19 -17q132 -111 228 -198q95 -87 153 -150z" />
    <glyph glyph-name="uniFB8F" unicode="&#x6a9;" horiz-adv-x="1924" arabic-form="final" 
d="M831 15q-362 0 -540 118q-177 117 -177 353q0 124 47 237l131 -47q-29 -81 -29 -165q1 -172 145 -257t423 -85h182q448 0 449 206q0 104 -109 206q-159 148 -274 238q-37 29 -61 58t-35.5 58.5t-11.5 58.5q0 119 130 169l673 255v-148l-663 -247l-24 -9l20 -17
q261 -218 381 -348q78 -84 126 -219q92 -261 302 -261h14q7 -13 7 -62v-19q0 -57 -8 -73h-13q-209 0 -337 171l-13 17l-12 -18q-109 -170 -541 -170h-182z" />
    <glyph glyph-name="uniFB90" unicode="&#x6a9;" horiz-adv-x="950" arabic-form="initial" 
d="M590 649q126 -136 123 -298q-6 -336 -577 -336h-143q-21 0 -32 16.5t-11 56.5v19q0 35 10.5 48.5t32.5 13.5h142q428 0 429 206q0 104 -109 206q-153 143 -274 238q-37 29 -61 58t-35.5 58.5t-11.5 58.5q0 119 130 169l673 255v-148l-663 -247l-24 -9l20 -17
q261 -218 381 -348z" />
    <glyph glyph-name="uniFB91" unicode="&#x6a9;" horiz-adv-x="1027" arabic-form="medial" 
d="M209 997q261 -218 381 -348q79 -85 126 -219q91 -261 302 -261h14q3 -5 5 -21.5t2 -40.5v-19q0 -57 -8 -73h-13q-53 0 -100 10.5t-89 32t-79 53.5t-69 75l-13 17l-12 -18q-109 -170 -520 -170h-143q-21 0 -32 16.5t-11 56.5v19q0 35 10.5 48.5t32.5 13.5h142
q428 0 429 206q0 104 -109 206q-153 143 -274 238q-37 29 -61 58t-35.5 58.5t-11.5 58.5q0 119 130 169l673 255v-148l-663 -247l-24 -9z" />
    <glyph glyph-name="uniFB92" unicode="&#x6af;" horiz-adv-x="1848" arabic-form="isolated" 
d="M1488 649q126 -136 124 -298q-7 -336 -598 -336h-181q-364 0 -541 118q-178 117 -178 353q0 124 47 237l131 -47q-29 -81 -29 -165q1 -172 146 -257q144 -85 424 -85h180q450 0 449 206q0 104 -108 206q-39 36 -75 69q-36 32 -71 62q-34 30 -66 56.5t-62 50.5
q-109 84 -109 175q0 119 131 169l673 255v-148l-663 -247l-24 -9l19 -17q132 -111 228 -198q95 -87 153 -150zM1765.36 1563.7l-755.382 -292.096v111.274l755.382 292.096v-111.274z" />
    <glyph glyph-name="uniFB93" unicode="&#x6af;" horiz-adv-x="1924" arabic-form="final" 
d="M1765.36 1563.7l-755.382 -292.096v111.274l755.382 292.096v-111.274zM831 15q-362 0 -540 118q-177 117 -177 353q0 124 47 237l131 -47q-29 -81 -29 -165q1 -172 145 -257t423 -85h182q448 0 449 206q0 104 -109 206q-159 148 -274 238q-37 29 -61 58t-35.5 58.5
t-11.5 58.5q0 119 130 169l673 255v-148l-663 -247l-24 -9l20 -17q261 -218 381 -348q78 -84 126 -219q92 -261 302 -261h14q7 -13 7 -62v-19q0 -57 -8 -73h-13q-209 0 -337 171l-13 17l-12 -18q-109 -170 -541 -170h-182z" />
    <glyph glyph-name="uniFB94" unicode="&#x6af;" horiz-adv-x="950" arabic-form="initial" 
d="M590 649q126 -136 123 -298q-6 -336 -577 -336h-143q-21 0 -32 16.5t-11 56.5v19q0 35 10.5 48.5t32.5 13.5h142q428 0 429 206q0 104 -109 206q-153 143 -274 238q-37 29 -61 58t-35.5 58.5t-11.5 58.5q0 119 130 169l673 255v-148l-663 -247l-24 -9l20 -17
q261 -218 381 -348zM865.361 1566.7l-755.382 -292.096v111.274l755.382 292.096v-111.274z" />
    <glyph glyph-name="uniFB95" unicode="&#x6af;" horiz-adv-x="1027" arabic-form="medial" 
d="M865.361 1566.7l-755.382 -292.096v111.274l755.382 292.096v-111.274zM209 997q261 -218 381 -348q79 -85 126 -219q91 -261 302 -261h14q3 -5 5 -21.5t2 -40.5v-19q0 -57 -8 -73h-13q-53 0 -100 10.5t-89 32t-79 53.5t-69 75l-13 17l-12 -18q-109 -170 -520 -170h-143
q-21 0 -32 16.5t-11 56.5v19q0 35 10.5 48.5t32.5 13.5h142q428 0 429 206q0 104 -109 206q-153 143 -274 238q-37 29 -61 58t-35.5 58.5t-11.5 58.5q0 119 130 169l673 255v-148l-663 -247l-24 -9z" />
    <glyph glyph-name="uniFB9E" unicode="&#x6ba;" horiz-adv-x="1455" arabic-form="isolated" 
d="M1280 -140q-144 -295 -553 -295q-308 0 -459.5 140.5t-150.5 425.5q0 199 84 410l131 -55q-69 -185 -69 -353q0 -209 119 -315t352 -106q228 0 344.5 116t117.5 344q0 180 -85 361l143 50q82 -231 82 -451q0 -80 -14 -148t-42 -124z" />
    <glyph glyph-name="uniFB9F" unicode="&#x6ba;" horiz-adv-x="1539" arabic-form="final" 
d="M1335 56q0 -52 -6.5 -99t-18.5 -89t-30 -78q-144 -295 -553 -295q-308 0 -459.5 140.5t-150.5 425.5q0 199 84 410l131 -55q-69 -185 -69 -353q0 -139 53.5 -233t158 -141t259.5 -47q228 0 344.5 116t117.5 344q0 180 -85 361l143 50l68 -214q42 -130 207 -130h17
q3 -5 5 -20t2 -37v-24q0 -57 -8 -73h-12q-118 0 -198 76v-35z" />
    <glyph glyph-name="uniFBAC" unicode="&#x6be;" horiz-adv-x="1395" arabic-form="initial" 
d="M95 15h-102q-21 0 -32 16.5t-11 56.5v19q0 35 10.5 48.5t32.5 13.5h265h50h47l-39 27q-20 14 -36 28.5t-28 28.5q-74 85 -73 188q0 58 20 110.5t61 99.5q100 116 255 116q143 0 238 -90q80 -75 81 -192q0 -173 -151 -265l-35 -22l41 -6q162 -23 210 -23q36 0 63 3.5
t47 11.5q59 23 89 66.5t31 104.5q1 127 -141 257t-424 267l72 128q648 -319 642 -652q-1 -71 -22.5 -129.5t-64.5 -105.5q-93 -104 -292 -104q-154 -1 -379 70l-4 2l-4 -2q-241 -71 -417 -71zM631 322q73 69 76 155q0 58 -33 94q-58 64 -150 64q-28 0 -52 -6t-45 -18
t-38.5 -29.5t-31.5 -40.5q-26 -44 -27 -104q0 -70 66 -129q30 -27 65 -43q12 -6 25.5 -11t27.5 -8l5 -1l5 2q15 7 31 17q43 27 76 58z" />
    <glyph glyph-name="uniFBAD" unicode="&#x6be;" horiz-adv-x="992" arabic-form="medial" 
d="M588 -315q1 245 97.5 364.5t292.5 119.5h19q8 -13 8 -62v-19q0 -57 -8 -73h-21h-11t-10 -0.5t-10 -0.5q-133 -11 -190.5 -120.5t-41.5 -309.5l-110 -106q-324 159 -383 524l-2 13h-13h-212q-21 0 -32 16.5t-11 56.5v19q0 35 10.5 48.5t32.5 13.5h199h14l1 14
q19 394 149 534q78 83 192 83q115 0 182 -81q34 -41 50.5 -98.5t16.5 -132.5q-3 -165 -129 -312q-130 -154 -301 -162l-17 -1l3 -17q35 -210 212 -324l23 -15v28zM359 168q124 3 220 106q42 45 63.5 100.5t21.5 119.5q0 69 -29 107.5t-85 40.5q-64 2 -108 -51.5
t-67.5 -154.5t-30.5 -252l-1 -17z" />
    <glyph glyph-name="uniFBE8" unicode="&#x649;" horiz-adv-x="646" arabic-form="initial" 
d="M69 15h-76q-21 0 -32 16.5t-11 56.5v19q0 35 10.5 48.5t32.5 13.5h76q164 0 224 34q93 54 93 222q0 14 -0.5 29t-1.5 30t-2.5 30.5t-4 31.5t-5 32.5t-5.5 33t-6.5 33.5t-8.5 34l135 34q44 -147 44 -285q0 -238 -135 -339q-97 -74 -327 -74z" />
    <glyph glyph-name="uniFBE9" unicode="&#x649;" horiz-adv-x="717" arabic-form="medial" 
d="M730 88q0 -28 -2.5 -47.5t-5.5 -25.5h-7q-189 0 -259 133l-12 22l-14 -20q-95 -135 -334 -135h-104q-14 0 -22.5 6.5t-14 23t-5.5 43.5v19q0 35 10 48.5t32 13.5h99q243 0 270 144q7 37 7 86q0 51 -3 96l-5 67l135 16l15 -215q5 -64 30 -107t69.5 -65t107.5 -22h5
q8 -15 8 -71v-10z" />
    <glyph glyph-name="uniFBFC" unicode="&#x6cc;" horiz-adv-x="1504" arabic-form="isolated" 
d="M263 84q0 -83 19.5 -150.5t58 -118.5t96 -85t134 -51t170.5 -18q181 0 324 67q76 35 133 93q59 61 59 139q0 35 -25 53.5t-68 18.5l-114 1q-120 0 -177 45.5t-57 138.5q0 183 116 310q150 164 425 164h6v-163h-7q-165 0 -273 -76q-56 -39 -85.5 -88.5t-30.5 -107.5
q0 -17 5 -31t16 -24q21 -17 64 -17h119q114 1 168 -44.5t54 -139.5q0 -280 -279 -408q-166 -76 -378 -76q-208 0 -345 62.5t-205 187.5t-68 315q0 205 103 453l130 -54q-88 -218 -88 -396z" />
    <glyph glyph-name="uniFBFD" unicode="&#x6cc;" horiz-adv-x="1503" arabic-form="final" 
d="M1507 169q8 -11 8 -62v-19q0 -59 -8 -73h-140h-15h-23q55 -43 55 -128q0 -143 -174 -257q-51 -34 -107 -59t-117 -42q-60 -16 -125 -25q-65 -8 -135 -8q-307 0 -459 141q-151 141 -150 426q0 183 66 351l131 -55q-51 -145 -51 -297q0 -207 117 -313t345 -107
q174 0 323 67q118 53 169 131q26 39 26 75q0 88 -118 100q-10 1 -29 1h-152q-47 6 -65 82q-10 41 -10 59q0 8 1 12h637z" />
    <glyph glyph-name="uniFBFE" unicode="&#x6cc;" horiz-adv-x="682" arabic-form="initial" 
d="M69 15h-76q-21 0 -32 16.5t-11 56.5v19q0 35 10.5 48.5t32.5 13.5h76q164 0 224 34q93 54 93 222q0 14 -0.5 29t-1.5 30t-2.5 30.5t-4 31.5t-5 32.5t-5.5 33t-6.5 33.5t-8.5 34l135 34q44 -147 44 -285q0 -238 -135 -339q-97 -74 -327 -74zM314.935 -316.796
l133.743 133.743l134.813 -134.812l-133.743 -133.743zM-10.3291 -316.796l133.743 133.743l134.813 -134.812l-133.743 -133.743z" />
    <glyph glyph-name="uniFBFF" unicode="&#x6cc;" horiz-adv-x="717" arabic-form="medial" 
d="M314.935 -316.796l133.743 133.743l134.813 -134.812l-133.743 -133.743zM-10.3291 -316.796l133.743 133.743l134.813 -134.812l-133.743 -133.743zM730 88q0 -28 -2.5 -47.5t-5.5 -25.5h-7q-189 0 -259 133l-12 22l-14 -20q-95 -135 -334 -135h-104q-14 0 -22.5 6.5
t-14 23t-5.5 43.5v19q0 35 10 48.5t32 13.5h99q243 0 270 144q7 37 7 86q0 51 -3 96l-5 67l135 16l15 -215q5 -64 30 -107t69.5 -65t107.5 -22h5q8 -15 8 -71v-10z" />
    <glyph glyph-name="uniFDFC" unicode="&#xfdfc;" horiz-adv-x="3546" arabic-form="isolated" 
d="M1128 100l3 1293h142l-1 -1094q0 -139 -9 -269q-21 -270 -160 -402.5t-402 -132.5q-295 0 -439.5 135.5t-143.5 410.5q0 191 77 386l131 -54q-63 -167 -63 -335q0 -131 49.5 -219t147.5 -132.5t242 -44.5q210 0 317.5 115.5t108.5 342.5zM3138 454q76 -192 76 -356
q1 -265 -151 -426t-460 -222l-51 130q519 104 521 513q1 133 -73 311zM2093 15h-76q-21 0 -32 16.5t-11 56.5v19q0 35 10.5 48.5t32.5 13.5h76q164 0 224 34q93 54 93 222q0 14 -0.5 29t-1.5 30t-2.5 30.5t-4 31.5t-5 32.5t-5.5 33t-6.5 33.5t-8.5 34l135 34
q44 -147 44 -285q0 -238 -135 -339q-97 -74 -327 -74zM2180.93 -281.796l133.743 133.743l134.813 -134.812l-133.743 -133.743zM1855.67 -281.796l133.743 133.743l134.813 -134.812l-133.743 -133.743zM1987 88v-17q-1 -8 -1 -14q0 -7 -1 -13q0 -6 -1 -10q-1 -5 -2 -9
q0 -3 -1 -6l-2 -4h-18q-353 0 -353 419v959h144v-957q0 -267 212 -267h15q8 -11 8 -62v-19z" />
    <glyph glyph-name="uniFE71" unicode="&#xfe71;" horiz-adv-x="791" arabic-form="medial" 
d="M499 15q-21 0 -32 16.5t-11 56.5v19q0 35 10.5 48.5t32.5 13.5h299q8 -13 8 -62v-19q0 -28 -2.5 -47.5t-5.5 -25.5h-299zM241 15q-21 0 -32 16.5t-11 56.5v19q0 35 10.5 48.5t32.5 13.5h299q8 -13 8 -62v-19q0 -28 -2.5 -47.5t-5.5 -25.5h-299zM-7 15q-21 0 -32 16.5
t-11 56.5v19q0 35 10.5 48.5t32.5 13.5h299q8 -13 8 -62v-19q0 -28 -2.5 -47.5t-5.5 -25.5h-299zM53 1088v87l441 180v-87zM53 1300v87l441 180v-87z" />
    <glyph glyph-name="uniFE77" unicode="&#xfe77;" horiz-adv-x="791" arabic-form="medial" 
d="M499 15q-21 0 -32 16.5t-11 56.5v19q0 35 10.5 48.5t32.5 13.5h299q8 -13 8 -62v-19q0 -28 -2.5 -47.5t-5.5 -25.5h-299zM241 15q-21 0 -32 16.5t-11 56.5v19q0 35 10.5 48.5t32.5 13.5h299q8 -13 8 -62v-19q0 -28 -2.5 -47.5t-5.5 -25.5h-299zM-7 15q-21 0 -32 16.5
t-11 56.5v19q0 35 10.5 48.5t32.5 13.5h299q8 -13 8 -62v-19q0 -28 -2.5 -47.5t-5.5 -25.5h-299zM23 1360v88l440 180v-88z" />
    <glyph glyph-name="uniFE79" unicode="&#xfe79;" horiz-adv-x="791" arabic-form="medial" 
d="M499 15q-21 0 -32 16.5t-11 56.5v19q0 35 10.5 48.5t32.5 13.5h299q8 -13 8 -62v-19q0 -28 -2.5 -47.5t-5.5 -25.5h-299zM241 15q-21 0 -32 16.5t-11 56.5v19q0 35 10.5 48.5t32.5 13.5h299q8 -13 8 -62v-19q0 -28 -2.5 -47.5t-5.5 -25.5h-299zM-7 15q-21 0 -32 16.5
t-11 56.5v19q0 35 10.5 48.5t32.5 13.5h299q8 -13 8 -62v-19q0 -28 -2.5 -47.5t-5.5 -25.5h-299zM524 1472q-28 0 -50 1t-40 3l-31 5h-5l-2 -4q-122 -172 -351 -186v63q185 10 276 139l7 10l-12 2q-42 9 -87 33q-82 46 -82 127q0 62 34 103q44 52 121 52q58 0 101 -34
q31 -25 45 -61q9 -27 9 -60q0 -56 -25 -116l-4 -9l10 -1l20 -2q35 -3 66 -2v-63zM366 1557l6 14q21 49 22 93q-1 45 -28 67q-9 8 -18.5 13t-20 8t-21.5 3q-49 1 -76 -35q-18 -24 -19 -58q1 -52 71 -84q23 -11 75 -25l6 -2z" />
    <glyph glyph-name="uniFE7B" unicode="&#xfe7b;" horiz-adv-x="791" arabic-form="medial" 
d="M499 15q-21 0 -32 16.5t-11 56.5v19q0 35 10.5 48.5t32.5 13.5h299q8 -13 8 -62v-19q0 -28 -2.5 -47.5t-5.5 -25.5h-299zM241 15q-21 0 -32 16.5t-11 56.5v19q0 35 10.5 48.5t32.5 13.5h299q8 -13 8 -62v-19q0 -28 -2.5 -47.5t-5.5 -25.5h-299zM-7 15q-21 0 -32 16.5
t-11 56.5v19q0 35 10.5 48.5t32.5 13.5h299q8 -13 8 -62v-19q0 -28 -2.5 -47.5t-5.5 -25.5h-299zM69 -440v87l441 180v-87z" />
    <glyph glyph-name="uniFE7D" unicode="&#xfe7d;" horiz-adv-x="791" arabic-form="medial" 
d="M499 15q-21 0 -32 16.5t-11 56.5v19q0 35 10.5 48.5t32.5 13.5h299q8 -13 8 -62v-19q0 -28 -2.5 -47.5t-5.5 -25.5h-299zM241 15q-21 0 -32 16.5t-11 56.5v19q0 35 10.5 48.5t32.5 13.5h299q8 -13 8 -62v-19q0 -28 -2.5 -47.5t-5.5 -25.5h-299zM-7 15q-21 0 -32 16.5
t-11 56.5v19q0 35 10.5 48.5t32.5 13.5h299q8 -13 8 -62v-19q0 -28 -2.5 -47.5t-5.5 -25.5h-299zM320 1761q1 -20 1.5 -38t0.5 -37q0 -100 74 -99q19 0 34 7.5t24.5 21t14.5 33.5t5 46q0 8 -0.5 17t-2 19.5t-3 22.5t-4 25t-5.5 28l74 11q15 -57 15 -113q0 -33 -4 -60.5
t-11.5 -49t-19 -38t-27 -27t-34.5 -16t-43 -5.5q-60 0 -100 51l-10 12l-3 -15q-29 -111 -145 -112q-64 1 -96.5 40.5t-33.5 121.5q-1 54 11 100l63 -10q-8 -43 -8 -77q0 -22 5 -39t14.5 -28.5t23.5 -17.5t33 -7q17 0 32 5t26 15t18.5 25t12 34t4.5 42q2 48 2 112h62z" />
    <glyph glyph-name="uniFE7F" unicode="&#xfe7f;" horiz-adv-x="791" arabic-form="medial" 
d="M499 15q-21 0 -32 16.5t-11 56.5v19q0 35 10.5 48.5t32.5 13.5h299q8 -13 8 -62v-19q0 -28 -2.5 -47.5t-5.5 -25.5h-299zM241 15q-21 0 -32 16.5t-11 56.5v19q0 35 10.5 48.5t32.5 13.5h299q8 -13 8 -62v-19q0 -28 -2.5 -47.5t-5.5 -25.5h-299zM-7 15q-21 0 -32 16.5
t-11 56.5v19q0 35 10.5 48.5t32.5 13.5h299q8 -13 8 -62v-19q0 -28 -2.5 -47.5t-5.5 -25.5h-299zM125 1461.5q0 39.5 13.5 73t40.5 60.5q55 54 133.5 54t133.5 -54q27 -27 40.5 -60.5t13.5 -72.5q0 -20 -3.5 -38t-10 -35t-17 -32t-23.5 -29q-55 -54 -133.5 -54t-133.5 54
q-27 28 -40.5 61t-13.5 72.5zM196 1461q0 -50 35 -85q34 -34 84 -34t85 34q17 17 25.5 38.5t8.5 46.5q0 50 -34 84q-35 35 -85 35t-84 -35q-35 -34 -35 -84z" />
    <glyph glyph-name="uniFE80" unicode="&#x621;" horiz-adv-x="868" arabic-form="isolated" 
d="M133 37v145q105 67 188 91l36 11l-33 17q-171 89 -171 240q0 32 4.5 61.5t13 55.5t21.5 48.5t29 42.5q49 56 112.5 84t141.5 28q39 0 74 -5t65 -15t55 -25t46 -34l-46 -111q-39 24 -84.5 36.5t-97.5 12.5q-93 -1 -148 -54q-25 -24 -37.5 -55.5t-12.5 -69.5
q0 -52 46 -97.5t135 -85.5l5 -2l5 1l237 53l23 -141q-244 -34 -607 -232z" />
    <glyph glyph-name="uniFE81" unicode="&#x622;" horiz-adv-x="633" arabic-form="isolated" 
d="M254 1252.54h143v-1238.16h-143v1238.16zM253 1466q-22 3 -44 1.5t-42.5 -8.5t-41 -18.5t-39.5 -27.5t-37 -37l-92 96q115 161 278 135l148 -24q97 -16 218 43l59 -124q-124 -75 -266 -55z" />
    <glyph glyph-name="uniFE82" unicode="&#x622;" horiz-adv-x="531" arabic-form="final" 
d="M253 1466q-22 3 -44 1.5t-42.5 -8.5t-41 -18.5t-39.5 -27.5t-37 -37l-92 96q115 161 278 135l148 -24q97 -16 218 43l59 -124q-124 -75 -266 -55zM544 88v-17q-1 -8 -1 -14q0 -7 -1 -13q0 -6 -1 -10q-1 -5 -2 -9q0 -3 -1 -6l-2 -4h-18q-353 0 -353 419v779h144v-777
q0 -267 212 -267h15q8 -11 8 -62v-19z" />
    <glyph glyph-name="uniFE83" unicode="&#x623;" horiz-adv-x="477" arabic-form="isolated" 
d="M171 1191.88h143v-1176.22h-143v1176.22zM128 1429q-71 55 -71 155q0 85 57 145q34 35 77 53q42 18 95 18q70 0 133 -40l1 -113q-59 35 -120 35q-13 0 -25 -2q-12 -1 -23 -4t-20 -7q-10 -5 -18 -11q-9 -5 -16 -13q-31 -31 -30 -74q0 -10 3 -19q2 -9 6 -17t11 -15
q6 -8 14 -15t18 -13t22 -12q12 -5 25 -10q15 -6 28 -3q66 13 131 25v-110l-391 -94v107l90 21l16 4z" />
    <glyph glyph-name="uniFE84" unicode="&#x623;" horiz-adv-x="571" arabic-form="final" 
d="M138 1459q-71 55 -71 155q0 85 57 145q34 35 77 53q42 18 95 18q70 0 133 -40l1 -113q-59 35 -120 35q-13 0 -25 -2q-12 -1 -23 -4t-20 -7q-10 -5 -18 -11q-9 -5 -16 -13q-31 -31 -30 -74q0 -10 3 -19q2 -9 6 -17t11 -15q6 -8 14 -15t18 -13t22 -12q12 -5 25 -10
q15 -6 28 -3q66 13 131 25v-110l-391 -94v107l90 21l16 4zM544 88v-17q-1 -8 -1 -14q0 -7 -1 -13q0 -6 -1 -10q-1 -5 -2 -9q0 -3 -1 -6l-2 -4h-18q-353 0 -353 419v779h144v-777q0 -267 212 -267h15q8 -11 8 -62v-19z" />
    <glyph glyph-name="uniFE85" unicode="&#x624;" horiz-adv-x="860" arabic-form="isolated" 
d="M306 986q-71 55 -71 155q0 85 57 145q34 35 77 53q42 18 95 18q70 0 133 -40l1 -113q-59 35 -120 35q-13 0 -25 -2q-12 -1 -23 -4t-20 -7q-10 -5 -18 -11q-9 -5 -16 -13q-31 -31 -30 -74q0 -10 3 -19q2 -9 6 -17t11 -15q6 -8 14 -15t18 -13t22 -12q12 -5 25 -10
q15 -6 28 -3q66 13 131 25v-110l-391 -94v107l90 21l16 4zM122 -361q141 28 244 78t168 123t91 169l6 22l-23 -3q-23 -3 -43.5 -5.5t-37.5 -4t-30 -3t-23 -2t-16 -0.5q-178 -1 -264 69.5t-86 215.5q0 118 50 223q90 188 271 188q196 0 280 -219q57 -147 57 -322
q0 -272 -147.5 -436t-445.5 -223zM626 203q-11 170 -62.5 258.5t-146.5 88.5q-107 0 -151 -130q-19 -57 -19 -107q0 -76 55 -114t157 -38q75 1 156 26l11 4v12z" />
    <glyph glyph-name="uniFE86" unicode="&#x624;" horiz-adv-x="873" arabic-form="final" 
d="M605 15h-146q-179 0 -265 70.5t-86 212.5q0 118 50 223q90 188 271 188q299 0 334 -527l1 -14h14h100q8 -15 8 -70v-10q0 -57 -8 -73l-112 1h-13l-2 -12q-72 -394 -578 -495l-51 130q425 84 498 357l5 19h-20zM626 185q-24 364 -208 365q-36 0 -65 -15t-50.5 -44
t-36.5 -71q-19 -55 -19 -107q0 -48 24 -80.5t69 -48t109 -15.5h162h16zM306 986q-71 55 -71 155q0 85 57 145q34 35 77 53q42 18 95 18q70 0 133 -40l1 -113q-59 35 -120 35q-13 0 -25 -2q-12 -1 -23 -4t-20 -7q-10 -5 -18 -11q-9 -5 -16 -13q-31 -31 -30 -74q0 -10 3 -19
q2 -9 6 -17t11 -15q6 -8 14 -15t18 -13t22 -12q12 -5 25 -10q15 -6 28 -3q66 13 131 25v-110l-391 -94v107l90 21l16 4z" />
    <glyph glyph-name="uniFE87" unicode="&#x625;" horiz-adv-x="477" arabic-form="isolated" 
d="M133 -505q-71 55 -71 155q0 85 57 145q34 35 77 53q42 18 95 18q70 0 133 -40l1 -113q-59 35 -120 35q-13 0 -25 -2q-12 -1 -23 -4t-20 -7q-10 -5 -18 -11q-9 -5 -16 -13q-31 -31 -30 -74q0 -10 3 -19q2 -9 6 -17t11 -15q6 -8 14 -15t18 -13t22 -12q12 -5 25 -10
q15 -6 28 -3q66 13 131 25v-110l-391 -94v107l90 21l16 4zM166 1393h143v-1377h-143v1377z" />
    <glyph glyph-name="uniFE88" unicode="&#x625;" horiz-adv-x="531" arabic-form="final" 
d="M544 88v-17q-1 -8 -1 -14q0 -7 -1 -13q0 -6 -1 -10q-1 -5 -2 -9q0 -3 -1 -6l-2 -4h-18q-353 0 -353 419v959h144v-957q0 -267 212 -267h15q8 -11 8 -62v-19zM202 -499q-71 55 -71 155q0 85 57 145q34 35 77 53q42 18 95 18q70 0 133 -40l1 -113q-59 35 -120 35
q-13 0 -25 -2q-12 -1 -23 -4t-20 -7q-10 -5 -18 -11q-9 -5 -16 -13q-31 -31 -30 -74q0 -10 3 -19q2 -9 6 -17t11 -15q6 -8 14 -15t18 -13t22 -12q12 -5 25 -10q15 -6 28 -3q66 13 131 25v-110l-391 -94v107l90 21l16 4z" />
    <glyph glyph-name="uniFE89" unicode="&#x626;" horiz-adv-x="1504" arabic-form="isolated" 
d="M480 794q-71 55 -71 155q0 85 57 145q34 35 77 53q42 18 95 18q70 0 133 -40l1 -113q-59 35 -120 35q-13 0 -25 -2q-12 -1 -23 -4t-20 -7q-10 -5 -18 -11q-9 -5 -16 -13q-31 -31 -30 -74q0 -10 3 -19q2 -9 6 -17t11 -15q6 -8 14 -15t18 -13t22 -12q12 -5 25 -10
q15 -6 28 -3q66 13 131 25v-110l-391 -94v107l90 21l16 4zM263 84q0 -83 19.5 -150.5t58 -118.5t96 -85t134 -51t170.5 -18q181 0 324 67q76 35 133 93q59 61 59 139q0 35 -25 53.5t-68 18.5l-114 1q-120 0 -177 45.5t-57 138.5q0 183 116 310q150 164 425 164h6v-163h-7
q-165 0 -273 -76q-56 -39 -85.5 -88.5t-30.5 -107.5q0 -17 5 -31t16 -24q21 -17 64 -17h119q114 1 168 -44.5t54 -139.5q0 -280 -279 -408q-166 -76 -378 -76q-208 0 -345 62.5t-205 187.5t-68 315q0 205 103 453l130 -54q-88 -218 -88 -396z" />
    <glyph glyph-name="uniFE8A" unicode="&#x626;" horiz-adv-x="1503" arabic-form="final" 
d="M1507 169q8 -11 8 -62v-19q0 -59 -8 -73h-140h-15h-23q55 -43 55 -128q0 -143 -174 -257q-51 -34 -107 -59t-117 -42q-60 -16 -125 -25q-65 -8 -135 -8q-307 0 -459 141q-151 141 -150 426q0 183 66 351l131 -55q-51 -145 -51 -297q0 -207 117 -313t345 -107
q174 0 323 67q118 53 169 131q26 39 26 75q0 88 -118 100q-10 1 -29 1h-152q-47 6 -65 82q-10 41 -10 59q0 8 1 12h637zM509 601q-71 55 -71 155q0 85 57 145q34 35 77 53q42 18 95 18q70 0 133 -40l1 -113q-59 35 -120 35q-13 0 -25 -2q-12 -1 -23 -4t-20 -7
q-10 -5 -18 -11q-9 -5 -16 -13q-31 -31 -30 -74q0 -10 3 -19q2 -9 6 -17t11 -15q6 -8 14 -15t18 -13t22 -12q12 -5 25 -10q15 -6 28 -3q66 13 131 25v-110l-391 -94v107l90 21l16 4z" />
    <glyph glyph-name="uniFE8B" unicode="&#x626;" horiz-adv-x="596" arabic-form="initial" 
d="M69 15h-76q-21 0 -32 16.5t-11 56.5v19q0 35 10.5 48.5t32.5 13.5h76q57 0 100 8.5t74 25.5q32 19 52.5 50.5t30.5 74t10 97.5q0 115 -34 254l135 34q44 -147 44 -285q0 -238 -135 -339q-97 -74 -277 -74zM137 968q-71 55 -71 155q0 85 57 145q34 35 77 53q42 18 95 18
q70 0 133 -40l1 -113q-59 35 -120 35q-13 0 -25 -2q-12 -1 -23 -4t-20 -7q-10 -5 -18 -11q-9 -5 -16 -13q-31 -31 -30 -74q0 -10 3 -19q2 -9 6 -17t11 -15q6 -8 14 -15t18 -13t22 -12q12 -5 25 -10q15 -6 28 -3q66 13 131 25v-110l-391 -94v107l90 21l16 4z" />
    <glyph glyph-name="uniFE8C" unicode="&#x626;" horiz-adv-x="665" arabic-form="medial" 
d="M680 88q0 -28 -2.5 -47.5t-5.5 -25.5h-7q-189 0 -259 133l-12 22l-14 -20q-95 -135 -284 -135h-104q-14 0 -22.5 6.5t-14 23t-5.5 43.5v19q0 35 10 48.5t32 13.5h99q193 0 220 144q7 37 7 86q0 51 -3 96l-5 67l135 16l15 -215q7 -95 59.5 -144.5t147.5 -49.5h5
q8 -15 8 -71v-10zM164 862q-71 55 -71 155q0 85 57 145q34 35 77 53q42 18 95 18q70 0 133 -40l1 -113q-59 35 -120 35q-13 0 -25 -2q-12 -1 -23 -4t-20 -7q-10 -5 -18 -11q-9 -5 -16 -13q-31 -31 -30 -74q0 -10 3 -19q2 -9 6 -17t11 -15q6 -8 14 -15t18 -13t22 -12
q12 -5 25 -10q15 -6 28 -3q66 13 131 25v-110l-391 -94v107l90 21l16 4z" />
    <glyph glyph-name="uniFE8D" unicode="&#x627;" horiz-adv-x="477" arabic-form="isolated" 
d="M166 1393h143v-1377h-143v1377z" />
    <glyph glyph-name="uniFE8E" unicode="&#x627;" horiz-adv-x="531" arabic-form="final" 
d="M544 88v-17q-1 -8 -1 -14q0 -7 -1 -13q0 -6 -1 -10q-1 -5 -2 -9q0 -3 -1 -6l-2 -4h-18q-353 0 -353 419v959h144v-957q0 -267 212 -267h15q8 -11 8 -62v-19z" />
    <glyph glyph-name="uniFE8F" unicode="&#x628;" horiz-adv-x="1807" arabic-form="isolated" 
d="M861 15q-377 0 -561 118q-185 118 -185 353q0 124 47 237l131 -47q-29 -79 -29 -162q0 -49 13 -92q12 -43 36 -78t60 -63q36 -29 83.5 -49.5t106.5 -34.5t128 -21q70 -7 151 -7q506 0 640 99q71 51 71 177q0 87 -33 235l135 34q23 -71 34 -134t11 -120q0 -229 -132 -321
q-177 -124 -704 -124h-3zM803.972 -316.796l133.743 133.743l134.813 -134.812l-133.743 -133.743z" />
    <glyph glyph-name="uniFE90" unicode="&#x628;" horiz-adv-x="1901" arabic-form="final" 
d="M860 15q-377 0 -561 118q-185 118 -185 353q0 124 47 237l131 -47q-29 -80 -29 -163q0 -344 592 -344q526 0 654 135q38 40 38 132q0 35 -2 58l-4 67l135 16l15 -199q16 -209 205 -209h11q3 -5 5 -22t2 -40v-19q0 -57 -8 -73h-10q-202 0 -287 169l-9 19l-15 -16
q-53 -56 -150 -94t-241 -58q-143 -20 -330 -20h-4zM773.972 -316.796l133.743 133.743l134.813 -134.812l-133.743 -133.743z" />
    <glyph glyph-name="uniFE91" unicode="&#x628;" horiz-adv-x="596" arabic-form="initial" 
d="M69 15h-76q-21 0 -32 16.5t-11 56.5v19q0 35 10.5 48.5t32.5 13.5h76q57 0 100 8.5t74 25.5q32 19 52.5 50.5t30.5 74t10 97.5q0 115 -34 254l135 34q44 -147 44 -285q0 -238 -135 -339q-97 -74 -277 -74zM83.9717 -316.796l133.743 133.743l134.813 -134.812
l-133.743 -133.743z" />
    <glyph glyph-name="uniFE92" unicode="&#x628;" horiz-adv-x="667" arabic-form="medial" 
d="M680 88q0 -28 -2.5 -47.5t-5.5 -25.5h-7q-189 0 -259 133l-12 22l-14 -20q-95 -135 -284 -135h-104q-14 0 -22.5 6.5t-14 23t-5.5 43.5v19q0 35 10 48.5t32 13.5h99q193 0 220 144q7 37 7 86q0 51 -3 96l-5 67l135 16l15 -215q7 -95 59.5 -144.5t147.5 -49.5h5
q8 -15 8 -71v-10zM122.972 -316.796l133.743 133.743l134.813 -134.812l-133.743 -133.743z" />
    <glyph glyph-name="uniFE93" unicode="&#x629;" horiz-adv-x="942" arabic-form="isolated" 
d="M452 655q-195 -170 -195 -304q0 -36 9 -65t27 -51t44.5 -36.5t61 -22t76.5 -7.5q108 0 164.5 46.5t55.5 136.5q0 125 -224 304l-10 8zM387 927q449 -333 449 -581q0 -181 -158 -279q-37 -23 -87.5 -35t-114.5 -13q-117 0 -200 41q-160 80 -160 286q0 201 223 418l12 11
l-12 11l-35 30zM493.935 1260.2l133.743 133.743l134.813 -134.812l-133.743 -133.743zM168.671 1260.2l133.743 133.743l134.813 -134.812l-133.743 -133.743z" />
    <glyph glyph-name="uniFE94" unicode="&#x629;" horiz-adv-x="1053" arabic-form="final" 
d="M116 406q0 283 508 439l13 4l-2 13l-6 31l132 28l80 -576q8 -57 33.5 -96.5t67.5 -59.5t100 -20h18q7 -12 7 -57v-24q0 -28 -2.5 -47.5t-5.5 -25.5h-21q-133 0 -209 53.5t-100 161.5l-5 25l-19 -17q-39 -34 -80.5 -56.5t-86 -33.5t-92.5 -11q-215 0 -298 139
q-6 10 -11 21.5t-9 24t-6.5 26t-4 28t-1.5 30.5zM636 707q-185 -67 -278.5 -138t-93.5 -151q0 -68 45.5 -102.5t130.5 -34.5q40 0 81 12.5t81 36.5q104 64 82 205l-20 133l-5 28l-2 18l-18 -6zM622.935 1224.2l133.743 133.743l134.813 -134.812l-133.743 -133.743z
M297.671 1224.2l133.743 133.743l134.813 -134.812l-133.743 -133.743z" />
    <glyph glyph-name="uniFE95" unicode="&#x62a;" horiz-adv-x="1807" arabic-form="isolated" 
d="M861 15q-377 0 -561 118q-185 118 -185 353q0 124 47 237l131 -47q-29 -79 -29 -162q0 -49 13 -92q12 -43 36 -78t60 -63q36 -29 83.5 -49.5t106.5 -34.5t128 -21q70 -7 151 -7q506 0 640 99q71 51 71 177q0 87 -33 235l135 34q23 -71 34 -134t11 -120q0 -229 -132 -321
q-177 -124 -704 -124h-3zM938.935 942.204l133.743 133.743l134.813 -134.812l-133.743 -133.743zM613.671 942.204l133.743 133.743l134.813 -134.812l-133.743 -133.743z" />
    <glyph glyph-name="uniFE96" unicode="&#x62a;" horiz-adv-x="1901" arabic-form="final" 
d="M860 15q-377 0 -561 118q-185 118 -185 353q0 124 47 237l131 -47q-29 -80 -29 -163q0 -344 592 -344q526 0 654 135q38 40 38 132q0 35 -2 58l-4 67l135 16l15 -199q16 -209 205 -209h11q3 -5 5 -22t2 -40v-19q0 -57 -8 -73h-10q-202 0 -287 169l-9 19l-15 -16
q-53 -56 -150 -94t-241 -58q-143 -20 -330 -20h-4zM951.935 942.204l133.743 133.743l134.813 -134.812l-133.743 -133.743zM626.671 942.204l133.743 133.743l134.813 -134.812l-133.743 -133.743z" />
    <glyph glyph-name="uniFE97" unicode="&#x62a;" horiz-adv-x="699" arabic-form="initial" 
d="M69 15h-76q-21 0 -32 16.5t-11 56.5v19q0 35 10.5 48.5t32.5 13.5h76q164 0 224 34q93 54 93 222q0 14 -0.5 29t-1.5 30t-2.5 30.5t-4 31.5t-5 32.5t-5.5 33t-6.5 33.5t-8.5 34l135 34q44 -147 44 -285q0 -238 -135 -339q-97 -74 -327 -74zM330.935 1045.2
l133.743 133.743l134.813 -134.812l-133.743 -133.743zM5.6709 1045.2l133.743 133.743l134.813 -134.812l-133.743 -133.743z" />
    <glyph glyph-name="uniFE98" unicode="&#x62a;" horiz-adv-x="717" arabic-form="medial" 
d="M730 88q0 -28 -2.5 -47.5t-5.5 -25.5h-7q-189 0 -259 133l-12 22l-14 -20q-95 -135 -334 -135h-104q-14 0 -22.5 6.5t-14 23t-5.5 43.5v19q0 35 10 48.5t32 13.5h99q243 0 270 144q7 37 7 86q0 51 -3 96l-5 67l135 16l15 -215q5 -64 30 -107t69.5 -65t107.5 -22h5
q8 -15 8 -71v-10zM327.935 962.204l133.743 133.743l134.813 -134.812l-133.743 -133.743zM2.6709 962.204l133.743 133.743l134.813 -134.812l-133.743 -133.743z" />
    <glyph glyph-name="uniFE99" unicode="&#x62b;" horiz-adv-x="1807" arabic-form="isolated" 
d="M861 15q-377 0 -561 118q-185 118 -185 353q0 124 47 237l131 -47q-29 -79 -29 -162q0 -49 13 -92q12 -43 36 -78t60 -63q36 -29 83.5 -49.5t106.5 -34.5t128 -21q70 -7 151 -7q506 0 640 99q71 51 71 177q0 87 -33 235l135 34q23 -71 34 -134t11 -120q0 -229 -132 -321
q-177 -124 -704 -124h-3zM777.373 1148.43l130.533 130.534l131.604 -131.604l-130.533 -130.534zM942.145 879.875l130.533 130.534l131.604 -131.604l-130.533 -130.533zM616.881 879.875l130.533 130.534l131.604 -131.604l-130.533 -130.533z" />
    <glyph glyph-name="uniFE9A" unicode="&#x62b;" horiz-adv-x="1901" arabic-form="final" 
d="M860 15q-377 0 -561 118q-185 118 -185 353q0 124 47 237l131 -47q-29 -80 -29 -163q0 -344 592 -344q526 0 654 135q38 40 38 132q0 35 -2 58l-4 67l135 16l15 -199q16 -209 205 -209h11q3 -5 5 -22t2 -40v-19q0 -57 -8 -73h-10q-202 0 -287 169l-9 19l-15 -16
q-53 -56 -150 -94t-241 -58q-143 -20 -330 -20h-4zM786.373 1146.43l130.533 130.534l131.604 -131.604l-130.533 -130.534zM951.145 877.875l130.533 130.534l131.604 -131.604l-130.533 -130.533zM625.881 877.875l130.533 130.534l131.604 -131.604l-130.533 -130.533z
" />
    <glyph glyph-name="uniFE9B" unicode="&#x62b;" horiz-adv-x="678" arabic-form="initial" 
d="M69 15h-76q-21 0 -32 16.5t-11 56.5v19q0 35 10.5 48.5t32.5 13.5h76q164 0 224 34q93 54 93 222q0 14 -0.5 29t-1.5 30t-2.5 30.5t-4 31.5t-5 32.5t-5.5 33t-6.5 33.5t-8.5 34l135 34q44 -147 44 -285q0 -238 -135 -339q-97 -74 -327 -74zM151.373 1299.43
l130.533 130.534l131.604 -131.604l-130.533 -130.534zM316.145 1030.88l130.533 130.534l131.604 -131.604l-130.533 -130.533zM-9.11914 1030.88l130.533 130.534l131.604 -131.604l-130.533 -130.533z" />
    <glyph glyph-name="uniFE9C" unicode="&#x62b;" horiz-adv-x="717" arabic-form="medial" 
d="M730 88q0 -28 -2.5 -47.5t-5.5 -25.5h-7q-189 0 -259 133l-12 22l-14 -20q-95 -135 -334 -135h-104q-14 0 -22.5 6.5t-14 23t-5.5 43.5v19q0 35 10 48.5t32 13.5h99q243 0 270 144q7 37 7 86q0 51 -3 96l-5 67l135 16l15 -215q5 -64 30 -107t69.5 -65t107.5 -22h5
q8 -15 8 -71v-10zM156.373 1202.43l130.533 130.534l131.604 -131.604l-130.533 -130.534zM321.145 933.875l130.533 130.534l131.604 -131.604l-130.533 -130.533zM-4.11914 933.875l130.533 130.534l131.604 -131.604l-130.533 -130.533z" />
    <glyph glyph-name="uniFE9D" unicode="&#x62c;" horiz-adv-x="1366" arabic-form="isolated" 
d="M140 -145q0 287 175 468.5t529 259.5l10 2l49 11l-47 18q-8 3 -23.5 9.5t-38 15t-51.5 20.5q-198 80 -273 80q-121 0 -198 -100l-21 -26l-128 63l8 14q121 200 340 201q124 0 297 -84q151 -74 269 -114t205 -46l-11 -146q-169 -11 -282 -37q-669 -155 -669 -593
q0 -192 138.5 -288t407.5 -96q211 0 406 89l30 -144q-97 -45 -209 -67.5t-241 -22.5q-193 0 -329.5 44t-217.5 132q-42 45 -69.5 97t-41.5 112t-14 128zM670.972 -64.7959l133.743 133.743l134.813 -134.812l-133.743 -133.743z" />
    <glyph glyph-name="uniFE9E" unicode="&#x62c;" horiz-adv-x="1386" arabic-form="final" 
d="M1242 647l-11 -146q-97 -8 -183 -20l-13 -2v-13v-8q0 -95 33.5 -159.5t99.5 -97t163 -32.5h61q1 -2 2.5 -7t2.5 -12t1.5 -17t0.5 -21v-24q0 -57 -8 -73h-60q-211 0 -315 101t-105 308v12v19l-18 -5q-613 -153 -613 -579q0 -192 138.5 -288t407.5 -96q211 0 406 89
l30 -144q-48 -22 -100.5 -39t-108.5 -28.5t-116.5 -17t-124.5 -5.5q-193 0 -329.5 44t-217.5 132q-125 135 -125 337q0 287 175 468.5t529 259.5l10 2l49 11l-47 18q-8 3 -23.5 9.5t-38 15t-51.5 20.5q-198 80 -273 80q-121 0 -198 -100l-21 -26l-128 63l8 14
q122 201 341 201q123 0 296 -84q101 -49 186.5 -83t157.5 -53.5t130 -23.5zM577.972 -104.796l133.743 133.743l134.813 -134.812l-133.743 -133.743z" />
    <glyph glyph-name="uniFE9F" unicode="&#x62c;" horiz-adv-x="1337" arabic-form="initial" 
d="M572.972 -316.796l133.743 133.743l134.813 -134.812l-133.743 -133.743zM-7 15q-21 0 -32 16.5t-11 56.5v19q0 35 10.5 48.5t32.5 13.5h60q334 0 823 253l74 38l34 17l-37 10q-12 4 -67 25.5t-148 58.5q-100 40 -166.5 60t-105.5 20q-60 0 -110 -25t-88 -75l-21 -26
l-128 63l8 14q25 40 53 72t60 56.5t68 40.5t75.5 24t83.5 8q124 0 297 -84q302 -148 475 -160l-2 -147q-25 -3 -56.5 -12.5t-69.5 -24t-83 -34.5t-96.5 -45t-110.5 -57q-426 -224 -774 -224h-48z" />
    <glyph glyph-name="uniFEA0" unicode="&#x62c;" horiz-adv-x="1351" arabic-form="medial" 
d="M573.972 -316.796l133.743 133.743l134.813 -134.812l-133.743 -133.743zM947 487q-23 6 -215 84q-100 40 -166.5 60t-105.5 20q-60 0 -110 -25t-88 -75l-21 -26l-128 63l8 14q25 40 53 72t60 56.5t68 40.5t75.5 24t83.5 8q124 0 297 -84q302 -148 475 -160l-2 -146
q-82 -11 -199 -70l-8 -4v-9q4 -161 293 -161h41q8 -12 8 -57v-24q0 -57 -8 -73h-57q-179 0 -273 63.5t-109 191.5l-3 21l-19 -9q-13 -7 -26.5 -13.5t-27.5 -14t-28 -15.5q-426 -224 -774 -224h-48q-21 0 -32 16.5t-11 56.5v19q0 35 10.5 48.5t32.5 13.5h60q334 0 823 253
l74 38l35 18z" />
    <glyph glyph-name="uniFEA1" unicode="&#x62d;" horiz-adv-x="1386" arabic-form="isolated" 
d="M140 -145q0 287 175 468.5t529 259.5l10 2l49 11l-47 18q-8 3 -23.5 9.5t-38 15t-51.5 20.5q-198 80 -273 80q-121 0 -198 -100l-21 -26l-128 63l8 14q121 200 340 201q124 0 297 -84q151 -74 269 -114t205 -46l-11 -146q-169 -11 -282 -37q-669 -155 -669 -593
q0 -192 138.5 -288t407.5 -96q211 0 406 89l30 -144q-97 -45 -209 -67.5t-241 -22.5q-193 0 -329.5 44t-217.5 132q-42 45 -69.5 97t-41.5 112t-14 128z" />
    <glyph glyph-name="uniFEA2" unicode="&#x62d;" horiz-adv-x="1386" arabic-form="final" 
d="M1242 647l-11 -146q-97 -8 -183 -20l-13 -2v-13v-8q0 -95 33.5 -159.5t99.5 -97t163 -32.5h61q1 -2 2.5 -7t2.5 -12t1.5 -17t0.5 -21v-24q0 -57 -8 -73h-60q-211 0 -315 101t-105 308v12v19l-18 -5q-613 -153 -613 -579q0 -192 138.5 -288t407.5 -96q211 0 406 89
l30 -144q-48 -22 -100.5 -39t-108.5 -28.5t-116.5 -17t-124.5 -5.5q-193 0 -329.5 44t-217.5 132q-125 135 -125 337q0 287 175 468.5t529 259.5l10 2l49 11l-47 18q-8 3 -23.5 9.5t-38 15t-51.5 20.5q-198 80 -273 80q-121 0 -198 -100l-21 -26l-128 63l8 14
q122 201 341 201q123 0 296 -84q101 -49 186.5 -83t157.5 -53.5t130 -23.5z" />
    <glyph glyph-name="uniFEA3" unicode="&#x62d;" horiz-adv-x="1337" arabic-form="initial" 
d="M-7 15q-21 0 -32 16.5t-11 56.5v19q0 35 10.5 48.5t32.5 13.5h60q334 0 823 253l74 38l34 17l-37 10q-12 4 -67 25.5t-148 58.5q-100 40 -166.5 60t-105.5 20q-60 0 -110 -25t-88 -75l-21 -26l-128 63l8 14q25 40 53 72t60 56.5t68 40.5t75.5 24t83.5 8q124 0 297 -84
q302 -148 475 -160l-2 -147q-25 -3 -56.5 -12.5t-69.5 -24t-83 -34.5t-96.5 -45t-110.5 -57q-426 -224 -774 -224h-48z" />
    <glyph glyph-name="uniFEA4" unicode="&#x62d;" horiz-adv-x="1351" arabic-form="medial" 
d="M947 487q-23 6 -215 84q-100 40 -166.5 60t-105.5 20q-60 0 -110 -25t-88 -75l-21 -26l-128 63l8 14q25 40 53 72t60 56.5t68 40.5t75.5 24t83.5 8q124 0 297 -84q302 -148 475 -160l-2 -146q-82 -11 -199 -70l-8 -4v-9q4 -161 293 -161h41q8 -12 8 -57v-24q0 -57 -8 -73
h-57q-179 0 -273 63.5t-109 191.5l-3 21l-19 -9q-13 -7 -26.5 -13.5t-27.5 -14t-28 -15.5q-426 -224 -774 -224h-48q-21 0 -32 16.5t-11 56.5v19q0 35 10.5 48.5t32.5 13.5h60q334 0 823 253l74 38l35 18z" />
    <glyph glyph-name="uniFEA5" unicode="&#x62e;" horiz-adv-x="1386" arabic-form="isolated" 
d="M445.972 1238.2l133.743 133.743l134.813 -134.812l-133.743 -133.743zM140 -145q0 287 175 468.5t529 259.5l10 2l49 11l-47 18q-8 3 -23.5 9.5t-38 15t-51.5 20.5q-198 80 -273 80q-121 0 -198 -100l-21 -26l-128 63l8 14q121 200 340 201q124 0 297 -84
q151 -74 269 -114t205 -46l-11 -146q-169 -11 -282 -37q-669 -155 -669 -593q0 -192 138.5 -288t407.5 -96q211 0 406 89l30 -144q-97 -45 -209 -67.5t-241 -22.5q-193 0 -329.5 44t-217.5 132q-42 45 -69.5 97t-41.5 112t-14 128z" />
    <glyph glyph-name="uniFEA6" unicode="&#x62e;" horiz-adv-x="1386" arabic-form="final" 
d="M445.972 1238.2l133.743 133.743l134.813 -134.812l-133.743 -133.743zM1242 647l-11 -146q-97 -8 -183 -20l-13 -2v-13v-8q0 -95 33.5 -159.5t99.5 -97t163 -32.5h61q1 -2 2.5 -7t2.5 -12t1.5 -17t0.5 -21v-24q0 -57 -8 -73h-60q-211 0 -315 101t-105 308v12v19l-18 -5
q-613 -153 -613 -579q0 -192 138.5 -288t407.5 -96q211 0 406 89l30 -144q-48 -22 -100.5 -39t-108.5 -28.5t-116.5 -17t-124.5 -5.5q-193 0 -329.5 44t-217.5 132q-125 135 -125 337q0 287 175 468.5t529 259.5l10 2l49 11l-47 18q-8 3 -23.5 9.5t-38 15t-51.5 20.5
q-198 80 -273 80q-121 0 -198 -100l-21 -26l-128 63l8 14q122 201 341 201q123 0 296 -84q101 -49 186.5 -83t157.5 -53.5t130 -23.5z" />
    <glyph glyph-name="uniFEA7" unicode="&#x62e;" horiz-adv-x="1337" arabic-form="initial" 
d="M405.972 1185.2l133.743 133.743l134.813 -134.812l-133.743 -133.743zM-7 15q-21 0 -32 16.5t-11 56.5v19q0 35 10.5 48.5t32.5 13.5h60q334 0 823 253l74 38l34 17l-37 10q-12 4 -67 25.5t-148 58.5q-100 40 -166.5 60t-105.5 20q-60 0 -110 -25t-88 -75l-21 -26
l-128 63l8 14q25 40 53 72t60 56.5t68 40.5t75.5 24t83.5 8q124 0 297 -84q302 -148 475 -160l-2 -147q-25 -3 -56.5 -12.5t-69.5 -24t-83 -34.5t-96.5 -45t-110.5 -57q-426 -224 -774 -224h-48z" />
    <glyph glyph-name="uniFEA8" unicode="&#x62e;" horiz-adv-x="1351" arabic-form="medial" 
d="M405.972 1185.2l133.743 133.743l134.813 -134.812l-133.743 -133.743zM947 487q-23 6 -215 84q-100 40 -166.5 60t-105.5 20q-60 0 -110 -25t-88 -75l-21 -26l-128 63l8 14q25 40 53 72t60 56.5t68 40.5t75.5 24t83.5 8q124 0 297 -84q302 -148 475 -160l-2 -146
q-82 -11 -199 -70l-8 -4v-9q4 -161 293 -161h41q8 -12 8 -57v-24q0 -57 -8 -73h-57q-179 0 -273 63.5t-109 191.5l-3 21l-19 -9q-13 -7 -26.5 -13.5t-27.5 -14t-28 -15.5q-426 -224 -774 -224h-48q-21 0 -32 16.5t-11 56.5v19q0 35 10.5 48.5t32.5 13.5h60q334 0 823 253
l74 38l35 18z" />
    <glyph glyph-name="uniFEA9" unicode="&#x62f;" horiz-adv-x="974" arabic-form="isolated" 
d="M116 193q116 -23 206 -23q385 0 385 196q0 194 -409 455l84 127q239 -145 357 -289.5t118 -289.5q0 -117 -56.5 -194.5t-172.5 -117t-293 -40.5q-118 0 -219 21v155z" />
    <glyph glyph-name="uniFEAA" unicode="&#x62f;" horiz-adv-x="1061" arabic-form="final" 
d="M338 16q-129 0 -221 21v158q111 -25 206 -25q362 0 360 180q0 48 -92 264l-115 270l137 63l186 -471q60 -152 121.5 -229.5t128.5 -77.5h17q3 -5 5.5 -21.5t2.5 -40.5v-19q0 -57 -8 -73h-17q-80 0 -141.5 38t-107.5 115l-11 19l-13 -17q-128 -154 -438 -154z" />
    <glyph glyph-name="uniFEAB" unicode="&#x630;" horiz-adv-x="974" arabic-form="isolated" 
d="M116 193q116 -23 206 -23q385 0 385 196q0 194 -409 455l84 127q239 -145 357 -289.5t118 -289.5q0 -117 -56.5 -194.5t-172.5 -117t-293 -40.5q-118 0 -219 21v155zM222.972 1286.2l133.743 133.743l134.813 -134.812l-133.743 -133.743z" />
    <glyph glyph-name="uniFEAC" unicode="&#x630;" horiz-adv-x="1061" arabic-form="final" 
d="M338 16q-129 0 -221 21v158q111 -25 206 -25q362 0 360 180q0 48 -92 264l-115 270l137 63l186 -471q60 -152 121.5 -229.5t128.5 -77.5h17q3 -5 5.5 -21.5t2.5 -40.5v-19q0 -57 -8 -73h-17q-80 0 -141.5 38t-107.5 115l-11 19l-13 -17q-128 -154 -438 -154z
M366.972 1279.2l133.743 133.743l134.813 -134.812l-133.743 -133.743z" />
    <glyph glyph-name="uniFEAD" unicode="&#x631;" horiz-adv-x="775" arabic-form="isolated" 
d="M593 513q76 -192 76 -356q1 -265 -151 -426t-460 -222l-51 130q519 104 521 513q1 133 -73 311z" />
    <glyph glyph-name="uniFEAE" unicode="&#x631;" horiz-adv-x="870" arabic-form="final" 
d="M663 55q-56 -437 -605 -546l-51 130q519 104 521 513q1 133 -73 311l137 49l57 -179q53 -164 202 -164h25q2 -3 3.5 -10t3 -19.5t1.5 -27.5v-24q0 -58 -8 -73h-14q-70 0 -113 12.5t-59 34.5l-22 30z" />
    <glyph glyph-name="uniFEAF" unicode="&#x632;" horiz-adv-x="775" arabic-form="isolated" 
d="M593 513q76 -192 76 -356q1 -265 -151 -426t-460 -222l-51 130q519 104 521 513q1 133 -73 311zM316.937 895.882l138.206 138.207l139.312 -139.312l-138.207 -138.206z" />
    <glyph glyph-name="uniFEB0" unicode="&#x632;" horiz-adv-x="870" arabic-form="final" 
d="M316.937 895.882l138.206 138.207l139.312 -139.312l-138.207 -138.206zM664 55q-56 -437 -605 -546l-51 130q519 104 521 513q1 133 -73 311l137 49l57 -179q53 -164 202 -164h25q2 -3 3.5 -10t3 -19.5t1.5 -27.5v-24q0 -58 -8 -73h-14q-70 0 -113 12.5t-59 34.5l-22 30
z" />
    <glyph glyph-name="uniFEB1" unicode="&#x633;" horiz-adv-x="2470" arabic-form="isolated" 
d="M1335 56q-1 -156 -55 -266q-144 -295 -553 -295q-308 0 -459 141q-152 140 -151 425q0 25 1 50t4 50q3 26 7 51t9 51t12 51q6 26 14 52t18 52q9 26 19 53l131 -55q-69 -185 -69 -353q0 -139 53 -233q54 -94 158.5 -141t259.5 -47q228 0 344 116q117 116 118 344
q0 180 -85 361l143 50l55 -171q27 -85 87 -128q59 -44 149 -44q94 0 143 51q50 51 49 148q0 57 -3 102l-4 70l135 16l15 -215q5 -83 48 -126q43 -44 120 -43q79 0 118 58q40 59 39 168q0 34 -4 72q-5 39 -14 82t-22 91l142 38q45 -148 44 -282q0 -220 -116 -322
q-36 -31 -81 -46q-44 -16 -99 -16q-179 0 -240 145q-106 -146 -272 -146q-120 0 -184 53l-24 20v-32z" />
    <glyph glyph-name="uniFEB2" unicode="&#x633;" horiz-adv-x="2559" arabic-form="final" 
d="M1544 170q95 -1 144 50q49 50 49 146v66q-1 28 -2 42l-4 67l135 16l15 -215q5 -84 49 -128t123 -44q77 0 116 56t40 161q0 65 -6 129l-4 46l135 16l15 -174q10 -114 60 -175q51 -60 140 -60h16q3 -5 5 -22q3 -13 3 -40v-19q0 -24 -4 -47q-2 -20 -5 -26h-13
q-192 0 -247 156q-78 -156 -242 -156q-185 0 -247 147q-103 -147 -272 -147q-120 0 -184 53l-24 20v-32q-1 -156 -55 -266q-144 -295 -553 -295q-308 0 -459 141q-152 140 -151 425q0 25 1 50t4 50q3 26 7 51t9 51t12 51q6 26 14 52t18 52q9 26 19 53l131 -55
q-69 -185 -69 -353q0 -139 53 -233q54 -94 158.5 -141t259.5 -47q228 0 344 116q117 116 118 344q0 180 -85 361l143 50l55 -171q18 -57 51 -95q32 -38 79 -58q46 -19 105 -19z" />
    <glyph glyph-name="uniFEB3" unicode="&#x633;" horiz-adv-x="1569" arabic-form="initial" 
d="M832 328q6 31 6 73q0 23 -1 47q-1 20 -3 47l-4 46l134 16l15 -215q4 -56 25 -94q21 -39 58 -58q37 -20 90 -20q76 0 115 59q38 60 38 170q0 100 -40 245l142 38q45 -148 44 -276v-5q-1 -221 -117 -323q-17 -15 -37 -27q-20 -11 -43 -19q-22 -8 -47 -12t-52 -4
q-179 0 -241 146q-105 -148 -278 -147q-198 1 -262 150q-85 -150 -325 -150h-56q-21 0 -32 16q-11 17 -11 57v19q0 35 10 48q11 14 33 14h58q217 0 251 159q6 30 6 73q0 22 -1 45q-1 19 -4 49l-4 46l135 16l15 -215q6 -85 54 -129q49 -44 135 -44q80 0 129 40.5t65 118.5z
" />
    <glyph glyph-name="uniFEB4" unicode="&#x633;" horiz-adv-x="1658" arabic-form="medial" 
d="M979 342q6 -84 50.5 -128t123.5 -44q77 0 116 55q39 56 38 159q0 79 -5 132l-4 46l135 16l15 -174q9 -113 60 -175q51 -60 140 -60h16q7 -15 7 -62v-19q0 -56 -8 -73h-13q-192 0 -247 156q-78 -156 -248 -156q-172 0 -242 145q-104 -146 -277 -145q-198 1 -262 150
q-85 -150 -325 -150h-56q-21 0 -32 16q-11 17 -11 57v19q0 35 10 48q11 14 33 14h58q218 0 252 159q5 25 5 73q0 43 -5 94l-4 46l135 16l15 -215q6 -85 54 -129q49 -44 135 -44q80 0 130 40q49 41 65 119q5 26 5 73q0 23 -1 47q-1 23 -3 47l-4 46l134 16z" />
    <glyph glyph-name="uniFEB5" unicode="&#x634;" horiz-adv-x="2470" arabic-form="isolated" 
d="M1632.37 1212.43l130.533 130.534l131.604 -131.604l-130.533 -130.534zM1797.14 943.875l130.533 130.534l131.604 -131.604l-130.533 -130.533zM1471.88 943.875l130.533 130.534l131.604 -131.604l-130.533 -130.533zM1335 56q-1 -156 -55 -266q-144 -295 -553 -295
q-308 0 -459 141q-152 140 -151 425q0 25 1 50t4 50q3 26 7 51t9 51t12 51q6 26 14 52t18 52q9 26 19 53l131 -55q-69 -185 -69 -353q0 -139 53 -233q54 -94 158.5 -141t259.5 -47q228 0 344 116q117 116 118 344q0 180 -85 361l143 50l55 -171q27 -85 87 -128
q59 -44 149 -44q94 0 143 51q50 51 49 148q0 57 -3 102l-4 70l135 16l15 -215q5 -83 48 -126q43 -44 120 -43q79 0 118 58q40 59 39 168q0 34 -4 72q-5 39 -14 82t-22 91l142 38q45 -148 44 -282q0 -220 -116 -322q-36 -31 -81 -46q-44 -16 -99 -16q-179 0 -240 145
q-106 -146 -272 -146q-120 0 -184 53l-24 20v-32z" />
    <glyph glyph-name="uniFEB6" unicode="&#x634;" horiz-adv-x="2559" arabic-form="final" 
d="M1632.37 1212.43l130.533 130.534l131.604 -131.604l-130.533 -130.534zM1797.14 943.875l130.533 130.534l131.604 -131.604l-130.533 -130.533zM1471.88 943.875l130.533 130.534l131.604 -131.604l-130.533 -130.533zM1544 170q95 -1 144 50q49 50 49 146v66
q-1 28 -2 42l-4 67l135 16l15 -215q5 -84 49 -128t123 -44q77 0 116 56t40 161q0 65 -6 129l-4 46l135 16l15 -174q10 -114 60 -175q51 -60 140 -60h16q3 -5 5 -22q3 -13 3 -40v-19q0 -24 -4 -47q-2 -20 -5 -26h-13q-192 0 -247 156q-78 -156 -242 -156q-185 0 -247 147
q-103 -147 -272 -147q-120 0 -184 53l-24 20v-32q-1 -156 -55 -266q-144 -295 -553 -295q-308 0 -459 141q-152 140 -151 425q0 25 1 50t4 50q3 26 7 51t9 51t12 51q6 26 14 52t18 52q9 26 19 53l131 -55q-69 -185 -69 -353q0 -139 53 -233q54 -94 158.5 -141t259.5 -47
q228 0 344 116q117 116 118 344q0 180 -85 361l143 50l55 -171q18 -57 51 -95q32 -38 79 -58q46 -19 105 -19z" />
    <glyph glyph-name="uniFEB7" unicode="&#x634;" horiz-adv-x="1569" arabic-form="initial" 
d="M733.373 1209.43l130.533 130.534l131.604 -131.604l-130.533 -130.534zM898.145 940.875l130.533 130.534l131.604 -131.604l-130.533 -130.533zM572.881 940.875l130.533 130.534l131.604 -131.604l-130.533 -130.533zM832 328q6 31 6 73q0 23 -1 47q-1 20 -3 47l-4 46
l134 16l15 -215q4 -56 25 -94q21 -39 58 -58q37 -20 90 -20q76 0 115 59q38 60 38 170q0 100 -40 245l142 38q45 -148 44 -276v-5q-1 -221 -117 -323q-17 -15 -37 -27q-20 -11 -43 -19q-22 -8 -47 -12t-52 -4q-179 0 -241 146q-105 -148 -278 -147q-198 1 -262 150
q-85 -150 -325 -150h-56q-21 0 -32 16q-11 17 -11 57v19q0 35 10 48q11 14 33 14h58q217 0 251 159q6 30 6 73q0 22 -1 45q-1 19 -4 49l-4 46l135 16l15 -215q6 -85 54 -129q49 -44 135 -44q80 0 129 40.5t65 118.5z" />
    <glyph glyph-name="uniFEB8" unicode="&#x634;" horiz-adv-x="1658" arabic-form="medial" 
d="M733.373 1209.43l130.533 130.534l131.604 -131.604l-130.533 -130.534zM898.145 940.875l130.533 130.534l131.604 -131.604l-130.533 -130.533zM572.881 940.875l130.533 130.534l131.604 -131.604l-130.533 -130.533zM979 342q6 -84 50.5 -128t123.5 -44q77 0 116 55
q39 56 38 159q0 79 -5 132l-4 46l135 16l15 -174q9 -113 60 -175q51 -60 140 -60h16q7 -15 7 -62v-19q0 -56 -8 -73h-13q-192 0 -247 156q-78 -156 -248 -156q-172 0 -242 145q-104 -146 -277 -145q-198 1 -262 150q-85 -150 -325 -150h-56q-21 0 -32 16q-11 17 -11 57v19
q0 35 10 48q11 14 33 14h58q218 0 252 159q5 25 5 73q0 43 -5 94l-4 46l135 16l15 -215q6 -85 54 -129q49 -44 135 -44q80 0 130 40q49 41 65 119q5 26 5 73q0 23 -1 47q-1 23 -3 47l-4 46l134 16z" />
    <glyph glyph-name="uniFEB9" unicode="&#x635;" horiz-adv-x="2587" arabic-form="isolated" 
d="M1309 342q44 -137 113 -144l10 -1l5 9q336 571 672 570q141 0 235 -79q126 -104 126 -273q-2 -409 -707 -409h-51q-245 0 -355 54l-22 11v-24q-1 -156 -55 -266q-144 -295 -553 -295q-308 0 -459.5 140.5t-150.5 425.5q0 25 1 50t4 50.5t7 50.5t9 51t11.5 51.5t14.5 51.5
t17.5 52t19.5 53l131 -55q-69 -185 -69 -353q0 -139 53.5 -233t158 -141t259.5 -47q228 0 344.5 116t117.5 344q0 180 -85 361l143 50zM1759 170q558 0 559 245q0 110 -84 168q-13 9 -27.5 16t-29.5 11.5t-31.5 6.5t-33.5 3q-236 1 -510 -428l-15 -23h28z" />
    <glyph glyph-name="uniFEBA" unicode="&#x635;" horiz-adv-x="2616" arabic-form="final" 
d="M1437 205q340 577 672 571q142 -2 235 -79q126 -104 126 -273q0 -116 -67 -207l-8 -11l10 -9q17 -16 64 -22t137 -6h16q7 -13 7 -62v-19q0 -57 -8 -73h-21q-117 0 -201 21.5t-135 62.5l-7 7l-9 -5q-153 -86 -485 -86h-51q-245 0 -355 54l-22 11v-24q-1 -156 -55 -266
q-144 -295 -553 -295q-308 0 -459.5 140.5t-150.5 425.5q0 25 1 50t4 50.5t7 50.5t9 51t11.5 51.5t14.5 51.5t17.5 52t19.5 53l131 -55q-69 -185 -69 -353q0 -139 53.5 -233t158 -141t259.5 -47q228 0 344.5 116t117.5 344q0 180 -85 361l143 50l55 -171q14 -44 30 -74
t37 -48.5t46 -21.5l10 -1zM2112 620q-237 1 -510 -428l-15 -23h28l144 1q558 0 559 245q0 110 -84 168q-52 36 -122 37z" />
    <glyph glyph-name="uniFEBB" unicode="&#x635;" horiz-adv-x="1680" arabic-form="initial" 
d="M1563 424q-2 -409 -707 -409h-51q-182 0 -293 35.5t-151 102.5l-11 19l-14 -18q-102 -139 -326 -139h-17q-21 0 -32 16.5t-11 56.5v19q0 18 3 30t8.5 19t13.5 10t19 3h16q234 0 261 144q12 62 4 182l-5 67l136 16l16 -216q11 -143 91 -163l11 -3l6 9q340 577 672 571
q48 0 90 -9.5t78 -26.5t67 -43q126 -104 126 -273zM1205 620q-236 0 -510 -427l-15 -24h28l144 1q558 0 559 245q0 36 -9.5 67t-28.5 56.5t-46 44.5q-52 36 -122 37z" />
    <glyph glyph-name="uniFEBC" unicode="&#x635;" horiz-adv-x="1719" arabic-form="medial" 
d="M1563 424q0 -39 -7.5 -75t-22.5 -69t-37 -63l-8 -11l10 -9q17 -16 64 -22t137 -6h16q7 -13 7 -62v-19q0 -19 -1 -35t-3 -25t-4 -13h-21q-233 0 -336 84l-7 7l-9 -5q-153 -86 -485 -86h-51q-358 0 -444 138l-12 19l-13 -18q-102 -139 -326 -139h-17q-21 0 -32 16.5
t-11 56.5v19q0 35 10.5 48.5t32.5 13.5h16q235 0 262 144q12 62 4 182l-5 67l136 16l16 -216q11 -143 91 -163l11 -3l6 9q342 577 672 571q143 -2 235 -79q125 -103 126 -273zM1205 620q-235 3 -510 -428l-15 -23h28l144 1q558 0 559 245q0 36 -9.5 67t-28.5 56.5t-46 44.5
q-26 18 -56.5 27t-65.5 10z" />
    <glyph glyph-name="uniFEBD" unicode="&#x636;" horiz-adv-x="2587" arabic-form="isolated" 
d="M1937.97 1183.2l133.743 133.743l134.813 -134.812l-133.743 -133.743zM1309 342q44 -137 113 -144l10 -1l5 9q336 571 672 570q141 0 235 -79q126 -104 126 -273q-2 -409 -707 -409h-51q-245 0 -355 54l-22 11v-24q-1 -156 -55 -266q-144 -295 -553 -295
q-308 0 -459.5 140.5t-150.5 425.5q0 25 1 50t4 50.5t7 50.5t9 51t11.5 51.5t14.5 51.5t17.5 52t19.5 53l131 -55q-69 -185 -69 -353q0 -139 53.5 -233t158 -141t259.5 -47q228 0 344.5 116t117.5 344q0 180 -85 361l143 50zM1759 170q558 0 559 245q0 110 -84 168
q-13 9 -27.5 16t-29.5 11.5t-31.5 6.5t-33.5 3q-236 1 -510 -428l-15 -23h28z" />
    <glyph glyph-name="uniFEBE" unicode="&#x636;" horiz-adv-x="2616" arabic-form="final" 
d="M1937.97 1183.2l133.743 133.743l134.813 -134.812l-133.743 -133.743zM1437 205q340 577 672 571q142 -2 235 -79q126 -104 126 -273q0 -116 -67 -207l-8 -11l10 -9q17 -16 64 -22t137 -6h16q7 -13 7 -62v-19q0 -57 -8 -73h-21q-117 0 -201 21.5t-135 62.5l-7 7l-9 -5
q-153 -86 -485 -86h-51q-245 0 -355 54l-22 11v-24q-1 -156 -55 -266q-144 -295 -553 -295q-308 0 -459.5 140.5t-150.5 425.5q0 25 1 50t4 50.5t7 50.5t9 51t11.5 51.5t14.5 51.5t17.5 52t19.5 53l131 -55q-69 -185 -69 -353q0 -139 53.5 -233t158 -141t259.5 -47
q228 0 344.5 116t117.5 344q0 180 -85 361l143 50l55 -171q14 -44 30 -74t37 -48.5t46 -21.5l10 -1zM2112 620q-237 1 -510 -428l-15 -23h28l144 1q558 0 559 245q0 110 -84 168q-52 36 -122 37z" />
    <glyph glyph-name="uniFEBF" unicode="&#x636;" horiz-adv-x="1680" arabic-form="initial" 
d="M1027.97 1183.2l133.743 133.743l134.813 -134.812l-133.743 -133.743zM1563 424q-2 -409 -707 -409h-51q-182 0 -293 35.5t-151 102.5l-11 19l-14 -18q-102 -139 -326 -139h-17q-21 0 -32 16.5t-11 56.5v19q0 18 3 30t8.5 19t13.5 10t19 3h16q234 0 261 144q12 62 4 182
l-5 67l136 16l16 -216q11 -143 91 -163l11 -3l6 9q340 577 672 571q48 0 90 -9.5t78 -26.5t67 -43q126 -104 126 -273zM1205 620q-236 0 -510 -427l-15 -24h28l144 1q558 0 559 245q0 36 -9.5 67t-28.5 56.5t-46 44.5q-52 36 -122 37z" />
    <glyph glyph-name="uniFEC0" unicode="&#x636;" horiz-adv-x="1719" arabic-form="medial" 
d="M1027.97 1183.2l133.743 133.743l134.813 -134.812l-133.743 -133.743zM1563 424q0 -39 -7.5 -75t-22.5 -69t-37 -63l-8 -11l10 -9q17 -16 64 -22t137 -6h16q7 -13 7 -62v-19q0 -19 -1 -35t-3 -25t-4 -13h-21q-233 0 -336 84l-7 7l-9 -5q-153 -86 -485 -86h-51
q-358 0 -444 138l-12 19l-13 -18q-102 -139 -326 -139h-17q-21 0 -32 16.5t-11 56.5v19q0 35 10.5 48.5t32.5 13.5h16q235 0 262 144q12 62 4 182l-5 67l136 16l16 -216q11 -143 91 -163l11 -3l6 9q342 577 672 571q143 -2 235 -79q125 -103 126 -273zM1205 620
q-235 3 -510 -428l-15 -23h28l144 1q558 0 559 245q0 36 -9.5 67t-28.5 56.5t-46 44.5q-26 18 -56.5 27t-65.5 10z" />
    <glyph glyph-name="uniFEC1" unicode="&#x637;" horiz-adv-x="1480" arabic-form="isolated" 
d="M1365 424q-3 -409 -707 -409h-542v154h206h2h8l4 7l72 115l3 3v5v1095h143v-850v-42l27 33q197 246 423 241q16 0 31.5 -1t30 -3t28.5 -5.5t27.5 -7t26.5 -8.5t25 -11t23.5 -12.5t22 -14t21.5 -16.5q125 -104 125 -273zM1007 620q-239 0 -510 -427l-14 -23h27h144
q557 0 559 245q0 110 -84 168q-52 36 -122 37z" />
    <glyph glyph-name="uniFEC2" unicode="&#x637;" horiz-adv-x="1515" arabic-form="final" 
d="M1003 776q48 0 89.5 -9t78 -26.5t68 -43.5t55 -56t39 -64t23.5 -72t8 -81q0 -110 -67 -209l-6 -7l5 -8q4 -7 12 -12.5t23 -9t30 -5.5t41 -3t46.5 -1h56.5h16q7 -14 7 -62v-19q0 -28 -2.5 -47.5t-5.5 -25.5h-21q-257 0 -354 78l-7 7l-9 -5q-75 -40 -193 -60t-278 -20h-542
v154h206h2h8l4 7l71 115l3 3v5v1095h144v-850v-43l27 34q195 244 422 241zM1006 620q-124 -2 -251 -109t-258 -319l-14 -22h27h144q557 0 558 245q0 110 -84 168q-18 12 -38 20.5t-41 12.5t-43 4z" />
    <glyph glyph-name="uniFEC3" unicode="&#x637;" horiz-adv-x="1300" arabic-form="initial" 
d="M1182 424q0 -409 -706 -409h-483q-21 0 -32 16.5t-11 56.5v19q0 35 10.5 48.5t32.5 13.5h146h8l5 7l74 114l2 3v5v1096h143v-850v-42l27 33q196 241 424 241q141 -1 235 -79q125 -104 125 -273zM825 620q-240 -1 -511 -427l-14 -23h27h144q559 0 559 245q0 110 -84 168
q-26 18 -56.5 27t-64.5 10z" />
    <glyph glyph-name="uniFEC4" unicode="&#x637;" horiz-adv-x="1332" arabic-form="medial" 
d="M1182 424q0 -110 -68 -209l-5 -7l4 -8q11 -21 57 -26t152 -5h16q8 -13 8 -62v-19q0 -57 -8 -73h-21q-87 0 -155.5 9t-118 26.5t-80.5 42.5l-8 7l-9 -5q-151 -80 -470 -80h-483q-21 0 -32 16.5t-11 56.5v19q0 35 10.5 48.5t32.5 13.5h148h8l5 7l72 115l2 3v5v1095h143
v-850v-42l27 33q50 61 101.5 106.5t104.5 75.5t107.5 45t110.5 14q141 -1 235 -79q125 -104 125 -273zM825 620q-240 -1 -511 -427l-14 -23h27h144q559 0 559 245q0 110 -84 168q-26 18 -56.5 27t-64.5 10z" />
    <glyph glyph-name="uniFEC5" unicode="&#x638;" horiz-adv-x="1480" arabic-form="isolated" 
d="M1365 424q-3 -409 -707 -409h-542v154h206h2h8l4 7l72 115l3 3v5v1095h143v-850v-42l27 33q197 246 423 241q16 0 31.5 -1t30 -3t28.5 -5.5t27.5 -7t26.5 -8.5t25 -11t23.5 -12.5t22 -14t21.5 -16.5q125 -104 125 -273zM1007 620q-239 0 -510 -427l-14 -23h27h144
q557 0 559 245q0 110 -84 168q-52 36 -122 37zM845.972 1183.2l133.743 133.743l134.813 -134.812l-133.743 -133.743z" />
    <glyph glyph-name="uniFEC6" unicode="&#x638;" horiz-adv-x="1515" arabic-form="final" 
d="M845.972 1183.2l133.743 133.743l134.813 -134.812l-133.743 -133.743zM1003 776q48 0 89.5 -9t78 -26.5t68 -43.5t55 -56t39 -64t23.5 -72t8 -81q0 -110 -67 -209l-6 -7l5 -8q4 -7 12 -12.5t23 -9t30 -5.5t41 -3t46.5 -1h56.5h16q7 -14 7 -62v-19q0 -28 -2.5 -47.5
t-5.5 -25.5h-21q-257 0 -354 78l-7 7l-9 -5q-75 -40 -193 -60t-278 -20h-542v154h206h2h8l4 7l71 115l3 3v5v1095h144v-850v-43l27 34q195 244 422 241zM1006 620q-124 -2 -251 -109t-258 -319l-14 -22h27h144q557 0 558 245q0 110 -84 168q-18 12 -38 20.5t-41 12.5t-43 4z
" />
    <glyph glyph-name="uniFEC7" unicode="&#x638;" horiz-adv-x="1300" arabic-form="initial" 
d="M665.972 1183.2l133.743 133.743l134.813 -134.812l-133.743 -133.743zM1182 424q0 -409 -706 -409h-483q-21 0 -32 16.5t-11 56.5v19q0 35 10.5 48.5t32.5 13.5h146h8l5 7l74 114l2 3v5v1096h143v-850v-42l27 33q196 241 424 241q141 -1 235 -79q125 -104 125 -273z
M825 620q-240 -1 -511 -427l-14 -23h27h144q559 0 559 245q0 110 -84 168q-26 18 -56.5 27t-64.5 10z" />
    <glyph glyph-name="uniFEC8" unicode="&#x638;" horiz-adv-x="1332" arabic-form="medial" 
d="M665.972 1183.2l133.743 133.743l134.813 -134.812l-133.743 -133.743zM1182 424q0 -110 -68 -209l-5 -7l4 -8q11 -21 57 -26t152 -5h16q8 -13 8 -62v-19q0 -57 -8 -73h-21q-87 0 -155.5 9t-118 26.5t-80.5 42.5l-8 7l-9 -5q-151 -80 -470 -80h-483q-21 0 -32 16.5
t-11 56.5v19q0 35 10.5 48.5t32.5 13.5h148h8l5 7l72 115l2 3v5v1095h143v-850v-42l27 33q50 61 101.5 106.5t104.5 75.5t107.5 45t110.5 14q141 -1 235 -79q125 -104 125 -273zM825 620q-240 -1 -511 -427l-14 -23h27h144q559 0 559 245q0 110 -84 168q-26 18 -56.5 27
t-64.5 10z" />
    <glyph glyph-name="uniFEC9" unicode="&#x639;" horiz-adv-x="1346" arabic-form="isolated" 
d="M638 448q177 31 303 32q85 0 166 -8l-19 -147q-39 2 -64 2.5t-39 -0.5q-359 -10 -542 -128t-183 -344q0 -184 135.5 -276t399.5 -92q202 0 397 89l30 -144q-64 -30 -134 -50.5t-146 -30.5t-159 -10q-370 0 -538 179q-63 65 -94 146.5t-31 181.5q0 382 349 537l18 8
l-13 15q-59 68 -88 139.5t-29 147.5q0 66 26 133q13 32 32.5 61.5t45.5 56.5q96 103 273 103q144 0 313 -113l-56 -122q-72 41 -133 61.5t-114 20.5q-137 0 -201 -106q-32 -52 -32 -108q0 -48 25 -99q12 -24 33.5 -56t53.5 -73l6 -7z" />
    <glyph glyph-name="uniFECA" unicode="&#x639;" horiz-adv-x="1187" arabic-form="final" 
d="M580 219q-159 -87 -239.5 -191t-80.5 -224q-1 -153 110.5 -229.5t328.5 -77.5q162 0 333 67l30 -144q-161 -69 -374 -68q-43 0 -82.5 3t-75.5 8t-69 13t-62.5 18.5t-55.5 23.5t-49 28q-174 118 -175 358q0 307 309 502l21 13l-21 12q-271 159 -271 300q0 47 37.5 87.5
t114.5 74.5q107 46 285 46q185 0 289 -45q140 -59 140 -159q0 -30 -18 -65t-55 -74.5t-94 -84t-133 -91.5l-17 -11q177 -140 461 -140h26q3 -5 5 -21.5t2 -40.5v-19q0 -57 -8 -73h-25q-300 0 -571 203l-8 6zM595 412q145 79 209 126q67 48 66 83q0 21 -19 34t-58 20
q-40 7 -86 10q-46 2 -114 2q-137 0 -207 -17t-70 -61q0 -13 12 -29t32 -33q85 -70 219 -135l9 -4z" />
    <glyph glyph-name="uniFECB" unicode="&#x639;" horiz-adv-x="1059" arabic-form="initial" 
d="M857 608q-60 46 -120 70t-120 24q-67 1 -120 -18q-27 -10 -50.5 -24.5t-42.5 -33.5q-38 -37 -57 -83t-19 -101q0 -144 164 -225q3 -1 8.5 -4t7 -3.5t7 -2.5t7 -1t7.5 1l417 106v-154q-468 -144 -861 -144h-92q-21 0 -32 16.5t-11 56.5v19q0 24 5 37.5t14 19t24 5.5h273h7
h34l-23 26l-4 5q-6 6 -11.5 12.5t-11 13.5t-11 14.5t-10.5 15.5q-53 80 -52 196q1 159 86 266q45 56 113 93q89 48 208 47q25 0 48 -2t45.5 -6t43.5 -10t41 -14t39 -18t37 -22t34.5 -25.5t32.5 -29.5z" />
    <glyph glyph-name="uniFECC" unicode="&#x639;" horiz-adv-x="1151" arabic-form="medial" 
d="M1135 169h21q7 -13 7 -62v-19q0 -28 -2 -48q-3 -17 -6 -25h-20q-328 0 -518 147q-173 -147 -600 -147h-24q-21 0 -32 16.5t-11 56.5v19q0 35 10.5 48.5t32.5 13.5h27q347 0 474 84l-21 12l-5 3q-285 161 -285 313q0 94 150 161q105 48 286 49q175 1 290 -47
q140 -59 140 -158q0 -134 -295 -319l-5 -3l-20 -13q138 -82 406 -82zM885 560q0 44 -68.5 60.5t-202.5 16.5q-43 0 -77.5 -1.5t-65.5 -5t-54 -9.5t-40 -14.5t-26 -20.5t-9 -28q0 -29 35 -65q64 -68 228 -152l2 -1l7 -3l7 4h1q147 79 227 159q18 19 27 32.5t9 27.5z" />
    <glyph glyph-name="uniFECD" unicode="&#x63a;" horiz-adv-x="1346" arabic-form="isolated" 
d="M638 448q177 31 303 32q85 0 166 -8l-19 -147q-39 2 -64 2.5t-39 -0.5q-359 -10 -542 -128t-183 -344q0 -184 135.5 -276t399.5 -92q202 0 397 89l30 -144q-64 -30 -134 -50.5t-146 -30.5t-159 -10q-370 0 -538 179q-63 65 -94 146.5t-31 181.5q0 382 349 537l18 8
l-13 15q-59 68 -88 139.5t-29 147.5q0 66 26 133q13 32 32.5 61.5t45.5 56.5q96 103 273 103q144 0 313 -113l-56 -122q-72 41 -133 61.5t-114 20.5q-137 0 -201 -106q-32 -52 -32 -108q0 -48 25 -99q12 -24 33.5 -56t53.5 -73l6 -7zM570.972 1367.2l133.743 133.743
l134.813 -134.812l-133.743 -133.743z" />
    <glyph glyph-name="uniFECE" unicode="&#x63a;" horiz-adv-x="1187" arabic-form="final" 
d="M580 219q-159 -87 -239.5 -191t-80.5 -224q-1 -153 110.5 -229.5t328.5 -77.5q162 0 333 67l30 -144q-161 -69 -374 -68q-43 0 -82.5 3t-75.5 8t-69 13t-62.5 18.5t-55.5 23.5t-49 28q-174 118 -175 358q0 307 309 502l21 13l-21 12q-271 159 -271 300q0 47 37.5 87.5
t114.5 74.5q107 46 285 46q185 0 289 -45q140 -59 140 -159q0 -30 -18 -65t-55 -74.5t-94 -84t-133 -91.5l-17 -11q177 -140 461 -140h26q3 -5 5 -21.5t2 -40.5v-19q0 -57 -8 -73h-25q-300 0 -571 203l-8 6zM595 412q145 79 209 126q67 48 66 83q0 21 -19 34t-58 20
q-40 7 -86 10q-46 2 -114 2q-137 0 -207 -17t-70 -61q0 -13 12 -29t32 -33q85 -70 219 -135l9 -4zM443.972 1177.2l133.743 133.743l134.813 -134.812l-133.743 -133.743z" />
    <glyph glyph-name="uniFECF" unicode="&#x63a;" horiz-adv-x="1063" arabic-form="initial" 
d="M857 608q-60 46 -120 70t-120 24q-67 1 -120 -18q-27 -10 -50.5 -24.5t-42.5 -33.5q-38 -37 -57 -83t-19 -101q0 -144 164 -225q3 -1 8.5 -4t7 -3.5t7 -2.5t7 -1t7.5 1l417 106v-154q-468 -144 -861 -144h-92q-21 0 -32 16.5t-11 56.5v19q0 24 5 37.5t14 19t24 5.5h273h7
h34l-23 26l-4 5q-6 6 -11.5 12.5t-11 13.5t-11 14.5t-10.5 15.5q-53 80 -52 196q1 159 86 266q45 56 113 93q89 48 208 47q25 0 48 -2t45.5 -6t43.5 -10t41 -14t39 -18t37 -22t34.5 -25.5t32.5 -29.5zM434.972 1222.2l133.743 133.743l134.813 -134.812l-133.743 -133.743z
" />
    <glyph glyph-name="uniFED0" unicode="&#x63a;" horiz-adv-x="1151" arabic-form="medial" 
d="M1135 169h21q7 -13 7 -62v-19q0 -28 -2 -48q-3 -17 -6 -25h-20q-328 0 -518 147q-173 -147 -600 -147h-24q-21 0 -32 16.5t-11 56.5v19q0 35 10.5 48.5t32.5 13.5h27q347 0 474 84l-21 12l-5 3q-285 161 -285 313q0 94 150 161q105 48 286 49q175 1 290 -47
q140 -59 140 -158q0 -134 -295 -319l-5 -3l-20 -13q138 -82 406 -82zM885 560q0 44 -68.5 60.5t-202.5 16.5q-43 0 -77.5 -1.5t-65.5 -5t-54 -9.5t-40 -14.5t-26 -20.5t-9 -28q0 -29 35 -65q64 -68 228 -152l2 -1l7 -3l7 4h1q147 79 227 159q18 19 27 32.5t9 27.5z
M477.972 1155.2l133.743 133.743l134.813 -134.812l-133.743 -133.743z" />
    <glyph glyph-name="uniFED1" unicode="&#x641;" horiz-adv-x="1821" arabic-form="isolated" 
d="M1208.97 1359.2l133.743 133.743l134.813 -134.812l-133.743 -133.743zM1703 473q-2 -275 -130 -371q-116 -87 -413 -87h-330q-362 0 -539 118q-177 117 -177 353q0 124 47 237l131 -47q-15 -41 -22 -84t-7 -81q0 -171 140 -256q141 -86 413 -86h365q403 0 393 232l-1 18
l-17 -6q-90 -27 -195 -27t-174 28q-69 29 -103 85q-33 53 -36 143q-1 21 1 41t6 39q29 154 110 237q78 81 196 81q16 0 31 -2q16 -1 30 -4t27.5 -8t26.5 -11q12 -6 24 -13q175 -113 195 -407l2 -22q1 -10 2 -20.5t1.5 -20.5l1 -20t0.5 -20q0 -9 1 -19zM1182 669
q0 -70 50 -105t142 -34q29 0 58 3t58 9t59 15l12 3l-2 13q-5 39 -12 74.5t-17 67t-23 58.5q-53 117 -152 117q-58 0 -98 -37t-62 -108q-13 -40 -13 -76z" />
    <glyph glyph-name="uniFED2" unicode="&#x641;" horiz-adv-x="1995" arabic-form="final" 
d="M1365.97 1232.2l133.743 133.743l134.813 -134.812l-133.743 -133.743zM1383 652q-64 -64 -64 -128q0 -34 17 -70t50 -75q78 -90 124 -90q25 0 54.5 22.5t68.5 67.5q68 78 67 144q1 80 -95 158q-56 45 -101 45q-25 0 -54.5 -18.5t-66.5 -55.5zM1497 142
q-183 -127 -633 -127h-34q-362 0 -539 118q-177 117 -177 353q0 124 47 237l131 -47q-29 -80 -29 -163q0 -173 147 -258q146 -86 431 -86q369 0 482 34l26 8l-21 18q-154 128 -154 305q0 168 191 301q67 46 145 46q77 0 133 -34q52 -31 90 -67t64 -76q25 -41 37 -86
q13 -45 13 -95q0 -167 -155 -294l-21 -17l25 -9q48 -17 117 -26q68 -8 158 -8h30q7 -14 7 -62v-19q0 -57 -8 -73h-27q-290 0 -458 126l-9 7z" />
    <glyph glyph-name="uniFED3" unicode="&#x641;" horiz-adv-x="904" arabic-form="initial" 
d="M446 387q-158 0 -235 63.5t-79 192.5q0 42 8 80q29 154 109 237q79 81 197 81q80 0 139 -38q161 -105 195 -407q7 -65 7 -122q0 -275 -129 -372q-116 -87 -413 -87h-252q-21 0 -32 16.5t-11 56.5v19q0 35 10.5 48.5t32.5 13.5h263q395 0 405 212q0 6 -0.5 11t-0.5 10
l-3 18l-17 -6q-29 -9 -60.5 -15t-65 -9t-68.5 -3zM267 670q0 -70 50 -105t142 -34q86 0 175 27l12 3l-2 13q-4 29 -9 56.5t-11.5 52.5t-14.5 47.5t-17 43.5q-53 117 -153 117q-115 0 -160 -145q-12 -40 -12 -76zM284.972 1359.2l133.743 133.743l134.813 -134.812
l-133.743 -133.743z" />
    <glyph glyph-name="uniFED4" unicode="&#x641;" horiz-adv-x="1022" arabic-form="medial" 
d="M410 652q-64 -64 -64 -128q0 -14 3 -28t8.5 -28.5t13.5 -29t18.5 -29t23.5 -30.5q78 -90 124 -90q25 0 54.5 22.5t68.5 67.5q68 78 68 144q0 80 -96 158q-28 22 -53 33.5t-48 11.5q-46 0 -121 -74zM524 141q-170 -126 -490 -126h-41q-21 0 -32 16.5t-11 56.5v19
q0 34 10.5 48t32.5 14h41q235 1 317 34l23 10l-19 16q-154 128 -154 305q0 168 191 301q67 46 145 46q77 0 133 -34q204 -123 204 -324q0 -167 -155 -294l-21 -17l25 -9q48 -17 116.5 -25.5t158.5 -8.5h30q7 -13 7 -62v-19q0 -57 -8 -73h-27q-290 0 -458 126l-9 7z
M397.972 1230.2l133.743 133.743l134.813 -134.812l-133.743 -133.743z" />
    <glyph glyph-name="uniFED5" unicode="&#x642;" horiz-adv-x="1511" arabic-form="isolated" 
d="M747 -445q-318 0 -474.5 140.5t-155.5 425.5q0 199 84 410l131 -55q-69 -185 -69 -353q0 -210 124.5 -316t366.5 -105q233 0 360 101t143 299l1 4l1 22l-21 -6q-18 -5 -36.5 -9.5t-37.5 -8t-38.5 -5.5t-40 -3.5t-41.5 -1.5q-158 -1 -235 62.5t-79 194.5q0 42 8 80
q32 157 109 236q78 81 197 81q80 1 139 -38q165 -109 201 -417q17 -146 -2 -270q-36 -235 -193.5 -351.5t-441.5 -116.5zM864 378q1 -71 51 -106t142 -34q86 1 174 27l13 4l-2 12q-14 119 -52 201q-13 28 -29 49.5t-35 36.5t-41.5 23t-47.5 8q-115 0 -160 -145
q-12 -40 -13 -76zM1053.93 1072.2l133.743 133.743l134.813 -134.812l-133.743 -133.743zM728.671 1072.2l133.743 133.743l134.813 -134.812l-133.743 -133.743z" />
    <glyph glyph-name="uniFED6" unicode="&#x642;" horiz-adv-x="1526" arabic-form="final" 
d="M747 -505q-631 0 -630 566q0 199 84 410l131 -55q-69 -185 -69 -353q0 -209 124.5 -315t366.5 -106q156 0 265.5 39.5t171 119.5t72.5 199l1 16h-16h-149q-72 0 -128.5 11.5t-98.5 34t-69.5 56.5t-41 79t-13.5 102q0 59 12.5 114.5t37.5 108.5q89 188 271 188
q289 0 334 -527l1 -14h14h114q7 -13 7 -62v-19q0 -28 -2.5 -47.5t-5.5 -25.5l-115 1h-13l-2 -14q-28 -254 -190 -380t-464 -127zM1265 186q-23 364 -208 365q-35 0 -64 -15t-50.5 -44t-36.5 -71q-6 -19 -10.5 -37t-6.5 -35.5t-2 -34.5q0 -72 52.5 -108t149.5 -36h161h16z
M1062.93 1025.2l133.743 133.743l134.813 -134.812l-133.743 -133.743zM737.671 1025.2l133.743 133.743l134.813 -134.812l-133.743 -133.743z" />
    <glyph glyph-name="uniFED7" unicode="&#x642;" horiz-adv-x="907" arabic-form="initial" 
d="M446 387q-158 0 -235 63.5t-79 192.5q0 42 8 80q29 154 109 237q79 81 197 81q80 0 139 -38q161 -105 195 -407q7 -65 7 -122q0 -275 -129 -372q-116 -87 -413 -87h-252q-21 0 -32 16.5t-11 56.5v19q0 35 10.5 48.5t32.5 13.5h263q395 0 405 212q0 6 -0.5 11t-0.5 10
l-3 18l-17 -6q-29 -9 -60.5 -15t-65 -9t-68.5 -3zM267 670q0 -70 50 -105t142 -34q86 0 175 27l12 3l-2 13q-4 29 -9 56.5t-11.5 52.5t-14.5 47.5t-17 43.5q-53 117 -153 117q-115 0 -160 -145q-12 -40 -12 -76zM449.935 1356.2l133.743 133.743l134.813 -134.812
l-133.743 -133.743zM124.671 1356.2l133.743 133.743l134.813 -134.812l-133.743 -133.743z" />
    <glyph glyph-name="uniFED8" unicode="&#x642;" horiz-adv-x="1022" arabic-form="medial" 
d="M410 652q-64 -64 -64 -128q0 -14 3 -28t8.5 -28.5t13.5 -29t18.5 -29t23.5 -30.5q78 -90 124 -90q25 0 54.5 22.5t68.5 67.5q68 78 68 144q0 80 -96 158q-28 22 -53 33.5t-48 11.5q-46 0 -121 -74zM524 141q-170 -126 -490 -126h-41q-21 0 -32 16.5t-11 56.5v19
q0 34 10.5 48t32.5 14h41q235 1 317 34l23 10l-19 16q-154 128 -154 305q0 168 191 301q67 46 145 46q77 0 133 -34q204 -123 204 -324q0 -167 -155 -294l-21 -17l25 -9q48 -17 116.5 -25.5t158.5 -8.5h30q7 -13 7 -62v-19q0 -57 -8 -73h-27q-290 0 -458 126l-9 7z
M551.935 1221.2l133.743 133.743l134.813 -134.812l-133.743 -133.743zM226.671 1221.2l133.743 133.743l134.813 -134.812l-133.743 -133.743z" />
    <glyph glyph-name="uniFED9" unicode="&#x643;" horiz-adv-x="1997" arabic-form="isolated" 
d="M842 169q725 0 725 303v918h148v-916q0 -459 -853 -459h-1q-377 0 -561 118q-185 118 -185 353q0 124 47 237l131 -47q-29 -79 -29 -162q2 -345 578 -345zM701 645q43 -4 79 -6t68 -3q37 0 67 2.5t55 7.5t44 13q30 12 46.5 33t17.5 49q0 51 -36 81q-17 15 -42 24.5
t-57 13.5q-103 16 -151 65t-46 133q5 189 363 219v-98q-84 -9 -140 -24t-88 -41.5t-32 -63.5q0 -87 152 -110q92 -14 136 -62t43 -132q0 -112 -111 -173q-72 -39 -203 -39q-74 0 -165 13v98z" />
    <glyph glyph-name="uniFEDA" unicode="&#x643;" horiz-adv-x="2001" arabic-form="final" 
d="M701 645q43 -4 79 -6t68 -3q37 0 67 2.5t55 7.5t44 13q30 12 46.5 33t17.5 49q0 51 -36 81q-17 15 -42 24.5t-57 13.5q-103 16 -151 65t-46 133q5 189 363 219v-98q-84 -9 -140 -24t-88 -41.5t-32 -63.5q0 -87 152 -110q92 -14 136 -62t43 -132q0 -112 -111 -173
q-72 -39 -203 -39q-74 0 -165 13v98zM862 15h-1q-377 0 -561 118q-185 118 -185 353q0 124 47 237l131 -47q-29 -79 -29 -162q2 -345 578 -345q725 0 725 303v918h148v-916q0 -150 68 -227q69 -78 203 -78h21q7 -12 7 -57v-24q0 -57 -8 -73h-28q-268 0 -338 216
q-196 -216 -778 -216z" />
    <glyph glyph-name="uniFEDB" unicode="&#x643;" horiz-adv-x="950" arabic-form="initial" 
d="M590 649q126 -136 123 -298q-6 -336 -577 -336h-143q-21 0 -32 16.5t-11 56.5v19q0 35 10.5 48.5t32.5 13.5h142q428 0 429 206q0 104 -109 206q-153 143 -274 238q-37 29 -61 58t-35.5 58.5t-11.5 58.5q0 119 130 169l673 255v-148l-663 -247l-24 -9l20 -17
q261 -218 381 -348z" />
    <glyph glyph-name="uniFEDC" unicode="&#x643;" horiz-adv-x="1027" arabic-form="medial" 
d="M209 997q261 -218 381 -348q79 -85 126 -219q91 -261 302 -261h14q3 -5 5 -21.5t2 -40.5v-19q0 -57 -8 -73h-13q-53 0 -100 10.5t-89 32t-79 53.5t-69 75l-13 17l-12 -18q-109 -170 -520 -170h-143q-21 0 -32 16.5t-11 56.5v19q0 35 10.5 48.5t32.5 13.5h142
q428 0 429 206q0 104 -109 206q-153 143 -274 238q-37 29 -61 58t-35.5 58.5t-11.5 58.5q0 119 130 169l673 255v-148l-663 -247l-24 -9z" />
    <glyph glyph-name="uniFEDD" unicode="&#x644;" horiz-adv-x="1441" arabic-form="isolated" 
d="M1128 100l3 1293h142l-1 -1094q0 -139 -9 -269q-21 -270 -160 -402.5t-402 -132.5q-295 0 -439.5 135.5t-143.5 410.5q0 191 77 386l131 -54q-63 -167 -63 -335q0 -131 49.5 -219t147.5 -132.5t242 -44.5q210 0 317.5 115.5t108.5 342.5z" />
    <glyph glyph-name="uniFEDE" unicode="&#x644;" horiz-adv-x="1526" arabic-form="final" 
d="M1129 100l2 1292h142l-1 -997q0 -111 62 -168.5t181 -57.5h18q7 -12 7 -57v-24q0 -57 -8 -73h-22q-149 0 -244 95l-1 -34q-12 -293 -152.5 -437t-411.5 -144q-295 0 -439.5 134.5t-143.5 407.5q0 195 77 390l131 -54q-63 -167 -63 -335q0 -196 111 -296t328 -100
q211 0 318.5 115.5t108.5 342.5z" />
    <glyph glyph-name="uniFEDF" unicode="&#x644;" horiz-adv-x="635" arabic-form="initial" 
d="M-7 15q-21 0 -32 16.5t-11 56.5v19q0 35 10.5 48.5t32.5 13.5h48q139 0 210.5 67.5t71.5 198.5v958h144v-964q0 -140 -47 -231.5t-142.5 -137t-241.5 -45.5h-43z" />
    <glyph glyph-name="uniFEE0" unicode="&#x644;" horiz-adv-x="718" arabic-form="medial" 
d="M43 15h-50q-21 0 -32 16.5t-11 56.5v19q0 35 10.5 48.5t32.5 13.5h52q91 0 153.5 24.5t95.5 74.5t33 123l5 1002h143v-1002q0 -109 59 -165.5t172 -56.5h16q4 -3 7 -19.5t3 -42.5v-19q0 -59 -10 -73h-14q-207 0 -304 135l-12 18l-12 -18q-93 -135 -337 -135z" />
    <glyph glyph-name="uniFEE1" unicode="&#x645;" horiz-adv-x="1242" arabic-form="isolated" 
d="M842 143q71 -1 108 39t37 115q-1 61 -23 115q-47 117 -172 119q-74 1 -130 -54.5t-95 -162.5l-3 -10l8 -7q176 -154 270 -154zM1128 309q0 -137 -66 -226q-66 -91 -210 -91q-48 0 -107.5 21.5t-129.5 63.5q-49 30 -104 58q-37 19 -83 18q-88 -1 -128 -125.5t-39 -365.5
q0 -37 0.5 -73.5t1.5 -71.5t2.5 -68.5t3.5 -65.5t5 -63h-150q-11 182 -10 346q3 339 77 486q75 146 204 166l8 1l4 8q143 362 382 363q155 1 246 -111q93 -112 93 -270z" />
    <glyph glyph-name="uniFEE2" unicode="&#x645;" horiz-adv-x="1306" arabic-form="final" 
d="M847 144q70 -1 106 39t34 115q-1 61 -25 116q-17 38 -41.5 64t-57 39.5t-71.5 13.5q-74 1 -130 -54.5t-95 -162.5l-3 -10l8 -7q175 -153 275 -153zM1311 169q8 -13 8 -62v-19q0 -58 -8 -73h-13q-130 0 -191 95l-14 21l-12 -22q-68 -118 -223 -117q-72 0 -178 49
q-38 18 -134 77q-60 36 -118 35q-88 -2 -128 -127q-40 -124 -39 -364v-73q1 -37 2 -72t3 -68q1 -34 3 -66t5 -63h-150q-10 163 -10 346q0 333 77 486q75 146 204 166l8 1l4 8q142 362 384 363q155 0 244 -114q19 -24 36 -55q16 -30 29 -69q13 -38 22 -83q43 -200 176 -200
h13z" />
    <glyph glyph-name="uniFEE3" unicode="&#x645;" horiz-adv-x="1040" arabic-form="initial" 
d="M631 142q75 0 115 39t40 113q0 68 -22 118q-51 118 -173 118q-148 0 -226 -217l-3 -8l6 -7q137 -156 263 -156zM282 153q-119 -138 -269 -138h-21q-14 0 -22.5 6.5t-14 23t-5.5 43.5v19q0 35 10 48.5t32 13.5h16q88 0 171 100q36 43 78 139q128 281 330 282
q80 0 141.5 -28t107.5 -85q91 -114 91 -268q0 -149 -63 -224q-79 -92 -219 -92q-188 0 -341 160l-11 12z" />
    <glyph glyph-name="uniFEE4" unicode="&#x645;" horiz-adv-x="1102" arabic-form="medial" 
d="M632 142q77 -1 118 39t39 115q0 21 -3 40.5t-8.5 38.5t-13.5 37q-51 117 -175 118q-25 0 -47.5 -6t-43.5 -18.5t-39.5 -30.5t-35 -42.5t-31 -54t-27.5 -65.5l-3 -8l6 -7q134 -155 264 -156zM643 -7q-178 0 -339 160l-12 12l-10 -12q-119 -138 -269 -138h-21q-14 0 -22 6
q-9 7 -15 23q-5 15 -5 44v19q0 35 10 48q10 14 32 14h16q98 0 173 101q37 50 76 139q127 280 330 281q78 0 139 -28q60 -28 105 -85q33 -42 55 -94q23 -52 37 -114q42 -200 172 -200h13q7 -13 7 -62v-19q0 -56 -8 -73h-13q-124 0 -186 95l-12 19l-13 -19q-75 -117 -240 -117
z" />
    <glyph glyph-name="uniFEE5" unicode="&#x646;" horiz-adv-x="1455" arabic-form="isolated" 
d="M1280 -140q-144 -295 -553 -295q-308 0 -459.5 140.5t-150.5 425.5q0 199 84 410l131 -55q-69 -185 -69 -353q0 -209 119 -315t352 -106q228 0 344.5 116t117.5 344q0 180 -85 361l143 50q82 -231 82 -451q0 -80 -14 -148t-42 -124zM581.972 687.204l133.743 133.743
l134.813 -134.812l-133.743 -133.743z" />
    <glyph glyph-name="uniFEE6" unicode="&#x646;" horiz-adv-x="1539" arabic-form="final" 
d="M580.972 615.204l133.743 133.743l134.813 -134.812l-133.743 -133.743zM1335 56q0 -52 -6.5 -99t-18.5 -89t-30 -78q-144 -295 -553 -295q-308 0 -459.5 140.5t-150.5 425.5q0 199 84 410l131 -55q-69 -185 -69 -353q0 -139 53.5 -233t158 -141t259.5 -47
q228 0 344.5 116t117.5 344q0 180 -85 361l143 50l68 -214q42 -130 207 -130h17q3 -5 5 -20t2 -37v-24q0 -57 -8 -73h-12q-118 0 -198 76v-35z" />
    <glyph glyph-name="uniFEE7" unicode="&#x646;" horiz-adv-x="596" arabic-form="initial" 
d="M69 15h-76q-21 0 -32 16.5t-11 56.5v19q0 35 10.5 48.5t32.5 13.5h76q57 0 100 8.5t74 25.5q32 19 52.5 50.5t30.5 74t10 97.5q0 115 -34 254l135 34q44 -147 44 -285q0 -238 -135 -339q-97 -74 -277 -74zM140.972 1046.2l133.743 133.743l134.813 -134.812
l-133.743 -133.743z" />
    <glyph glyph-name="uniFEE8" unicode="&#x646;" horiz-adv-x="667" arabic-form="medial" 
d="M680 88q0 -28 -2.5 -47.5t-5.5 -25.5h-7q-189 0 -259 133l-12 22l-14 -20q-95 -135 -284 -135h-104q-14 0 -22.5 6.5t-14 23t-5.5 43.5v19q0 35 10 48.5t32 13.5h99q193 0 220 144q7 37 7 86q0 51 -3 96l-5 67l135 16l15 -215q7 -95 59.5 -144.5t147.5 -49.5h5
q8 -15 8 -71v-10zM185.972 960.204l133.743 133.743l134.813 -134.812l-133.743 -133.743z" />
    <glyph glyph-name="uniFEE9" unicode="&#x647;" horiz-adv-x="942" arabic-form="isolated" 
d="M452 655q-195 -170 -195 -304q0 -36 9 -65t27 -51t44.5 -36.5t61 -22t76.5 -7.5q108 0 164.5 46.5t55.5 136.5q0 125 -224 304l-10 8zM387 927q449 -333 449 -581q0 -181 -158 -279q-37 -23 -87.5 -35t-114.5 -13q-117 0 -200 41q-160 80 -160 286q0 201 223 418l12 11
l-12 11l-35 30z" />
    <glyph glyph-name="uniFEEA" unicode="&#x647;" horiz-adv-x="1053" arabic-form="final" 
d="M116 406q0 283 508 439l13 4l-2 13l-6 31l132 28l80 -576q8 -57 33.5 -96.5t67.5 -59.5t100 -20h18q7 -12 7 -57v-24q0 -28 -2.5 -47.5t-5.5 -25.5h-21q-133 0 -209 53.5t-100 161.5l-5 25l-19 -17q-39 -34 -80.5 -56.5t-86 -33.5t-92.5 -11q-215 0 -298 139
q-6 10 -11 21.5t-9 24t-6.5 26t-4 28t-1.5 30.5zM636 707q-185 -67 -278.5 -138t-93.5 -151q0 -68 45.5 -102.5t130.5 -34.5q40 0 81 12.5t81 36.5q104 64 82 205l-20 133l-5 28l-2 18l-18 -6z" />
    <glyph glyph-name="uniFEEB" unicode="&#x647;" horiz-adv-x="1395" arabic-form="initial" 
d="M95 15h-102q-21 0 -32 16.5t-11 56.5v19q0 35 10.5 48.5t32.5 13.5h265h50h47l-39 27q-20 14 -36 28.5t-28 28.5q-74 85 -73 188q0 58 20 110.5t61 99.5q100 116 255 116q143 0 238 -90q80 -75 81 -192q0 -173 -151 -265l-35 -22l41 -6q162 -23 210 -23q36 0 63 3.5
t47 11.5q59 23 89 66.5t31 104.5q1 127 -141 257t-424 267l72 128q648 -319 642 -652q-1 -71 -22.5 -129.5t-64.5 -105.5q-93 -104 -292 -104q-154 -1 -379 70l-4 2l-4 -2q-241 -71 -417 -71zM631 322q73 69 76 155q0 58 -33 94q-58 64 -150 64q-28 0 -52 -6t-45 -18
t-38.5 -29.5t-31.5 -40.5q-26 -44 -27 -104q0 -70 66 -129q30 -27 65 -43q12 -6 25.5 -11t27.5 -8l5 -1l5 2q15 7 31 17q43 27 76 58z" />
    <glyph glyph-name="uniFEEC" unicode="&#x647;" horiz-adv-x="992" arabic-form="medial" 
d="M588 -315q1 245 97.5 364.5t292.5 119.5h19q8 -13 8 -62v-19q0 -57 -8 -73h-21h-11t-10 -0.5t-10 -0.5q-133 -11 -190.5 -120.5t-41.5 -309.5l-110 -106q-324 159 -383 524l-2 13h-13h-212q-21 0 -32 16.5t-11 56.5v19q0 35 10.5 48.5t32.5 13.5h199h14l1 14
q19 394 149 534q78 83 192 83q115 0 182 -81q34 -41 50.5 -98.5t16.5 -132.5q-3 -165 -129 -312q-130 -154 -301 -162l-17 -1l3 -17q35 -210 212 -324l23 -15v28zM359 168q124 3 220 106q42 45 63.5 100.5t21.5 119.5q0 69 -29 107.5t-85 40.5q-64 2 -108 -51.5
t-67.5 -154.5t-30.5 -252l-1 -17z" />
    <glyph glyph-name="uniFEED" unicode="&#x648;" horiz-adv-x="860" arabic-form="isolated" 
d="M122 -361q141 28 244 78t168 123t91 169l6 22l-23 -3q-23 -3 -43.5 -5.5t-37.5 -4t-30 -3t-23 -2t-16 -0.5q-178 -1 -264 69.5t-86 215.5q0 118 50 223q90 188 271 188q196 0 280 -219q57 -147 57 -322q0 -272 -147.5 -436t-445.5 -223zM626 203q-11 170 -62.5 258.5
t-146.5 88.5q-107 0 -151 -130q-19 -57 -19 -107q0 -76 55 -114t157 -38q75 1 156 26l11 4v12z" />
    <glyph glyph-name="uniFEEE" unicode="&#x648;" horiz-adv-x="873" arabic-form="final" 
d="M605 15h-146q-179 0 -265 70.5t-86 212.5q0 118 50 223q90 188 271 188q299 0 334 -527l1 -14h14h100q8 -15 8 -70v-10q0 -57 -8 -73l-112 1h-13l-2 -12q-72 -394 -578 -495l-51 130q425 84 498 357l5 19h-20zM626 185q-24 364 -208 365q-36 0 -65 -15t-50.5 -44
t-36.5 -71q-19 -55 -19 -107q0 -48 24 -80.5t69 -48t109 -15.5h162h16z" />
    <glyph glyph-name="uniFEEF" unicode="&#x649;" horiz-adv-x="1504" arabic-form="isolated" 
d="M263 84q0 -83 19.5 -150.5t58 -118.5t96 -85t134 -51t170.5 -18q181 0 324 67q76 35 133 93q59 61 59 139q0 35 -25 53.5t-68 18.5l-114 1q-120 0 -177 45.5t-57 138.5q0 183 116 310q150 164 425 164h6v-163h-7q-165 0 -273 -76q-56 -39 -85.5 -88.5t-30.5 -107.5
q0 -17 5 -31t16 -24q21 -17 64 -17h119q114 1 168 -44.5t54 -139.5q0 -280 -279 -408q-166 -76 -378 -76q-208 0 -345 62.5t-205 187.5t-68 315q0 205 103 453l130 -54q-88 -218 -88 -396z" />
    <glyph glyph-name="uniFEF0" unicode="&#x649;" horiz-adv-x="1503" arabic-form="final" 
d="M1507 169q8 -11 8 -62v-19q0 -59 -8 -73h-140h-15h-23q55 -43 55 -128q0 -143 -174 -257q-51 -34 -107 -59t-117 -42q-60 -16 -125 -25q-65 -8 -135 -8q-307 0 -459 141q-151 141 -150 426q0 183 66 351l131 -55q-51 -145 -51 -297q0 -207 117 -313t345 -107
q174 0 323 67q118 53 169 131q26 39 26 75q0 88 -118 100q-10 1 -29 1h-152q-47 6 -65 82q-10 41 -10 59q0 8 1 12h637z" />
    <glyph glyph-name="uniFEF1" unicode="&#x64a;" horiz-adv-x="1504" arabic-form="isolated" 
d="M263 84q0 -83 19.5 -150.5t58 -118.5t96 -85t134 -51t170.5 -18q181 0 324 67q76 35 133 93q59 61 59 139q0 35 -25 53.5t-68 18.5l-114 1q-120 0 -177 45.5t-57 138.5q0 183 116 310q150 164 425 164h6v-163h-7q-165 0 -273 -76q-56 -39 -85.5 -88.5t-30.5 -107.5
q0 -17 5 -31t16 -24q21 -17 64 -17h119q114 1 168 -44.5t54 -139.5q0 -280 -279 -408q-166 -76 -378 -76q-208 0 -345 62.5t-205 187.5t-68 315q0 205 103 453l130 -54q-88 -218 -88 -396zM764.935 -794.796l133.743 133.743l134.813 -134.812l-133.743 -133.743z
M439.671 -794.796l133.743 133.743l134.813 -134.812l-133.743 -133.743z" />
    <glyph glyph-name="uniFEF2" unicode="&#x64a;" horiz-adv-x="1503" arabic-form="final" 
d="M753.935 -808.796l133.743 133.743l134.813 -134.812l-133.743 -133.743zM428.671 -808.796l133.743 133.743l134.813 -134.812l-133.743 -133.743zM1507 169q8 -11 8 -62v-19q0 -59 -8 -73h-140h-15h-23q55 -43 55 -128q0 -143 -174 -257q-51 -34 -107 -59t-117 -42
q-60 -16 -125 -25q-65 -8 -135 -8q-307 0 -459 141q-151 141 -150 426q0 183 66 351l131 -55q-51 -145 -51 -297q0 -207 117 -313t345 -107q174 0 323 67q118 53 169 131q26 39 26 75q0 88 -118 100q-10 1 -29 1h-152q-47 6 -65 82q-10 41 -10 59q0 8 1 12h637z" />
    <glyph glyph-name="uniFEF3" unicode="&#x64a;" horiz-adv-x="682" arabic-form="initial" 
d="M69 15h-76q-21 0 -32 16.5t-11 56.5v19q0 35 10.5 48.5t32.5 13.5h76q164 0 224 34q93 54 93 222q0 14 -0.5 29t-1.5 30t-2.5 30.5t-4 31.5t-5 32.5t-5.5 33t-6.5 33.5t-8.5 34l135 34q44 -147 44 -285q0 -238 -135 -339q-97 -74 -327 -74zM314.935 -316.796
l133.743 133.743l134.813 -134.812l-133.743 -133.743zM-10.3291 -316.796l133.743 133.743l134.813 -134.812l-133.743 -133.743z" />
    <glyph glyph-name="uniFEF4" unicode="&#x64a;" horiz-adv-x="717" arabic-form="medial" 
d="M314.935 -316.796l133.743 133.743l134.813 -134.812l-133.743 -133.743zM-10.3291 -316.796l133.743 133.743l134.813 -134.812l-133.743 -133.743zM730 88q0 -28 -2.5 -47.5t-5.5 -25.5h-7q-189 0 -259 133l-12 22l-14 -20q-95 -135 -334 -135h-104q-14 0 -22.5 6.5
t-14 23t-5.5 43.5v19q0 35 10 48.5t32 13.5h99q243 0 270 144q7 37 7 86q0 51 -3 96l-5 67l135 16l15 -215q5 -64 30 -107t69.5 -65t107.5 -22h5q8 -15 8 -71v-10z" />
    <glyph glyph-name=".notdef" horiz-adv-x="507" 
 />
    <glyph glyph-name=".null" 
 />
    <glyph glyph-name="nonmarkingreturn" unicode="&#xd;" horiz-adv-x="507" 
 />
    <glyph glyph-name="uni0002" 
 />
    <glyph glyph-name="uni0009" unicode="&#x9;" 
 />
    <glyph glyph-name="space" unicode=" " horiz-adv-x="560" 
 />
    <glyph glyph-name="exclam" unicode="!" horiz-adv-x="641" 
d="M200 140q0 26 8.5 47t26.5 38q36 36 85.5 36t84.5 -35.5t35 -85t-35 -85t-85 -35.5q-9 0 -17 1t-16 3.5t-15 5.5t-14 7.5t-13 9.5q-25 21 -36 47q-5 11 -7 22.5t-2 23.5zM229 1392h186l-24 -928h-137z" />
    <glyph glyph-name="quotedbl" unicode="&#x22;" horiz-adv-x="655" 
d="M262 1401l-29 -344h-82l1 333v131h110v-120zM532 1401l-29 -344h-82l1 341v123h110v-120z" />
    <glyph glyph-name="numbersign" unicode="#" horiz-adv-x="1275" 
d="M734 425h-294l-80 -410h-113l80 410h-242v107h262l75 384h-261v109h282l82 416h113l-82 -416h294l82 416h114l-82 -416h207v-109h-228l-75 -384h228v-107h-248l-80 -410h-114zM460 532h294l75 384h-294z" />
    <glyph glyph-name="dollar" unicode="$" horiz-adv-x="1090" 
d="M806 271q20 47 20 104q0 48 -16 89q-16 40 -52 76q-9 8 -19 17q-10 8 -20.5 16t-22 15.5t-24.5 14.5q-25 15 -56 28.5t-68 26.5q-87 29 -156 67q-34 19 -65 41t-57 47q-17 16 -31 34.5t-25.5 38.5t-20.5 42q-14 32 -20.5 70t-6.5 81q0 80 24 146t68.5 114.5t107.5 78.5
q59 30 133 40l13 2v217h110v-218l12 -2q75 -11 136 -45q63 -34 108 -90q86 -110 90 -299h-154q-2 61 -17 112q-17 59 -50 102q-32 44 -78 68.5t-105 24.5q-12 0 -23.5 -0.5t-22 -2t-21 -4t-20 -5t-18.5 -6.5q-46 -18 -76 -51t-46 -79q-6 -15 -9.5 -31.5t-5 -33.5t-1.5 -35
q0 -51 15 -92t48 -76q32 -33 85 -63q52 -29 130 -56q44 -16 83 -33t75 -36q37 -19 67.5 -40.5t55 -46t43.5 -52.5t32 -61q26 -64 26 -149q0 -84 -26 -151q-26 -66 -74.5 -113.5t-116.5 -76.5q-67 -29 -146 -38l-13 -1v-190h-109v190l-13 1q-69 7 -134 34q-35 13 -65.5 32.5
t-56.5 45.5q-53 51 -85 129q-5 12 -9 25t-7.5 27t-6.5 28.5t-4.5 30t-3 31.5t-1.5 33h155q2 -78 26 -132q13 -30 30.5 -53.5t39.5 -41.5q13 -11 27 -20.5t29.5 -16.5t31.5 -12q48 -13 96 -13q64 0 114 17q51 18 88 50q38 33 59 79z" />
    <glyph glyph-name="percent" unicode="%" horiz-adv-x="1440" 
d="M105 1099v77q0 59 20 111q19 52 55.5 90.5t89 61.5t117.5 23q32 0 60.5 -5.5t54.5 -17.5q16 -7 31.5 -16.5t28.5 -20.5t25 -24q34 -39 53 -91q9 -26 14 -53.5t5 -57.5v-77q0 -58 -19 -110q-9 -26 -22 -48.5t-30.5 -41.5t-39 -34.5t-46.5 -26.5q-50 -23 -114 -23
q-21 0 -41 3q-21 2 -40 7t-37 13q-52 23 -89 61q-19 19 -33 41.5t-23.5 48.5t-14.5 53.5t-5 56.5zM213 1176v-77q0 -12 1 -24.5t3.5 -24t6.5 -22.5q11 -35 32 -62q22 -28 56 -44.5t76 -16.5t74 17q8 4 15.5 8.5t14 10t12.5 11.5t11 13q10 14 17.5 29.5t12.5 32.5q3 9 4.5 18
l3 18t2 18t0.5 18v77q0 37 -10 72q-11 35 -31 62q-21 28 -53 44q-17 9 -35.5 13t-38.5 4q-44 0 -77 -16.5t-54 -44.5q-22 -27 -32 -62q-11 -35 -11 -72zM796 279v78q0 10 0.5 19.5t1.5 19t3 18.5l4 18t4.5 18t5.5 18q5 13 10.5 25t12.5 23.5t14.5 22t16.5 19.5
q35 38 85.5 61t113.5 23q22 0 42 -3q21 -2 40 -7t37 -13q52 -23 89 -61q18 -19 32 -41.5t23 -48.5q20 -53 20 -111v-78q0 -59 -20 -111q-9 -26 -23 -48.5t-32 -41.5q-37 -38 -89 -61t-116.5 -23t-115 23t-86.5 61q-18 19 -31.5 41.5t-22.5 48.5q-19 52 -19 111zM900 357v-78
q0 -19 2.5 -37t7.5 -35q11 -35 32 -62q21 -28 53 -44q17 -9 35.5 -13t39.5 -4q14 0 27 2t25.5 5.5t23.5 9.5q33 16 54 44q22 27 32 62t10 72v78q0 37 -11 72q-10 35 -32 62q-21 27 -55 43q-17 9 -36 13t-39.5 4t-39 -4t-34.5 -13q-16 -8 -29.5 -19t-24 -24t-18 -29
t-13.5 -33q-10 -35 -10 -72zM1093 1243l-669 -1112l-76 50l668 1112z" />
    <glyph glyph-name="ampersand" unicode="&#x26;" horiz-adv-x="1273" 
d="M116 391q0 63 20 114q19 51 55 97q37 46 88 88q51 43 113 87l13 9l-10 13q-37 44 -67 85q-29 40 -50 80q-21 39 -32 78t-11 80t6.5 77.5t18.5 68.5q25 62 70.5 105t109.5 65q32 12 68 17.5t76 5.5q39 0 73.5 -6t65 -18t56.5 -28t48 -36q42 -40 65 -93q6 -13 10 -26.5
t7 -27.5t4.5 -28.5t1.5 -29.5q0 -25 -3.5 -48t-10.5 -44q-14 -41 -38 -78q-7 -9 -13.5 -18t-14 -18t-16 -17t-17.5 -16q-18 -17 -37.5 -33.5t-40.5 -32.5l-123 -90l349 -417l10 20q33 63 52 137q16 68 18 144h137q-2 -115 -29 -212q-4 -13 -8 -25.5t-9 -25t-10 -24.5
t-10.5 -23.5t-12 -23t-13 -22.5t-13.5 -22t-15 -21l-7 -10l195 -233h-183l-102 121l-12 -10q-37 -33 -80.5 -57.5t-91 -40.5t-97 -24.5t-97.5 -8.5q-106 0 -192 30q-84 29 -143 82q-20 17 -36 36.5t-29.5 41.5t-24.5 46q-31 73 -31 160zM572 116q37 0 74 7.5t73 22.5
q9 4 17.5 8t17.5 8.5t17 9.5t16.5 10.5t16.5 11.5l16 12t16 12.5t15 13.5l11 10l-374 446l-53 -39q-55 -41 -88 -80q-16 -19 -28.5 -37t-20.5 -35q-17 -34 -22 -62q-5 -27 -5 -44q0 -28 4.5 -54.5t13.5 -51.5q10 -25 24 -47t33 -41q38 -38 95 -60q56 -21 131 -21zM390 1128
q0 -59 34 -122q32 -60 87 -127l9 -11l117 82l20 14t19 14t17 15q26 22 44 47q19 26 28 57q4 16 6.5 33.5t2.5 37.5q0 33 -13 64q-12 31 -37 54q-25 24 -60 38q-12 5 -25 8.5t-27 5t-29 1.5q-12 0 -23 -1t-21.5 -3t-20 -5.5t-18.5 -7.5q-36 -17 -61 -46q-6 -8 -11.5 -16
t-10 -16t-8.5 -17t-7 -19q-6 -19 -9 -39t-3 -41z" />
    <glyph glyph-name="quotesingle" unicode="'" horiz-adv-x="357" 
d="M238 1425l-20 -353h-100l1 337v112h119v-96z" />
    <glyph glyph-name="parenleft" unicode="(" horiz-adv-x="700" 
d="M148 591q0 48 2.5 94t7.5 90t13 86q11 63 26.5 121.5t34.5 111.5q38 107 88 195q25 44 50.5 82.5t52.5 72.5q18 22 36 42t36 38t35 34q44 39 84 63l30 -95q-29 -22 -57.5 -52t-56.5 -68q-62 -80 -113 -198q-12 -29 -23.5 -60.5t-22 -65.5t-19.5 -70t-17 -74
q-32 -153 -32 -345v-14q0 -192 32 -345q32 -154 82 -271q51 -118 112 -200q58 -77 115 -125l-29 -86q-7 4 -13.5 8.5t-13.5 9.5l-14 10t-14 11t-14.5 12t-14.5 12q-54 47 -108 114.5t-103.5 154.5t-87.5 194t-61 232.5t-23 270.5v10z" />
    <glyph glyph-name="parenright" unicode=")" horiz-adv-x="712" 
d="M552 581q0 -145 -23 -270.5t-61 -232.5q-19 -53 -41 -101.5t-46.5 -92t-50.5 -82t-53 -72.5q-54 -68 -108 -115q-44 -39 -84 -63l-29 86q56 45 114 121q62 82 112 201t82 273t32 346v14q0 96 -8.5 182.5t-25.5 164.5t-38 146.5t-47 127.5q-52 119 -113 200
q-56 76 -108 121l29 86q40 -24 84 -63q54 -47 108 -114q13 -17 26.5 -35t26 -37.5t25.5 -40t25 -42.5q50 -88 88 -195q19 -53 34.5 -111.5t26.5 -121.5q23 -126 23 -270v-10z" />
    <glyph glyph-name="asterisk" unicode="*" horiz-adv-x="882" 
d="M355 991l-308 92l37 121l308 -114l-10 351h123l-11 -356l303 112l37 -122l-313 -93l202 -276l-99 -75l-190 294l-184 -288l-100 73z" />
    <glyph glyph-name="plus" unicode="+" horiz-adv-x="1161" 
d="M655 766h406v-145h-406v-460h-156v460h-406v145h406v425h156v-425z" />
    <glyph glyph-name="comma" unicode="," horiz-adv-x="402" 
d="M293 71q0 -22 -3 -44.5t-8 -46.5q-12 -48 -33 -94q-11 -23 -24.5 -45.5t-28.5 -43.5q-28 -38 -63 -68l-83 57q42 62 66 126q26 72 26 156v136h151v-133z" />
    <glyph glyph-name="hyphen" unicode="-" horiz-adv-x="565" 
d="M510 558h-458v121h458v-121z" />
    <glyph glyph-name="period" unicode="." horiz-adv-x="641" 
d="M200 140q0 26 8.5 47t26.5 38q36 36 85.5 36t84.5 -35.5t35 -85t-35 -85t-85 -35.5q-9 0 -17 1t-16 3.5t-15 5.5t-14 7.5t-13 9.5q-25 21 -36 47q-5 11 -7 22.5t-2 23.5z" />
    <glyph glyph-name="slash" unicode="/" horiz-adv-x="844" 
d="M167 -110h-127l596 1551h126z" />
    <glyph glyph-name="zero" unicode="0" horiz-adv-x="893" 
d="M294 543q0 -66 46 -111q22 -23 50.5 -34.5t62.5 -11.5q33 0 61 11.5t50 34.5q12 11 20.5 24t13.5 27q12 28 12 60.5t-12 60.5q-5 14 -13.5 26.5t-20.5 24.5q-22 22 -50.5 33.5t-61.5 12.5q-33 -1 -61 -12q-14 -6 -27 -14.5t-24 -19.5q-46 -46 -46 -112zM234 757
q23 22 47 38.5t51 27.5q53 23 115 23q20 0 40 -2.5t38 -7.5q10 -3 19 -6t17.5 -6.5t17.5 -8t17 -9.5q17 -10 32.5 -22t30.5 -27q45 -45 67 -98t22 -115q0 -123 -89 -212q-22 -22 -46.5 -38.5t-50.5 -27.5q-9 -4 -18 -7t-18.5 -5.5t-18.5 -4.5q-29 -5 -60 -5q-62 0 -115 22
q-9 3 -17.5 7.5t-17.5 9.5q-16 9 -32 22q-8 6 -15.5 13t-15.5 14q-44 44 -66 97t-22 115t22 115t66 98z" />
    <glyph glyph-name="one" unicode="1" horiz-adv-x="716" 
d="M302 1357q197 -442 197 -1068v-262h-149v265q0 632 -184 1017z" />
    <glyph glyph-name="two" unicode="2" horiz-adv-x="1197" 
d="M397 1089q66 -182 288 -182q117 0 170 102q27 54 41 139q14 84 15 201h150q-1 -66 -5 -124q-19 -251 -105 -360q-93 -116 -262 -115q-131 0 -228 61q38 -287 38 -522v-262h-149v265q0 632 -184 1017l134 48z" />
    <glyph glyph-name="three" unicode="3" horiz-adv-x="1492" 
d="M499 289v-262h-149v265q0 632 -184 1017l134 48l105 -300q46 -133 205 -134q56 -1 93 28t55 82q18 57 18 132l1 132l129 4l3 -129q3 -124 46 -190q42 -65 125 -66q82 -1 113 68t32 264v118h147l-1 -115q-1 -280 -80 -391q-70 -98 -204 -97q-144 1 -236 108l-2 3l-12 13
l-11 -14l-2 -2q-45 -55 -95 -82t-106 -27q-103 0 -162 49q38 -288 38 -522z" />
    <glyph glyph-name="four" unicode="4" horiz-adv-x="1244" 
d="M1066 1332l-36 -144q-37 13 -74 19.5t-76 6.5q-53 0 -99 -14q-46 -13 -83 -40q-123 -93 -136 -231q-3 -30 20 -55q23 -26 69 -50q37 -19 87 -29q51 -9 115 -9q132 0 250 44l19 -145q-117 -49 -249 -49q-269 1 -418 180l7 -52l2 -11q17 -115 26 -238q9 -121 9 -226v-262
h-149v265q0 632 -184 1017l134 48q27 -78 56 -164q29 -85 61 -181l15 -45l14 45l15 51q43 141 145 225q103 87 249 86q111 0 211 -42z" />
    <glyph glyph-name="five" unicode="5" horiz-adv-x="1288" 
d="M269 339q0 -49 11.5 -83.5t36 -53.5t61.5 -19q158 0 224 295l99 -1q53 -298 198 -298q60 0 90 42t30 119q0 340 -379 721l-13 12l-10 -13q-116 -153 -193 -283t-116 -239.5t-39 -198.5zM363 27q-120 0 -179.5 76.5t-59.5 235.5q0 319 382 832l1 2l8 11l-9 9l-2 1l-44 42
l105 128l113 -107q487 -478 486 -908q0 -164 -62 -243t-188 -79q-183 0 -262 222q-75 -222 -289 -222z" />
    <glyph glyph-name="six" unicode="6" horiz-adv-x="1104" 
d="M740 1201q-25 2 -50 3t-52 1q-199 0 -280 -92q-61 -68 -61 -149q0 -230 392 -231h1l2 1h1l2 1h2q178 97 263 134l6 -154q-436 -201 -656 -725l-141 47q128 313 366 548l23 23l-32 3q-195 18 -289.5 107t-93.5 251q0 18 1.5 35.5t4.5 34.5t7.5 33.5t10.5 32.5t13 31
q112 227 426 225q36 0 75 -3t80 -8z" />
    <glyph glyph-name="seven" unicode="7" horiz-adv-x="1281" 
d="M1163 1284q-104 -210 -189 -420t-150 -419t-112 -418h-143q-140 629 -451 1256l142 72q261 -564 366 -1031l14 -65l15 65q105 468 366 1031z" />
    <glyph glyph-name="eight" unicode="8" horiz-adv-x="1281" 
d="M1163 84l-142 -72q-131 282 -222 539.5t-144 491.5l-15 66l-14 -66q-105 -467 -366 -1031l-142 72q311 627 451 1257h143q139 -629 451 -1257z" />
    <glyph glyph-name="nine" unicode="9" horiz-adv-x="1139" 
d="M500 590q-319 0 -365 242q-8 44 -8 94q0 141 68 251q59 94 138.5 141t181.5 47q177 0 271.5 -119.5t107.5 -364.5q11 -217 19 -431t13 -423h-142l-13 616v24l-22 -11q-66 -33 -128.5 -49.5t-120.5 -16.5zM503 750q110 0 242 66l9 5l-1 10l-2 23q-29 350 -227 350
q-24 0 -46 -4t-42 -11.5t-38 -19t-34 -26.5t-30 -34q-62 -84 -62 -174q0 -61 27 -102.5t78 -62t126 -20.5z" />
    <glyph glyph-name="colon" unicode=":" horiz-adv-x="641" 
d="M200 1010q0 50 35 85q9 9 19 16t20.5 11t22 6.5t23.5 2.5q25 0 46 -9t39 -27q9 -9 15.5 -18.5t11 -20t6.5 -22t2 -24.5q0 -49 -35 -84q-18 -18 -39 -27t-46 -9q-11 0 -21 2t-19.5 5t-18 8t-16.5 12q-7 5 -12 10.5t-9.5 11.5t-8 12.5t-6.5 12.5q-3 7 -5 14.5t-3 15.5
t-1 16zM200 140q0 26 8.5 47t26.5 38q36 36 85.5 36t84.5 -35.5t35 -85t-35 -85t-85 -35.5q-9 0 -17 1t-16 3.5t-15 5.5t-14 7.5t-13 9.5q-25 21 -36 47q-5 11 -7 22.5t-2 23.5z" />
    <glyph glyph-name="semicolon" unicode=";" horiz-adv-x="433" 
d="M167 1023q0 26 8.5 47t26.5 38q36 36 85.5 36t84.5 -35.5t35 -85t-35 -85t-85 -35.5q-9 0 -17 1t-16 3.5t-15 5.5t-14 7.5t-13 9.5q-25 21 -36 47q-5 11 -7 22.5t-2 23.5zM305 71q0 -22 -3 -44.5t-8 -46.5q-12 -48 -33 -94q-11 -23 -24.5 -45.5t-28.5 -43.5
q-28 -38 -63 -68l-83 57q42 62 66 126q26 72 26 156v136h151v-133z" />
    <glyph glyph-name="less" unicode="&#x3c;" horiz-adv-x="1041" 
d="M224 644l651 -263v-163l-788 366v126l788 365v-163z" />
    <glyph glyph-name="equal" unicode="=" horiz-adv-x="1124" 
d="M971 829h-804v131h804v-131zM971 414h-804v130h804v-130z" />
    <glyph glyph-name="greater" unicode="&#x3e;" horiz-adv-x="1070" 
d="M836 650l-687 269v157l824 -365v-126l-824 -366v159z" />
    <glyph glyph-name="question" unicode="?" horiz-adv-x="967" 
d="M372 425q2 61 10 105q8 49 27.5 89.5t50.5 78.5q32 39 80 88q34 34 65 66q16 16 30.5 33t26.5 34q24 35 39 76t15 95q0 111 -59 175t-171 64q-46 0 -89 -12q-21 -6 -40.5 -16t-36.5 -23t-30.5 -30t-23.5 -37q-18 -35 -21 -81h-155q4 73 32 131q30 64 83 108q52 45 124 68
q72 24 157 24q47 0 88.5 -6.5t77 -19t65.5 -31t55 -41.5q48 -47 73 -115q13 -34 19.5 -72t6.5 -80v-13.5t-0.5 -12.5t-1 -12.5t-1.5 -12.5l-2 -12l-2 -12t-2.5 -12t-3.5 -12t-3.5 -11.5t-3.5 -11.5q-4 -11 -8.5 -22.5t-10 -22.5l-11 -22t-12 -21.5t-13.5 -20.5
q-17 -26 -37 -51t-42 -48q-45 -47 -92 -92q-29 -27 -48.5 -57.5t-29.5 -64.5q-9 -29 -14 -61.5t-6 -65.5h-155zM364 93q0 39 24 65q23 26 70 26t71 -26q12 -13 18 -29t6 -36q0 -39 -24 -64q-23 -25 -70.5 -25t-71.5 25q-23 25 -23 64z" />
    <glyph glyph-name="at" unicode="@" horiz-adv-x="1839" 
d="M1720 503q-3 -60 -14 -122t-31 -119q-21 -56 -52 -105t-74 -85q-14 -12 -29.5 -22t-33 -19t-35.5 -15q-56 -21 -125 -21q-89 0 -145.5 41t-80.5 116l-9 31l-18 -27q-52 -82 -118 -122q-66 -39 -136 -39t-121 29q-51 31 -84 84q-33 54 -45 132q-13 79 -4 176
q12 130 51 234q39 103 97 176q28 36 60 63.5t67 46.5q17 9 34.5 16.5t35.5 12t36 7t36 2.5q52 0 92 -8t72.5 -22t59.5 -32q25 -17 49 -36l-51 -546q-6 -75 4 -123q11 -49 33 -76q11 -14 24 -24t28 -15q28 -9 54 -9q21 0 41 4t38.5 11.5t35.5 18.5q50 33 84 91q34 56 53 132
q9 38 14.5 78.5t7.5 82.5q2 47 1.5 92t-3.5 87.5t-9 82t-14 77.5q-35 151 -116 256q-81 106 -211 162q-128 56 -305 56q-160 0 -290 -61t-223 -172q-31 -37 -57.5 -78.5t-48.5 -88t-39.5 -97.5t-30 -106t-20 -113t-10.5 -119q-9 -190 30 -341q20 -76 50.5 -140.5
t72.5 -118.5q83 -107 209 -165q126 -57 289 -57q22 0 45 1.5t46 4.5q47 5 91 16t84 25l20 8t19 8.5l17 8.5l28 -86q-15 -9 -31.5 -17t-35.5 -14q-44 -17 -93 -28q-24 -6 -49 -10t-50 -6.5t-48.5 -4t-46.5 -1.5q-62 0 -120 7t-111 21t-102 35q-145 63 -243 182
q-98 118 -147 288q-48 170 -39 382q9 203 72 375t172 298q108 125 258.5 195.5t335.5 70.5q189 0 333 -64q145 -64 240 -182t142 -287q46 -170 37 -380zM694 418q-3 -29 -3.5 -55t1 -50t5.5 -45.5t10.5 -40.5t14.5 -35q45 -84 142 -84q15 0 29.5 3t30 9t30.5 15.5t29 21.5
q29 25 55 64q14 20 25.5 43t21.5 51l1 2v3v4l1 2l47 515l-9 4q-13 7 -27.5 12.5t-30.5 9.5q-32 9 -69 9q-58 0 -110 -30q-51 -30 -91 -89q-40 -57 -66 -143q-27 -84 -37 -196z" />
    <glyph glyph-name="A" unicode="A" horiz-adv-x="1276" 
d="M1071 15l-137 380h-606l-134 -380h-166l533 1426h141l533 -1426h-164zM631 1263l-257 -740h516z" />
    <glyph glyph-name="B" unicode="B" horiz-adv-x="1215" 
d="M647 15h-478v1426h447q52 0 98 -5.5t86 -16.5t75 -28q36 -17 65 -39q59 -46 90 -115q15 -35 23 -77t8 -92q0 -49 -13.5 -91.5t-41.5 -80.5q-19 -25 -41.5 -46t-50.5 -38.5t-60 -31.5l-37 -17l39 -11q15 -5 28.5 -10t26.5 -11t25.5 -12.5t23.5 -14.5q45 -32 76 -75
q16 -21 27.5 -45t20.5 -51q16 -54 16 -113q0 -99 -33 -174q-11 -26 -25 -48.5t-31.5 -42t-37.5 -36.5q-30 -26 -66.5 -45.5t-78.5 -32.5q-81 -26 -181 -26zM656 696h-325v-554h316q67 0 119 19q18 7 33.5 15t30 18t26.5 22q40 36 60 88q21 51 21 114q0 31 -4 59.5t-13 54.5
q-3 10 -7.5 20t-9.5 19t-10.5 17.5t-12.5 16.5l-14 16q-35 36 -88 56q-52 19 -122 19zM331 1313v-493h291q15 0 29.5 1t28 3t26.5 5t26 8q25 8 46.5 20t39.5 28q13 11 23 23.5t19.5 26.5t16.5 29q10 24 15.5 50t5.5 55q0 127 -74 186q-69 58 -208 58h-285z" />
    <glyph glyph-name="C" unicode="C" horiz-adv-x="1273" 
d="M1015 432h163q-13 -91 -47 -171q-38 -85 -103 -148q-33 -31 -73 -55q-40 -25 -85 -42q-91 -36 -212 -36q-120 0 -217 48q-98 47 -170 135q-73 88 -112 212q-40 124 -40 277v149q0 154 40 279q40 124 114 212q37 44 82 78q43 34 93 58q100 48 226 48q114 0 202 -35
q89 -35 153 -97q13 -13 25 -26.5t22.5 -27.5t20 -29.5t18.5 -32t16 -33.5q35 -81 47 -177h-163q-11 70 -33 127q-24 64 -66 109q-20 23 -45.5 40.5t-54.5 29.5q-60 24 -142 24q-96 0 -169 -40t-122 -112q-50 -72 -76 -173q-25 -99 -25 -219v-152q0 -37 2.5 -72.5t7.5 -70
t13 -66.5q23 -99 70 -174q7 -12 15.5 -24t17.5 -22.5t18.5 -20.5t20 -19t21.5 -17t23 -15q35 -22 77 -33t90 -11q44 0 82 5.5t69 17.5q13 4 24.5 9.5t22.5 12t21 13.5t19.5 15t17.5 17q43 44 67 107q22 57 34 128z" />
    <glyph glyph-name="D" unicode="D" horiz-adv-x="1283" 
d="M540 15h-371v1426h388q66 0 126.5 -11.5t114.5 -35.5q109 -47 191 -133q82 -87 127 -211q46 -125 46 -280v-86q0 -155 -46 -280q-22 -62 -54.5 -114.5t-73.5 -95.5q-83 -86 -195 -133q-113 -46 -253 -46zM557 1313h-226v-1171h209q113 0 199 39t143 110q59 72 90 172
q30 99 30 221v89q0 127 -31 227q-15 50 -38 93q-22 42 -50.5 77t-63.5 62t-76 45q-82 36 -186 36z" />
    <glyph glyph-name="E" unicode="E" horiz-adv-x="1104" 
d="M932 815v-127h-601v-546h703v-127h-865v1426h855v-128h-693v-498h601z" />
    <glyph glyph-name="F" unicode="F" horiz-adv-x="1072" 
d="M912 785v-127h-581v-643h-162v1426h842v-128h-680v-528h581z" />
    <glyph glyph-name="G" unicode="G" horiz-adv-x="1335" 
d="M1184 710v-525q-10 -14 -23.5 -29.5t-30.5 -32.5q-35 -36 -94 -67q-58 -32 -142 -54q-82 -22 -197 -22q-124 0 -227 46.5t-181 134.5q-40 44 -70.5 98t-52.5 118q-44 129 -44 293v116q0 164 38 293q37 127 110 216q72 88 174 134q50 24 108 35.5t124 11.5q116 0 203 -33
q44 -16 81 -38q39 -23 71 -51.5t57.5 -63t43.5 -73.5q35 -73 49 -158h-162q-11 54 -33 103q-24 55 -67 96q-20 21 -45.5 37.5t-54.5 28.5q-60 24 -142 24q-101 0 -174 -40q-24 -13 -46 -30t-40.5 -38t-34.5 -45q-49 -73 -73 -176t-24 -231v-118q0 -66 7.5 -125t23.5 -110
q30 -105 85 -178q54 -73 129.5 -111.5t167.5 -38.5q75 0 128 11q27 6 49.5 12.5t40.5 15.5q39 17 63 37t40 37l4 5v359h-324v126h485z" />
    <glyph glyph-name="H" unicode="H" horiz-adv-x="1400" 
d="M1228 1441v-1426h-163v673h-734v-673h-162v1426h162v-626h734v626h163z" />
    <glyph glyph-name="I" unicode="I" horiz-adv-x="527" 
d="M345 1441v-1426h-162v1426h162z" />
    <glyph glyph-name="J" unicode="J" horiz-adv-x="1070" 
d="M749 410v1016h163v-1016q0 -35 -4 -67.5t-11 -62t-18 -56.5q-33 -80 -92 -134t-139 -82q-38 -14 -79.5 -21t-86.5 -7q-91 0 -167 25q-80 24 -138 75q-59 50 -91 126q-31 71 -33 166h162q1 -16 2.5 -30.5t4 -28.5t6 -26.5t8.5 -24.5q21 -53 59 -87q35 -35 83 -52
q47 -16 104 -16q7 0 13.5 0.5t13.5 1t13.5 1.5l13 2t12.5 2.5t12.5 3.5t12.5 4l12 4q24 10 45 24.5t38 33.5q39 39 60 96q21 56 21 130z" />
    <glyph glyph-name="K" unicode="K" horiz-adv-x="1224" 
d="M1017 15l-497 685l-189 -202v-483h-162v1426h162v-744l639 744h192l-541 -627l589 -799h-193z" />
    <glyph glyph-name="L" unicode="L" horiz-adv-x="1042" 
d="M332 1441v-1299h660v-127h-823v1426h163z" />
    <glyph glyph-name="M" unicode="M" horiz-adv-x="1728" 
d="M169 1441h223l471 -1213l471 1213h224v-1426h-162v552l20 695l-492 -1247h-123l-492 1244l22 -692v-552h-162v1426z" />
    <glyph glyph-name="N" unicode="N" horiz-adv-x="1400" 
d="M1228 1441v-1426h-170l-726 1157v-1157h-163v1426h170l728 -1162v1162h161z" />
    <glyph glyph-name="O" unicode="O" horiz-adv-x="1348" 
d="M1229 774v-94q0 -165 -41 -295q-20 -65 -48.5 -119.5t-66.5 -100.5q-73 -90 -174 -137q-100 -48 -224 -48q-40 0 -78 5.5t-73.5 16t-68.5 26.5q-101 47 -177 137q-25 31 -46.5 65t-39.5 73t-32 82q-21 65 -31.5 138.5t-10.5 156.5v94q0 164 42 295q42 130 117 221
q25 30 53.5 55t58.5 46t64 37q100 48 220 48q124 0 225 -48q50 -24 93 -59q45 -34 82 -79.5t66 -100.5t49 -120q41 -131 41 -295zM1068 680v96q0 68 -6.5 128t-20.5 112t-34 96.5t-45 81t-56 64t-68 46t-78 28t-87 9.5q-88 0 -160.5 -37.5t-124.5 -110.5q-52 -72 -80 -177
q-29 -104 -29 -240v-96q0 -137 29 -241q29 -105 82 -178q51 -73 124 -111q24 -12 50 -20.5t54 -12.5t57 -4q93 0 165 37q73 38 124 111t78 178q26 105 26 241z" />
    <glyph glyph-name="P" unicode="P" horiz-adv-x="1232" 
d="M675 585h-344v-570h-162v1426h506q23 0 45 -1.5t42.5 -4t40.5 -6t38.5 -9t35.5 -11.5q44 -16 82.5 -38.5t69.5 -51.5q62 -57 95 -135q32 -79 32 -173q0 -102 -32 -182q-33 -79 -94 -133q-62 -54 -152 -82q-88 -29 -203 -29zM331 1313v-601h344q27 0 51.5 2.5t47 7
t42.5 12.5q30 11 54.5 26.5t44.5 35.5q41 40 60 95q10 27 14.5 56.5t4.5 61.5q0 19 -2 38.5t-6.5 38t-10.5 36.5q-9 28 -24 52.5t-36 45.5q-38 43 -98 68t-142 25h-344z" />
    <glyph glyph-name="Q" unicode="Q" horiz-adv-x="1348" 
d="M1221 775v-94q0 -212 -66 -364q-32 -76 -78 -135t-105 -102l-15 -12l261 -209l-109 -100l-295 240l-7 -1q-66 -18 -141 -18q-40 0 -78 5.5t-73.5 16t-68.5 26.5q-101 47 -177 137q-25 31 -46.5 65t-39.5 73t-32 82q-21 65 -31.5 138.5t-10.5 156.5v94q0 164 42 295
q42 130 117 221q38 45 83 79q43 35 93 59q100 48 220 48q124 0 225 -48q50 -24 93 -59q45 -34 82.5 -79t66.5 -100t49 -121q41 -130 41 -294zM1059 680v96q0 68 -6.5 128t-20.5 112q-7 26 -15 50t-18 46.5t-22 42.5q-11 20 -23 38q-51 73 -124 111q-18 9 -38 16t-40.5 11.5
t-42.5 7t-45 2.5q-44 0 -84 -9.5t-76 -27.5q-72 -38 -124 -111q-52 -72 -80 -177q-29 -104 -29 -240v-96q0 -137 29 -241q29 -105 81 -178q51 -73 124 -111q24 -12 50 -20.5t54 -12.5t57 -4q93 0 165 37q73 38 124 111t78 178q26 105 26 241z" />
    <glyph glyph-name="R" unicode="R" horiz-adv-x="1201" 
d="M983 15l-302 589h-350v-589h-163v1426h455q114 0 200.5 -27t150.5 -81q127 -108 127 -315q0 -66 -17.5 -123t-53.5 -105q-71 -98 -193 -146l-15 -6l339 -623h-178zM331 1313v-582h297q38 0 71.5 5.5t62.5 16.5q58 23 97 62q39 38 58 91q21 52 21 112q0 22 -2 42.5
t-6.5 40t-10.5 37.5q-19 54 -58 93.5t-99 60.5q-30 11 -64.5 16t-74.5 5h-292z" />
    <glyph glyph-name="S" unicode="S" horiz-adv-x="1155" 
d="M828 174q87 68 87 185q0 13 -1 26t-3 25t-5.5 23.5t-7.5 22.5q-17 44 -59 79q-20 18 -46 34t-59 31q-64 30 -162 61q-25 7 -49 15.5t-47 17.5t-44.5 18.5t-41.5 19.5q-82 39 -142 91q-59 50 -91 115q-31 64 -31 147q0 21 2 41.5t6.5 39.5t10.5 37.5t15 36.5q34 71 96 123
q63 53 147 83t187 30q114 0 202 -36q91 -36 154 -95t96 -136q15 -35 23 -71.5t9 -72.5h-163q-2 55 -20 103q-20 55 -63 96q-20 20 -45 35.5t-54.5 26.5t-64 16.5t-74.5 5.5q-25 0 -47.5 -2t-43.5 -6.5t-40 -10.5q-28 -10 -51.5 -23t-41.5 -31q-38 -34 -57 -82
q-19 -46 -19 -102q0 -50 21 -93q10 -21 26 -40q15 -19 36 -36q13 -12 29 -22.5t34.5 -20.5t39.5 -20q61 -28 147 -53q39 -12 74 -25t66.5 -26t59.5 -28q87 -42 144 -96q28 -26 49 -55.5t34.5 -62.5t20.5 -70.5t7 -79.5q0 -87 -35 -157q-17 -36 -41.5 -66t-56.5 -55
q-64 -50 -153 -78q-86 -27 -192 -27q-62 0 -124 12q-31 6 -61 15.5t-58 21.5q-58 24 -109 60q-17 12 -32.5 25.5t-29.5 28t-26.5 30t-23 32.5t-19.5 35t-16 38q-19 52 -21 114h163q3 -70 31 -121q5 -8 9.5 -15.5t10 -15t11 -14t12 -13t12.5 -13t13 -12t14 -10.5
q49 -37 112 -54t132 -17q148 0 228 67z" />
    <glyph glyph-name="T" unicode="T" horiz-adv-x="1162" 
d="M1115 1441v-128h-457v-1298h-153v1298h-456v128h1066z" />
    <glyph glyph-name="U" unicode="U" horiz-adv-x="1268" 
d="M971 1426h163v-971q0 -40 -4.5 -76.5t-14 -69.5t-23.5 -63q-41 -89 -111 -148t-160 -88q-88 -30 -186 -30q-102 0 -191 30q-90 29 -158 88t-107 148t-39 209v971h160v-971q0 -88 26 -153q8 -22 19 -41.5t24 -36.5t28 -31q44 -44 105 -65q60 -21 133 -21q74 0 135 21
q12 4 23.5 9t22.5 11t21 13t19.5 15t18.5 17q15 14 28 31t24 36.5t19 41.5q25 65 25 153v971z" />
    <glyph glyph-name="V" unicode="V" horiz-adv-x="1243" 
d="M205 1441l409 -1232l412 1232h178l-517 -1426h-143l-516 1426h177z" />
    <glyph glyph-name="W" unicode="W" horiz-adv-x="1757" 
d="M222 1441l224 -985l38 -269l57 249l278 1005h136l270 -1005l56 -251l42 272l220 984h162l-343 -1426h-148l-290 1050l-36 181l-37 -181l-300 -1050h-148l-342 1426h161z" />
    <glyph glyph-name="X" unicode="X" horiz-adv-x="1224" 
d="M257 1441l345 -571l342 571h190l-440 -707l451 -719h-192l-351 581l-354 -581h-191l452 719l-441 707h189z" />
    <glyph glyph-name="Y" unicode="Y" horiz-adv-x="1170" 
d="M201 1441l372 -749l374 749h183l-480 -894v-532h-155v532l-480 894h186z" />
    <glyph glyph-name="Z" unicode="Z" horiz-adv-x="1166" 
d="M1054 1320l-785 -1178h817v-127h-1000v124l782 1174h-769v128h955v-121z" />
    <glyph glyph-name="bracketleft" unicode="[" horiz-adv-x="543" 
d="M508 1527h-191v-1702h191v-122h-347v1946h347v-122z" />
    <glyph glyph-name="backslash" unicode="\" horiz-adv-x="840" 
d="M62 1441h144l596 -1551h-144z" />
    <glyph glyph-name="bracketright" unicode="]" horiz-adv-x="543" 
d="M24 1649h348v-1946h-348v122h193v1702h-193v122z" />
    <glyph glyph-name="asciicircum" unicode="^" horiz-adv-x="856" 
d="M426 1252l-200 -508h-140l287 697h107l286 -697h-139z" />
    <glyph glyph-name="underscore" unicode="_" horiz-adv-x="924" 
d="M905 -136h-886v121h886v-121z" />
    <glyph glyph-name="grave" unicode="`" horiz-adv-x="633" 
d="M446 1255h-124l-232 264h182z" />
    <glyph glyph-name="a" unicode="a" horiz-adv-x="1054" 
d="M941 0h-168q-7 17 -11 40l-2 10t-2 10.5l-2 11t-1.5 11t-1 10.5t-1.5 11l-4 32l-22 -23q-12 -14 -27 -26q-13 -13 -27 -25q-29 -25 -63 -43t-74 -29q-20 -5 -41 -7.5t-43 -2.5q-37 0 -71 6t-66 19q-65 24 -110 66q-12 11 -22 22t-18.5 23.5t-16 26t-13.5 27.5
q-25 57 -25 122q0 85 32.5 150t92.5 109q62 44 146 67q27 8 56.5 13t60.5 7.5t65 2.5h187v105q0 108 -62 172q-57 65 -167 65q-50 0 -91 -15q-21 -7 -39 -17t-33 -23q-33 -25 -51 -59q-7 -13 -12 -28t-6 -29h-156q1 16 4.5 31t9 30.5t14.5 31.5q29 54 82 98q54 44 130 71
q71 28 159 28q78 0 145 -22q34 -12 64.5 -28.5t55.5 -38.5q13 -11 24 -23.5t21 -26.5t18.5 -29.5t15.5 -31.5q29 -67 29 -158v-516q0 -29 2.5 -59.5t7.5 -62.5q9 -60 27 -106zM429 115q22 -4 46 -4q48 0 91 15q21 8 40 17.5t37 22.5q34 24 61 56q28 31 44 66l1 3v249h-160
q-149 0 -232 -53q-93 -56 -93 -169q0 -43 14 -81q14 -39 43 -66q10 -10 21 -17.5t22.5 -14.5t23.5 -12q19 -8 41 -12z" />
    <glyph glyph-name="b" unicode="b" horiz-adv-x="1089" 
d="M996 550v-21q0 -60 -7 -115.5t-20 -106.5q-28 -100 -80 -174q-26 -36 -57.5 -64t-69.5 -49q-70 -40 -159 -40q-96 0 -165 37q-70 36 -122 105l-24 32l-11 -154h-141v1536h155v-601l27 34q52 64 120 98q67 35 159 35q46 0 86 -10t76 -29q10 -6 20.5 -12.5t20.5 -13.5
t19 -14.5t18 -15.5t17 -17t16 -18.5t15 -19.5q52 -73 80 -174q27 -102 27 -228zM841 529v21q0 86 -15 161q-16 77 -51 135q-12 20 -26 37q-13 17 -28.5 31.5t-32.5 25.5q-53 35 -129 35q-50 0 -89.5 -14t-71.5 -40q-8 -6 -16 -13t-15.5 -14t-14.5 -15t-13 -17
q-25 -33 -43 -72l-1 -3v-492l2 -3q18 -39 44 -72q8 -12 17.5 -22t20.5 -20q10 -9 21 -17q31 -26 71 -40q14 -5 28.5 -8t29.5 -4.5t32 -1.5q36 0 67.5 8.5t57.5 25.5q52 34 87 92q35 57 52 134q8 38 12 78.5t4 83.5z" />
    <glyph glyph-name="c" unicode="c" horiz-adv-x="1012" 
d="M402 138q56 -37 140 -37q48 0 91 17q22 8 41.5 20t37.5 26q37 30 60 71q19 35 25 76h146q-2 -20 -7 -39.5t-12.5 -38.5t-17.5 -37q-17 -32 -39.5 -59.5t-50.5 -51.5q-56 -48 -129 -77q-68 -28 -145 -28q-109 0 -190 43q-86 43 -144 117q-58 73 -87 171q-29 99 -29 208v44
q0 36 3 71.5t9.5 69.5t16.5 67q29 98 87 171q58 74 143 117q81 43 190 43q28 0 55 -3t51.5 -9.5t47.5 -16.5q19 -7 36.5 -15.5t33.5 -18.5t31 -21.5t28 -23.5q27 -26 48.5 -55.5t36.5 -64.5q7 -16 12.5 -32t10 -33t7.5 -34.5t4 -34.5h-145q-6 45 -24 85q-20 46 -55 80
q-34 35 -79 55q-22 10 -47 15t-52 5q-83 0 -139 -37q-55 -38 -90 -98q-36 -60 -51 -135q-14 -73 -14 -147v-44q0 -76 14 -149q15 -75 50 -134q35 -60 91 -98z" />
    <glyph glyph-name="d" unicode="d" horiz-adv-x="1095" 
d="M95 529v21q0 125 30 228q15 50 36 93.5t48 79.5q54 72 129 112q70 39 156 39q89 0 154 -32q67 -32 119 -93l26 -31v590h155v-1536h-141l-11 143l-24 -30q-51 -65 -120 -99q-68 -34 -160 -34q-84 0 -154 40q-75 41 -129 114t-84 174t-30 221zM250 550v-21q0 -86 17 -162
q8 -38 21.5 -71.5t31.5 -62.5q36 -58 89 -92t126 -34q47 0 85 13q19 6 36 15t33 20q32 23 58 55q26 31 44 69l2 3v523l-2 3q-19 36 -44 66q-25 31 -57 53q-16 12 -33 20.5t-36 14.5q-38 13 -84 13q-74 0 -128 -35q-53 -34 -89 -93t-53 -135q-9 -38 -13 -78.5t-4 -83.5z" />
    <glyph glyph-name="e" unicode="e" horiz-adv-x="1025" 
d="M687 -3q-58 -17 -131 -17q-101 0 -183 39q-86 39 -149 108t-97 164q-34 97 -34 211v43q0 133 38.5 237t102.5 175t143 108q76 37 158 37q104 0 179 -40q81 -40 134 -110q52 -70 78 -167q25 -97 25 -212v-70h-703v-16q2 -80 25 -150q12 -35 28.5 -66t38.5 -57
q13 -17 28.5 -32t32.5 -27.5t36 -22.5q57 -31 128 -31q95 0 163 42q64 38 113 98l91 -70q-12 -17 -25 -32.5t-29 -31.5q-35 -36 -83 -65q-24 -14 -51.5 -25.5t-56.5 -19.5zM652 951q-48 29 -117 29q-27 0 -52.5 -5.5t-48.5 -17.5q-46 -22 -82 -65q-38 -43 -63 -106
q-26 -63 -35 -143l-2 -18h544v31v0q-3 58 -18 115q-8 29 -19.5 55t-27.5 49q-32 47 -79 76z" />
    <glyph glyph-name="f" unicode="f" horiz-adv-x="681" 
d="M386 30h-155v939h-171v113h171v129q0 42 6 79.5t18 69.5q4 11 8 21.5t9.5 20t11 18.5t11.5 17.5t12.5 16t14.5 14.5q6 7 12.5 12.5t13.5 11t14.5 10.5t15 9.5t16 8.5t17 7.5t17.5 6.5q32 12 68 17.5t76 5.5q19 0 37.5 -1.5t37 -4.5t36.5 -7l-8 -121q-4 0 -8 0.5l-8 1
l-8 1t-8 0.5q-14 2 -27.5 2.5t-26.5 0.5q-97 0 -150 -57t-53 -161v-129h231v-113h-231v-939z" />
    <glyph glyph-name="g" unicode="g" horiz-adv-x="1089" 
d="M96 529v21q0 125 29 228q14 51 35 94t47 79q54 72 130 112q71 39 161 39q47 0 87.5 -9t74.5 -26q69 -36 117 -103l23 -30l10 148h140v-1070q0 -106 -32 -189q-33 -80 -91 -136q-29 -27 -61.5 -48t-71 -35.5t-81 -22t-89.5 -7.5q-38 0 -88 9q-17 3 -33.5 7.5t-33.5 10
t-34 12.5q-54 21 -103 56q-22 16 -41.5 35t-35.5 41l77 89q30 -35 61 -59q37 -29 74 -47q35 -17 72 -25q19 -4 37 -6t36 -2q16 0 31 1t29.5 3.5t28.5 6t27 8.5q52 20 89.5 59.5t57.5 95.5t20 130v134l-25 -30q-48 -60 -115.5 -91.5t-158.5 -31.5q-88 0 -159 40
q-75 41 -129 114q-26 36 -47 79.5t-36 94.5q-29 101 -29 221zM252 550v-21q0 -86 17 -162q8 -38 21.5 -71.5t31.5 -62.5q35 -58 89 -92t128 -34q24 0 46 3.5t42 9.5q39 13 70 36q16 12 29.5 25.5t25.5 29.5t22.5 33t18.5 36l2 3v520l-2 3q-6 12 -12.5 23.5t-13.5 22
t-15 21.5q-24 31 -55 54t-70 35.5t-86 12.5q-75 0 -129 -35q-8 -5 -15 -10.5l-14 -11t-13.5 -12t-12.5 -13.5t-12 -14.5t-11.5 -15.5t-11.5 -16q-36 -59 -53 -135q-9 -38 -13 -78.5t-4 -83.5z" />
    <glyph glyph-name="h" unicode="h" horiz-adv-x="1068" 
d="M295 924l27 33q56 68 127 107q71 38 159 38q69 0 130 -21q31 -10 56.5 -26t46.5 -39q43 -45 66 -116q24 -72 24 -176v-694h-155v696q0 65 -15 112q-7 24 -18.5 43.5t-26.5 35t-33 26.5q-17 11 -37 18q-39 14 -89 14q-86 0 -152 -51q-69 -50 -108 -131l-2 -4v-759h-155
v1506h155v-612z" />
    <glyph glyph-name="i" unicode="i" horiz-adv-x="467" 
d="M311 1067v-1052h-155v1052h155zM147 1348q-6 16 -6 36q0 10 1.5 19t4.5 17.5t7.5 15.5t10.5 14q11 13 28.5 19.5t41.5 6.5q47 0 71 -26q24 -27 24 -66t-24 -65q-24 -25 -71 -25q-24 0 -41.5 6.5t-28.5 18.5q-12 13 -18 29z" />
    <glyph glyph-name="j" unicode="j" horiz-adv-x="459" 
d="M146 1052h155v-1196q0 -144 -66 -219q-66 -74 -202 -74q-25 0 -56 5q-23 4 -42 9v119q7 -2 13.5 -2.5t14.5 -0.5q24 -2 41 -2q33 0 60 9.5t45 28.5q37 38 37 127v1196zM133 1348q-6 16 -6 36q0 13 2.5 24.5t8 21.5t13.5 20q23 26 69 26q47 0 71 -26q24 -27 24 -66
t-24 -65q-24 -25 -71 -25q-24 0 -41.5 6.5t-28.5 18.5q-11 13 -17 29z" />
    <glyph glyph-name="k" unicode="k" horiz-adv-x="978" 
d="M781 30l-356 509l-129 -138v-371h-155v1506h155v-955l122 150l305 351h185l-388 -436l441 -616h-180z" />
    <glyph glyph-name="l" unicode="l" horiz-adv-x="467" 
d="M311 1536v-1506h-155v1506h155z" />
    <glyph glyph-name="m" unicode="m" horiz-adv-x="1735" 
d="M139 1082h146l5 -144l25 29q52 64 126.5 99.5t174.5 35.5q98 0 173 -40q15 -8 28.5 -17.5t25.5 -21t22.5 -25t20 -29t17.5 -32.5l11 -24l14 21q26 38 58.5 68.5t73.5 53.5q81 46 192 46q82 0 146 -22q22 -7 41 -16.5t35.5 -22t31.5 -27.5q22 -23 38.5 -52t28.5 -65
q23 -71 23 -171v-696h-155v697q0 23 -2 44t-6 39.5t-9 34.5q-9 24 -22 43.5t-29 34.5q-32 30 -78 41q-22 6 -46 8.5t-50 2.5q-58 0 -103.5 -19t-78 -51.5t-51.5 -76.5q-10 -22 -16 -45.5t-8 -47.5v-1v-704h-152v696q0 66 -17 113q-17 48 -49 78t-76 44t-97 14
q-51 0 -91.5 -11.5t-72.5 -34.5q-61 -45 -92 -118l-1 -3v-778h-155v1052z" />
    <glyph glyph-name="n" unicode="n" horiz-adv-x="1070" 
d="M140 1082h146l6 -162l24 32q52 70 125 110t165 40q71 0 132 -21q31 -10 56.5 -26t46.5 -39q43 -45 66 -116q24 -72 24 -176v-694h-155v696q0 65 -15 112q-7 24 -18.5 43.5t-26.5 35t-33 26.5t-38 18q-40 14 -91 14q-88 0 -155 -51q-66 -50 -103 -131l-2 -4v-759h-154
v1052z" />
    <glyph glyph-name="o" unicode="o" horiz-adv-x="1108" 
d="M91 529v22q0 60 8.5 114.5t25.5 105.5q33 100 95 174q61 74 147 115q82 42 185 42q105 0 187 -42q11 -5 21 -10.5t20 -12l20 -13t19.5 -14t18.5 -15t17.5 -15.5t16.5 -17l16 -18q31 -37 54.5 -80.5t40 -94t25 -105t8.5 -114.5v-22q0 -119 -33 -220q-33 -100 -95 -173
t-148 -115q-82 -41 -186 -41t-186 41q-42 21 -79.5 49.5t-68.5 65.5q-20 24 -37.5 51.5t-32 58t-25.5 63.5q-34 101 -34 220zM247 551v-22q0 -43 5 -83.5t14 -79.5q20 -77 60 -136q20 -29 43.5 -53t51.5 -41q29 -17 62 -26t71 -9q75 0 132 35q19 12 36 26t31.5 31.5t27.5 37
t24.5 41t20 45t15.5 49.5q20 77 20 163v22q0 85 -20 162q-20 78 -60 137q-39 59 -96 94q-57 36 -133 36q-18 0 -35.5 -2t-34 -6.5t-32 -11.5t-29.5 -16q-56 -35 -95 -94q-40 -59 -60 -137q-19 -77 -19 -162z" />
    <glyph glyph-name="p" unicode="p" horiz-adv-x="1089" 
d="M994 550v-21q0 -60 -7 -115.5t-20 -106.5q-28 -100 -80 -174q-25 -36 -56.5 -64t-69.5 -49q-71 -40 -161 -40q-93 0 -163 31q-69 31 -118 89l-25 29v-545h-154v1498h140l10 -147l23 30q24 33 54 58.5t66 43.5q70 35 164 35q46 0 87 -10t77 -29q75 -40 127 -111
q52 -73 79 -174q27 -102 27 -228zM839 529v21q0 43 -4.5 83.5t-12.5 78.5q-9 38 -23 72t-33 63q-18 29 -41 52.5t-50 40.5q-27 18 -60 26.5t-70 8.5q-46 0 -84 -12t-69 -34q-8 -5 -15.5 -11t-14 -12.5t-13 -13.5t-12.5 -15q-23 -30 -41 -64l-2 -4v-543l2 -4q18 -34 41 -64
q24 -30 55 -52q15 -10 32.5 -18.5t36.5 -14.5q13 -4 27 -6.5t28.5 -4t30.5 -1.5q37 0 69 9t60 26q27 18 49.5 41.5t40.5 52.5q38 58 56 136q17 77 17 163z" />
    <glyph glyph-name="q" unicode="q" horiz-adv-x="1104" 
d="M95 529v21q0 63 7 120t21 108q29 101 82 173q54 72 131 112q72 39 165 39q30 0 57.5 -3.5t52.5 -11t47 -17.5q68 -33 117 -94l22 -28l9 134h141v-1498h-154v539l-25 -28q-24 -28 -53 -49t-62 -36q-67 -30 -154 -30q-92 0 -164 40q-76 41 -129 114t-82 173
q-29 102 -29 222zM250 550v-21q0 -43 4.5 -83.5t12.5 -79.5q18 -78 56 -136q36 -59 90 -94q18 -12 39 -19.5t43 -11.5t47 -4q91 0 152 45q30 22 54 50.5t43 63.5l2 3v558l-2 4q-19 33 -43 61q-24 29 -55 49q-15 11 -32 19t-36 14q-37 12 -81 12q-19 0 -36.5 -2t-33.5 -6.5
t-31.5 -11.5t-28.5 -16q-28 -18 -50.5 -41.5t-41.5 -53.5q-12 -19 -22.5 -41t-18.5 -45.5t-14 -49.5q-8 -39 -12.5 -79.5t-4.5 -83.5z" />
    <glyph glyph-name="r" unicode="r" horiz-adv-x="663" 
d="M633 1093v-145q-15 3 -28 3q-11 1 -23 1.5t-25 0.5q-20 0 -38.5 -1.5t-35.5 -5.5t-33 -9t-30.5 -12.5t-27.5 -16.5t-24.5 -19t-21.5 -21.5t-19 -24t-17 -26t-14 -28.5l-1 -3v-756h-155v1052h150l4 -160l27 42q40 64 100 101q59 37 145 37q19 0 43 -4q14 -3 24 -5z" />
    <glyph glyph-name="s" unicode="s" horiz-adv-x="996" 
d="M738 253q2 12 2 24q0 34 -10 64q-10 31 -40 58q-28 26 -76 47q-46 21 -120 39q-81 20 -146 46q-69 26 -118 62q-48 36 -73 84q-25 49 -25 114q0 62 27 118t76 99q50 43 120 69q65 25 146 25q43 0 81.5 -6.5t72.5 -19.5q74 -25 125 -69q13 -11 24.5 -23t21 -25t17.5 -26.5
t15 -28.5q12 -26 18.5 -53.5t7.5 -56.5h-156q-1 10 -3 20t-5 19t-8 19q-16 36 -47 65q-30 28 -70.5 45.5t-93.5 17.5q-55 0 -94 -15q-20 -7 -36 -17t-29 -23q-6 -5 -11 -10.5t-9.5 -11t-8.5 -11.5t-7.5 -12t-5.5 -13q-13 -32 -13 -66q0 -12 1 -22.5t3.5 -20.5t6.5 -19
q11 -29 43 -52q27 -21 73 -39q45 -17 116 -35q89 -23 158 -53q71 -29 117 -67q23 -19 40 -40t28 -46q22 -48 22 -113q0 -69 -28 -127q-14 -29 -34 -53.5t-46 -44.5q-53 -42 -128 -65q-69 -24 -153 -24q-96 0 -169 29q-80 29 -133 77q-54 47 -82 108q-24 53 -27 109h156
q5 -52 28 -89q27 -41 66 -67q18 -12 37.5 -21t40.5 -15q42 -10 83 -10q54 0 95 13q14 4 26.5 9.5t23.5 12.5q12 6 23 14t20 17t16 19t12.5 21t9.5 22.5t6 23.5z" />
    <glyph glyph-name="t" unicode="t" horiz-adv-x="639" 
d="M206 1344h155v-268h202v-115h-202v-702q0 -23 2.5 -41.5t8.5 -33t13.5 -26t17 -20t21 -14.5t23.5 -8q23 -5 48 -5q24 0 51 5q3 0 6 0.5t6 1.5t5.5 1t4.5 1v-123q-11 -3 -21 -5t-24 -5q-33 -7 -82 -7t-92 14q-42 14 -73 46q-16 16 -28.5 37.5t-22.5 48.5q-19 54 -19 134
v701h-197v115h197v268z" />
    <glyph glyph-name="u" unicode="u" horiz-adv-x="1069" 
d="M777 131l-25 -29q-49 -58 -119 -90q-69 -32 -166 -32q-35 0 -67 5q-33 6 -64 17q-62 21 -106.5 67t-68.5 119q-25 74 -25 180v684h155v-686q0 -38 4.5 -69t13.5 -57q18 -50 48 -80q16 -15 33 -26q16 -10 34 -16q34 -11 71 -11q53 0 96 11t76 34q35 23 61.5 53.5
t43.5 68.5l1 3v775h155v-1052h-147z" />
    <glyph glyph-name="v" unicode="v" horiz-adv-x="932" 
d="M190 1067l271 -864l264 864h156l-367 -1052h-110l-371 1052h157z" />
    <glyph glyph-name="w" unicode="w" horiz-adv-x="1479" 
d="M793 1067l261 -867l214 867h153l-304 -1052h-124l-265 855l-258 -855h-124l-303 1052h152l220 -849l255 849h123z" />
    <glyph glyph-name="x" unicode="x" horiz-adv-x="955" 
d="M229 1067l231 -409l233 409h180l-335 -520l346 -532h-178l-243 419l-243 -419h-179l346 532l-335 520h177z" />
    <glyph glyph-name="y" unicode="y" horiz-adv-x="909" 
d="M192 1052l265 -845l249 845h166l-414 -1229q-14 -39 -36 -85q-21 -45 -55 -84t-82 -65q-49 -26 -118 -26q-10 0 -24 2l-30 4q-7 2 -14 3l-14 2q-3 1 -7 2v121h4.5h4.5q8 -1 14 -1q4 -1 6.5 -1h5.5q16 0 31 1t29 3t26 5q20 5 37 13t32 19q29 23 49 59q10 18 19 40t17 47
l39 115l-370 1055h170z" />
    <glyph glyph-name="z" unicode="z" horiz-adv-x="955" 
d="M857 956l-588 -820h618v-121h-799v116l582 813h-573v123h760v-111z" />
    <glyph glyph-name="braceleft" unicode="{" horiz-adv-x="693" 
d="M622 -348q-11 4 -22.5 8t-22 7.5t-20 8t-19 8.5t-18.5 8.5t-17.5 9.5t-16.5 10l-16 10q-33 23 -59.5 49t-46.5 54q-39 58 -56 128q-8 35 -12.5 71.5t-4.5 74.5v206q0 11 -0.5 22t-1.5 21t-2.5 20t-3.5 20t-5 19q-12 47 -40 81q-7 8 -15 15.5t-17 14t-19 12t-21 10.5
q-18 8 -40.5 12.5t-46.5 5.5v115q54 2 93.5 19.5t65.5 50.5q27 34 40 79.5t13 102.5v207q0 77 17 147q17 69 56 127q20 29 46.5 55t59.5 48q31 21 69 38.5t83 31.5l29 -88q-27 -9 -49 -22t-41 -29q-42 -35 -68 -83q-25 -48 -36 -106q-6 -28 -8.5 -58t-2.5 -61v-207
q0 -98 -38 -175q-37 -77 -121 -122l-25 -13l25 -13q28 -15 50.5 -33.5t40 -40.5t30.5 -48q38 -78 38 -175v-206q0 -32 2.5 -62t8.5 -58q11 -57 36 -105q26 -48 68 -83q37 -32 90 -51z" />
    <glyph glyph-name="bar" unicode="|" horiz-adv-x="499" 
d="M309 -255h-119v1696h119v-1696z" />
    <glyph glyph-name="braceright" unicode="}" horiz-adv-x="693" 
d="M38 -260q18 6 33.5 14t29.5 17t27 20q14 11 26.5 24.5t23 28t19.5 30.5q25 48 36 105t11 120v206q0 34 4.5 65t14 59t22.5 54q41 77 131 118l30 14l-30 14q-90 41 -131 117q-13 26 -22.5 54.5t-14 59.5t-4.5 65v207q0 62 -11 119q-2 15 -6 28.5t-8.5 27t-10 26
t-11.5 24.5q-13 24 -30 45t-38 38q-37 32 -90 51l29 88q91 -28 152 -70q66 -45 106 -103q20 -29 34 -61t22 -66q17 -70 17 -147v-207q0 -56 13 -102q6 -23 16 -43.5t24 -37.5q28 -33 72 -51q12 -5 26.5 -9t30 -6t30.5 -3v-115q-16 -1 -31.5 -3t-29.5 -6t-26 -9q-9 -4 -17 -8
t-15.5 -9t-14.5 -10.5t-13.5 -12t-11.5 -12.5q-28 -34 -40 -81q-13 -46 -13 -102v-206q0 -76 -17 -147q-16 -69 -56 -126.5t-106 -103.5q-62 -42 -152 -70z" />
    <glyph glyph-name="asciitilde" unicode="~" horiz-adv-x="1393" 
d="M1248 762q-3 -67 -23 -125q-12 -33 -28 -61.5t-36 -52.5q-11 -13 -22 -23.5t-23.5 -20.5t-25.5 -18t-27 -16q-28 -14 -59 -21t-65 -7q-14 0 -27.5 1t-26 3t-24.5 5q-36 8 -70 25q-9 4 -17 8.5t-16.5 9.5t-17 11t-16.5 12q-34 26 -73 60q-53 48 -97 74q-46 28 -100 28
q-85 0 -132 -59q-21 -27 -32 -62.5t-13 -79.5l-131 -2q2 67 23 125q7 22 16.5 41.5t21.5 37t25 32.5q41 47 97 73q28 14 59.5 20.5t65.5 6.5q41 0 78 -9q9 -2 18 -5l18 -6t17.5 -7t17.5 -8q34 -17 68 -42q17 -13 35 -27.5t36 -30.5q13 -13 26 -24t25 -20q25 -20 48 -32
q23 -13 47 -19q12 -4 25 -5.5t26 -1.5q42 0 77 17t59 48q24 30 37 71q11 34 13 75z" />
    <glyph glyph-name="uni00A0" unicode="&#xa0;" horiz-adv-x="560" 
 />
    <glyph glyph-name="exclamdown" unicode="&#xa1;" horiz-adv-x="499" 
d="M185 669h138l13 -1014h-164zM343 996q0 -10 -1.5 -19t-4.5 -17.5t-7.5 -15.5t-10.5 -14q-11 -13 -28.5 -19.5t-41.5 -6.5q-16 0 -29.5 3t-23.5 9t-18 14q-8 9 -13.5 19t-8 22t-2.5 25q0 39 24 65q24 25 71 25t70 -25q24 -26 24 -65z" />
    <glyph glyph-name="cent" unicode="&#xa2;" horiz-adv-x="1121" 
d="M587 116q52 0 99 17q24 8 45 20t39 26q37 30 60 71q19 35 25 76h146q-5 -52 -29 -100q-13 -28 -31 -53.5t-40 -47.5q-45 -46 -105 -78t-129 -44l-12 -2v-231h-156v233l-12 2q-93 16 -162 63q-34 23 -62.5 52t-51.5 63q-46 69 -68 155q-23 87 -23 182v42q0 47 6 92t17 89
q8 28 18 55t22.5 52t28.5 48q45 68 113.5 115t161.5 64l12 3v223h156v-221l13 -2q25 -4 48 -10t44.5 -15t41.5 -20q30 -16 56 -36.5t47.5 -45t39 -52t29.5 -59.5q22 -55 27 -117h-145q-6 45 -24 85q-20 46 -55.5 80.5t-83.5 54.5q-24 10 -51 15t-56 5q-90 0 -150 -36
t-96 -95q-36 -57 -51 -130q-14 -71 -14 -142v-42q0 -73 14 -144q15 -73 50 -130q36 -58 96 -94q61 -36 152 -36z" />
    <glyph glyph-name="sterling" unicode="&#xa3;" horiz-adv-x="1190" 
d="M433 637l9 -235q0 -35 -3.5 -67t-11.5 -64q-14 -61 -44 -106l-16 -23h746l-1 -127h-1002v127h64h1q32 8 53 39q19 29 30 67q12 37 16 78q5 41 5 75l-9 236h-164v127h161l-10 275q0 100 32 179q33 78 90 132t136 82q79 29 172 29q19 0 37 -1t35.5 -3.5t34 -5.5t32 -7.5
t30.5 -10.5q37 -13 68 -32t56 -44q50 -48 77 -117q12 -31 19 -66t8 -72h-161q-2 57 -21 98q-11 23 -25.5 42t-32 34t-38 26t-43.5 18q-45 13 -93 13q-26 0 -50.5 -5t-47.5 -15q-46 -20 -80 -58q-16 -18 -29.5 -41.5t-23.5 -50.5q-6 -18 -10.5 -38t-6.5 -41.5t-2 -44.5
l10 -275h318v-127h-315z" />
    <glyph glyph-name="currency" unicode="&#xa4;" horiz-adv-x="1460" 
d="M1093 124q-74 -62 -165 -95q-91 -34 -193 -34q-101 0 -192 33q-91 34 -165 94l-10 8l-133 -135l-109 114l137 139l-7 10q-48 73 -75 162q-8 29 -14 60t-9 63t-3 65q0 104 29 194q14 46 34 87.5t46 78.5l7 11l-145 149l109 114l146 -148l10 8q73 56 160 86q87 31 184 31
t185 -31t161 -87l10 -8l148 150l111 -115l-149 -152l7 -10q25 -38 45 -79.5t34 -86.5t21 -93t7 -99q0 -98 -26.5 -186t-73.5 -161l-6 -10l141 -142l-111 -115l-135 138zM296 608q0 -98 34.5 -183.5t94.5 -149.5q29 -32 64 -57.5t75 -44t82.5 -28t88.5 -9.5q45 0 87.5 9.5
t82.5 27.5q80 38 139 102q20 21 37 45t31.5 50t25.5 54q17 43 25.5 89t8.5 95q0 97 -34 183q-17 42 -40.5 79.5t-53.5 69.5q-59 63 -139 100t-170 37q-91 0 -171 -37q-16 -7 -31 -15.5t-29.5 -18t-28 -20t-26.5 -22.5t-24 -24q-20 -21 -37 -45t-31.5 -50t-25.5 -54
q-35 -86 -35 -183z" />
    <glyph glyph-name="yen" unicode="&#xa5;" horiz-adv-x="1240" 
d="M614 750l373 691h184l-418 -720h323v-95h-384v-195h384v-94h-384v-322h-163v322h-378v94h378v195h-378v95h324l-418 720h185z" />
    <glyph glyph-name="brokenbar" unicode="&#xa6;" horiz-adv-x="491" 
d="M162 -255v761h156v-761h-156zM318 713h-156v728h156v-728z" />
    <glyph glyph-name="section" unicode="&#xa7;" horiz-adv-x="1256" 
d="M1130 431q0 -91 -46 -156q-47 -66 -131 -104l-24 -11l21 -15q66 -47 100.5 -112t34.5 -161q0 -83 -33.5 -148t-93.5 -110q-8 -6 -16 -11.5t-16.5 -10.5t-17.5 -9.5l-18 -9t-19 -8.5t-20 -7.5t-20.5 -7t-21.5 -6.5q-88 -24 -197 -24q-94 0 -187 22q-91 21 -162 69
t-114 128q-21 36 -31.5 82t-12.5 100l156 2q3 -74 32 -125q33 -57 84 -92q16 -12 34.5 -21.5t38 -16.5t40.5 -12q61 -14 122 -14q74 0 133 17t99 47q14 11 25.5 22t21 24t16.5 27q22 42 22 91t-19 87q-18 38 -62 69q-42 30 -111 57q-68 27 -170 57q-109 29 -195 64
q-84 34 -143 82q-11 9 -21.5 19t-20 21t-17.5 22t-15 23.5t-13 24.5q-31 64 -31 155q0 88 45 154t129 106l22 11l-20 15q-63 47 -97 112t-34 161q0 79 33 143.5t94 110.5q62 46 150 72q88 25 197 25q56 0 106.5 -7t95.5 -21q88 -27 149 -80q61 -52 93 -129q30 -72 33 -164
h-155q-1 26 -6.5 51t-14.5 48q-11 27 -26.5 51t-36.5 44q-13 13 -29 24.5t-34 21t-38 17.5q-59 23 -137 23q-27 0 -51 -2t-46.5 -6t-42.5 -10t-37.5 -13t-33 -16t-28.5 -19q-40 -31 -60 -74q-9 -21 -14 -43t-5 -45q0 -53 16 -91q9 -20 23.5 -37.5t35.5 -33.5q41 -29 110 -56
q34 -12 78 -26t97 -28q37 -11 71.5 -21.5t66 -21.5t59.5 -23q85 -34 144 -81q57 -47 87 -109.5t30 -152.5zM606 705q-90 24 -164 51l-4 2l-4 -1q-86 -21 -127 -76q-20 -27 -30 -59t-10 -69q0 -27 4 -50t12 -43q3 -6 6 -11.5t6.5 -11t7.5 -11t8.5 -10.5t9.5 -10t10.5 -9.5
t11.5 -8.5q21 -15 49 -29.5t63 -27.5q69 -26 177 -56q15 -5 29.5 -9t28 -8t27.5 -8q10 -3 19.5 -6t19 -6.5t18.5 -7t18 -6.5l4 -2l5 1q82 22 128 76q45 55 45 129q0 12 -1 23.5t-3.5 23t-6 21.5t-8.5 20q-19 39 -63 71q-43 31 -113 59t-173 59z" />
    <glyph glyph-name="dieresis" unicode="&#xa8;" horiz-adv-x="856" 
d="M117 1371q0 39 24 65q23 26 70 26t71 -26t24 -65t-24 -65q-24 -25 -71 -25q-24 0 -41.5 6.5t-28.5 18.5q-12 13 -18 29t-6 36zM547 1369q0 8 1 15.5t3 14.5t4.5 13t6.5 12t9 11q11 13 28.5 19.5t41.5 6.5q12 0 22.5 -1.5t19.5 -5t16 -8.5t13 -11q12 -14 18 -30t6 -36
q0 -39 -24 -65q-24 -25 -71 -25t-70 25q-24 26 -24 65z" />
    <glyph glyph-name="copyright" unicode="&#xa9;" horiz-adv-x="1609" 
d="M1104 582q-1 -22 -3.5 -43t-7 -39.5t-11.5 -35.5q-22 -55 -62.5 -92t-98.5 -55q-59 -19 -133 -19q-39 0 -73 6.5t-65 20.5q-61 26 -104 75t-66 117q-23 69 -23 153v116q0 84 23 152t66 117t104 76t138 27q74 0 133 -19q20 -6 37.5 -14t32.5 -18.5t29 -22.5q40 -37 63 -93
q10 -25 15.5 -54t6.5 -62h-116q-4 94 -52 138q-52 46 -149 46q-54 0 -94.5 -20.5t-67.5 -57.5q-14 -18 -24.5 -40t-16.5 -47q-7 -24 -10.5 -51t-3.5 -56v-117q0 -59 14 -108q13 -51 41 -87q27 -37 67.5 -57.5t94.5 -20.5q48 0 85.5 11.5t63.5 34.5q24 22 36.5 57t14.5 82
h116zM191 729q0 -68 12 -132t36 -123q48 -117 130.5 -204t193.5 -137q112 -50 238 -50t237 50t193.5 137t130.5 204.5t48 254.5q0 136 -48 253t-131 204q-41 43 -89.5 77t-103.5 59q-111 49 -237 49q-63 0 -122.5 -12.5t-115.5 -36.5q-111 -49 -193.5 -136t-130.5 -204
t-48 -253zM106 729q0 104 25 198.5t70 176.5q7 11 13.5 22.5t14 22.5t15 21.5t15.5 21t16 20.5t17 20t18 19q63 66 140.5 112.5t166 72t184.5 25.5t184 -25q45 -13 86 -31t79.5 -41.5t73.5 -51.5t67 -61q64 -66 109 -147q22 -41 39.5 -85t30.5 -91q8 -32 13.5 -64.5t8.5 -66
t3 -68.5q0 -104 -25 -198.5t-70 -176.5t-108.5 -148t-140.5 -113.5t-165.5 -73t-184.5 -25.5t-184.5 25.5t-166 73t-141 113.5t-108.5 148t-70 176q-12 48 -18.5 97.5t-6.5 101.5z" />
    <glyph glyph-name="ordfeminine" unicode="&#xaa;" horiz-adv-x="915" 
d="M629 720q-9 29 -14 59l-5 32l-21 -24q-29 -33 -77 -57t-116 -24q-12 0 -23 0.5t-21.5 2t-20 3t-19 4t-18.5 5.5q-43 15 -72 43q-7 7 -13.5 14.5t-12 16t-10.5 17.5t-9 18q-7 20 -11 42t-4 46q0 103 77 159q80 57 247 57h123v67q0 72 -34 110q-35 40 -105 40
q-74 0 -117 -30q-19 -13 -30.5 -32t-14.5 -42l-132 10q3 39 20 73q21 39 59 68t92 46q55 17 123 17q31 0 59 -4t53 -13q50 -16 86 -49q35 -32 55 -80q19 -49 19 -115v-314q0 -25 1.5 -48.5t4.5 -46.5q3 -18 6.5 -36t8.5 -35h-134zM435 813q12 0 23.5 1.5t23 4t23.5 6.5
t23.5 9.5t22 11t20 11.5t18 13t15.5 14l5 5v163h-122q-12 0 -23 -0.5t-21.5 -2t-20 -3t-18.5 -4.5q-18 -4 -33 -11t-27 -16q-25 -18 -37 -42q-4 -8 -6.5 -16t-4 -17t-1.5 -18q0 -51 35 -81q35 -28 105 -28z" />
    <glyph glyph-name="guillemotleft" unicode="&#xab;" horiz-adv-x="1184" 
d="M456 16q-147 217 -226 350.5t-80 157.5q0 28 79 145.5t227 303.5h162q-102 -130 -164.5 -216t-97 -146t-34.5 -88q0 -36 71 -156t225 -351h-162zM884 16q-147 218 -226.5 351.5t-79.5 156.5q-1 28 78.5 145.5t227.5 303.5h162q-61 -78 -106 -137.5t-82 -111t-60 -89
t-35 -65t-12 -43.5q0 -38 71.5 -160t223.5 -351h-162z" />
    <glyph glyph-name="logicalnot" unicode="&#xac;" horiz-adv-x="1134" 
d="M943 390h-156v264h-645v131h801v-395z" />
    <glyph glyph-name="uni00AD" unicode="&#xad;" horiz-adv-x="565" 
d="M510 558h-458v121h458v-121z" />
    <glyph glyph-name="registered" unicode="&#xae;" horiz-adv-x="1610" 
d="M105 729q0 104 25 198.5t70 176.5q7 11 13.5 22.5t14 22.5t15 21.5t15.5 21t16 20.5t17 20t18 19q63 66 140.5 112.5t166 72t184.5 25.5t184 -25q45 -13 86 -31t79.5 -41.5t73.5 -51.5t67 -61q64 -66 109 -147q22 -41 39.5 -85t30 -91.5t19 -97t6.5 -101.5
q0 -104 -25 -198.5t-70 -176.5t-108.5 -148t-140.5 -113.5t-165.5 -73t-184.5 -25.5t-184.5 25.5t-166 73t-141 113.5t-108.5 148t-70 176q-12 48 -18.5 97.5t-6.5 101.5zM190 729q0 -46 5.5 -89.5t16 -84.5t26.5 -81q48 -117 130.5 -204t193.5 -137q112 -50 238 -50t237 50
t194 137t130.5 204.5t47.5 254.5q0 136 -48 253q-23 59 -56 110t-74.5 94t-90 77t-103.5 59q-111 49 -237 49q-63 0 -122.5 -12.5t-115.5 -36.5q-111 -49 -193.5 -136t-130.5 -204t-48 -253zM638 669v-338h-111v819h261q72 0 130 -15q56 -16 96 -45q39 -30 60 -75t21 -106
q0 -58 -30 -101q-15 -21 -37.5 -39.5t-52.5 -34.5l-29 -14l30 -13q32 -13 53.5 -32t34.5 -44q14 -24 20 -54t6 -63v-55q0 -19 1 -37.5t3 -35.5q3 -31 12 -55h-118q-1 4 -1.5 7t-1.5 6t-1 7q-1 5 -1.5 10l-1 10l-1 10t-1.5 10q0 10 -0.5 20t-0.5 19v83q0 19 -2 35.5t-7 31.5
t-12 27.5t-17 22.5q-19 20 -50.5 29.5t-73.5 9.5h-178zM638 767h171q17 1 33 3t32 6.5t29.5 10.5t25.5 15q25 17 40 42q15 26 15 60q0 40 -10 68q-11 29 -36 48q-24 18 -62 26q-35 7 -88 7h-150v-286z" />
    <glyph glyph-name="macron" unicode="&#xaf;" horiz-adv-x="938" 
d="M804 1343h-654v83h654v-83z" />
    <glyph glyph-name="degree" unicode="&#xb0;" horiz-adv-x="765" 
d="M145 1216q0 50 19 95q20 45 52.5 78t76.5 53q43 19 92 19t91 -19q15 -7 28 -15t24.5 -17.5t22.5 -20.5q32 -33 51 -78q10 -23 14.5 -46.5t4.5 -48.5q0 -26 -4.5 -49.5t-14.5 -45.5q-19 -43 -51 -75.5t-75 -51.5q-42 -19 -91 -19t-93 19q-22 9 -41 22t-35 29
q-32 33 -52 77q-19 43 -19 94zM240 1216q0 -15 3 -29.5t9 -28.5q3 -6 6.5 -12l7 -12t8 -11t9.5 -10q20 -19 46 -29.5t56 -10.5q15 0 29 2.5t27 8t24.5 13t21.5 17t17.5 21t13 24.5t8 27.5t2.5 29.5q0 31 -11 58q-10 27 -29.5 47.5t-46 31.5t-56.5 11q-10 0 -19.5 -1
t-19 -3.5t-17.5 -6.5q-27 -11 -46.5 -31.5t-30.5 -47.5q-12 -27 -12 -58z" />
    <glyph glyph-name="plusminus" unicode="&#xb1;" horiz-adv-x="1095" 
d="M635 840h363v-122h-363v-414h-137v414h-386v122h386v412h137v-412zM955 16h-805v121h805v-121z" />
    <glyph glyph-name="twosuperior" unicode="&#xb2;" horiz-adv-x="751" 
d="M668 682h-569v87l283 266q69 62 97 108q29 48 29 85q0 55 -37 90q-36 35 -102 35q-82 0 -121 -43q-35 -37 -39 -90h-128q3 43 19 81q20 44 56 77q12 12 25.5 21.5t29.5 17.5t34 15q26 10 56 15t64 5q13 0 25.5 -0.5t24.5 -2t23 -3.5t21.5 -4.5t21.5 -5.5q25 -8 46 -19
t38 -25q12 -10 21.5 -21t17.5 -23t14 -26q18 -41 18 -92q0 -37 -13 -70q-6 -17 -15 -33.5t-21 -33.5q-8 -11 -17 -22t-19 -22.5t-22 -22.5q-35 -35 -79 -75l-208 -171h426v-98z" />
    <glyph glyph-name="threesuperior" unicode="&#xb3;" horiz-adv-x="751" 
d="M280 1110h69q79 0 120 34q41 35 41 90q0 25 -9 46.5t-27 38.5q-19 17 -47 25t-65 8q-7 0 -14.5 -0.5t-14.5 -1.5t-13.5 -2t-13.5 -3q-9 -2 -17 -5t-15.5 -7t-14 -8.5t-12.5 -10t-11 -11.5t-9 -12q-8 -14 -11 -31h-127q2 38 19 69q21 38 57 65q18 14 40 24.5t47 18t52 11
t56 3.5q16 0 31 -1t29.5 -2.5t28 -4.5t26.5 -6q51 -14 88 -41q17 -13 31 -29t24 -36q20 -39 20 -90q0 -50 -32 -91q-32 -42 -94 -66l-43 -16l44 -12q37 -10 63 -26t42 -37q33 -43 33 -107q0 -52 -22 -92q-21 -40 -60 -67t-92 -42q-27 -8 -56 -11.5t-61 -3.5h-10.5t-11 0.5
l-11 1t-10.5 1t-10.5 1t-10.5 1t-10.5 1.5t-10.5 2t-10.5 2.5t-10.5 2.5q-51 13 -91 40q-39 26 -63 68q-20 34 -23 82h129q3 -22 14 -40t30 -32q22 -17 51 -25t65 -8q18 0 34.5 2t31 6t27.5 10.5t23 14.5q21 17 31.5 41t10.5 52q0 34 -12.5 60t-38.5 41q-16 10 -35 16.5
t-41.5 9.5t-47.5 3h-69v86z" />
    <glyph glyph-name="acute" unicode="&#xb4;" horiz-adv-x="642" 
d="M324 1519h182l-241 -264h-114z" />
    <glyph glyph-name="mu" unicode="&#xb5;" horiz-adv-x="1160" 
d="M324 1067v-607q0 -105 17 -171q18 -68 50 -107q33 -39 77 -53q43 -14 91 -14q112 0 178 43q22 14 40 32t32.5 39.5t24.5 46.5l1 3v788h156v-1052h-137l-13 145l-24 -36q-40 -62 -102 -95.5t-148 -33.5q-35 0 -66.5 4t-58.5 13q-27 8 -50 21t-43 31l-25 23v-488h-155v1468
h155z" />
    <glyph glyph-name="paragraph" unicode="&#xb6;" horiz-adv-x="1001" 
d="M661 15v520h-102q-116 0 -206 34q-89 34 -149 94t-91 143q-31 84 -31 182q0 97 31 181q31 83 91 143t149 95q90 34 206 34h258v-1426h-156z" />
    <glyph glyph-name="periodcentered" unicode="&#xb7;" horiz-adv-x="534" 
d="M162 729q0 42 25 70q24 27 74 27q26 0 44.5 -7t30.5 -20q13 -14 19.5 -31.5t6.5 -38.5q0 -41 -25 -68q-26 -27 -76 -27t-74 27q-25 27 -25 68z" />
    <glyph glyph-name="cedilla" unicode="&#xb8;" horiz-adv-x="507" 
d="M266 -15l-11 -49l15 -3q6 -1 11 -2t10.5 -2.5t10.5 -3t10.5 -3.5t10.5 -4t9.5 -4.5t9.5 -5.5t9 -6t8.5 -6.5t8.5 -6.5l12 -14t10.5 -15t8.5 -17q12 -28 12 -68q0 -43 -18 -78.5t-53 -61.5q-18 -13 -40.5 -23t-49.5 -18q-50 -13 -113 -14l-5 77q27 1 51 6q33 6 58 19
t40 36q16 22 16 53q0 14 -3 26.5t-9 22.5q-11 20 -34 33q-22 11 -55 18q-25 5 -57 8l25 106h102z" />
    <glyph glyph-name="onesuperior" unicode="&#xb9;" horiz-adv-x="697" 
d="M480 689h-127v605l-216 -57v98l343 113v-759z" />
    <glyph glyph-name="ordmasculine" unicode="&#xba;" horiz-adv-x="931" 
d="M137 1123q0 74 23 137q23 62 65.5 106.5t102.5 69.5q61 25 136 25q77 0 138 -25q20 -8 38 -18.5t34.5 -23t30.5 -27.5t25.5 -32t21.5 -35.5t17 -39.5q23 -63 23 -137v-80q0 -74 -23 -137q-22 -62 -64.5 -106.5t-102.5 -69.5q-30 -13 -64 -19t-72 -6q-76 0 -137 25
q-60 25 -103 69.5t-66 106.5q-23 63 -23 137v80zM270 1043q0 -48 12 -89q11 -42 36 -73q12 -15 27.5 -27.5t33.5 -21.5q38 -18 87 -18q48 0 85 18q9 5 17.5 10t16 11.5t14.5 13.5t13 14q24 31 35 73q6 20 9 42.5t3 46.5v80q0 47 -12 88q-2 8 -5 16t-6 15.5t-7 14.5t-8.5 14
t-9.5 13q-24 31 -61 49q-18 9 -39.5 13.5t-46.5 4.5q-48 0 -85 -18q-12 -6 -23 -13.5t-20.5 -16.5t-17.5 -19q-12 -16 -21.5 -34t-14.5 -39q-4 -14 -6.5 -28t-4 -29t-1.5 -31v-80z" />
    <glyph glyph-name="guillemotright" unicode="&#xbb;" horiz-adv-x="1184" 
d="M728 16h-162q155 233 225.5 352t70.5 155q0 20 -18.5 58t-57 96t-91.5 129t-129 167h162q100 -126 170.5 -223.5t103 -152.5t32.5 -73q-1 -24 -81 -158t-225 -350zM300 16h-162q154 231 224.5 352t70.5 159.5t-71 144.5t-224 301h162q101 -126 171.5 -223.5t102.5 -152.5
t32 -73q0 -23 -80 -157.5t-226 -350.5z" />
    <glyph glyph-name="onequarter" unicode="&#xbc;" horiz-adv-x="1500" 
d="M1303 284h107v-100h-107v-169h-127v169h-376l-5 83l370 507h138v-490zM907 284h269v358l-44 -73zM443 679h-127v605l-216 -57v98l343 113v-759zM438 139l-78 50l695 1112l78 -50z" />
    <glyph glyph-name="onehalf" unicode="&#xbd;" horiz-adv-x="1589" 
d="M1466 15h-569v87l283 266q11 10 21.5 20t19.5 19.5t17 18.5t15 17.5t13 16.5t11 16q7 12 12.5 23t9 21.5t5.5 20.5t2 20q0 55 -37 90q-36 35 -102 35q-82 0 -121 -43q-35 -37 -39 -90h-128q3 43 19 81q7 14 15 28t18.5 26t22.5 23q36 34 89 54t120 20q32 0 61 -4t55 -12
q50 -15 84 -44q35 -29 53 -70t18 -92v-9.5t-0.5 -9l-1 -9t-1.5 -9t-2 -8.5t-2 -8.5t-2.5 -8.5t-3.5 -8q-6 -17 -15 -33.5t-21 -33t-26.5 -33.5t-31.5 -34t-37 -36t-42 -39l-208 -171h426v-98zM438 679h-127v605l-216 -57v98l343 113v-759zM394 139l-78 50l695 1112l78 -50z
" />
    <glyph glyph-name="threequarters" unicode="&#xbe;" horiz-adv-x="1593" 
d="M1395 284h107v-100h-107v-169h-127v169h-376l-5 83l370 507h138v-490zM999 284h269v358l-44 -73zM329 1111h69q79 0 120 34q20 17 30.5 40t10.5 50q0 52 -36 85t-112 33h-8.5t-8.5 -0.5l-8 -1l-8 -1l-8 -1t-7.5 -1.5t-7.5 -2q-13 -4 -24.5 -9t-21.5 -12q-7 -4 -13 -9.5
t-11 -11.5t-9 -12q-8 -14 -11 -31h-127q2 38 19 69q10 19 24.5 35t32.5 30t40 24.5t47 18t52 11t56 3.5q21 0 41 -1.5t38.5 -4.5t35.5 -8q51 -14 88 -41q9 -6 16.5 -13.5t14.5 -15.5t13 -17t11 -19q20 -39 20 -90q0 -50 -32 -91q-32 -42 -94 -66l-43 -16l44 -12
q37 -10 63 -26t42 -37q33 -43 33 -107q0 -52 -22 -92q-21 -40 -60 -67t-92 -42q-54 -15 -117 -15q-11 0 -21.5 0.5t-21.5 1.5t-21.5 2.5t-20.5 3.5t-21 5q-17 4 -32.5 10t-30 13.5t-28.5 16.5q-19 13 -35 30t-28 38q-6 11 -11 24.5t-8 28t-4 29.5h129q3 -22 14 -40t30 -32
q22 -17 51 -25t65 -8q12 0 23.5 1t22 2.5t20 4.5t18.5 6.5t17 8.5t15 10q21 17 31.5 41t10.5 52q0 70 -51 101q-47 29 -124 29h-69v86zM565 139l-78 50l695 1112l78 -50z" />
    <glyph glyph-name="questiondown" unicode="&#xbf;" horiz-adv-x="969" 
d="M573 665q-2 -61 -10 -104q-8 -48 -27 -87q-20 -40 -51 -77q-15 -20 -34.5 -42t-42.5 -47q-32 -35 -62 -66q-31 -33 -54 -68q-25 -36 -39 -78q-15 -42 -15 -96q0 -115 62 -177q32 -31 76.5 -46.5t101.5 -15.5q45 0 88 13q22 7 41.5 17t36.5 24q33 27 53 68q18 35 21 82
h155q-2 -37 -10 -69.5t-22 -61.5q-15 -32 -35.5 -59.5t-46.5 -50.5q-53 -46 -124 -70q-36 -12 -75.5 -18t-81.5 -6q-24 0 -46.5 1.5t-43.5 4.5t-41 8t-38 11q-73 24 -123 71t-77 114q-13 34 -19.5 72.5t-6.5 82.5q0 65 21 123t54 110q34 53 77 100q44 49 88 92q57 54 76 119
q9 29 13.5 61t5.5 65h155zM581 997q0 -10 -1.5 -19t-4.5 -17.5t-7.5 -15.5t-10.5 -14q-11 -13 -28.5 -19.5t-41.5 -6.5t-41.5 6.5t-29.5 19.5q-12 14 -18 30t-6 36q0 38 24 64q24 25 71 25t70 -25q24 -26 24 -64z" />
    <glyph glyph-name="uni02BC" unicode="&#x2bc;" horiz-adv-x="409" 
d="M312 1408q0 -9 -0.5 -18t-1.5 -18t-2 -18.5t-3 -19t-4 -18.5q-3 -12 -6.5 -24t-7.5 -23.5t-9 -23.5t-10.5 -23.5t-11.5 -23t-12.5 -22.5t-13.5 -22t-15 -22q-27 -37 -63 -67l-83 57q42 62 65 127q25 71 25 156v116h153v-113z" />
    <glyph glyph-name="circumflex" unicode="&#x2c6;" horiz-adv-x="964" 
d="M749 1267h-121l-157 178l-156 -178h-123l230 254h98z" />
    <glyph glyph-name="caron" unicode="&#x2c7;" horiz-adv-x="909" 
d="M448 1342l157 178h128l-236 -254h-99l-233 254h125z" />
    <glyph glyph-name="breve" unicode="&#x2d8;" horiz-adv-x="874" 
d="M713 1480q-3 -47 -19 -87q-20 -46 -56 -79q-18 -17 -40.5 -30t-49.5 -23q-53 -19 -119 -19q-8 0 -16.5 0.5t-16 1t-15.5 1.5t-15.5 2t-14.5 2.5t-14 3.5l-14 4t-13 4q-53 19 -90 53q-36 33 -56 79q-4 8 -6.5 16.5l-5 17t-4 17.5t-2.5 18l-2 18h121q2 -24 9 -46
q2 -8 5 -15t6.5 -13.5t7.5 -13t9 -11.5q10 -12 23 -21t29 -16t34.5 -10t40.5 -3q43 0 74 13q32 14 52 37q7 7 12.5 15.5t9.5 18t7 19.5q7 22 9 46h120z" />
    <glyph glyph-name="dotaccent" unicode="&#x2d9;" horiz-adv-x="497" 
d="M156 1367q0 8 1 15.5t3 14.5t4.5 13t6.5 12t9 11q7 9 17 14.5t23.5 8.5t29.5 3q47 0 71 -26q24 -27 24 -66t-24 -65q-24 -25 -71 -25q-24 0 -41.5 6.5t-28.5 18.5q-12 13 -18 29t-6 36z" />
    <glyph glyph-name="ring" unicode="&#x2da;" horiz-adv-x="685" 
d="M136 1408q0 20 4 38.5t11 36.5q4 9 8.5 17t10 16t11.5 15t13 14q26 26 63 41q18 8 37.5 11.5t41.5 3.5q42 0 79 -15t63.5 -41.5t42 -61.5t15.5 -75q0 -14 -1.5 -26.5t-5 -25t-8.5 -23.5q-15 -34 -42 -59.5t-64 -40.5q-18 -7 -38 -10.5t-41 -3.5q-43 0 -79.5 14.5
t-63.5 39.5q-13 13 -23.5 28t-18 32t-11.5 35.5t-4 39.5zM205 1408q0 -5 0.5 -10l1 -10t2 -9.5t3 -9.5t3.5 -10q9 -23 26.5 -41t41.5 -29t53 -11q28 0 53 11q24 10 41.5 28t27 41.5t9.5 49.5q0 13 -2.5 26t-7.5 25q-9 23 -27 42q-8 9 -18.5 16.5t-22.5 12.5q-7 3 -13 5
t-12.5 3.5t-13.5 2t-14 0.5q-6 0 -11.5 -0.5t-11 -1.5t-10.5 -2t-10 -3l-10 -4q-24 -11 -41.5 -29.5t-27 -42t-9.5 -50.5z" />
    <glyph glyph-name="ogonek" unicode="&#x2db;" horiz-adv-x="554" 
d="M357 0q-12 -10 -24 -19t-23 -18t-21 -18t-19 -18.5t-17.5 -19t-15.5 -19.5t-13.5 -20t-11.5 -21q-8 -16 -12 -33.5t-4 -35.5q0 -39 21 -62q21 -25 72 -25h10t9.5 0.5l9 1t9 1.5l9 2t8.5 2t8 3q13 4 24 9l10 -91q-21 -12 -51 -23q-36 -14 -93 -14q-38 0 -71 11
q-32 11 -55 33q-12 11 -21 24.5t-16 29.5q-14 33 -14 77q0 37 13.5 74.5t43.5 74.5t77 71q44 33 106 62z" />
    <glyph glyph-name="tilde" unicode="&#x2dc;" horiz-adv-x="966" 
d="M815 1486q-2 -44 -16 -81q-15 -42 -42.5 -71t-63.5 -45q-9 -4 -18.5 -7t-19 -5t-19.5 -3t-21 -1q-48 0 -78 14q-32 14 -58 31q-27 18 -56 33q-31 17 -77 17q-6 0 -12 -0.5t-11.5 -2l-11 -3t-10.5 -4.5q-21 -10 -36.5 -27t-24.5 -40q-5 -16 -7 -34l-95 5q2 45 16 81
q15 43 42 74q26 30 62.5 46.5t78.5 16.5q20 0 37.5 -3.5t31.5 -10.5q11 -5 21 -10t20 -10.5t20 -11.5q30 -18 61 -34q35 -16 78 -16q24 0 45 10t37 28q15 17 24 40q6 16 8 34z" />
    <glyph glyph-name="hungarumlaut" unicode="&#x2dd;" horiz-adv-x="764" 
d="M612 1520h167l-243 -273h-132zM274 1520h159l-197 -273h-116z" />
    <glyph glyph-name="uni02F3" unicode="&#x2f3;" horiz-adv-x="602" 
d="M141 -242q0 11 1.5 21.5t4 20t7.5 19.5q6 14 14.5 26t19.5 22q21 20 50 31.5t62 11.5q32 0 60 -11.5t48.5 -31.5t33.5 -48q6 -14 9 -29t3 -32q0 -34 -12 -61t-33 -47q-11 -9 -23 -16.5t-26 -13t-29 -8t-31 -2.5q-33 0 -62 11q-29 10 -50.5 29.5t-33.5 46.5q-7 14 -10 29
t-3 32zM198 -242q0 -10 2 -20t6 -19t10 -17t13 -14q14 -13 32 -20q18 -8 39 -8q41 0 69.5 28.5t28.5 69.5q0 42 -28 71q-29 30 -70 30q-10 0 -20 -2t-19 -6q-6 -2 -12 -5.5t-11 -7.5l-10 -8q-14 -14 -22 -32q-4 -10 -6 -19.5t-2 -20.5z" />
    <glyph glyph-name="gravecomb" unicode="&#x300;" 
d="M-478 1255h-96l-117 265h142z" />
    <glyph glyph-name="acutecomb" unicode="&#x301;" 
d="M-513 1521h136l-150 -263h-85z" />
    <glyph glyph-name="tildecomb" unicode="&#x303;" 
d="M-193 1486q-2 -44 -16 -81q-15 -42 -42.5 -71t-63.5 -45q-9 -4 -18.5 -7t-19 -5t-19.5 -3t-21 -1q-48 0 -78 14q-32 14 -58 31q-27 18 -56 33q-31 17 -77 17q-6 0 -12 -0.5t-11.5 -2l-11 -3t-10.5 -4.5q-21 -10 -36.5 -27t-24.5 -40q-5 -16 -7 -34l-95 5q2 45 16 81
q15 43 42 74q26 30 62.5 46.5t78.5 16.5q20 0 37.5 -3.5t31.5 -10.5q11 -5 21 -10t20 -10.5t20 -11.5q30 -18 61 -34q35 -16 78 -16q24 0 45 10t37 28q15 17 24 40q6 16 8 34z" />
    <glyph glyph-name="hook" unicode="&#x309;" 
d="M-637 1256l-1 124q67 6 101 20q21 9 32.5 26.5t11.5 41.5q0 27 -17 46q-15 18 -41 28q-12 5 -26 8.5t-30 5.5q-25 4 -51 5l5 76q45 -1 83 -7t68 -16.5t53 -25.5q35 -24 52.5 -54.5t17.5 -69.5q0 -34 -12 -58q-6 -12 -14 -22.5t-17 -17.5q-20 -17 -45 -26q-27 -9 -54 -13
l-13 -2l-1 -69h-102z" />
    <glyph glyph-name="uni030F" unicode="&#x30f;" 
d="M-545 1267h-128l-272 236h179zM-278 1267h-114l-219 236h164z" />
    <glyph glyph-name="dotbelow" unicode="&#x323;" horiz-adv-x="495" 
d="M-697 -245q0 39 24 66q23 26 70 26q8 0 15.5 -1t14 -2.5t12.5 -3.5t11 -5t9.5 -6.5t8.5 -7.5q12 -14 18 -30t6 -36q0 -39 -24 -65q-24 -25 -71 -25t-70 25q-24 26 -24 65z" />
    <glyph glyph-name="tonos" unicode="&#x384;" horiz-adv-x="495" 
d="M183 1277l49 307h140l-105 -307h-84z" />
    <glyph glyph-name="dieresistonos" unicode="&#x385;" horiz-adv-x="975" 
d="M427 1423l38 234h137l-80 -234h-95zM119 1335q-6 16 -6 36q0 39 24 65q23 26 70 26t71 -26t24 -65t-24 -65q-24 -25 -71 -25q-16 0 -29.5 3t-23.5 8.5t-17 13.5q-12 13 -18 29zM674 1304q-24 26 -24 65q0 8 1 15.5t3 14.5t4.5 13t6.5 12t9 11q11 13 28.5 19.5t41.5 6.5
t41.5 -6.5t29.5 -19.5q12 -14 18 -30t6 -36q0 -39 -24 -65q-24 -25 -71 -25t-70 25z" />
    <glyph glyph-name="Delta" unicode="&#x394;" horiz-adv-x="1324" 
d="M1246 30h-1215l564 1396h119zM1075 127l-422 1177l-449 -1177h871z" />
    <glyph glyph-name="Omega" unicode="&#x3a9;" horiz-adv-x="1242" 
d="M1101 60h-403v108q24 8 46 20q14 7 27 16t25 19q3 3 6.5 6t6.5 6.5t6.5 6.5t6.5 7q6 6 12 13.5t12 14.5q3 5 7 10.5t7.5 11t6.5 11.5q3 4 5.5 8.5t5.5 9t5.5 9t4.5 8.5q10 19 19 39.5t17 42.5q15 44 26 96q11 51 16.5 109t5.5 124v115q0 121 -26 214q-7 24 -15 45.5
t-17.5 41.5t-21.5 38q-10 18 -23 34q-47 66 -113 100q-65 34 -147 34q-13 0 -26 -1t-25.5 -3t-24.5 -4q-6 -2 -12 -3.5t-12 -3.5l-12 -4t-11.5 -4.5l-11 -5t-11.5 -5.5q-33 -17 -60.5 -42t-51.5 -58q-10 -13 -18 -27q-3 -5 -6 -9.5t-6 -9.5l-6 -10q-4 -8 -7.5 -16t-7.5 -16
l-14 -34l-6 -18t-5 -19q-27 -93 -27 -214v-115q0 -65 5.5 -123.5t17.5 -110.5q5 -26 12 -50t15 -46t17.5 -42.5t19.5 -39.5q20 -38 43 -68q24 -31 51 -53q45 -38 100 -55v-108h-411v97h264l-52 52q-50 47 -90 109t-68 133q-5 11 -9 23t-8 24.5l-8 25t-7 25l-6 25t-6 25.5
q-7 39 -11 78t-4 79v113q0 137 39 249q38 112 108 191q23 27 49 49q3 3 7 6.5t7.5 6.5t7.5 6t8 5.5t8 5.5t8 5.5t8 5.5q26 19 55 33.5t59.5 24t63.5 14.5t68 5q105 0 192 -44q90 -44 159 -123q70 -79 108 -191q20 -56 29 -118q5 -31 7.5 -64t2.5 -67v-113q0 -40 -4 -79
q0 -6 -1 -12.5l-2 -13l-2 -13l-2 -13l-2 -13t-2 -13.5q-4 -19 -9 -38q-2 -7 -3.5 -13t-3 -12.5t-3.5 -12.5q-3 -9 -6 -18.5t-6 -18.5q-6 -18 -13 -35q-3 -9 -7 -18t-8 -17.5l-8 -17t-8 -16.5q-8 -17 -17.5 -33t-19.5 -31q-8 -12 -16.5 -24t-17.5 -23l-18 -22t-18.5 -21
t-19.5 -19l-52 -52h263v-97z" />
    <glyph glyph-name="afii57388" unicode="&#x60c;" horiz-adv-x="739" 
d="M250 287q47 234 233 379l23 -14q-149 -144 -165 -362l-1 -16h16q43 1 74.5 -6t50.5 -19.5t28 -30.5q18 -35 17 -70q-1 -105 -89 -121q-19 -3 -41 -3q-13 0 -25.5 1t-23.5 3q-71 14 -96 77t-1 182z" />
    <glyph glyph-name="uni060D" unicode="&#x60d;" horiz-adv-x="828" 
d="M619 1443l119 -36l-549 -1599l-118 35z" />
    <glyph glyph-name="uni0615" unicode="&#x615;" 
d="M913 1920q0 75 -76 75q-107 0 -296 -205h137q104 0 168 35q67 35 67 95zM991 1929q0 -215 -323 -215h-313v76h108v532l77 -1l-1 -427q164 186 302 186q150 0 150 -151z" />
    <glyph glyph-name="uni061B" unicode="&#x61b;" horiz-adv-x="739" 
d="M277 140q0 17 4 32t11.5 28t19.5 25q36 36 85.5 36t84.5 -35.5t35 -85t-35 -85t-85 -35.5q-43 0 -75 27q-25 21 -36 47q-9 21 -9 46zM250 727q47 234 233 379l23 -14q-149 -144 -165 -362l-1 -16h16q19 0 35.5 -1t30 -3t25.5 -6t21.5 -8.5t17.5 -10.5t13.5 -12.5
t9.5 -14.5q18 -35 17 -70q0 -32 -8 -55.5t-24 -38.5t-40.5 -22.5t-57.5 -7.5q-13 0 -25.5 1t-23.5 3q-71 14 -96 77t-1 182z" />
    <glyph glyph-name="uni061F" unicode="&#x61f;" horiz-adv-x="974" 
d="M433 140q0 17 4 32t11.5 28t19.5 25q36 36 85.5 36t84.5 -35.5t35 -85.5q0 -16 -3.5 -31t-11.5 -28.5t-20 -24.5q-18 -18 -39 -27t-46 -9q-43 0 -75 27q-25 21 -36 47q-9 21 -9 46zM467 461q-7 94 -178 228q-173 135 -169 346q3 142 83 234q117 131 306 131
q118 -1 195.5 -41.5t116.5 -122t40 -205.5h-130q-2 101 -56.5 153t-156.5 52q-125 0 -185 -72q-24 -29 -36 -65.5t-12 -79.5q-1 -136 144 -267q30 -27 56 -53t47 -49.5t38 -45.5t30 -42t21.5 -37.5t13 -33.5t5.5 -30h-173z" />
    <glyph glyph-name="uni0621" unicode="&#x621;" horiz-adv-x="868" 
d="M133 37v145q105 67 188 91l36 11l-33 17q-171 89 -171 240q0 32 4.5 61.5t13 55.5t21.5 48.5t29 42.5q49 56 112.5 84t141.5 28q39 0 74 -5t65 -15t55 -25t46 -34l-46 -111q-39 24 -84.5 36.5t-97.5 12.5q-93 -1 -148 -54q-25 -24 -37.5 -55.5t-12.5 -69.5
q0 -52 46 -97.5t135 -85.5l5 -2l5 1l237 53l23 -141q-244 -34 -607 -232z" />
    <glyph glyph-name="uni0627" unicode="&#x627;" horiz-adv-x="477" 
d="M166 1393h143v-1377h-143v1377z" />
    <glyph glyph-name="uni0628" unicode="&#x628;" horiz-adv-x="1807" 
d="M861 15q-377 0 -561 118q-185 118 -185 353q0 124 47 237l131 -47q-29 -79 -29 -162q0 -49 13 -92q12 -43 36 -78t60 -63q36 -29 83.5 -49.5t106.5 -34.5t128 -21q70 -7 151 -7q506 0 640 99q71 51 71 177q0 87 -33 235l135 34q23 -71 34 -134t11 -120q0 -229 -132 -321
q-177 -124 -704 -124h-3zM803.972 -316.796l133.743 133.743l134.813 -134.812l-133.743 -133.743z" />
    <glyph glyph-name="uni0629" unicode="&#x629;" horiz-adv-x="942" 
d="M452 655q-195 -170 -195 -304q0 -36 9 -65t27 -51t44.5 -36.5t61 -22t76.5 -7.5q108 0 164.5 46.5t55.5 136.5q0 125 -224 304l-10 8zM387 927q449 -333 449 -581q0 -181 -158 -279q-37 -23 -87.5 -35t-114.5 -13q-117 0 -200 41q-160 80 -160 286q0 201 223 418l12 11
l-12 11l-35 30zM493.935 1260.2l133.743 133.743l134.813 -134.812l-133.743 -133.743zM168.671 1260.2l133.743 133.743l134.813 -134.812l-133.743 -133.743z" />
    <glyph glyph-name="uni062A" unicode="&#x62a;" horiz-adv-x="1807" 
d="M861 15q-377 0 -561 118q-185 118 -185 353q0 124 47 237l131 -47q-29 -79 -29 -162q0 -49 13 -92q12 -43 36 -78t60 -63q36 -29 83.5 -49.5t106.5 -34.5t128 -21q70 -7 151 -7q506 0 640 99q71 51 71 177q0 87 -33 235l135 34q23 -71 34 -134t11 -120q0 -229 -132 -321
q-177 -124 -704 -124h-3zM938.935 942.204l133.743 133.743l134.813 -134.812l-133.743 -133.743zM613.671 942.204l133.743 133.743l134.813 -134.812l-133.743 -133.743z" />
    <glyph glyph-name="uni062B" unicode="&#x62b;" horiz-adv-x="1807" 
d="M861 15q-377 0 -561 118q-185 118 -185 353q0 124 47 237l131 -47q-29 -79 -29 -162q0 -49 13 -92q12 -43 36 -78t60 -63q36 -29 83.5 -49.5t106.5 -34.5t128 -21q70 -7 151 -7q506 0 640 99q71 51 71 177q0 87 -33 235l135 34q23 -71 34 -134t11 -120q0 -229 -132 -321
q-177 -124 -704 -124h-3zM777.373 1148.43l130.533 130.534l131.604 -131.604l-130.533 -130.534zM942.145 879.875l130.533 130.534l131.604 -131.604l-130.533 -130.533zM616.881 879.875l130.533 130.534l131.604 -131.604l-130.533 -130.533z" />
    <glyph glyph-name="uni062C" unicode="&#x62c;" horiz-adv-x="1366" 
d="M140 -145q0 287 175 468.5t529 259.5l10 2l49 11l-47 18q-8 3 -23.5 9.5t-38 15t-51.5 20.5q-198 80 -273 80q-121 0 -198 -100l-21 -26l-128 63l8 14q121 200 340 201q124 0 297 -84q151 -74 269 -114t205 -46l-11 -146q-169 -11 -282 -37q-669 -155 -669 -593
q0 -192 138.5 -288t407.5 -96q211 0 406 89l30 -144q-97 -45 -209 -67.5t-241 -22.5q-193 0 -329.5 44t-217.5 132q-42 45 -69.5 97t-41.5 112t-14 128zM670.972 -64.7959l133.743 133.743l134.813 -134.812l-133.743 -133.743z" />
    <glyph glyph-name="uni062D" unicode="&#x62d;" horiz-adv-x="1386" 
d="M140 -145q0 287 175 468.5t529 259.5l10 2l49 11l-47 18q-8 3 -23.5 9.5t-38 15t-51.5 20.5q-198 80 -273 80q-121 0 -198 -100l-21 -26l-128 63l8 14q121 200 340 201q124 0 297 -84q151 -74 269 -114t205 -46l-11 -146q-169 -11 -282 -37q-669 -155 -669 -593
q0 -192 138.5 -288t407.5 -96q211 0 406 89l30 -144q-97 -45 -209 -67.5t-241 -22.5q-193 0 -329.5 44t-217.5 132q-42 45 -69.5 97t-41.5 112t-14 128z" />
    <glyph glyph-name="uni062E" unicode="&#x62e;" horiz-adv-x="1386" 
d="M445.972 1238.2l133.743 133.743l134.813 -134.812l-133.743 -133.743zM140 -145q0 287 175 468.5t529 259.5l10 2l49 11l-47 18q-8 3 -23.5 9.5t-38 15t-51.5 20.5q-198 80 -273 80q-121 0 -198 -100l-21 -26l-128 63l8 14q121 200 340 201q124 0 297 -84
q151 -74 269 -114t205 -46l-11 -146q-169 -11 -282 -37q-669 -155 -669 -593q0 -192 138.5 -288t407.5 -96q211 0 406 89l30 -144q-97 -45 -209 -67.5t-241 -22.5q-193 0 -329.5 44t-217.5 132q-42 45 -69.5 97t-41.5 112t-14 128z" />
    <glyph glyph-name="uni062F" unicode="&#x62f;" horiz-adv-x="974" 
d="M116 193q116 -23 206 -23q385 0 385 196q0 194 -409 455l84 127q239 -145 357 -289.5t118 -289.5q0 -117 -56.5 -194.5t-172.5 -117t-293 -40.5q-118 0 -219 21v155z" />
    <glyph glyph-name="uni0630" unicode="&#x630;" horiz-adv-x="974" 
d="M116 193q116 -23 206 -23q385 0 385 196q0 194 -409 455l84 127q239 -145 357 -289.5t118 -289.5q0 -117 -56.5 -194.5t-172.5 -117t-293 -40.5q-118 0 -219 21v155zM222.972 1286.2l133.743 133.743l134.813 -134.812l-133.743 -133.743z" />
    <glyph glyph-name="uni0631" unicode="&#x631;" horiz-adv-x="775" 
d="M593 513q76 -192 76 -356q1 -265 -151 -426t-460 -222l-51 130q519 104 521 513q1 133 -73 311z" />
    <glyph glyph-name="uni0632" unicode="&#x632;" horiz-adv-x="775" 
d="M593 513q76 -192 76 -356q1 -265 -151 -426t-460 -222l-51 130q519 104 521 513q1 133 -73 311zM316.937 895.882l138.206 138.207l139.312 -139.312l-138.207 -138.206z" />
    <glyph glyph-name="uni0633" unicode="&#x633;" horiz-adv-x="2470" 
d="M1335 56q-1 -156 -55 -266q-144 -295 -553 -295q-308 0 -459 141q-152 140 -151 425q0 25 1 50t4 50q3 26 7 51t9 51t12 51q6 26 14 52t18 52q9 26 19 53l131 -55q-69 -185 -69 -353q0 -139 53 -233q54 -94 158.5 -141t259.5 -47q228 0 344 116q117 116 118 344
q0 180 -85 361l143 50l55 -171q27 -85 87 -128q59 -44 149 -44q94 0 143 51q50 51 49 148q0 57 -3 102l-4 70l135 16l15 -215q5 -83 48 -126q43 -44 120 -43q79 0 118 58q40 59 39 168q0 34 -4 72q-5 39 -14 82t-22 91l142 38q45 -148 44 -282q0 -220 -116 -322
q-36 -31 -81 -46q-44 -16 -99 -16q-179 0 -240 145q-106 -146 -272 -146q-120 0 -184 53l-24 20v-32z" />
    <glyph glyph-name="uni0634" unicode="&#x634;" horiz-adv-x="2470" 
d="M1632.37 1212.43l130.533 130.534l131.604 -131.604l-130.533 -130.534zM1797.14 943.875l130.533 130.534l131.604 -131.604l-130.533 -130.533zM1471.88 943.875l130.533 130.534l131.604 -131.604l-130.533 -130.533zM1335 56q-1 -156 -55 -266q-144 -295 -553 -295
q-308 0 -459 141q-152 140 -151 425q0 25 1 50t4 50q3 26 7 51t9 51t12 51q6 26 14 52t18 52q9 26 19 53l131 -55q-69 -185 -69 -353q0 -139 53 -233q54 -94 158.5 -141t259.5 -47q228 0 344 116q117 116 118 344q0 180 -85 361l143 50l55 -171q27 -85 87 -128
q59 -44 149 -44q94 0 143 51q50 51 49 148q0 57 -3 102l-4 70l135 16l15 -215q5 -83 48 -126q43 -44 120 -43q79 0 118 58q40 59 39 168q0 34 -4 72q-5 39 -14 82t-22 91l142 38q45 -148 44 -282q0 -220 -116 -322q-36 -31 -81 -46q-44 -16 -99 -16q-179 0 -240 145
q-106 -146 -272 -146q-120 0 -184 53l-24 20v-32z" />
    <glyph glyph-name="uni0635" unicode="&#x635;" horiz-adv-x="2587" 
d="M1309 342q44 -137 113 -144l10 -1l5 9q336 571 672 570q141 0 235 -79q126 -104 126 -273q-2 -409 -707 -409h-51q-245 0 -355 54l-22 11v-24q-1 -156 -55 -266q-144 -295 -553 -295q-308 0 -459.5 140.5t-150.5 425.5q0 25 1 50t4 50.5t7 50.5t9 51t11.5 51.5t14.5 51.5
t17.5 52t19.5 53l131 -55q-69 -185 -69 -353q0 -139 53.5 -233t158 -141t259.5 -47q228 0 344.5 116t117.5 344q0 180 -85 361l143 50zM1759 170q558 0 559 245q0 110 -84 168q-13 9 -27.5 16t-29.5 11.5t-31.5 6.5t-33.5 3q-236 1 -510 -428l-15 -23h28z" />
    <glyph glyph-name="uni0636" unicode="&#x636;" horiz-adv-x="2587" 
d="M1937.97 1183.2l133.743 133.743l134.813 -134.812l-133.743 -133.743zM1309 342q44 -137 113 -144l10 -1l5 9q336 571 672 570q141 0 235 -79q126 -104 126 -273q-2 -409 -707 -409h-51q-245 0 -355 54l-22 11v-24q-1 -156 -55 -266q-144 -295 -553 -295
q-308 0 -459.5 140.5t-150.5 425.5q0 25 1 50t4 50.5t7 50.5t9 51t11.5 51.5t14.5 51.5t17.5 52t19.5 53l131 -55q-69 -185 -69 -353q0 -139 53.5 -233t158 -141t259.5 -47q228 0 344.5 116t117.5 344q0 180 -85 361l143 50zM1759 170q558 0 559 245q0 110 -84 168
q-13 9 -27.5 16t-29.5 11.5t-31.5 6.5t-33.5 3q-236 1 -510 -428l-15 -23h28z" />
    <glyph glyph-name="uni0637" unicode="&#x637;" horiz-adv-x="1480" 
d="M1365 424q-3 -409 -707 -409h-542v154h206h2h8l4 7l72 115l3 3v5v1095h143v-850v-42l27 33q197 246 423 241q16 0 31.5 -1t30 -3t28.5 -5.5t27.5 -7t26.5 -8.5t25 -11t23.5 -12.5t22 -14t21.5 -16.5q125 -104 125 -273zM1007 620q-239 0 -510 -427l-14 -23h27h144
q557 0 559 245q0 110 -84 168q-52 36 -122 37z" />
    <glyph glyph-name="uni0638" unicode="&#x638;" horiz-adv-x="1480" 
d="M1365 424q-3 -409 -707 -409h-542v154h206h2h8l4 7l72 115l3 3v5v1095h143v-850v-42l27 33q197 246 423 241q16 0 31.5 -1t30 -3t28.5 -5.5t27.5 -7t26.5 -8.5t25 -11t23.5 -12.5t22 -14t21.5 -16.5q125 -104 125 -273zM1007 620q-239 0 -510 -427l-14 -23h27h144
q557 0 559 245q0 110 -84 168q-52 36 -122 37zM845.972 1183.2l133.743 133.743l134.813 -134.812l-133.743 -133.743z" />
    <glyph glyph-name="uni0639" unicode="&#x639;" horiz-adv-x="1346" 
d="M638 448q177 31 303 32q85 0 166 -8l-19 -147q-39 2 -64 2.5t-39 -0.5q-359 -10 -542 -128t-183 -344q0 -184 135.5 -276t399.5 -92q202 0 397 89l30 -144q-64 -30 -134 -50.5t-146 -30.5t-159 -10q-370 0 -538 179q-63 65 -94 146.5t-31 181.5q0 382 349 537l18 8
l-13 15q-59 68 -88 139.5t-29 147.5q0 66 26 133q13 32 32.5 61.5t45.5 56.5q96 103 273 103q144 0 313 -113l-56 -122q-72 41 -133 61.5t-114 20.5q-137 0 -201 -106q-32 -52 -32 -108q0 -48 25 -99q12 -24 33.5 -56t53.5 -73l6 -7z" />
    <glyph glyph-name="uni063A" unicode="&#x63a;" horiz-adv-x="1346" 
d="M638 448q177 31 303 32q85 0 166 -8l-19 -147q-39 2 -64 2.5t-39 -0.5q-359 -10 -542 -128t-183 -344q0 -184 135.5 -276t399.5 -92q202 0 397 89l30 -144q-64 -30 -134 -50.5t-146 -30.5t-159 -10q-370 0 -538 179q-63 65 -94 146.5t-31 181.5q0 382 349 537l18 8
l-13 15q-59 68 -88 139.5t-29 147.5q0 66 26 133q13 32 32.5 61.5t45.5 56.5q96 103 273 103q144 0 313 -113l-56 -122q-72 41 -133 61.5t-114 20.5q-137 0 -201 -106q-32 -52 -32 -108q0 -48 25 -99q12 -24 33.5 -56t53.5 -73l6 -7zM570.972 1367.2l133.743 133.743
l134.813 -134.812l-133.743 -133.743z" />
    <glyph glyph-name="afii57440" unicode="&#x640;" horiz-adv-x="286" 
d="M-7 15q-21 0 -32 16.5t-11 56.5v19q0 35 10.5 48.5t32.5 13.5h299q8 -13 8 -62v-19q0 -28 -2.5 -47.5t-5.5 -25.5h-299z" />
    <glyph glyph-name="uni0641" unicode="&#x641;" horiz-adv-x="1821" 
d="M1208.97 1359.2l133.743 133.743l134.813 -134.812l-133.743 -133.743zM1703 473q-2 -275 -130 -371q-116 -87 -413 -87h-330q-362 0 -539 118q-177 117 -177 353q0 124 47 237l131 -47q-15 -41 -22 -84t-7 -81q0 -171 140 -256q141 -86 413 -86h365q403 0 393 232l-1 18
l-17 -6q-90 -27 -195 -27t-174 28q-69 29 -103 85q-33 53 -36 143q-1 21 1 41t6 39q29 154 110 237q78 81 196 81q16 0 31 -2q16 -1 30 -4t27.5 -8t26.5 -11q12 -6 24 -13q175 -113 195 -407l2 -22q1 -10 2 -20.5t1.5 -20.5l1 -20t0.5 -20q0 -9 1 -19zM1182 669
q0 -70 50 -105t142 -34q29 0 58 3t58 9t59 15l12 3l-2 13q-5 39 -12 74.5t-17 67t-23 58.5q-53 117 -152 117q-58 0 -98 -37t-62 -108q-13 -40 -13 -76z" />
    <glyph glyph-name="uni0642" unicode="&#x642;" horiz-adv-x="1511" 
d="M747 -445q-318 0 -474.5 140.5t-155.5 425.5q0 199 84 410l131 -55q-69 -185 -69 -353q0 -210 124.5 -316t366.5 -105q233 0 360 101t143 299l1 4l1 22l-21 -6q-18 -5 -36.5 -9.5t-37.5 -8t-38.5 -5.5t-40 -3.5t-41.5 -1.5q-158 -1 -235 62.5t-79 194.5q0 42 8 80
q32 157 109 236q78 81 197 81q80 1 139 -38q165 -109 201 -417q17 -146 -2 -270q-36 -235 -193.5 -351.5t-441.5 -116.5zM864 378q1 -71 51 -106t142 -34q86 1 174 27l13 4l-2 12q-14 119 -52 201q-13 28 -29 49.5t-35 36.5t-41.5 23t-47.5 8q-115 0 -160 -145
q-12 -40 -13 -76zM1053.93 1072.2l133.743 133.743l134.813 -134.812l-133.743 -133.743zM728.671 1072.2l133.743 133.743l134.813 -134.812l-133.743 -133.743z" />
    <glyph glyph-name="uni0643" unicode="&#x643;" horiz-adv-x="1891" 
d="M842 169q725 0 725 303v918h148v-916q0 -459 -853 -459h-1q-377 0 -561 118q-185 118 -185 353q0 124 47 237l131 -47q-29 -79 -29 -162q2 -345 578 -345zM701 645q43 -4 79 -6t68 -3q37 0 67 2.5t55 7.5t44 13q30 12 46.5 33t17.5 49q0 51 -36 81q-17 15 -42 24.5
t-57 13.5q-103 16 -151 65t-46 133q5 189 363 219v-98q-84 -9 -140 -24t-88 -41.5t-32 -63.5q0 -87 152 -110q92 -14 136 -62t43 -132q0 -112 -111 -173q-72 -39 -203 -39q-74 0 -165 13v98z" />
    <glyph glyph-name="uni0644" unicode="&#x644;" horiz-adv-x="1441" 
d="M1128 100l3 1293h142l-1 -1094q0 -139 -9 -269q-21 -270 -160 -402.5t-402 -132.5q-295 0 -439.5 135.5t-143.5 410.5q0 191 77 386l131 -54q-63 -167 -63 -335q0 -131 49.5 -219t147.5 -132.5t242 -44.5q210 0 317.5 115.5t108.5 342.5z" />
    <glyph glyph-name="uni0645" unicode="&#x645;" horiz-adv-x="1242" 
d="M842 143q71 -1 108 39t37 115q-1 61 -23 115q-47 117 -172 119q-74 1 -130 -54.5t-95 -162.5l-3 -10l8 -7q176 -154 270 -154zM1128 309q0 -137 -66 -226q-66 -91 -210 -91q-48 0 -107.5 21.5t-129.5 63.5q-49 30 -104 58q-37 19 -83 18q-88 -1 -128 -125.5t-39 -365.5
q0 -37 0.5 -73.5t1.5 -71.5t2.5 -68.5t3.5 -65.5t5 -63h-150q-11 182 -10 346q3 339 77 486q75 146 204 166l8 1l4 8q143 362 382 363q155 1 246 -111q93 -112 93 -270z" />
    <glyph glyph-name="uni0646" unicode="&#x646;" horiz-adv-x="1455" 
d="M1280 -140q-144 -295 -553 -295q-308 0 -459.5 140.5t-150.5 425.5q0 199 84 410l131 -55q-69 -185 -69 -353q0 -209 119 -315t352 -106q228 0 344.5 116t117.5 344q0 180 -85 361l143 50q82 -231 82 -451q0 -80 -14 -148t-42 -124zM581.972 687.204l133.743 133.743
l134.813 -134.812l-133.743 -133.743z" />
    <glyph glyph-name="uni0647" unicode="&#x647;" horiz-adv-x="942" 
d="M452 655q-195 -170 -195 -304q0 -36 9 -65t27 -51t44.5 -36.5t61 -22t76.5 -7.5q108 0 164.5 46.5t55.5 136.5q0 125 -224 304l-10 8zM387 927q449 -333 449 -581q0 -181 -158 -279q-37 -23 -87.5 -35t-114.5 -13q-117 0 -200 41q-160 80 -160 286q0 201 223 418l12 11
l-12 11l-35 30z" />
    <glyph glyph-name="uni0648" unicode="&#x648;" horiz-adv-x="860" 
d="M122 -361q141 28 244 78t168 123t91 169l6 22l-23 -3q-23 -3 -43.5 -5.5t-37.5 -4t-30 -3t-23 -2t-16 -0.5q-178 -1 -264 69.5t-86 215.5q0 118 50 223q90 188 271 188q196 0 280 -219q57 -147 57 -322q0 -272 -147.5 -436t-445.5 -223zM626 203q-11 170 -62.5 258.5
t-146.5 88.5q-107 0 -151 -130q-19 -57 -19 -107q0 -76 55 -114t157 -38q75 1 156 26l11 4v12z" />
    <glyph glyph-name="uni0649" unicode="&#x649;" horiz-adv-x="1504" 
d="M263 84q0 -83 19.5 -150.5t58 -118.5t96 -85t134 -51t170.5 -18q181 0 324 67q76 35 133 93q59 61 59 139q0 35 -25 53.5t-68 18.5l-114 1q-120 0 -177 45.5t-57 138.5q0 183 116 310q150 164 425 164h6v-163h-7q-165 0 -273 -76q-56 -39 -85.5 -88.5t-30.5 -107.5
q0 -17 5 -31t16 -24q21 -17 64 -17h119q114 1 168 -44.5t54 -139.5q0 -280 -279 -408q-166 -76 -378 -76q-208 0 -345 62.5t-205 187.5t-68 315q0 205 103 453l130 -54q-88 -218 -88 -396z" />
    <glyph glyph-name="uni064A" unicode="&#x64a;" horiz-adv-x="1504" 
d="M263 84q0 -83 19.5 -150.5t58 -118.5t96 -85t134 -51t170.5 -18q181 0 324 67q76 35 133 93q59 61 59 139q0 35 -25 53.5t-68 18.5l-114 1q-120 0 -177 45.5t-57 138.5q0 183 116 310q150 164 425 164h6v-163h-7q-165 0 -273 -76q-56 -39 -85.5 -88.5t-30.5 -107.5
q0 -17 5 -31t16 -24q21 -17 64 -17h119q114 1 168 -44.5t54 -139.5q0 -280 -279 -408q-166 -76 -378 -76q-208 0 -345 62.5t-205 187.5t-68 315q0 205 103 453l130 -54q-88 -218 -88 -396zM764.935 -794.796l133.743 133.743l134.813 -134.812l-133.743 -133.743z
M439.671 -794.796l133.743 133.743l134.813 -134.812l-133.743 -133.743z" />
    <glyph glyph-name="uni064B" unicode="&#x64b;" 
d="M334 1088v87l441 180v-87zM334 1300v87l441 180v-87z" />
    <glyph glyph-name="uni064C" unicode="&#x64c;" 
d="M582 1722q-21 -25 -22 -58q0 -20 8.5 -37.5t24 -30.5t38.5 -23q5 -2 10.5 -4.5t12.5 -4.5t15 -5t17 -5.5t20 -5.5l5 -2l3 5q14 24 21.5 48.5t7.5 49.5q0 51 -22.5 78t-66.5 27q-15 0 -28 -3.5t-24 -10.5t-20 -18zM311 1507q7 -227 142 -225q18 0 37.5 5t38.5 14.5t38 24
t39 33.5q45 45 85 124l5 8l-10 3l-29 6q-98 21 -133 67q-30 41 -30 88q0 17 1.5 31.5t5 27t9.5 22.5q42 82 140 82q69 0 110 -39q23 -22 34.5 -54t11.5 -75q0 -9 -1 -20.5t-4 -25t-7 -29t-9 -32.5l-3 -9h9l30 -2l52 -2v-63h-10.5h-9t-8 0.5t-6.5 0.5h-5h-3l-77 8h-5l-2 -5
q-46 -110 -132 -184q-78 -69 -161 -69q-88 0 -134 71.5t-49 217.5h40z" />
    <glyph glyph-name="uni064D" unicode="&#x64d;" 
d="M340 -435v88l440 180v-88zM340 -223v88l440 180v-88z" />
    <glyph glyph-name="uni064E" unicode="&#x64e;" 
d="M304 1360v88l440 180v-88z" />
    <glyph glyph-name="uni064F" unicode="&#x64f;" 
d="M805 1472q-28 0 -50 1t-40 3l-31 5h-5l-2 -4q-122 -172 -351 -186v63q185 10 276 139l7 10l-12 2q-42 9 -87 33q-82 46 -82 127q0 62 34 103q44 52 121 52q58 0 101 -34q31 -25 45 -61q9 -27 9 -60q0 -56 -25 -116l-4 -9l10 -1l20 -2q35 -3 66 -2v-63zM647 1557l6 14
q21 49 22 93q-1 45 -28 67q-9 8 -18.5 13t-20 8t-21.5 3q-49 1 -76 -35q-18 -24 -19 -58q1 -52 71 -84q23 -11 75 -25l6 -2z" />
    <glyph glyph-name="uni0650" unicode="&#x650;" 
d="M350 -334v87l441 180v-87z" />
    <glyph glyph-name="uni0651" unicode="&#x651;" 
d="M601 1761q1 -20 1.5 -38t0.5 -37q0 -100 74 -99q19 0 34 7.5t24.5 21t14.5 33.5t5 46q0 8 -0.5 17t-2 19.5t-3 22.5t-4 25t-5.5 28l74 11q15 -57 15 -113q0 -33 -4 -60.5t-11.5 -49t-19 -38t-27 -27t-34.5 -16t-43 -5.5q-60 0 -100 51l-10 12l-3 -15q-29 -111 -145 -112
q-64 1 -96.5 40.5t-33.5 121.5q-1 54 11 100l63 -10q-8 -43 -8 -77q0 -22 5 -39t14.5 -28.5t23.5 -17.5t33 -7q17 0 32 5t26 15t18.5 25t12 34t4.5 42q2 48 2 112h62z" />
    <glyph glyph-name="uni0652" unicode="&#x652;" 
d="M406 1461.5q0 39.5 13.5 73t40.5 60.5q55 54 133.5 54t133.5 -54q27 -27 40.5 -60.5t13.5 -72.5q0 -20 -3.5 -38t-10 -35t-17 -32t-23.5 -29q-55 -54 -133.5 -54t-133.5 54q-27 28 -40.5 61t-13.5 72.5zM477 1461q0 -50 35 -85q34 -34 84 -34t85 34q17 17 25.5 38.5
t8.5 46.5q0 50 -34 84q-35 35 -85 35t-84 -35q-35 -34 -35 -84z" />
    <glyph glyph-name="uni0653" unicode="&#x653;" 
d="M401 1644q-22 3 -44 1.5t-42.5 -8.5t-41 -18.5t-39.5 -27.5t-37 -37l-92 96q115 161 278 135l148 -24q97 -16 218 43l59 -124q-124 -75 -266 -55z" />
    <glyph glyph-name="uni0654" unicode="&#x654;" 
d="M446 1832q-71 55 -71 155q0 85 57 145q34 35 77 53q42 18 95 18q70 0 133 -40l1 -113q-59 35 -120 35q-13 0 -25 -2q-12 -1 -23 -4t-20 -7q-10 -5 -18 -11q-9 -5 -16 -13q-31 -31 -30 -74q0 -10 3 -19q2 -9 6 -17t11 -15q6 -8 14 -15t18 -13t22 -12q12 -5 25 -10
q15 -6 28 -3q66 13 131 25v-110l-391 -94v107l90 21l16 4z" />
    <glyph glyph-name="uni0655" unicode="&#x655;" 
d="M446 -320q-71 55 -71 155q0 85 57 145q34 35 77 53q42 18 95 18q70 0 133 -40l1 -113q-59 35 -120 35q-13 0 -25 -2q-12 -1 -23 -4t-20 -7q-10 -5 -18 -11q-9 -5 -16 -13q-31 -31 -30 -74q0 -10 3 -19q2 -9 6 -17t11 -15q6 -8 14 -15t18 -13t22 -12q12 -5 25 -10
q15 -6 28 -3q66 13 131 25v-110l-391 -94v107l90 21l16 4z" />
    <glyph glyph-name="uni0657" unicode="&#x657;" 
d="M272 1797q56 -2 122 -9h4l3 3l1 2q144 206 375 231v-63q-183 -32 -297 -178l-6 -9l10 -3q30 -9 56 -21t47 -28q63 -48 63 -123q0 -67 -42 -111q-41 -42 -107 -42q-71 0 -122 49q-20 20 -30 47t-10 61q0 43 24 117l2 9l-9 1q-18 2 -40 3t-44 1v63zM501 1509q22 0 39 8
t28 23q5 8 9 17t6 19t2 21q0 16 -5.5 30.5t-16 27t-26 22.5t-35.5 19q-16 7 -31.5 12t-31.5 8l-6 2l-3 -6q-28 -65 -27 -107q0 -11 1.5 -21t5.5 -19q11 -25 38 -41t53 -15z" />
    <glyph glyph-name="uni065A" unicode="&#x65a;" horiz-adv-x="1135" 
d="M507 1452l-185 309h87l158 -237l6 -10l7 10l158 237h87l-185 -309h-133z" />
    <glyph glyph-name="afii57392" unicode="&#x660;" horiz-adv-x="893" 
d="M294 543q0 -66 46 -111q22 -23 50.5 -34.5t62.5 -11.5q33 0 61 11.5t50 34.5q12 11 20.5 24t13.5 27q12 28 12 60.5t-12 60.5q-5 14 -13.5 26.5t-20.5 24.5q-22 22 -50.5 33.5t-61.5 12.5q-33 -1 -61 -12q-14 -6 -27 -14.5t-24 -19.5q-46 -46 -46 -112zM234 757
q23 22 47 38.5t51 27.5q53 23 115 23q20 0 40 -2.5t38 -7.5q10 -3 19 -6t17.5 -6.5t17.5 -8t17 -9.5q17 -10 32.5 -22t30.5 -27q45 -45 67 -98t22 -115q0 -123 -89 -212q-22 -22 -46.5 -38.5t-50.5 -27.5q-9 -4 -18 -7t-18.5 -5.5t-18.5 -4.5q-29 -5 -60 -5q-62 0 -115 22
q-9 3 -17.5 7.5t-17.5 9.5q-16 9 -32 22q-8 6 -15.5 13t-15.5 14q-44 44 -66 97t-22 115t22 115t66 98z" />
    <glyph glyph-name="afii57393" unicode="&#x661;" horiz-adv-x="716" 
d="M302 1357q197 -442 197 -1068v-262h-149v265q0 632 -184 1017z" />
    <glyph glyph-name="afii57394" unicode="&#x662;" horiz-adv-x="1197" 
d="M397 1089q66 -182 288 -182q117 0 170 102q27 54 41 139q14 84 15 201h150q-1 -66 -5 -124q-19 -251 -105 -360q-93 -116 -262 -115q-131 0 -228 61q38 -287 38 -522v-262h-149v265q0 632 -184 1017l134 48z" />
    <glyph glyph-name="afii57395" unicode="&#x663;" horiz-adv-x="1492" 
d="M499 289v-262h-149v265q0 632 -184 1017l134 48l105 -300q46 -133 205 -134q56 -1 93 28t55 82q18 57 18 132l1 132l129 4l3 -129q3 -124 46 -190q42 -65 125 -66q82 -1 113 68t32 264v118h147l-1 -115q-1 -280 -80 -391q-70 -98 -204 -97q-144 1 -236 108l-2 3l-12 13
l-11 -14l-2 -2q-45 -55 -95 -82t-106 -27q-103 0 -162 49q38 -288 38 -522z" />
    <glyph glyph-name="afii57396" unicode="&#x664;" horiz-adv-x="1244" 
d="M1066 1332l-36 -144q-37 13 -74 19.5t-76 6.5q-53 0 -99 -14q-46 -13 -83 -40q-123 -93 -136 -231q-3 -30 20 -55q23 -26 69 -50q37 -19 87 -29q51 -9 115 -9q132 0 250 44l19 -145q-117 -49 -249 -49q-269 1 -418 180l7 -52l2 -11q17 -115 26 -238q9 -121 9 -226v-262
h-149v265q0 632 -184 1017l134 48q27 -78 56 -164q29 -85 61 -181l15 -45l14 45l15 51q43 141 145 225q103 87 249 86q111 0 211 -42z" />
    <glyph glyph-name="afii57397" unicode="&#x665;" horiz-adv-x="1288" 
d="M269 339q0 -49 11.5 -83.5t36 -53.5t61.5 -19q158 0 224 295l99 -1q53 -298 198 -298q60 0 90 42t30 119q0 340 -379 721l-13 12l-10 -13q-116 -153 -193 -283t-116 -239.5t-39 -198.5zM363 27q-120 0 -179.5 76.5t-59.5 235.5q0 319 382 832l1 2l8 11l-9 9l-2 1l-44 42
l105 128l113 -107q487 -478 486 -908q0 -164 -62 -243t-188 -79q-183 0 -262 222q-75 -222 -289 -222z" />
    <glyph glyph-name="afii57398" unicode="&#x666;" horiz-adv-x="1104" 
d="M740 1201q-25 2 -50 3t-52 1q-199 0 -280 -92q-61 -68 -61 -149q0 -230 392 -231h1l2 1h1l2 1h2q178 97 263 134l6 -154q-436 -201 -656 -725l-141 47q128 313 366 548l23 23l-32 3q-195 18 -289.5 107t-93.5 251q0 18 1.5 35.5t4.5 34.5t7.5 33.5t10.5 32.5t13 31
q112 227 426 225q36 0 75 -3t80 -8z" />
    <glyph glyph-name="afii57399" unicode="&#x667;" horiz-adv-x="1281" 
d="M1163 1284q-104 -210 -189 -420t-150 -419t-112 -418h-143q-140 629 -451 1256l142 72q261 -564 366 -1031l14 -65l15 65q105 468 366 1031z" />
    <glyph glyph-name="afii57400" unicode="&#x668;" horiz-adv-x="1281" 
d="M1163 84l-142 -72q-131 282 -222 539.5t-144 491.5l-15 66l-14 -66q-105 -467 -366 -1031l-142 72q311 627 451 1257h143q139 -629 451 -1257z" />
    <glyph glyph-name="afii57401" unicode="&#x669;" horiz-adv-x="1139" 
d="M500 590q-319 0 -365 242q-8 44 -8 94q0 141 68 251q59 94 138.5 141t181.5 47q177 0 271.5 -119.5t107.5 -364.5q11 -217 19 -431t13 -423h-142l-13 616v24l-22 -11q-66 -33 -128.5 -49.5t-120.5 -16.5zM503 750q110 0 242 66l9 5l-1 10l-2 23q-29 350 -227 350
q-24 0 -46 -4t-42 -11.5t-38 -19t-34 -26.5t-30 -34q-62 -84 -62 -174q0 -61 27 -102.5t78 -62t126 -20.5z" />
    <glyph glyph-name="afii57381" unicode="&#x66a;" horiz-adv-x="1288" 
d="M765 345q0 32 11 59t34 50q45 44 109 45q10 0 20.5 -1.5t19.5 -3.5t18 -6q27 -11 50 -34l10 -12t9.5 -12t8 -12.5t5.5 -13.5q6 -13 9 -28t3 -31q0 -63 -45 -108t-109 -45q-21 0 -40 5t-36 15t-32 25q-23 23 -34 49.5t-11 58.5zM216 1199q0 64 46 109q44 44 108 45
q64 0 108 -45q45 -45 45 -109t-45 -108q-11 -11 -23.5 -19.5t-25.5 -14.5q-9 -3 -18.5 -5.5t-19.5 -4t-21 -1.5q-13 0 -25 2t-23 5.5t-21.5 8.5t-20 12.5t-18.5 16.5q-46 44 -46 108zM879 1387l127 -65l-657 -1268l-127 70z" />
    <glyph glyph-name="uni066B" unicode="&#x66b;" horiz-adv-x="822" 
d="M541 798l103 -44l-452 -1043l-106 46z" />
    <glyph glyph-name="uni066C" unicode="&#x66c;" horiz-adv-x="588" 
d="M155 140q0 47 17 78q34 61 119 61q140 0 165 -123q5 -22 5 -47t-4 -54.5t-12 -61.5q-58 -219 -258 -385l-56 26q189 175 201 366v8h-8h-3l-7 -1q-27 0 -46 4q-115 23 -113 129z" />
    <glyph glyph-name="afii63167" unicode="&#x66d;" horiz-adv-x="1584" 
d="M279 1024h384h2h11l3 10l1 2l120 366l120 -366l1 -2l3 -10h11h2h384l-310 -227l-2 -2l-9 -6l4 -10l1 -2l118 -365l-312 226l-2 1l-9 7l-9 -7l-2 -1l-312 -226l118 365l1 2l4 10l-9 6l-2 2z" />
    <glyph glyph-name="uni066E" unicode="&#x66e;" horiz-adv-x="1807" 
d="M861 15q-377 0 -561 118q-185 118 -185 353q0 124 47 237l131 -47q-29 -79 -29 -162q0 -49 13 -92q12 -43 36 -78t60 -63q36 -29 83.5 -49.5t106.5 -34.5t128 -21q70 -7 151 -7q506 0 640 99q71 51 71 177q0 87 -33 235l135 34q23 -71 34 -134t11 -120q0 -229 -132 -321
q-177 -124 -704 -124h-3z" />
    <glyph glyph-name="uni066F" unicode="&#x66f;" horiz-adv-x="1511" 
d="M747 -445q-318 0 -474.5 140.5t-155.5 425.5q0 199 84 410l131 -55q-69 -185 -69 -353q0 -210 124.5 -316t366.5 -105q233 0 360 101t143 299l1 4l1 22l-21 -6q-18 -5 -36.5 -9.5t-37.5 -8t-38.5 -5.5t-40 -3.5t-41.5 -1.5q-158 -1 -235 62.5t-79 194.5q0 42 8 80
q32 157 109 236q78 81 197 81q80 1 139 -38q165 -109 201 -417q17 -146 -2 -270q-36 -235 -193.5 -351.5t-441.5 -116.5zM864 378q1 -71 51 -106t142 -34q86 1 174 27l13 4l-2 12q-14 119 -52 201q-13 28 -29 49.5t-35 36.5t-41.5 23t-47.5 8q-115 0 -160 -145
q-12 -40 -13 -76z" />
    <glyph glyph-name="uni0670" unicode="&#x670;" 
d="M601 1576v386h72v-386h-72z" />
    <glyph glyph-name="uni0674" unicode="&#x674;" horiz-adv-x="551" 
d="M179 1976q-71 55 -71 155q0 85 57 145q34 35 77 53q42 18 95 18q70 0 133 -40l1 -113q-59 35 -120 35q-13 0 -25 -2q-12 -1 -23 -4t-20 -7q-10 -5 -18 -11q-9 -5 -16 -13q-31 -31 -30 -74q0 -10 3 -19q2 -9 6 -17t11 -15q6 -8 14 -15t18 -13t22 -12q12 -5 25 -10
q15 -6 28 -3q66 13 131 25v-110l-391 -94v107l90 21l16 4z" />
    <glyph glyph-name="afii57506" unicode="&#x67e;" horiz-adv-x="1807" 
d="M861 15q-377 0 -561 118q-185 118 -185 353q0 124 47 237l131 -47q-29 -79 -29 -162q0 -49 13 -92q12 -43 36 -78t60 -63q36 -29 83.5 -49.5t106.5 -34.5t128 -21q70 -7 151 -7q506 0 640 99q71 51 71 177q0 87 -33 235l135 34q23 -71 34 -134t11 -120q0 -229 -132 -321
q-177 -124 -704 -124h-3zM797.373 -569.373l131.604 131.604l130.533 -131.604l-131.604 -130.533zM962.145 -300.816l131.604 131.604l130.533 -130.533l-131.604 -131.604zM636.881 -300.816l131.604 131.604l130.533 -130.533l-131.604 -131.604z" />
    <glyph glyph-name="afii57507" unicode="&#x686;" horiz-adv-x="1366" 
d="M140 -145q0 287 175 468.5t529 259.5l10 2l49 11l-47 18q-8 3 -23.5 9.5t-38 15t-51.5 20.5q-198 80 -273 80q-121 0 -198 -100l-21 -26l-128 63l8 14q121 200 340 201q124 0 297 -84q151 -74 269 -114t205 -46l-11 -146q-169 -11 -282 -37q-669 -155 -669 -593
q0 -192 138.5 -288t407.5 -96q211 0 406 89l30 -144q-97 -45 -209 -67.5t-241 -22.5q-193 0 -329.5 44t-217.5 132q-42 45 -69.5 97t-41.5 112t-14 128zM692.373 -215.373l131.604 131.604l130.533 -131.604l-131.604 -130.533zM857.145 53.1836l131.604 131.604
l130.533 -130.533l-131.604 -131.604zM531.881 53.1836l131.604 131.604l130.533 -130.533l-131.604 -131.604z" />
    <glyph glyph-name="afii57508" unicode="&#x698;" horiz-adv-x="840" 
d="M593 513q76 -192 76 -356q1 -265 -151 -426t-460 -222l-51 130q519 104 521 513q1 133 -73 311zM322.373 1125.43l130.533 130.534l131.604 -131.604l-130.533 -130.534zM487.145 856.875l130.533 130.534l131.604 -131.604l-130.533 -130.533zM161.881 856.875
l130.533 130.534l131.604 -131.604l-130.533 -130.533z" />
    <glyph glyph-name="uni06A1" unicode="&#x6a1;" horiz-adv-x="1821" 
d="M1703 473q-2 -275 -130 -371q-116 -87 -413 -87h-330q-362 0 -539 118q-177 117 -177 353q0 124 47 237l131 -47q-15 -41 -22 -84t-7 -81q0 -171 140 -256q141 -86 413 -86h365q403 0 393 232l-1 18l-17 -6q-90 -27 -195 -27t-174 28q-69 29 -103 85q-33 53 -36 143
q-1 21 1 41t6 39q29 154 110 237q78 81 196 81q16 0 31 -2q16 -1 30 -4t27.5 -8t26.5 -11q12 -6 24 -13q175 -113 195 -407l2 -22q1 -10 2 -20.5t1.5 -20.5l1 -20t0.5 -20q0 -9 1 -19zM1182 669q0 -70 50 -105t142 -34q29 0 58 3t58 9t59 15l12 3l-2 13q-5 39 -12 74.5
t-17 67t-23 58.5q-53 117 -152 117q-58 0 -98 -37t-62 -108q-13 -40 -13 -76z" />
    <glyph glyph-name="uni06A9" unicode="&#x6a9;" horiz-adv-x="1848" 
d="M1488 649q126 -136 124 -298q-7 -336 -598 -336h-181q-364 0 -541 118q-178 117 -178 353q0 124 47 237l131 -47q-29 -81 -29 -165q1 -172 146 -257q144 -85 424 -85h180q450 0 449 206q0 104 -108 206q-39 36 -75 69q-36 32 -71 62q-34 30 -66 56.5t-62 50.5
q-109 84 -109 175q0 119 131 169l673 255v-148l-663 -247l-24 -9l19 -17q132 -111 228 -198q95 -87 153 -150z" />
    <glyph glyph-name="uni06AF" unicode="&#x6af;" horiz-adv-x="1848" 
d="M1488 649q126 -136 124 -298q-7 -336 -598 -336h-181q-364 0 -541 118q-178 117 -178 353q0 124 47 237l131 -47q-29 -81 -29 -165q1 -172 146 -257q144 -85 424 -85h180q450 0 449 206q0 104 -108 206q-39 36 -75 69q-36 32 -71 62q-34 30 -66 56.5t-62 50.5
q-109 84 -109 175q0 119 131 169l673 255v-148l-663 -247l-24 -9l19 -17q132 -111 228 -198q95 -87 153 -150zM1765.36 1563.7l-755.382 -292.096v111.274l755.382 292.096v-111.274z" />
    <glyph glyph-name="afii57514" unicode="&#x6ba;" horiz-adv-x="1455" 
d="M1280 -140q-144 -295 -553 -295q-308 0 -459.5 140.5t-150.5 425.5q0 199 84 410l131 -55q-69 -185 -69 -353q0 -209 119 -315t352 -106q228 0 344.5 116t117.5 344q0 180 -85 361l143 50q82 -231 82 -451q0 -80 -14 -148t-42 -124z" />
    <glyph glyph-name="uni06CA" unicode="&#x6ca;" horiz-adv-x="860" 
d="M457 1036l125 125l126 -126l-125 -125zM153 1036l125 125l126 -126l-125 -125zM122 -361q141 28 244 78t168 123t91 169l6 22l-23 -3q-23 -3 -43.5 -5.5t-37.5 -4t-30 -3t-23 -2t-16 -0.5q-178 -1 -264 69.5t-86 215.5q0 118 50 223q90 188 271 188q196 0 280 -219
q57 -147 57 -322q0 -272 -147.5 -436t-445.5 -223zM626 203q-11 170 -62.5 258.5t-146.5 88.5q-107 0 -151 -130q-19 -57 -19 -107q0 -76 55 -114t157 -38q75 1 156 26l11 4v12z" />
    <glyph glyph-name="uni06CC" unicode="&#x6cc;" horiz-adv-x="1504" 
d="M263 84q0 -83 19.5 -150.5t58 -118.5t96 -85t134 -51t170.5 -18q181 0 324 67q76 35 133 93q59 61 59 139q0 35 -25 53.5t-68 18.5l-114 1q-120 0 -177 45.5t-57 138.5q0 183 116 310q150 164 425 164h6v-163h-7q-165 0 -273 -76q-56 -39 -85.5 -88.5t-30.5 -107.5
q0 -17 5 -31t16 -24q21 -17 64 -17h119q114 1 168 -44.5t54 -139.5q0 -280 -279 -408q-166 -76 -378 -76q-208 0 -345 62.5t-205 187.5t-68 315q0 205 103 453l130 -54q-88 -218 -88 -396z" />
    <glyph glyph-name="afii57534" unicode="&#x6d5;" horiz-adv-x="942" 
d="M452 655q-195 -170 -195 -304q0 -36 9 -65t27 -51t44.5 -36.5t61 -22t76.5 -7.5q108 0 164.5 46.5t55.5 136.5q0 125 -224 304l-10 8zM387 927q449 -333 449 -581q0 -181 -158 -279q-37 -23 -87.5 -35t-114.5 -13q-117 0 -200 41q-160 80 -160 286q0 201 223 418l12 11
l-12 11l-35 30z" />
    <glyph glyph-name="uni06F0" unicode="&#x6f0;" horiz-adv-x="893" 
d="M294 543q0 -66 46 -111q22 -23 50.5 -34.5t62.5 -11.5q33 0 61 11.5t50 34.5q12 11 20.5 24t13.5 27q12 28 12 60.5t-12 60.5q-5 14 -13.5 26.5t-20.5 24.5q-22 22 -50.5 33.5t-61.5 12.5q-33 -1 -61 -12q-14 -6 -27 -14.5t-24 -19.5q-46 -46 -46 -112zM234 757
q23 22 47 38.5t51 27.5q53 23 115 23q20 0 40 -2.5t38 -7.5q10 -3 19 -6t17.5 -6.5t17.5 -8t17 -9.5q17 -10 32.5 -22t30.5 -27q45 -45 67 -98t22 -115q0 -123 -89 -212q-22 -22 -46.5 -38.5t-50.5 -27.5q-9 -4 -18 -7t-18.5 -5.5t-18.5 -4.5q-29 -5 -60 -5q-62 0 -115 22
q-9 3 -17.5 7.5t-17.5 9.5q-16 9 -32 22q-8 6 -15.5 13t-15.5 14q-44 44 -66 97t-22 115t22 115t66 98z" />
    <glyph glyph-name="uni06F1" unicode="&#x6f1;" horiz-adv-x="716" 
d="M302 1357q197 -442 197 -1068v-262h-149v265q0 632 -184 1017z" />
    <glyph glyph-name="uni06F2" unicode="&#x6f2;" horiz-adv-x="1197" 
d="M397 1089q66 -182 288 -182q117 0 170 102q27 54 41 139q14 84 15 201h150q-1 -66 -5 -124q-19 -251 -105 -360q-93 -116 -262 -115q-131 0 -228 61q38 -287 38 -522v-262h-149v265q0 632 -184 1017l134 48z" />
    <glyph glyph-name="uni06F3" unicode="&#x6f3;" horiz-adv-x="1492" 
d="M499 289v-262h-149v265q0 632 -184 1017l134 48l105 -300q46 -133 205 -134q56 -1 93 28t55 82q18 57 18 132l1 132l129 4l3 -129q3 -124 46 -190q42 -65 125 -66q82 -1 113 68t32 264v118h147l-1 -115q-1 -280 -80 -391q-70 -98 -204 -97q-144 1 -236 108l-2 3l-12 13
l-11 -14l-2 -2q-45 -55 -95 -82t-106 -27q-103 0 -162 49q38 -288 38 -522z" />
    <glyph glyph-name="uni06F4" unicode="&#x6f4;" horiz-adv-x="1244" 
d="M1066 1332l-36 -144q-37 13 -74 19.5t-76 6.5q-53 0 -99 -14q-46 -13 -83 -40q-123 -93 -136 -231q-3 -30 20 -55q23 -26 69 -50q37 -19 87 -29q51 -9 115 -9q132 0 250 44l19 -145q-117 -49 -249 -49q-269 1 -418 180l7 -52l2 -11q17 -115 26 -238q9 -121 9 -226v-262
h-149v265q0 632 -184 1017l134 48q27 -78 56 -164q29 -85 61 -181l15 -45l14 45l15 51q43 141 145 225q103 87 249 86q111 0 211 -42z" />
    <glyph glyph-name="uni06F5" unicode="&#x6f5;" horiz-adv-x="1288" 
d="M269 339q0 -49 11.5 -83.5t36 -53.5t61.5 -19q158 0 224 295l99 -1q53 -298 198 -298q60 0 90 42t30 119q0 340 -379 721l-13 12l-10 -13q-116 -153 -193 -283t-116 -239.5t-39 -198.5zM363 27q-120 0 -179.5 76.5t-59.5 235.5q0 319 382 832l1 2l8 11l-9 9l-2 1l-44 42
l105 128l113 -107q487 -478 486 -908q0 -164 -62 -243t-188 -79q-183 0 -262 222q-75 -222 -289 -222z" />
    <glyph glyph-name="uni06F6" unicode="&#x6f6;" horiz-adv-x="1104" 
d="M740 1201q-25 2 -50 3t-52 1q-199 0 -280 -92q-61 -68 -61 -149q0 -230 392 -231h1l2 1h1l2 1h2q178 97 263 134l6 -154q-436 -201 -656 -725l-141 47q128 313 366 548l23 23l-32 3q-195 18 -289.5 107t-93.5 251q0 18 1.5 35.5t4.5 34.5t7.5 33.5t10.5 32.5t13 31
q112 227 426 225q36 0 75 -3t80 -8z" />
    <glyph glyph-name="uni06F7" unicode="&#x6f7;" horiz-adv-x="1281" 
d="M1163 1284q-104 -210 -189 -420t-150 -419t-112 -418h-143q-140 629 -451 1256l142 72q261 -564 366 -1031l14 -65l15 65q105 468 366 1031z" />
    <glyph glyph-name="uni06F8" unicode="&#x6f8;" horiz-adv-x="1281" 
d="M1163 84l-142 -72q-131 282 -222 539.5t-144 491.5l-15 66l-14 -66q-105 -467 -366 -1031l-142 72q311 627 451 1257h143q139 -629 451 -1257z" />
    <glyph glyph-name="uni06F9" unicode="&#x6f9;" horiz-adv-x="1139" 
d="M500 590q-319 0 -365 242q-8 44 -8 94q0 141 68 251q59 94 138.5 141t181.5 47q177 0 271.5 -119.5t107.5 -364.5q11 -217 19 -431t13 -423h-142l-13 616v24l-22 -11q-66 -33 -128.5 -49.5t-120.5 -16.5zM503 750q110 0 242 66l9 5l-1 10l-2 23q-29 350 -227 350
q-24 0 -46 -4t-42 -11.5t-38 -19t-34 -26.5t-30 -34q-62 -84 -62 -174q0 -61 27 -102.5t78 -62t126 -20.5z" />
    <glyph glyph-name="uni2000" unicode="&#x2000;" horiz-adv-x="1044" 
 />
    <glyph glyph-name="uni2001" unicode="&#x2001;" horiz-adv-x="2089" 
 />
    </font>
</defs>
</svg>
