<svg xmlns="http://www.w3.org/2000/svg" xmlns:xlink="http://www.w3.org/1999/xlink" viewBox="0 0 404.23 320.93"><defs><style>.cls-1{opacity:0.38;fill:url(#linear-gradient);}.cls-2{fill:#ffce7d;}.cls-3{fill:#ff6a2a;}.cls-10,.cls-13,.cls-18,.cls-20,.cls-21,.cls-22,.cls-4,.cls-9{fill:none;}.cls-10,.cls-4,.cls-9{stroke:#ab471c;}.cls-10,.cls-20,.cls-21,.cls-22,.cls-4{stroke-linecap:round;}.cls-10,.cls-20,.cls-21,.cls-22,.cls-4,.cls-9{stroke-linejoin:round;}.cls-4{stroke-width:1.26px;}.cls-5{fill:#c95421;}.cls-6{fill:#ab471c;}.cls-7{fill:#ffc1aa;}.cls-8{fill:#ff8d3f;}.cls-9{stroke-width:2px;}.cls-10{stroke-width:1.17px;}.cls-11{fill:#62b092;}.cls-12{fill:#54967d;}.cls-13{stroke:#54967d;}.cls-13,.cls-18{stroke-miterlimit:10;}.cls-14{fill:#463d3d;}.cls-15{fill:#7a6b6b;}.cls-16{fill:#ffc7a7;}.cls-17{fill:#ffa88a;}.cls-18,.cls-20,.cls-21{stroke:#ff6a2a;}.cls-18,.cls-21{stroke-width:1.88px;}.cls-19{fill:#572a28;}.cls-20{stroke-width:2.03px;}.cls-22{stroke:#572a28;stroke-width:1.14px;}</style><linearGradient id="linear-gradient" x1="56.59" y1="285.58" x2="390.79" y2="285.58" gradientUnits="userSpaceOnUse"><stop offset="0.11" stop-color="#3e00ff"/><stop offset="0.5" stop-color="#0c5cea"/><stop offset="0.99" stop-color="#300f70"/></linearGradient></defs><title>boy</title><g id="OBJECTS"><path class="cls-1" d="M440.83,291c-.74-1.34-1.53-2.66-2.35-4a88.42,88.42,0,0,0-24.92-25.6c-10.27-7-22.79-9.66-32.81-16.7C359,229.46,365.13,200.49,356.68,179c-15.14-38.59-68.87-62.88-114.09-44.81C209.35,147.42,180.08,253.5,118.83,263,20.36,278.23,59.29,437.08,96.45,434.15c24.51-1.93,21.93,29.74,112.7-15.66,29.59-14.8,63.73-18.16,94.91-3.66,33.16,15.43,65.29,33.62,99.17,7.74,18.95-14.47,34.29-37.81,42.18-59.45C454.11,339.27,453.15,313.17,440.83,291Z" transform="translate(-46.91 -128.05)"/><ellipse class="cls-2" cx="199.08" cy="309.71" rx="199.08" ry="11.22"/><path class="cls-3" d="M295.49,420.6c30.39-3.23,46.65-15.51,65.28-29.07s19-25.22,7.19-36.78-23.29-6.23-39.47-2.29c-22.43,5.45-40.53,18.9-58,21.43s-19.47-9.41-35.68-10.32-37.28,10.94-52.79,17.88c-3.54,13.93-3.76,27.06,2.37,40.69C217.88,422,265.11,423.84,295.49,420.6Z" transform="translate(-46.91 -128.05)"/><path class="cls-4" d="M246.63,381.43c-2.87-2.25-6-2.87-9.34-4.18" transform="translate(-46.91 -128.05)"/><path class="cls-5" d="M321.35,367.67c-7,2.21-12.66,3.75-19.38,5.47-12.29,3.14-24.28,6.81-36.27,11,3.37,2.32,5.57,5.27,8.26,8.37a34.3,34.3,0,0,0,6.85,5.45,33.13,33.13,0,0,1,3.63,3.33c2.54-.87,4.84-3.09,6.75-4.68,7.12-6,13.71-12.34,21.36-17.33s15.64-8.78,23.51-13.13C331.48,365.46,325.4,366.38,321.35,367.67Z" transform="translate(-46.91 -128.05)"/><path class="cls-6" d="M314.66,406.59s-9.78.6-8.68,12c1.65,17.19,10.45,11.12,10.45,11.12S318.3,410.85,314.66,406.59Z" transform="translate(-46.91 -128.05)"/><path class="cls-7" d="M288.46,417.34c7.36-.3,9.48-.37,18.17-.52,6.92-.11,21.05-2.92,29.38-3.32,4.36-.21,14.72-4.79,17.16,1.29,1.72,4.29-3.93,12.82-10.86,13.74-5.77.77-15.06-1.52-22.13-1-10.12.77-19.72,8-30.1,8.6C289.46,429.93,289.21,423.6,288.46,417.34Z" transform="translate(-46.91 -128.05)"/><path class="cls-8" d="M313.66,421.59a9.44,9.44,0,0,0-.47-5.91c-1.35-3.3-2.59-8.21,1.47-9.09,6.22-1.35,10.74,2.16,15.55,1.89s15.54-2.51,19.5-2.2,8.76,2.74,9.61,7.33,3.39,21.05-7.07,20.24S343,429.53,336.06,429s-17.54,4.77-22.06,1.8C311.29,429,313,424.05,313.66,421.59Z" transform="translate(-46.91 -128.05)"/><path class="cls-3" d="M359.32,413.61c-.85-4.59-5.65-7-9.61-7.33a36.58,36.58,0,0,0-6.36.46,18.24,18.24,0,0,1,7.43,3.93c2.79,2.73,2.84,6,2.42,9.67-.39,3.41-.63,7.63-3.47,10a12.86,12.86,0,0,1-4.36,2.19,24.9,24.9,0,0,0,6.88,1.34C362.71,434.66,360.17,418.2,359.32,413.61Z" transform="translate(-46.91 -128.05)"/><path class="cls-4" d="M349.71,409.71s4.82,2.12,3.52,9-.18,12-6.48,12.91" transform="translate(-46.91 -128.05)"/><path class="cls-6" d="M317.49,421.06a.73.73,0,0,1-.1-.57c.09-.25.06-.13.07-.17l0-.06.05-.13.11-.24.23-.48.48-1c.33-.63.68-1.25,1-1.86a31.19,31.19,0,0,1,2.49-3.52,10.64,10.64,0,0,1,3.55-2.95,3.9,3.9,0,0,1,2.82-.22,2.67,2.67,0,0,1,.69.3,2.61,2.61,0,0,1,.59.42,2.55,2.55,0,0,1,.47.45,4.76,4.76,0,0,1,.41.47,4.26,4.26,0,0,1,1,2.59,3.71,3.71,0,0,1-.35,1.49,4.42,4.42,0,0,1-.79,1.11,11,11,0,0,1-3.9,2.42,34.75,34.75,0,0,1-4.1,1.3c-.69.17-1.38.32-2.07.46l-1,.2-.3.05a2.56,2.56,0,0,1-.49,0A3.42,3.42,0,0,1,317.49,421.06Zm1-.77a.59.59,0,0,0,.13-.39s0-.06,0-.08l.21-.07,1-.3c.65-.2,1.31-.42,2-.65a33,33,0,0,0,3.78-1.48,10,10,0,0,0,3.1-2.05,1.76,1.76,0,0,0,.52-1.13,2.09,2.09,0,0,0-.54-1.2c-.82-1-1.28-1.19-2.33-.77a9.59,9.59,0,0,0-2.89,2.27,29.17,29.17,0,0,0-2.56,3.14c-.4.55-.8,1.1-1.19,1.67l-.57.86-.28.43-.14.21-.07.11,0,.05s0,.12,0-.11A.58.58,0,0,0,318.49,420.29Z" transform="translate(-46.91 -128.05)"/><path class="cls-6" d="M317.86,421.29a.56.56,0,0,0,.52-.11.3.3,0,0,0,.08-.08h0v0l0,.05-.07.12-.13.24L318,422l-.54,1c-.35.64-.69,1.29-1,1.94a28.12,28.12,0,0,0-1.64,3.94,7.25,7.25,0,0,0-.38,3.64c.23.95.9,1.42,2.12,1.77a2.12,2.12,0,0,0,1.24.05,1.31,1.31,0,0,0,.6-.84,11.63,11.63,0,0,0,.24-3.91c-.1-1.42-.29-2.87-.52-4.33l-.34-2.19-.18-1.11,0-.27,0-.14c0-.06,0-.1,0-.08A.36.36,0,0,0,317.86,421.29Zm.26-1.23a2.13,2.13,0,0,1,.66.92l.22.59.37,1.07c.25.71.47,1.44.69,2.16a36.35,36.35,0,0,1,1,4.5,12.4,12.4,0,0,1-.08,5,3.92,3.92,0,0,1-2.06,2.6,4.66,4.66,0,0,1-3.14.16,6.28,6.28,0,0,1-2.57-1.26,4.78,4.78,0,0,1-1.58-2.65,7.1,7.1,0,0,1,0-2.76,11.32,11.32,0,0,1,.7-2.38,23.1,23.1,0,0,1,2.25-4.13c.43-.63.89-1.25,1.37-1.85l.73-.88.39-.43.19-.21.1-.11.05-.05.12-.12A.68.68,0,0,1,318.12,420.06Z" transform="translate(-46.91 -128.05)"/><path class="cls-9" d="M341.08,414.59s-.72,6.45.5,9.58" transform="translate(-46.91 -128.05)"/><path class="cls-9" d="M337.37,415.18s-1.05,4.89,0,8.51" transform="translate(-46.91 -128.05)"/><path class="cls-9" d="M333.15,415.18a23.2,23.2,0,0,0-.49,7.8" transform="translate(-46.91 -128.05)"/><path class="cls-9" d="M330.43,414.59a34.92,34.92,0,0,0,0,9.58" transform="translate(-46.91 -128.05)"/><path class="cls-4" d="M330.05,437.61s-4.61,1.55-5-1.79c0,0-.21-10.32-7.06-15.15,0,0,10.24,4.54,10.24,13.21s9.14,5.32,9.14,5.32" transform="translate(-46.91 -128.05)"/><path class="cls-3" d="M294.27,437.41c5.3-6.21,7.89-12.9,6.72-21.08-11.45-8.71-21-19.07-31.43-29.12s-41.75-4.95-54.52-.34-43.53,26.9-25.8,41.83,48.26,14.63,68.13,3.64C267.94,439.31,282.59,438.06,294.27,437.41Z" transform="translate(-46.91 -128.05)"/><path class="cls-5" d="M289.51,432.6c-8.75-1.41-18.58-3.44-25.84-8.3-6-4-5.64-11.62-11.48-14.24-8.06-3.62-21.1,6.78-30.94,11.87-12.47,6.45-24.33-16.32-28.25-29.28a62.86,62.86,0,0,1-2.55-15.32c-2.82,1.41-5.65,2.83-8.49,4.23a65.23,65.23,0,0,0,1.88,40.38s.12,0,0,0c1.6,3.5.72,4.93,4.79,7.47,20.23,12.61,47.57,15.06,68.92,2.83,10.21,7.26,25.16,5.77,36.73,5.2a36.63,36.63,0,0,0,3-4A57.51,57.51,0,0,1,289.51,432.6Z" transform="translate(-46.91 -128.05)"/><path class="cls-4" d="M297.5,432.72c-16.32.43-32.75-1.84-40.7-17.93s-32.57,8.09-43.14,10.91-26.42,4.44-30.37-3.59" transform="translate(-46.91 -128.05)"/><path class="cls-4" d="M299,414.53c-10.46-7.93-20-18.17-29.28-27.2-11.24-11-41.24-4-54.67-.86" transform="translate(-46.91 -128.05)"/><path class="cls-4" d="M257.56,432.22c-7.11-.47-11.34-6.24-14.66-11.86" transform="translate(-46.91 -128.05)"/><path class="cls-4" d="M346.08,361.09c-22,10.57-44,23.22-61.23,40.64" transform="translate(-46.91 -128.05)"/><path class="cls-8" d="M253.18,443.8s-12.68,6.25-13.34-9.67,2.89-17.29,7.22-18.44,11.45,2.93,13.41,5.37c1.6,2,2.36,8.9,2.72,13.93.23,3.35-2.24,6.44-6.1,7.64C255.76,443,254.39,443.46,253.18,443.8Z" transform="translate(-46.91 -128.05)"/><path class="cls-3" d="M245.7,422.8a20.29,20.29,0,0,1,2.67-7.29,6.79,6.79,0,0,0-1.31.18c-4.33,1.15-10.7,2.27-10,18.19.38,9.27,7.66,11.27,11.32,11.12A43.22,43.22,0,0,1,245.7,422.8Z" transform="translate(-46.91 -128.05)"/><path class="cls-6" d="M262.47,425.39a.59.59,0,0,0-.22.41c0,.21,0,.2,0,.18h0v-.06l0-.07-.06-.15-.12-.31-.24-.61c-.16-.41-.33-.81-.51-1.21a16.34,16.34,0,0,0-1.18-2.24c-.41-.66-1-1.29-1.31-1.3-.12,0-.2,0-.43.14a3.46,3.46,0,0,0-.69.75c-.26.34-.51.68-.71,1a2.73,2.73,0,0,0-.3.63s-.08-.13-.05-.08a1.62,1.62,0,0,0,.32.19,10.14,10.14,0,0,0,1.14.44c.84.28,1.71.59,2.56,1,.42.19.84.38,1.26.59l.61.33c.07,0,.08,0,.06,0a.25.25,0,0,0-.05.07A.36.36,0,0,0,262.47,425.39Zm.73.92a2.57,2.57,0,0,1-.64,0l-.35-.08-.25-.09-.62-.21c-.41-.14-.83-.26-1.25-.38-.84-.24-1.69-.44-2.57-.67a11.05,11.05,0,0,1-1.4-.44,3.23,3.23,0,0,1-.84-.5,1.87,1.87,0,0,1-.66-1.24,3.19,3.19,0,0,1,.56-1.87,11.59,11.59,0,0,1,.82-1.21,5,5,0,0,1,1.17-1.19,2.55,2.55,0,0,1,2.11-.43,3.27,3.27,0,0,1,1.59,1.05,6.37,6.37,0,0,1,.88,1.28,14.09,14.09,0,0,1,1.06,2.65c.13.45.24.89.34,1.34l.15.68.06.34,0,.18v.15h0a1.89,1.89,0,0,1,0,.19A.61.61,0,0,1,263.2,426.31Z" transform="translate(-46.91 -128.05)"/><path class="cls-6" d="M262.74,425.27a.61.61,0,0,1,.48.14c.16.17.14.18.14.16v0l0,0,0,.06.09.13.17.25.34.51.64,1q.63,1,1.2,2.13a30.73,30.73,0,0,1,2,4.55,13.36,13.36,0,0,1,.84,5.19,4.76,4.76,0,0,1-1.26,3,4.65,4.65,0,0,1-3,1.32,4.91,4.91,0,0,1-3.15-.68,4.38,4.38,0,0,1-1.81-2.77,13.75,13.75,0,0,1,.17-5.27,45.64,45.64,0,0,1,1.2-4.74l.72-2.3.35-1.14.2-.61A2.13,2.13,0,0,1,262.74,425.27Zm.19,1.16a.43.43,0,0,0,.4.19c0,.11,0,.38-.06.56l-.19,1.19-.39,2.38c-.27,1.57-.55,3.13-.73,4.66a12.76,12.76,0,0,0,0,4.29,1.8,1.8,0,0,0,.71,1.16,2.42,2.42,0,0,0,1.47.23c1.25-.12,1.7-.58,1.9-1.88a12.48,12.48,0,0,0-.49-4.26,41.53,41.53,0,0,0-1.46-4.42c-.27-.74-.56-1.48-.86-2.21l-.47-1.09-.23-.55-.12-.27-.06-.13,0-.07,0,0v0s0,0,.12.15A.59.59,0,0,0,262.93,426.43Z" transform="translate(-46.91 -128.05)"/><path class="cls-10" d="M253,443.78s3.77,1.65,4.09-1.89c0,0,.17-10.93,5.78-16,0,0-8.39,4.81-8.39,14s-7.47,5.63-7.47,5.63" transform="translate(-46.91 -128.05)"/><path class="cls-9" d="M256.28,424.17s.51,5.82.71,10.74" transform="translate(-46.91 -128.05)"/><path class="cls-9" d="M253.06,424.17s.51,5.82.71,10.74" transform="translate(-46.91 -128.05)"/><path class="cls-4" d="M247.27,417.58s-4.87,10,.63,26.25" transform="translate(-46.91 -128.05)"/><path class="cls-7" d="M253.41,262.63c16,7.42,22.41,16.54,22.57,34.54.06,7.46,2.94,29.43,4.37,36.68,2.12,10.68,3.42,22.83-3.57,29-4.42,3.88-7.53-1-9.78-3.18-3.1-3.92-4.27-5.33-5-11.12-1.59-12.38-3.34-25.88-3-36,.31-8.87,3.47-34.56-2.2-42l-3.39-7.9" transform="translate(-46.91 -128.05)"/><path class="cls-11" d="M259.09,310.7c5.82.65,15.69,0,21.31-2.23-.48-4.57,1.64-37.18-27-45.84l3.39,7.9C262.12,277.52,259.67,300.55,259.09,310.7Z" transform="translate(-46.91 -128.05)"/><path class="cls-11" d="M216.17,370.35c16.53.52,32.88,2.77,47.88,3.82-1.7-8.9-5.13-11.23-7.06-21.71s9.35-61.11,7.85-76.39c-.28-2.8-3.64-8.55-7-10.75A64.91,64.91,0,0,0,237,256.13c-8.86-2.1-37.45-6.32-44.92-2-13.26,7.65-13.43,34.84-15.81,54.35-1.94,15.87-4.25,40.56-3.18,52.62,1.25,14.22-4.08,23.51,4.86,23.1S207.82,370.1,216.17,370.35Z" transform="translate(-46.91 -128.05)"/><path class="cls-12" d="M219.6,253.28c-2.9,9.91.08,17.49,7.84,24.06,6.76,5.72,18.55,7.1,21.16-2.75,1.5-5.63.91-9-2.18-15.39a60.62,60.62,0,0,0-9.4-3.07A170.27,170.27,0,0,0,219.6,253.28Z" transform="translate(-46.91 -128.05)"/><path class="cls-13" d="M248,361.09s-21-7.22-32.93-3.65" transform="translate(-46.91 -128.05)"/><path class="cls-12" d="M188.74,350.05c.48-8.11,1.58-16.16,2.77-24.19,1.29-8.62,3.64-17.45,4.23-26.14.81-12-6.48-19.74-14.79-26.68-2.68,11-3.32,24.43-4.66,35.43-1.94,15.87-4.25,40.56-3.18,52.62,1.25,14.22-4.08,23.51,4.86,23.1,3.24-.15,8.08-2.06,13.32-4.41C187.61,370.61,188.19,359.43,188.74,350.05Z" transform="translate(-46.91 -128.05)"/><path class="cls-14" d="M262.2,308.46l-20.38-1.9L226,332.36q9.93.93,19.87,1.82C251.35,325.64,256.76,317,262.2,308.46Z" transform="translate(-46.91 -128.05)"/><path class="cls-14" d="M262.2,308.46c-.06-1.16-.13-2.32-.19-3.48l-20.38-1.9c.06,1.16.13,2.32.19,3.48Z" transform="translate(-46.91 -128.05)"/><path class="cls-15" d="M241.63,303.08l-16,25.79c.11,1.16.21,2.33.31,3.49l15.84-25.8C241.76,305.4,241.69,304.24,241.63,303.08Z" transform="translate(-46.91 -128.05)"/><path class="cls-7" d="M221.47,332.45a9.48,9.48,0,0,1,.44-7.9c1.5-2.74,6.33-6.63,9-7.51s3.51-1.27,5.64-1.88a16.46,16.46,0,0,1,2.81-.63c.9-.08,1.87.18,1.71,1.41-.81,5.94,1.56,11.14-1,17.75C239.68,334.58,223.55,338.06,221.47,332.45Z" transform="translate(-46.91 -128.05)"/><path class="cls-16" d="M236.71,312.15a21.48,21.48,0,0,0-5.36,7.64,14.1,14.1,0,0,0-.51,7.88,6.28,6.28,0,1,1-12.34.17l.11-.59a26.39,26.39,0,0,1,2-6.51,22.53,22.53,0,0,1,3.65-5.6,28.38,28.38,0,0,1,9.85-6.91,2.38,2.38,0,0,1,2.63,3.88Z" transform="translate(-46.91 -128.05)"/><path class="cls-16" d="M236.4,328.07a35.64,35.64,0,0,1,11.06.64c3.48.66,6.79,1.58,10.06,2.35h0a1.66,1.66,0,0,1-.5,3.28c-3.46-.26-6.83-.64-10.12-.74a30.28,30.28,0,0,0-9.28.88,3.28,3.28,0,0,1-1.82-6.3,3.06,3.06,0,0,1,.51-.1Z" transform="translate(-46.91 -128.05)"/><path class="cls-16" d="M236.46,323.74a17,17,0,0,1,6-1.34,28.74,28.74,0,0,1,5.54.28c3.54.49,6.86,1.4,10.08,2.13h0a1.7,1.7,0,0,1-.48,3.35c-3.44-.24-6.75-.6-9.93-.54s-6.21.58-8.19,1.91a3.28,3.28,0,1,1-3.67-5.44,3.36,3.36,0,0,1,.49-.27Z" transform="translate(-46.91 -128.05)"/><path class="cls-16" d="M237.43,318.42a38.77,38.77,0,0,1,10.77-.58c3.46.22,6.79.7,10.08,1.07h0a1.63,1.63,0,0,1-.1,3.25c-3.37.17-6.7.25-9.91.57a33.07,33.07,0,0,0-9,1.95,3.28,3.28,0,0,1-2.43-6.09,3.33,3.33,0,0,1,.51-.16Z" transform="translate(-46.91 -128.05)"/><path class="cls-16" d="M231.73,316.24a16.1,16.1,0,0,1,5.64-2.54,27.79,27.79,0,0,1,5.52-.75c3.59-.15,7,.17,10.32.33h0a1.61,1.61,0,0,1,.1,3.21c-3.42.39-6.74.64-9.85,1.29s-6,1.76-7.58,3.48a3.29,3.29,0,1,1-4.8-4.49,3.47,3.47,0,0,1,.46-.4Z" transform="translate(-46.91 -128.05)"/><path class="cls-7" d="M221.69,322.14c-12.43,3.58-25.86,4.25-38.85,5.12,4-11.38,13.3-25.94,16.76-36.66s7.74-24-1.09-33c-3.75-3.24-14.64-3.72-23.79,12.64-8.19,14.65-11.88,35-15.58,61.57-3.41,24.38,6.34,24.24,40.12,12.94,2.93-1,19.57-8.85,25.59-10.83C225.68,333.61,224,323,221.69,322.14Z" transform="translate(-46.91 -128.05)"/><path class="cls-11" d="M200.21,307.72c1.76-3.67,16.73-40.11-1.76-51.59-6.67-3-14-2.84-23.73,14.07A85.24,85.24,0,0,0,167,289.57C171.83,297.81,195.55,306.83,200.21,307.72Z" transform="translate(-46.91 -128.05)"/><path class="cls-16" d="M259.61,342.83c-1.93-1.54-4.93-2.4-8.05-2.84s-6.5-.52-9.93-.74a1.67,1.67,0,0,1,0-3.33h0c3.28-.3,6.68-.78,10.24-.85a31.57,31.57,0,0,1,5.51.35,18.27,18.27,0,0,1,5.74,1.9l.14.07a3.28,3.28,0,0,1-3.14,5.77A3.38,3.38,0,0,1,259.61,342.83Z" transform="translate(-46.91 -128.05)"/><path class="cls-16" d="M259.54,336.93c-1.68-1.62-4.62-2.6-7.71-3.09s-6.45-.6-9.88-.83a1.7,1.7,0,0,1,0-3.38h0c3.29-.29,6.7-.74,10.28-.73a28.3,28.3,0,0,1,5.55.53,16,16,0,0,1,5.73,2.31l.16.1A3.28,3.28,0,0,1,260,337.3,3.38,3.38,0,0,1,259.54,336.93Z" transform="translate(-46.91 -128.05)"/><path class="cls-16" d="M260,331c-1.67-1.64-4.62-2.64-7.72-3.14s-6.46-.63-9.9-.87a1.63,1.63,0,0,1,0-3.25h0c3.29-.3,6.71-.76,10.29-.76a27.58,27.58,0,0,1,5.56.53,15.94,15.94,0,0,1,5.74,2.31l.16.1a3.29,3.29,0,0,1-3.64,5.47A3,3,0,0,1,260,331Z" transform="translate(-46.91 -128.05)"/><path class="cls-16" d="M264.37,329.06c-1.3-1.87-4-3.27-7-4.15a85.29,85.29,0,0,0-9.61-2,1.61,1.61,0,0,1,.3-3.2h0a90.9,90.9,0,0,1,10.29.42,25.74,25.74,0,0,1,5.44,1.27,15.3,15.3,0,0,1,5.33,3.23l.17.16a3.29,3.29,0,0,1-4.55,4.75A3.13,3.13,0,0,1,264.37,329.06Z" transform="translate(-46.91 -128.05)"/><path class="cls-7" d="M264.69,344c-1.93,3.89-1.16,8.92-.56,13.09a21,21,0,0,0,10.63.36c1.38-5.33,2.72-10.74,4-16.05-2.35-1-4.29-1.22-4.89-4.38s.63-10.09-3.34-12.48c-1.29-.78-5.65-1.73-7.59-1.84-2.17,4.44-4.35,11.67-3.91,16S261.51,343.59,264.69,344Z" transform="translate(-46.91 -128.05)"/><path class="cls-16" d="M271.12,317.06a13.17,13.17,0,0,1,2.74,6.48,24,24,0,0,1-.15,6.74l0,.14a4.12,4.12,0,0,1-8.15-1.16A4.53,4.53,0,0,1,266,328c1.54-3,2.47-5.75,1.45-8.65l0-.13a2.19,2.19,0,0,1,1.33-2.8A2.21,2.21,0,0,1,271.12,317.06Z" transform="translate(-46.91 -128.05)"/><path class="cls-7" d="M224.55,257s-6.33,11.78,12.68,17.34c11.3,2.06,4.75-11.28,4.75-11.28s.42-9.17,6.05-15.17c-.93-3.89-11.85-12.63-16.92-9.64C230.54,245,224.55,257,224.55,257Z" transform="translate(-46.91 -128.05)"/><path class="cls-17" d="M242.09,261.94c-6.78-2.29-11.35-8.59-12.92-15.83a34.83,34.83,0,0,0,1.94-7.83c5.07-3,16,5.75,16.92,9.64C243.61,252.64,242.4,259.3,242.09,261.94Z" transform="translate(-46.91 -128.05)"/><path class="cls-7" d="M268,237.89c-2.23,2.75-5.33,4-6.91,2.7s-1-4.51,1.2-7.26,5.33-3.94,6.9-2.68S270.25,235.15,268,237.89Z" transform="translate(-46.91 -128.05)"/><path class="cls-14" d="M262.31,236.38s9.41-2.32,15.06-17.3c2.19-5.83,1.73-8,1.73-8l-10.92-2.23Z" transform="translate(-46.91 -128.05)"/><line class="cls-18" x1="226.29" y1="104.7" x2="218.71" y2="101.13"/><path class="cls-7" d="M241.89,205c7-3.57,6.34-8.43,14.13-5.11l.79.36.81.32c7.8,3.31,10.94,4.17,13.54,11.65,3.36,9.66-4.71,22.3-6.53,26.69-5.17,12.5-10.54,21.38-20.06,16.9-5-1.35-13.49-10.59-15.51-15.69s-3.85-10.12-1.5-16.74C229.14,218.94,237.51,207.28,241.89,205Z" transform="translate(-46.91 -128.05)"/><path class="cls-19" d="M258.15,245.08a12.42,12.42,0,0,1-11-5.17s.56,4.93,4.78,7.1A4.4,4.4,0,0,0,258.15,245.08Z" transform="translate(-46.91 -128.05)"/><path class="cls-19" d="M254.31,229.35c-.36.75-1,1.17-1.54.94s-.6-1-.25-1.78,1-1.17,1.54-.94S254.66,228.6,254.31,229.35Z" transform="translate(-46.91 -128.05)"/><path class="cls-19" d="M265.37,233.05c-.32.68-.94,1.07-1.38.86s-.55-.94-.23-1.62.94-1.06,1.39-.85S265.69,232.37,265.37,233.05Z" transform="translate(-46.91 -128.05)"/><path class="cls-19" d="M257.82,235.18a3.43,3.43,0,0,0,.32,1.65,6.32,6.32,0,0,0,.51.68,2,2,0,0,1,.54,1.18,1.78,1.78,0,0,1-.52,1.25,2.5,2.5,0,0,1-1,.66,2.4,2.4,0,0,1-2.2-.23.28.28,0,0,1-.07-.4.28.28,0,0,1,.3-.11h0a2.15,2.15,0,0,0,1.55-.19c.45-.22.82-.69.79-.95s-.55-.77-.81-1.49a3.06,3.06,0,0,1,0-2.15.28.28,0,0,1,.36-.18.29.29,0,0,1,.2.27Z" transform="translate(-46.91 -128.05)"/><path d="M255,223.73c-.51-.14-1-.35-1.49-.49a6,6,0,0,0-1.45-.35,6.9,6.9,0,0,0-1.57,0c-.27,0-.53.1-.82.13s-.55.14-.85.19h-.08a.57.57,0,0,1-.43-1,6.48,6.48,0,0,1,1.77-1,5.89,5.89,0,0,1,2.1-.33,5.31,5.31,0,0,1,2.11.5,3.3,3.3,0,0,1,1.56,1.55.57.57,0,0,1-.27.77.62.62,0,0,1-.4,0Z" transform="translate(-46.91 -128.05)"/><path d="M264.31,225.76a1.77,1.77,0,0,1,1.52-.89,3,3,0,0,1,1.62.46,3.46,3.46,0,0,1,1.64,2.46.59.59,0,0,1-.51.66.6.6,0,0,1-.5-.18l0,0a5.19,5.19,0,0,0-1.54-1.17,3,3,0,0,0-.72-.21c-.23,0-.4-.13-.78-.19l-.24,0a.61.61,0,0,1-.51-.69A.48.48,0,0,1,264.31,225.76Z" transform="translate(-46.91 -128.05)"/><path class="cls-14" d="M235.79,191.46c0-4.27,4.3-4.75,7.53-4.94a46.66,46.66,0,0,1,14.52,1.85c8.93,2.41,24.43,10.52,22.38,22.73,4.13,3.56,6,7.39,3.57,8.82-.61.46-7.63-1.91-9.08-2.4-7.23-2.44-23.29-13.63-32.51-2,0,0-.49,7.33-10.39,9.36l-2.12-1-1.23-4.58-4.15-.52s-.76-12.2,2.79-21.3C228.52,193.83,230.37,190.3,235.79,191.46Z" transform="translate(-46.91 -128.05)"/><path class="cls-14" d="M278.77,207.25s12.4-3.25,9.69-8.43c-1.61-3.07-14.17-2.15-21.13-5.44S278.77,207.25,278.77,207.25Z" transform="translate(-46.91 -128.05)"/><path class="cls-14" d="M273.79,212.14s16.07,3.2,15.4-2.61c-.4-3.44-9.43-3.71-11.86-6.56S273.79,212.14,273.79,212.14Z" transform="translate(-46.91 -128.05)"/><path class="cls-14" d="M235.66,200.24c-.85,2.69,1.05,5.68,4.24,6.68s6.45-.37,7.29-3.06-1.05-5.68-4.24-6.68S236.5,197.55,235.66,200.24Z" transform="translate(-46.91 -128.05)"/><path class="cls-20" d="M247.06,233l7,1.83a3.57,3.57,0,0,0,4-2l2.75-6.18a2.79,2.79,0,0,0-1.43-3.81l-6.58-2.66a3.6,3.6,0,0,0-4.6,1.81l-3.13,7A2.85,2.85,0,0,0,247.06,233Z" transform="translate(-46.91 -128.05)"/><path class="cls-21" d="M268.06,239.07l-5.75-1.73a2.61,2.61,0,0,1-1.43-3.71l2.76-6.32a2.94,2.94,0,0,1,3.66-1.71l5.31,2.09a2.6,2.6,0,0,1,1.23,3.43l-2.32,5.95A3,3,0,0,1,268.06,239.07Z" transform="translate(-46.91 -128.05)"/><path class="cls-20" d="M247.14,224.32,229.87,217s-7.48-3.77-8.09,7.23" transform="translate(-46.91 -128.05)"/><line class="cls-21" x1="212.87" y1="100.86" x2="215.48" y2="101.92"/><path class="cls-7" d="M232.44,219.35a6.89,6.89,0,0,0-2.57-2.37c-2.61-1.23-5.37-.84-7,2.65s-1.86,6.84,2.3,9.81c.84.6,2.36,1.34,3.38,1.07C229.93,226.65,230.64,226,232.44,219.35Z" transform="translate(-46.91 -128.05)"/><path class="cls-22" d="M230.37,220.47c-1.63-1.85-4.86-1.82-5.85,2.07" transform="translate(-46.91 -128.05)"/></g></svg>