<svg xmlns="http://www.w3.org/2000/svg" width="76.934" height="106.18" viewBox="0 0 76.934 106.18">
  <g id="Group_53" data-name="Group 53" transform="translate(-93.906 -58.599)">
    <path id="Path_127" data-name="Path 127" d="M117.734,127.677,93.906,181.2l16.98-6.505,6.517,16.976,23.831-53.526Z" transform="translate(0 -26.887)" fill="#c68f30"/>
    <path id="Path_128" data-name="Path 128" d="M135.011,162.425,119.3,197.706l-5.763-15.014-15.012,5.758,15.705-35.275,1.4.625-14.194,31.88,12.982-4.979,4.979,12.982L133.6,161.8Z" transform="translate(-1.799 -36.812)" fill="#f4cc6a"/>
    <path id="Path_129" data-name="Path 129" d="M142.374,138.14,166.2,191.658l6.528-16.971,16.976,6.516-23.831-53.526Z" transform="translate(-18.865 -26.887)" fill="#c68f30"/>
    <path id="Path_130" data-name="Path 130" d="M176.294,153.171,192,188.451l-15.014-5.764L171.221,197.7l-15.705-35.275,1.4-.625,14.194,31.88L176.1,180.7l12.979,4.987-14.2-31.885Z" transform="translate(-23.981 -36.81)" fill="#f4cc6a"/>
    <path id="Path_131" data-name="Path 131" d="M96.727,94.1a6.96,6.96,0,0,1,0,5.416q-.4.949-.762,1.918-.207.555-.4,1.117a7.11,7.11,0,0,0,1.853,7.6q.866.787,1.758,1.474a6.873,6.873,0,0,1,2.593,5.408q0,.42.02.842a7.027,7.027,0,0,0,5.892,6.7l.346.054a7.032,7.032,0,0,1,5.223,3.8l.042.082a7,7,0,0,0,8.109,3.56l.385-.109a6.926,6.926,0,0,1,6.285,1.3l.271.219a7.033,7.033,0,0,0,8.728.045l.279-.22a6.922,6.922,0,0,1,6.3-1.23l.388.114a7.005,7.005,0,0,0,8.143-3.47l.044-.084a7.021,7.021,0,0,1,5.265-3.735l.34-.049A7.024,7.024,0,0,0,163.8,118.2q.017-.373.026-.744a7.007,7.007,0,0,1,2.715-5.473q.858-.646,1.695-1.38a7.075,7.075,0,0,0,1.947-7.575q-.588-1.759-1.308-3.456a7.116,7.116,0,0,1,0-5.541q.717-1.7,1.308-3.456A7.076,7.076,0,0,0,168.233,83q-.836-.735-1.695-1.38a7.009,7.009,0,0,1-2.715-5.473q-.009-.372-.026-.744a7.025,7.025,0,0,0-5.974-6.638l-.34-.048a7.022,7.022,0,0,1-5.265-3.736l-.044-.084a7.006,7.006,0,0,0-8.143-3.47l-.388.114a6.925,6.925,0,0,1-6.3-1.23q-.138-.111-.279-.22a7.032,7.032,0,0,0-8.728.045c-.091.072-.181.145-.271.218a6.924,6.924,0,0,1-6.285,1.3l-.385-.108a7,7,0,0,0-8.109,3.559l-.042.082a7.031,7.031,0,0,1-5.223,3.8l-.346.054a7.027,7.027,0,0,0-5.892,6.7q-.015.421-.02.842a6.875,6.875,0,0,1-2.593,5.408q-.891.687-1.758,1.473a7.111,7.111,0,0,0-1.853,7.6q.193.562.4,1.117Q96.325,93.147,96.727,94.1Z" transform="translate(-0.488)" fill="#f4cc6a"/>
    <g id="Group_52" data-name="Group 52" transform="translate(100.581 65.014)">
      <g id="Group_16" data-name="Group 16" transform="translate(34.053 0.139)">
        <path id="Path_132" data-name="Path 132" d="M163.528,79.174a3.648,3.648,0,0,0,1.534-2.568,3.655,3.655,0,0,0-4.471,3.131A3.648,3.648,0,0,0,163.528,79.174Z" transform="translate(-160.59 -72.123)" fill="#c68f30"/>
        <path id="Path_133" data-name="Path 133" d="M163.289,72.266a3.648,3.648,0,0,0,2.568,1.534,3.654,3.654,0,0,0-3.131-4.471A3.648,3.648,0,0,0,163.289,72.266Z" transform="translate(-161.383 -69.328)" fill="#c68f30"/>
      </g>
      <g id="Group_17" data-name="Group 17" transform="translate(24.959 55.732)">
        <path id="Path_134" data-name="Path 134" d="M146.361,168.595a3.647,3.647,0,0,1-.563-2.938,3.656,3.656,0,0,1,3.131,4.472A3.649,3.649,0,0,1,146.361,168.595Z" transform="translate(-145.7 -162.416)" fill="#c68f30"/>
        <path id="Path_135" data-name="Path 135" d="M148.8,163.017a3.648,3.648,0,0,1-2.938.563,3.655,3.655,0,0,1,4.471-3.131A3.647,3.647,0,0,1,148.8,163.017Z" transform="translate(-145.764 -160.351)" fill="#c68f30"/>
      </g>
      <g id="Group_18" data-name="Group 18" transform="translate(38.178 1.235)">
        <path id="Path_136" data-name="Path 136" d="M170.335,81.315a3.648,3.648,0,0,0,1.956-2.263,3.655,3.655,0,0,0-4.947,2.307A3.646,3.646,0,0,0,170.335,81.315Z" transform="translate(-167.344 -74.094)" fill="#c68f30"/>
        <path id="Path_137" data-name="Path 137" d="M171.527,74.115a3.649,3.649,0,0,0,2.263,1.957,3.657,3.657,0,0,0-2.307-4.948A3.646,3.646,0,0,0,171.527,74.115Z" transform="translate(-168.839 -71.124)" fill="#c68f30"/>
      </g>
      <g id="Group_19" data-name="Group 19" transform="translate(20.155 54.783)">
        <path id="Path_138" data-name="Path 138" d="M138.178,166.073a3.649,3.649,0,0,1-.045-2.991,3.655,3.655,0,0,1,2.307,4.947A3.646,3.646,0,0,1,138.178,166.073Z" transform="translate(-137.835 -160.465)" fill="#c68f30"/>
        <path id="Path_139" data-name="Path 139" d="M141.322,161.359a3.649,3.649,0,0,1-2.991.045,3.655,3.655,0,0,1,4.947-2.307A3.649,3.649,0,0,1,141.322,161.359Z" transform="translate(-138.028 -158.797)" fill="#c68f30"/>
      </g>
      <g id="Group_20" data-name="Group 20" transform="translate(42.113 3.264)">
        <path id="Path_140" data-name="Path 140" d="M176.739,84.6a3.647,3.647,0,0,0,2.319-1.888,3.655,3.655,0,0,0-5.272,1.413A3.648,3.648,0,0,0,176.739,84.6Z" transform="translate(-173.786 -77.43)" fill="#c68f30"/>
        <path id="Path_141" data-name="Path 141" d="M179.256,77.4a3.648,3.648,0,0,0,1.888,2.32,3.655,3.655,0,0,0-1.413-5.273A3.648,3.648,0,0,0,179.256,77.4Z" transform="translate(-175.866 -74.446)" fill="#c68f30"/>
      </g>
      <g id="Group_21" data-name="Group 21" transform="translate(15.591 53.022)">
        <path id="Path_142" data-name="Path 142" d="M130.488,162.181a3.645,3.645,0,0,1,.476-2.953,3.655,3.655,0,0,1,1.413,5.273A3.65,3.65,0,0,1,130.488,162.181Z" transform="translate(-130.363 -157.204)" fill="#c68f30"/>
        <path id="Path_143" data-name="Path 143" d="M134.31,158.4a3.65,3.65,0,0,1-2.953-.476,3.655,3.655,0,0,1,5.273-1.413A3.65,3.65,0,0,1,134.31,158.4Z" transform="translate(-130.75 -155.914)" fill="#c68f30"/>
      </g>
      <g id="Group_22" data-name="Group 22" transform="translate(45.736 6.163)">
        <path id="Path_144" data-name="Path 144" d="M182.544,88.932a3.648,3.648,0,0,0,2.612-1.457,3.655,3.655,0,0,0-5.438.476A3.649,3.649,0,0,0,182.544,88.932Z" transform="translate(-179.718 -82.028)" fill="#c68f30"/>
        <path id="Path_145" data-name="Path 145" d="M186.239,82.017a3.649,3.649,0,0,0,1.457,2.612,3.655,3.655,0,0,0-.476-5.438A3.65,3.65,0,0,0,186.239,82.017Z" transform="translate(-182.251 -79.191)" fill="#c68f30"/>
      </g>
      <g id="Group_23" data-name="Group 23" transform="translate(11.406 50.502)">
        <path id="Path_146" data-name="Path 146" d="M123.525,157.037a3.646,3.646,0,0,1,.982-2.825,3.655,3.655,0,0,1,.476,5.438A3.648,3.648,0,0,1,123.525,157.037Z" transform="translate(-123.511 -152.731)" fill="#c68f30"/>
        <path id="Path_147" data-name="Path 147" d="M127.979,154.241a3.651,3.651,0,0,1-2.826-.981,3.655,3.655,0,0,1,5.438-.476A3.648,3.648,0,0,1,127.979,154.241Z" transform="translate(-124.15 -151.788)" fill="#c68f30"/>
      </g>
      <g id="Group_24" data-name="Group 24" transform="translate(48.939 9.842)">
        <path id="Path_148" data-name="Path 148" d="M187.574,94.176a3.646,3.646,0,0,0,2.825-.981,3.656,3.656,0,0,0-5.438-.476A3.648,3.648,0,0,0,187.574,94.176Z" transform="translate(-184.962 -87.749)" fill="#c68f30"/>
        <path id="Path_149" data-name="Path 149" d="M192.265,87.828a3.648,3.648,0,0,0,.981,2.826,3.655,3.655,0,0,0,.476-5.438A3.646,3.646,0,0,0,192.265,87.828Z" transform="translate(-187.799 -85.216)" fill="#c68f30"/>
      </g>
      <g id="Group_25" data-name="Group 25" transform="translate(7.727 47.3)">
        <path id="Path_150" data-name="Path 150" d="M117.5,150.8a3.648,3.648,0,0,1,1.457-2.612,3.656,3.656,0,0,1-.476,5.438A3.646,3.646,0,0,1,117.5,150.8Z" transform="translate(-117.486 -147.184)" fill="#c68f30"/>
        <path id="Path_151" data-name="Path 151" d="M122.522,149a3.648,3.648,0,0,1-2.612-1.457,3.655,3.655,0,0,1,5.438.476A3.646,3.646,0,0,1,122.522,149Z" transform="translate(-118.429 -146.544)" fill="#c68f30"/>
      </g>
      <g id="Group_26" data-name="Group 26" transform="translate(51.623 14.192)">
        <path id="Path_152" data-name="Path 152" d="M191.677,100.173a3.648,3.648,0,0,0,2.953-.476,3.655,3.655,0,0,0-5.273-1.413A3.65,3.65,0,0,0,191.677,100.173Z" transform="translate(-189.357 -94.419)" fill="#c68f30"/>
        <path id="Path_153" data-name="Path 153" d="M197.148,94.658a3.648,3.648,0,0,0,.476,2.953,3.656,3.656,0,0,0,1.413-5.273A3.647,3.647,0,0,0,197.148,94.658Z" transform="translate(-192.341 -92.338)" fill="#c68f30"/>
      </g>
      <g id="Group_27" data-name="Group 27" transform="translate(4.663 43.511)">
        <path id="Path_154" data-name="Path 154" d="M112.6,143.655a3.65,3.65,0,0,1,1.888-2.32,3.655,3.655,0,0,1-1.413,5.273A3.645,3.645,0,0,1,112.6,143.655Z" transform="translate(-112.471 -140.728)" fill="#c68f30"/>
        <path id="Path_155" data-name="Path 155" d="M118.1,142.831a3.647,3.647,0,0,1-2.32-1.888,3.655,3.655,0,0,1,5.273,1.413A3.648,3.648,0,0,1,118.1,142.831Z" transform="translate(-113.761 -140.342)" fill="#c68f30"/>
      </g>
      <g id="Group_28" data-name="Group 28" transform="translate(53.708 19.08)">
        <path id="Path_156" data-name="Path 156" d="M194.727,106.742a3.646,3.646,0,0,0,2.991.044,3.655,3.655,0,0,0-4.947-2.307A3.65,3.65,0,0,0,194.727,106.742Z" transform="translate(-192.771 -101.835)" fill="#c68f30"/>
        <path id="Path_157" data-name="Path 157" d="M200.743,102.3a3.646,3.646,0,0,0-.044,2.991,3.656,3.656,0,0,0,2.307-4.947A3.649,3.649,0,0,0,200.743,102.3Z" transform="translate(-195.741 -100.34)" fill="#c68f30"/>
      </g>
      <g id="Group_29" data-name="Group 29" transform="translate(2.311 39.253)">
        <path id="Path_158" data-name="Path 158" d="M108.962,135.822a3.647,3.647,0,0,1,2.262-1.956,3.655,3.655,0,0,1-2.307,4.947A3.649,3.649,0,0,1,108.962,135.822Z" transform="translate(-108.619 -133.563)" fill="#c68f30"/>
        <path id="Path_159" data-name="Path 159" d="M114.86,135.932a3.647,3.647,0,0,1-1.956-2.263,3.656,3.656,0,0,1,4.947,2.307A3.646,3.646,0,0,1,114.86,135.932Z" transform="translate(-110.287 -133.37)" fill="#c68f30"/>
      </g>
      <g id="Group_30" data-name="Group 30" transform="translate(54.428 24.357)">
        <ellipse id="Ellipse_1" data-name="Ellipse 1" cx="1.224" cy="2.729" rx="1.224" ry="2.729" transform="translate(0 2.345) rotate(-55)" fill="#c68f30"/>
        <path id="Path_160" data-name="Path 160" d="M202.94,110.514a3.647,3.647,0,0,0-.563,2.938,3.656,3.656,0,0,0,3.131-4.471A3.647,3.647,0,0,0,202.94,110.514Z" transform="translate(-197.192 -108.98)" fill="#c68f30"/>
      </g>
      <g id="Group_31" data-name="Group 31" transform="translate(0.741 34.655)">
        <path id="Path_161" data-name="Path 161" d="M106.71,127.54a3.645,3.645,0,0,1,2.568-1.534,3.654,3.654,0,0,1-3.131,4.471A3.648,3.648,0,0,1,106.71,127.54Z" transform="translate(-106.048 -125.905)" fill="#c68f30"/>
        <path id="Path_162" data-name="Path 162" d="M112.889,128.508a3.646,3.646,0,0,1-1.534-2.568,3.656,3.656,0,0,1,4.471,3.131A3.647,3.647,0,0,1,112.889,128.508Z" transform="translate(-108.114 -125.841)" fill="#c68f30"/>
      </g>
      <g id="Group_32" data-name="Group 32" transform="translate(55.84 29.856)">
        <path id="Path_163" data-name="Path 163" d="M197.332,120.785a3.645,3.645,0,0,0,2.8,1.065,3.655,3.655,0,0,0-3.86-3.86A3.647,3.647,0,0,0,197.332,120.785Z" transform="translate(-196.261 -117.983)" fill="#c68f30"/>
        <path id="Path_164" data-name="Path 164" d="M203.671,119.054a3.651,3.651,0,0,0-1.065,2.8,3.655,3.655,0,0,0,3.86-3.86A3.651,3.651,0,0,0,203.671,119.054Z" transform="translate(-198.729 -117.983)" fill="#c68f30"/>
      </g>
      <g id="Group_33" data-name="Group 33" transform="translate(0 29.856)">
        <path id="Path_165" data-name="Path 165" d="M105.906,119.054a3.65,3.65,0,0,1,2.8-1.065,3.655,3.655,0,0,1-3.86,3.86A3.649,3.649,0,0,1,105.906,119.054Z" transform="translate(-104.835 -117.983)" fill="#c68f30"/>
        <path id="Path_166" data-name="Path 166" d="M112.245,120.785a3.65,3.65,0,0,1-1.065-2.8,3.655,3.655,0,0,1,3.86,3.86A3.646,3.646,0,0,1,112.245,120.785Z" transform="translate(-107.303 -117.983)" fill="#c68f30"/>
      </g>
      <g id="Group_34" data-name="Group 34" transform="translate(55.732 34.053)">
        <path id="Path_167" data-name="Path 167" d="M196.747,127.793a3.65,3.65,0,0,0,2.568,1.534,3.655,3.655,0,0,0-3.131-4.472A3.649,3.649,0,0,0,196.747,127.793Z" transform="translate(-196.085 -124.855)" fill="#c68f30"/>
        <path id="Path_168" data-name="Path 168" d="M202.926,127.554a3.645,3.645,0,0,0-1.534,2.568,3.655,3.655,0,0,0,4.471-3.131A3.645,3.645,0,0,0,202.926,127.554Z" transform="translate(-198.151 -125.648)" fill="#c68f30"/>
      </g>
      <g id="Group_35" data-name="Group 35" transform="translate(0.139 24.958)">
        <path id="Path_169" data-name="Path 169" d="M106.6,110.627a3.646,3.646,0,0,1,2.937-.563,3.655,3.655,0,0,1-4.471,3.131A3.647,3.647,0,0,1,106.6,110.627Z" transform="translate(-105.062 -109.965)" fill="#c68f30"/>
        <path id="Path_170" data-name="Path 170" d="M112.9,113.068a3.648,3.648,0,0,1-.563-2.938,3.655,3.655,0,0,1,3.131,4.471A3.649,3.649,0,0,1,112.9,113.068Z" transform="translate(-107.857 -110.029)" fill="#c68f30"/>
      </g>
      <g id="Group_36" data-name="Group 36" transform="translate(54.783 38.178)">
        <path id="Path_171" data-name="Path 171" d="M194.874,134.6a3.647,3.647,0,0,0,2.263,1.956,3.656,3.656,0,0,0-2.307-4.947A3.646,3.646,0,0,0,194.874,134.6Z" transform="translate(-194.531 -131.61)" fill="#c68f30"/>
        <path id="Path_172" data-name="Path 172" d="M200.772,135.793a3.649,3.649,0,0,0-1.956,2.263,3.656,3.656,0,0,0,4.947-2.307A3.646,3.646,0,0,0,200.772,135.793Z" transform="translate(-196.199 -133.105)" fill="#c68f30"/>
      </g>
      <g id="Group_37" data-name="Group 37" transform="translate(1.236 20.155)">
        <path id="Path_173" data-name="Path 173" d="M108.815,102.443a3.646,3.646,0,0,1,2.991-.044,3.656,3.656,0,0,1-4.947,2.307A3.647,3.647,0,0,1,108.815,102.443Z" transform="translate(-106.859 -102.1)" fill="#c68f30"/>
        <path id="Path_174" data-name="Path 174" d="M114.831,105.587a3.649,3.649,0,0,1-.045-2.991,3.656,3.656,0,0,1,2.307,4.948A3.648,3.648,0,0,1,114.831,105.587Z" transform="translate(-109.828 -102.293)" fill="#c68f30"/>
      </g>
      <g id="Group_38" data-name="Group 38" transform="translate(53.022 42.112)">
        <path id="Path_175" data-name="Path 175" d="M191.773,141a3.647,3.647,0,0,0,1.889,2.32,3.655,3.655,0,0,0-1.413-5.273A3.646,3.646,0,0,0,191.773,141Z" transform="translate(-191.648 -138.051)" fill="#c68f30"/>
        <path id="Path_176" data-name="Path 176" d="M197.282,143.522a3.648,3.648,0,0,0-2.32,1.888A3.655,3.655,0,0,0,200.235,144,3.646,3.646,0,0,0,197.282,143.522Z" transform="translate(-192.938 -140.132)" fill="#c68f30"/>
      </g>
      <g id="Group_39" data-name="Group 39" transform="translate(3.264 15.591)">
        <path id="Path_177" data-name="Path 177" d="M112.5,94.754a3.646,3.646,0,0,1,2.953.476,3.655,3.655,0,0,1-5.273,1.413A3.646,3.646,0,0,1,112.5,94.754Z" transform="translate(-110.18 -94.629)" fill="#c68f30"/>
        <path id="Path_178" data-name="Path 178" d="M117.971,98.575a3.648,3.648,0,0,1,.476-2.953,3.655,3.655,0,0,1,1.413,5.273A3.647,3.647,0,0,1,117.971,98.575Z" transform="translate(-113.164 -95.015)" fill="#c68f30"/>
      </g>
      <g id="Group_40" data-name="Group 40" transform="translate(50.502 45.736)">
        <path id="Path_179" data-name="Path 179" d="M187.536,146.809a3.648,3.648,0,0,0,1.457,2.612,3.655,3.655,0,0,0-.476-5.438A3.649,3.649,0,0,0,187.536,146.809Z" transform="translate(-187.522 -143.984)" fill="#c68f30"/>
        <path id="Path_180" data-name="Path 180" d="M192.558,150.505a3.648,3.648,0,0,0-2.612,1.457,3.655,3.655,0,0,0,5.438-.476A3.648,3.648,0,0,0,192.558,150.505Z" transform="translate(-188.466 -146.517)" fill="#c68f30"/>
      </g>
      <g id="Group_41" data-name="Group 41" transform="translate(6.163 11.406)">
        <path id="Path_181" data-name="Path 181" d="M117.538,87.791a3.647,3.647,0,0,1,2.825.981,3.655,3.655,0,0,1-5.438.475A3.646,3.646,0,0,1,117.538,87.791Z" transform="translate(-114.926 -87.777)" fill="#c68f30"/>
        <path id="Path_182" data-name="Path 182" d="M122.228,92.245a3.648,3.648,0,0,1,.981-2.826,3.655,3.655,0,0,1,.476,5.438A3.649,3.649,0,0,1,122.228,92.245Z" transform="translate(-117.763 -88.416)" fill="#c68f30"/>
      </g>
      <g id="Group_42" data-name="Group 42" transform="translate(47.3 48.939)">
        <path id="Path_183" data-name="Path 183" d="M182.293,151.84a3.649,3.649,0,0,0,.981,2.825,3.655,3.655,0,0,0,.476-5.438A3.647,3.647,0,0,0,182.293,151.84Z" transform="translate(-182.279 -149.228)" fill="#c68f30"/>
        <path id="Path_184" data-name="Path 184" d="M186.746,156.53a3.649,3.649,0,0,0-2.825.982,3.655,3.655,0,0,0,5.438.476A3.648,3.648,0,0,0,186.746,156.53Z" transform="translate(-182.918 -152.065)" fill="#c68f30"/>
      </g>
      <g id="Group_43" data-name="Group 43" transform="translate(9.843 7.727)">
        <path id="Path_185" data-name="Path 185" d="M123.776,81.766a3.647,3.647,0,0,1,2.612,1.457,3.655,3.655,0,0,1-5.438-.476A3.646,3.646,0,0,1,123.776,81.766Z" transform="translate(-120.951 -81.752)" fill="#c68f30"/>
        <path id="Path_186" data-name="Path 186" d="M127.472,86.788a3.649,3.649,0,0,1,1.457-2.613,3.656,3.656,0,0,1-.476,5.438A3.648,3.648,0,0,1,127.472,86.788Z" transform="translate(-123.484 -82.695)" fill="#c68f30"/>
      </g>
      <g id="Group_44" data-name="Group 44" transform="translate(43.511 51.623)">
        <path id="Path_187" data-name="Path 187" d="M176.2,155.943a3.646,3.646,0,0,0,.476,2.953,3.655,3.655,0,0,0,1.413-5.273A3.648,3.648,0,0,0,176.2,155.943Z" transform="translate(-176.076 -153.623)" fill="#c68f30"/>
        <path id="Path_188" data-name="Path 188" d="M180.023,161.414a3.648,3.648,0,0,0-2.953.476,3.655,3.655,0,0,0,5.273,1.413A3.648,3.648,0,0,0,180.023,161.414Z" transform="translate(-176.463 -156.607)" fill="#c68f30"/>
      </g>
      <g id="Group_45" data-name="Group 45" transform="translate(14.192 4.663)">
        <path id="Path_189" data-name="Path 189" d="M131.026,76.861a3.647,3.647,0,0,1,2.319,1.888,3.655,3.655,0,0,1-5.273-1.413A3.649,3.649,0,0,1,131.026,76.861Z" transform="translate(-128.072 -76.736)" fill="#c68f30"/>
        <path id="Path_190" data-name="Path 190" d="M133.543,82.37a3.648,3.648,0,0,1,1.889-2.32,3.655,3.655,0,0,1-1.413,5.273A3.648,3.648,0,0,1,133.543,82.37Z" transform="translate(-130.153 -78.026)" fill="#c68f30"/>
      </g>
      <g id="Group_46" data-name="Group 46" transform="translate(39.253 53.708)">
        <path id="Path_191" data-name="Path 191" d="M169.447,158.993a3.646,3.646,0,0,0-.044,2.991,3.656,3.656,0,0,0,2.307-4.947A3.647,3.647,0,0,0,169.447,158.993Z" transform="translate(-169.104 -157.037)" fill="#c68f30"/>
        <path id="Path_192" data-name="Path 192" d="M172.591,165.009a3.649,3.649,0,0,0-2.991-.045,3.655,3.655,0,0,0,4.947,2.307A3.646,3.646,0,0,0,172.591,165.009Z" transform="translate(-169.297 -160.006)" fill="#c68f30"/>
      </g>
      <g id="Group_47" data-name="Group 47" transform="translate(19.08 2.311)">
        <path id="Path_193" data-name="Path 193" d="M139.066,73.228a3.648,3.648,0,0,1,1.956,2.262,3.655,3.655,0,0,1-4.947-2.307A3.644,3.644,0,0,1,139.066,73.228Z" transform="translate(-136.075 -72.884)" fill="#c68f30"/>
        <path id="Path_194" data-name="Path 194" d="M140.258,79.126a3.648,3.648,0,0,1,2.262-1.957,3.656,3.656,0,0,1-2.307,4.948A3.649,3.649,0,0,1,140.258,79.126Z" transform="translate(-137.57 -74.552)" fill="#c68f30"/>
      </g>
      <g id="Group_48" data-name="Group 48" transform="translate(34.655 55.13)">
        <path id="Path_195" data-name="Path 195" d="M162.237,160.9a3.648,3.648,0,0,0-.563,2.938,3.655,3.655,0,0,0,3.131-4.471A3.648,3.648,0,0,0,162.237,160.9Z" transform="translate(-161.576 -159.365)" fill="#c68f30"/>
        <path id="Path_196" data-name="Path 196" d="M164.678,167.206a3.648,3.648,0,0,0-2.938-.563,3.655,3.655,0,0,0,4.471,3.131A3.648,3.648,0,0,0,164.678,167.206Z" transform="translate(-161.64 -162.16)" fill="#c68f30"/>
      </g>
      <g id="Group_49" data-name="Group 49" transform="translate(24.357 0.741)">
        <path id="Path_197" data-name="Path 197" d="M147.652,70.975a3.649,3.649,0,0,1,1.534,2.568,3.655,3.655,0,0,1-4.471-3.131A3.648,3.648,0,0,1,147.652,70.975Z" transform="translate(-144.714 -70.314)" fill="#c68f30"/>
        <path id="Path_198" data-name="Path 198" d="M147.413,77.154a3.649,3.649,0,0,1,2.568-1.534,3.654,3.654,0,0,1-3.131,4.471A3.646,3.646,0,0,1,147.413,77.154Z" transform="translate(-145.507 -72.379)" fill="#c68f30"/>
      </g>
      <g id="Group_50" data-name="Group 50" transform="translate(29.856 55.84)">
        <path id="Path_199" data-name="Path 199" d="M154.789,161.6a3.645,3.645,0,0,0-1.065,2.795,3.654,3.654,0,0,0,3.859-3.859A3.645,3.645,0,0,0,154.789,161.6Z" transform="translate(-153.718 -160.527)" fill="#c68f30"/>
        <path id="Path_200" data-name="Path 200" d="M156.519,167.937a3.647,3.647,0,0,0-2.795-1.065,3.655,3.655,0,0,0,3.859,3.86A3.645,3.645,0,0,0,156.519,167.937Z" transform="translate(-153.718 -162.995)" fill="#c68f30"/>
      </g>
      <g id="Group_51" data-name="Group 51" transform="translate(29.856)">
        <path id="Path_201" data-name="Path 201" d="M156.519,70.172a3.645,3.645,0,0,1,1.065,2.8,3.656,3.656,0,0,1-3.859-3.86A3.645,3.645,0,0,1,156.519,70.172Z" transform="translate(-153.718 -69.101)" fill="#c68f30"/>
        <path id="Path_202" data-name="Path 202" d="M154.789,76.511a3.645,3.645,0,0,1,2.795-1.065,3.655,3.655,0,0,1-3.859,3.86A3.645,3.645,0,0,1,154.789,76.511Z" transform="translate(-153.718 -71.569)" fill="#c68f30"/>
      </g>
    </g>
  </g>
</svg>