<svg xmlns="http://www.w3.org/2000/svg" width="74" height="67.498" viewBox="0 0 74 67.498">
  <g id="Layer_2" data-name="Layer 2" transform="translate(2 2)">
    <g id="Layer_1" data-name="Layer 1" transform="translate(0)">
      <path id="Path_222" data-name="Path 222" d="M74,3.966H61.27V42.156H74Zm-70,35a6.381,6.381,0,0,0,6.336,6.372H29.082a1.062,1.062,0,0,1,1.038,1.288l-2.7,12.419a8.8,8.8,0,0,0-.205,1.886h0a4.8,4.8,0,0,0,.266,1.509,6.445,6.445,0,0,0,1.792,2.716L31.418,67.1a.815.815,0,0,0,1.125-.027S53.042,46.594,53.3,46.359a5.508,5.508,0,0,0,1.605-4.2V11.38a7.45,7.45,0,0,0-7.428-7.413H19.9a6.288,6.288,0,0,0-5.733,3.82l-9.486,21.8A11.019,11.019,0,0,0,4,32.715v6.258Z" transform="translate(-4 -3.966)" fill="none" stroke="#fff" stroke-miterlimit="10" stroke-width="4"/>
    </g>
  </g>
</svg>
