<?xml version="1.0" ?><svg enable-background="new 0 0 512 512" id="Layer_1" version="1.1" viewBox="0 0 512 512" xml:space="preserve" xmlns="http://www.w3.org/2000/svg" xmlns:xlink="http://www.w3.org/1999/xlink"><g><g><linearGradient gradientUnits="userSpaceOnUse" id="SVGID_1_" x1="0.0000083" x2="512" y1="256" y2="256"><stop offset="0" style="stop-color:#95A5A6"/><stop offset="1" style="stop-color:#7F8C8D"/></linearGradient><circle cx="256" cy="256" fill="url(#SVGID_1_)" r="256"/><linearGradient gradientUnits="userSpaceOnUse" id="SVGID_2_" x1="42.6666756" x2="469.333313" y1="256.0005188" y2="256.0005188"><stop offset="0" style="stop-color:#7F8C8D"/><stop offset="1" style="stop-color:#95A5A6"/></linearGradient><path d="M256,469.3338623c-117.6309204,0-213.3333282-95.7023926-213.3333282-213.3333435    c0-117.6314545,95.7024078-213.333313,213.3333282-213.333313c117.636261,0,213.333313,95.7018661,213.333313,213.333313    C469.333313,373.6314697,373.636261,469.3338623,256,469.3338623z" fill="url(#SVGID_2_)"/></g><g id="XMLID_70_"><path d="M384,218.0704041c0,26.3477325-11.4240112,95.0149231-117.3600159,164.2080078L264,384    l-2.6400146-1.7215881c-105.9359741-69.1930847-117.3599701-137.8602753-117.3599701-164.2080078    C144.0000153,177.2335968,174.0480042,144,211.0079956,144C232.0319977,144,251.3759918,154.6634674,264,172.8821259    C276.6239929,154.6634674,295.9679871,144,317.0400085,144C353.9519958,144,384,177.2335968,384,218.0704041z" opacity="0.3"/></g><g id="XMLID_316_"><path d="M376,210.0704041c0,26.3477325-11.4240112,95.0149231-117.3600159,164.2080078L256,376    l-2.6399994-1.7215881c-105.9359894-69.1930847-117.3599854-137.8602753-117.3599854-164.2080078    C136.0000153,169.2335968,166.0480042,136,203.0079956,136C224.0319977,136,243.3759918,146.6634674,256,164.8821259    C268.6239929,146.6634674,287.9679871,136,309.0400085,136C345.9519958,136,376,169.2335968,376,210.0704041z" fill="#FFFFFF"/></g></g></svg>