<svg xmlns="http://www.w3.org/2000/svg" width="45px" height="22px" viewBox="0 0 86 48" style="
    width: 40px;
"><g id="Group_331" data-name="Group 331" transform="translate(-950 -732)"><path id="Subtraction_71" data-name="Subtraction 71" d="M71,44H11A11,11,0,0,1,0,33V11A11,11,0,0,1,11,0H71A11,11,0,0,1,82,11V33A11,11,0,0,1,71,44ZM61.336,30.485l0,0a4.471,4.471,0,0,0,3.7,1.777,4.867,4.867,0,0,0,4.087-1.918A8.677,8.677,0,0,0,70.591,25V24.79a8.689,8.689,0,0,0-1.483-5.4,4.908,4.908,0,0,0-4.093-1.918,4.358,4.358,0,0,0-3.468,1.543V11.75h-3.81V32h3.427l.172-1.513ZM47.519,17.473a4.874,4.874,0,0,0-4.093,1.977,8.637,8.637,0,0,0-1.5,5.313,8.915,8.915,0,0,0,1.523,5.518,4.864,4.864,0,0,0,4.041,1.984,4.5,4.5,0,0,0,3.665-1.779L51.342,32h3.442V11.75H50.961v7.277A4.388,4.388,0,0,0,47.519,17.473Zm-13.9,3.1a2.111,2.111,0,0,1,1.674.561,2.726,2.726,0,0,1,.475,1.773V32H39.6v-9.11a6.239,6.239,0,0,0-1.134-4.067,4.273,4.273,0,0,0-3.454-1.351,4.917,4.917,0,0,0-4.285,2.175,3.819,3.819,0,0,0-3.784-2.175,5.034,5.034,0,0,0-4.1,1.859l-.118-1.595H19.148V32h3.81V21.915a2.479,2.479,0,0,1,2.347-1.345,2.132,2.132,0,0,1,1.661.553,2.692,2.692,0,0,1,.488,1.793V32h3.811l-.014-9.8A2.387,2.387,0,0,1,33.624,20.57ZM12.187,17.736V32h3.824V17.736ZM14.1,12.08a2.162,2.162,0,0,0-1.562.554,2.02,2.02,0,0,0,.013,2.834,2.177,2.177,0,0,0,1.55.553,2.176,2.176,0,0,0,1.549-.553,2.012,2.012,0,0,0,.006-2.834A2.17,2.17,0,0,0,14.1,12.08ZM64.078,29.192a2.558,2.558,0,0,1-2.532-1.5V22.06a2.523,2.523,0,0,1,2.5-1.49,2.329,2.329,0,0,1,2.044,1,5.7,5.7,0,0,1,.686,3.157,9.437,9.437,0,0,1-.277,2.65A2.361,2.361,0,0,1,64.078,29.192Zm-15.61,0a2.286,2.286,0,0,1-2.03-1.069,5.662,5.662,0,0,1-.7-3.077,6.547,6.547,0,0,1,.689-3.357,2.277,2.277,0,0,1,2.066-1.119,2.524,2.524,0,0,1,2.466,1.492V27.7A2.56,2.56,0,0,1,48.469,29.192Z" transform="translate(950 734)" fill="#c4c6c6"></path></g></svg>