<svg xmlns="http://www.w3.org/2000/svg" viewBox="0 0 61.68 61.68"><defs><style>.cls-1{fill:#fff;}</style></defs><title>Asset 21instagram</title><g id="Layer_2" data-name="Layer 2"><g id="Layer_1-2" data-name="Layer 1"><path class="cls-1" d="M45,0H16.7A16.72,16.72,0,0,0,0,16.7V45A16.71,16.71,0,0,0,16.7,61.68H45A16.71,16.71,0,0,0,61.68,45V16.7A16.72,16.72,0,0,0,45,0ZM58.07,45A13.1,13.1,0,0,1,45,58.07H16.7A13.09,13.09,0,0,1,3.62,45V16.7A13.08,13.08,0,0,1,16.7,3.62H45A13.09,13.09,0,0,1,58.07,16.7Z"/><path class="cls-1" d="M30.84,14A16.87,16.87,0,1,0,47.71,30.84,16.87,16.87,0,0,0,30.84,14Zm0,30.11A13.25,13.25,0,1,1,44.09,30.84,13.27,13.27,0,0,1,30.84,44.09Z"/><path class="cls-1" d="M48.11,8a5,5,0,1,0,5,5A5,5,0,0,0,48.11,8Zm0,7.76A2.78,2.78,0,1,1,50.89,13,2.79,2.79,0,0,1,48.11,15.75Z"/></g></g></svg>