<svg xmlns="http://www.w3.org/2000/svg" width="74" height="67.498" viewBox="0 0 74 67.498">
  <g id="Layer_2" data-name="Layer 2" transform="translate(2 2.15)">
    <g id="Layer_1" data-name="Layer 1">
      <path id="Path_222" data-name="Path 222" d="M4,67.314H16.73V29.125H4Zm70-35a6.381,6.381,0,0,0-6.336-6.372H48.918a1.062,1.062,0,0,1-1.038-1.288l2.7-12.419a8.8,8.8,0,0,0,.205-1.886h0a4.8,4.8,0,0,0-.266-1.509,6.445,6.445,0,0,0-1.792-2.716L46.582,4.179a.815.815,0,0,0-1.125.027S24.958,24.687,24.7,24.922a5.508,5.508,0,0,0-1.605,4.2V59.9a7.45,7.45,0,0,0,7.428,7.413H58.1a6.288,6.288,0,0,0,5.733-3.82l9.486-21.8A11.019,11.019,0,0,0,74,38.566V32.308Z" transform="translate(-4 -3.966)" fill="#fff" stroke="#fff" stroke-miterlimit="10" stroke-width="4"/>
    </g>
  </g>
</svg>
