<svg id="Layer_1" data-name="Layer 1" xmlns="http://www.w3.org/2000/svg" viewBox="0 0 457.1 317.85"><defs><style>.cls-1{fill:#ed1c24;}.cls-2{fill:#af2c24;}.cls-3{fill:#efd115;}.cls-4{fill:#cf992a;}.cls-5{fill:#2dabe2;}.cls-6{fill:#2193d2;}</style></defs><title>logov</title><path class="cls-1" d="M512.81,326.53,376.62,189.21a5.28,5.28,0,0,0-7-.39l-.35.26a56.65,56.65,0,0,0-5.61,85.08l72.51,72.44L363.65,419a56.65,56.65,0,0,0,5.61,85.08l.35.27a5.28,5.28,0,0,0,7-.4L512.81,366.66a28.57,28.57,0,0,0,0-40.13Z" transform="translate(-63.94 -187.67)"/><path class="cls-2" d="M464.58,375.09l-28.45-28.47-.21.21L363.65,419a56.65,56.65,0,0,0,5.61,85.08l.35.27a5.28,5.28,0,0,0,7-.4l81.11-81.78,6.82-7.14A28.26,28.26,0,0,0,464.58,375.09Z" transform="translate(-63.94 -187.67)"/><path class="cls-3" d="M371.27,326.53,235.08,189.21a5.29,5.29,0,0,0-7-.39l-.35.26a56.66,56.66,0,0,0-5.6,85.08l72.5,72.44L222.11,419a56.66,56.66,0,0,0,5.6,85.08l.35.27a5.29,5.29,0,0,0,7-.4L371.27,366.66a28.57,28.57,0,0,0,0-40.13Z" transform="translate(-63.94 -187.67)"/><path class="cls-4" d="M323,375.09l-28.44-28.47-.22.21L222.11,419a56.66,56.66,0,0,0,5.6,85.08l.35.27a5.29,5.29,0,0,0,7-.4l81.11-81.78,6.82-7.14A28.27,28.27,0,0,0,323,375.09Z" transform="translate(-63.94 -187.67)"/><path class="cls-5" d="M229.72,326.53,93.53,189.21a5.28,5.28,0,0,0-7-.39l-.35.26a56.65,56.65,0,0,0-5.61,85.08l72.51,72.44L80.56,419a56.65,56.65,0,0,0,5.61,85.08l.35.27a5.28,5.28,0,0,0,7-.4L229.72,366.66a28.57,28.57,0,0,0,0-40.13Z" transform="translate(-63.94 -187.67)"/><path class="cls-6" d="M181.49,375.09,153,346.62l-.21.21L80.56,419a56.65,56.65,0,0,0,5.61,85.08l.35.27a5.28,5.28,0,0,0,7-.4l81.11-81.78,6.83-7.14A28.27,28.27,0,0,0,181.49,375.09Z" transform="translate(-63.94 -187.67)"/></svg>