<svg xmlns="http://www.w3.org/2000/svg" width="511.635" height="457.098" viewBox="0 0 511.635 457.098">
  <g id="reply" transform="translate(0 -27.268)">
    <g id="Group_10" data-name="Group 10">
      <path id="Path_17" data-name="Path 17" d="M463.375,183.726q-53.673-55.1-171.02-63.094V45.83q0-11.991-11.136-16.846-11.7-4.845-19.985,4L115.06,179.161a17.93,17.93,0,0,0,0,25.7L261.238,351.035a16.975,16.975,0,0,0,12.85,5.425,19.865,19.865,0,0,0,7.136-1.427q11.135-4.857,11.139-16.845V266.525q45.963,3.713,76.376,14.989t48.677,31.549q42.543,47.107,30.266,161.311-.564,7.426,6.567,9.708a8.611,8.611,0,0,0,2.569.284q5.709,0,7.994-4.853l5.709-11.42q3.993-8,11.56-25.841T495.79,406.56a373.893,373.893,0,0,0,10.992-39.4q4.851-21.564,4.853-38.116Q511.628,233.117,463.375,183.726Z" fill="#fff"/>
      <path id="Path_18" data-name="Path 18" d="M63.953,192.011a17.566,17.566,0,0,1,5.424-12.85L182.725,65.531V45.83q0-11.991-11.138-16.846-11.706-4.845-19.983,4L5.424,179.161a17.93,17.93,0,0,0,0,25.7L151.6,351.035a16.961,16.961,0,0,0,12.85,5.425,19.862,19.862,0,0,0,7.137-1.427q11.135-4.857,11.138-16.845V318.2L69.377,204.857A17.558,17.558,0,0,1,63.953,192.011Z" fill="#fff"/>
    </g>
  </g>
</svg>
