<svg xmlns="http://www.w3.org/2000/svg" viewBox="0 0 59.35 59.35"><defs><style>.cls-1{fill:#fff;}</style></defs><title>Asset 24search</title><g id="Layer_2" data-name="Layer 2"><g id="Layer_1-2" data-name="Layer 1"><path class="cls-1" d="M58.66,55.46,40.43,37.94l-.15-.11a23.81,23.81,0,0,0,4.84-15.34C44.66,9.61,34.16-.47,21.73,0S-.45,11.38,0,24.27s11,23,23.39,22.47a22.08,22.08,0,0,0,13.91-5.69c0,.06.1.13.16.19L55.71,58.76a2.13,2.13,0,0,0,1.56.59,2.15,2.15,0,0,0,1.51-.71A2.31,2.31,0,0,0,58.66,55.46ZM23.27,43C12.83,43.41,4,34.94,3.63,24.12s7.79-20,18.23-20.36,19.26,8.06,19.65,18.88S33.72,42.59,23.27,43Z"/></g></g></svg>