<?xml version="1.0" encoding="iso-8859-1"?>
<!-- Generator: Adobe Illustrator 19.0.0, SVG Export Plug-In . SVG Version: 6.00 Build 0)  -->
<svg version="1.1" id="Layer_1" xmlns="http://www.w3.org/2000/svg" xmlns:xlink="http://www.w3.org/1999/xlink" x="0px" y="0px"
	 viewBox="0 0 512 512" style="enable-background:new 0 0 512 512; fill: #ffffff; " xml:space="preserve">
<g>
	<g>
		<g>
			<path d="M418.133,366.933H17.067V76.8H51.2v264.533c0,4.71,3.823,8.533,8.533,8.533s8.533-3.823,8.533-8.533V68.267
				c0-4.71-3.823-8.533-8.533-8.533h-51.2C3.823,59.733,0,63.556,0,68.267v307.2C0,380.177,3.823,384,8.533,384h409.6
				c4.719,0,8.533-3.823,8.533-8.533S422.852,366.933,418.133,366.933z"/>
			<path d="M318.234,139.034c-3.336,3.337-3.336,8.73,0,12.066l51.2,51.2c1.664,1.664,3.849,2.5,6.033,2.5
				c2.185,0,4.369-0.836,6.033-2.5c3.337-3.337,3.337-8.73,0-12.066l-51.2-51.2C326.963,135.697,321.57,135.697,318.234,139.034z"/>
			<path d="M332.8,435.2h-68.267v-25.6c0-4.71-3.823-8.533-8.533-8.533s-8.533,3.823-8.533,8.533v25.6H179.2
				c-4.71,0-8.533,3.823-8.533,8.533s3.823,8.533,8.533,8.533h153.6c4.719,0,8.533-3.823,8.533-8.533S337.519,435.2,332.8,435.2z"/>
			<path d="M290.133,170.667c2.185,0,4.369-0.836,6.033-2.5c3.336-3.337,3.336-8.73,0-12.066l-8.533-8.533
				c-3.337-3.336-8.73-3.336-12.066,0c-3.337,3.337-3.337,8.73,0,12.066l8.533,8.533
				C285.764,169.83,287.949,170.667,290.133,170.667z"/>
			<path d="M384,162.133c2.185,0,4.369-0.836,6.033-2.5c3.337-3.337,3.337-8.73,0-12.066L372.966,130.5
				c-3.337-3.336-8.73-3.336-12.066,0c-3.336,3.337-3.336,8.73,0,12.066l17.067,17.067C379.631,161.297,381.815,162.133,384,162.133
				z"/>
			<path d="M503.467,59.733h-409.6c-4.71,0-8.533,3.823-8.533,8.533s3.823,8.533,8.533,8.533h401.067v290.133H460.8V102.4
				c0-4.71-3.814-8.533-8.533-8.533c-4.719,0-8.533,3.823-8.533,8.533v273.067c0,4.71,3.814,8.533,8.533,8.533h51.2
				c4.719,0,8.533-3.823,8.533-8.533v-307.2C512,63.556,508.186,59.733,503.467,59.733z"/>
			<path d="M309.7,193.766l42.667,42.667c1.664,1.664,3.849,2.5,6.033,2.5c2.185,0,4.369-0.836,6.033-2.5
				c3.336-3.336,3.336-8.73,0-12.066L321.766,181.7c-3.337-3.337-8.73-3.337-12.066,0C306.364,185.037,306.364,190.43,309.7,193.766
				z"/>
		</g>
	</g>
</g>
<g>
</g>
<g>
</g>
<g>
</g>
<g>
</g>
<g>
</g>
<g>
</g>
<g>
</g>
<g>
</g>
<g>
</g>
<g>
</g>
<g>
</g>
<g>
</g>
<g>
</g>
<g>
</g>
<g>
</g>
</svg>
