<svg xmlns="http://www.w3.org/2000/svg" viewBox="0 0 67.44 57.05"><defs><style>.cls-1{fill:#fff;}</style></defs><title>Asset 23telegram</title><g id="Layer_2" data-name="Layer 2"><g id="Layer_1-2" data-name="Layer 1"><path class="cls-1" d="M66.39,1.56A4.35,4.35,0,0,0,62.92,0,6.76,6.76,0,0,0,60.5.48L3.41,22.27C.38,23.43,0,25.16,0,26.1s.53,2.64,3.62,3.62l.06,0,11.84,3.38,6.4,18.31a5.54,5.54,0,0,0,5.12,4,6,6,0,0,0,4.09-1.74L38.46,47l10.62,8.55h0l.1.08,0,0a6.1,6.1,0,0,0,3.73,1.4h0c2.46,0,4.42-1.82,5-4.63L67.28,6.23A5.5,5.5,0,0,0,66.39,1.56ZM19.48,32.48,42.32,20.81,28.1,35.92a2,2,0,0,0-.48.88L24.88,47.91Zm9,18.35a3,3,0,0,1-.28.24l2.54-10.31,4.63,3.73Zm35-45.38L54.06,51.63c-.09.44-.38,1.47-1.12,1.47a2.26,2.26,0,0,1-1.29-.56l-12-9.69h0l-7.16-5.77L53,15.22a2,2,0,0,0-2.34-3.11L16.84,29.39,4.84,26,61.9,4.17a3,3,0,0,1,1-.22.66.66,0,0,1,.42.11A2,2,0,0,1,63.41,5.45Z"/></g></g></svg>