<?xml version="1.0" encoding="iso-8859-1"?>
<!-- Generator: Adobe Illustrator 19.0.0, SVG Export Plug-In . SVG Version: 6.00 Build 0)  -->
<svg version="1.1" id="Layer_1" xmlns="http://www.w3.org/2000/svg" xmlns:xlink="http://www.w3.org/1999/xlink" x="0px" y="0px"
	 viewBox="0 0 512 512" style="enable-background:new 0 0 512 512; fill: #ffffff;" xml:space="preserve">
<g>
	<g>
		<g>
			<path d="M251.29,239.838c-4.215-2.108-9.344-0.401-11.452,3.814c-0.154,0.299-15.13,29.414-52.105,29.414
				c-36.582,0-51.482-28.211-52.113-29.449c-2.116-4.198-7.228-5.88-11.435-3.78c-4.215,2.108-5.922,7.228-3.814,11.452
				c0.794,1.587,19.977,38.844,67.362,38.844c47.394,0,66.577-37.257,67.371-38.844C257.212,247.066,255.505,241.946,251.29,239.838
				z"/>
			<path d="M161.101,137.745c2.534-14.37-13.611-28.39-37.564-32.614c-4.326-0.759-8.644-1.152-12.843-1.152
				c-18.398,0-31.599,7.441-33.63,18.961c-2.526,14.37,13.619,28.39,37.572,32.614c4.326,0.768,8.644,1.152,12.834,1.152
				C145.877,156.706,159.078,149.265,161.101,137.745z M93.875,125.901c0.171-0.99,5.018-4.855,16.819-4.855
				c3.209,0,6.528,0.299,9.873,0.896c16.273,2.867,24.107,10.761,23.731,12.851c-0.171,0.981-5.018,4.847-16.828,4.847
				c-3.2,0-6.519-0.299-9.865-0.887C101.333,135.876,93.5,127.991,93.875,125.901z"/>
			<path d="M375.467,59.733c0-50.79-24.764-59.733-76.8-59.733c-16.375,0-29.116,5.248-42.607,10.795
				C239.198,17.732,220.075,25.6,187.733,25.6c-32.333,0-51.456-7.868-68.318-14.805C105.924,5.248,93.184,0,76.8,0
				C24.772,0,0,8.943,0,59.733c0,112.956,66.27,332.8,187.733,332.8C309.205,392.533,375.467,172.689,375.467,59.733z
				 M187.733,375.467c-105.873,0-170.667-204.416-170.667-315.733c0-35.482,10.052-42.667,59.733-42.667
				c13.013,0,23.202,4.198,36.122,9.515c17.425,7.159,39.108,16.085,74.812,16.085c35.712,0,57.395-8.926,74.82-16.085
				c12.919-5.316,23.108-9.515,36.113-9.515c49.69,0,59.733,7.185,59.733,42.667C358.4,171.051,293.615,375.467,187.733,375.467z"/>
			<path d="M264.772,103.987c-4.19,0-8.508,0.393-12.834,1.152c-10.257,1.809-19.678,5.598-26.513,10.667
				c-8.516,6.323-12.45,14.114-11.059,21.948c2.031,11.511,15.232,18.961,33.63,18.961c4.19,0,8.508-0.384,12.834-1.152
				c23.953-4.224,40.107-18.244,37.572-32.623C296.371,111.428,283.17,103.987,264.772,103.987z M257.86,138.761
				c-3.337,0.589-6.665,0.887-9.865,0.887c-11.802,0-16.648-3.866-16.828-4.855c-0.068-0.452,0.862-2.628,4.429-5.282
				c4.685-3.473,11.716-6.221,19.311-7.561c3.345-0.597,6.664-0.896,9.865-0.896c11.81,0,16.657,3.866,16.819,4.847
				C281.967,127.991,274.133,135.893,257.86,138.761z"/>
			<path d="M435.2,119.467c-16.299,0-26.897,4.378-39.159,9.455c-3.396,1.408-7.023,2.91-11.051,4.437
				c-4.412,1.664-6.639,6.588-4.966,10.999s6.63,6.63,10.999,4.958c4.216-1.596,7.996-3.157,11.537-4.625
				c11.887-4.907,19.738-8.158,32.64-8.158c49.69,0,59.733,7.185,59.733,42.667c0,111.317-64.785,315.733-170.667,315.733
				c-39.561,0-80.58-31.787-109.713-85.026c-2.261-4.139-7.45-5.649-11.58-3.396c-4.139,2.27-5.649,7.45-3.388,11.588
				C231.757,476.894,278.374,512,324.267,512C445.739,512,512,292.156,512,179.2C512,128.41,487.236,119.467,435.2,119.467z"/>
			<path d="M324.267,358.4c-47.386,0-66.569,37.265-67.362,38.852c-2.108,4.215-0.401,9.344,3.814,11.452s9.344,0.401,11.452-3.814
				c0.154-0.299,15.13-29.423,52.096-29.423c36.591,0,51.49,28.211,52.122,29.449c1.502,2.978,4.506,4.685,7.62,4.685
				c1.289,0,2.586-0.282,3.814-0.896c4.216-2.108,5.922-7.236,3.814-11.452C390.844,395.665,371.661,358.4,324.267,358.4z"/>
			<path d="M434.168,242.406c-2.031-11.511-15.232-18.953-33.63-18.953c-4.19,0-8.508,0.393-12.834,1.152
				c-10.257,1.809-19.678,5.598-26.505,10.667c-8.516,6.323-12.45,14.114-11.068,21.948c2.031,11.511,15.232,18.961,33.63,18.961
				c4.19,0,8.508-0.384,12.834-1.152C420.548,270.805,436.702,256.785,434.168,242.406z M383.761,259.115
				c-11.802,0-16.649-3.866-16.828-4.855c-0.068-0.452,0.862-2.628,4.429-5.282c4.685-3.473,11.716-6.221,19.311-7.561
				c3.345-0.597,6.665-0.896,9.865-0.896c11.81,0,16.657,3.866,16.828,4.847c0.375,2.091-7.458,9.992-23.74,12.86
				C390.289,258.816,386.961,259.115,383.761,259.115z"/>
		</g>
	</g>
</g>
<g>
</g>
<g>
</g>
<g>
</g>
<g>
</g>
<g>
</g>
<g>
</g>
<g>
</g>
<g>
</g>
<g>
</g>
<g>
</g>
<g>
</g>
<g>
</g>
<g>
</g>
<g>
</g>
<g>
</g>
</svg>
