<svg xmlns="http://www.w3.org/2000/svg" viewBox="0 0 72.85 60.15"><defs><style>.cls-1{fill:#fff;}</style></defs><title>Asset 22twiter</title><g id="Layer_2" data-name="Layer 2"><g id="Layer_1-2" data-name="Layer 1"><path class="cls-1" d="M27.72,60.15C15.56,60.15,6,58,1.35,54.32l-.09-.07-.08-.08a3.76,3.76,0,0,1-1-3.94l0-.11a3.79,3.79,0,0,1,3.48-2.39A31.62,31.62,0,0,0,12,46.58,15.74,15.74,0,0,1,3.72,37,3.4,3.4,0,0,1,4.9,33a3.79,3.79,0,0,1,1-.53,22.9,22.9,0,0,1-4.71-8.44l0-.1,0-.09A3.5,3.5,0,0,1,4.5,19.58a17.8,17.8,0,0,1-1.34-4.09A17.1,17.1,0,0,1,5,4.08l.45-.91A2.56,2.56,0,0,1,7.28,1.81a2.54,2.54,0,0,1,2.19.71l.82.82c6.5,6.82,12.33,10.05,22.4,12.27A17.83,17.83,0,0,1,37.51,5.32,16.9,16.9,0,0,1,49.57,0h0c3.34,0,7.47,1.91,10,3.25,2.14-.7,4.73-1.79,7.41-2.94A3.38,3.38,0,0,1,70.78,1a3.32,3.32,0,0,1,.73,3.65c-.2.55-.42,1.08-.67,1.6a3.42,3.42,0,0,1,1,.68,3.66,3.66,0,0,1,.91,3.43l0,.11a13.93,13.93,0,0,1-5.62,7.71C66.66,41.39,49.16,60.15,27.72,60.15ZM5.45,51.94C9.78,54.39,18,55.87,27.72,55.87A33.34,33.34,0,0,0,52.45,44.62,40.32,40.32,0,0,0,62.83,17.27v-.12a2.53,2.53,0,0,1,1.34-2.22,9.11,9.11,0,0,0,3.93-4.35,2.51,2.51,0,0,1-2.43-4,14.12,14.12,0,0,0,1-1.51c-2.31,1-4.51,1.84-6.42,2.42a2.77,2.77,0,0,1-2.11-.22c-3.4-1.9-6.56-3-8.47-3A13.29,13.29,0,0,0,36.84,17.74a2.52,2.52,0,0,1-.92,1.94,2.55,2.55,0,0,1-2.09.53C22.22,17.92,15.34,14.49,8.18,7.3a12.7,12.7,0,0,0-.83,7.38,15.61,15.61,0,0,0,3.7,7.17,2.52,2.52,0,0,1-2.54,4.09A11.22,11.22,0,0,1,6.16,25a21.21,21.21,0,0,0,7.3,8.46,2.55,2.55,0,0,1,.95,2.92,2.51,2.51,0,0,1-2.56,1.67,11.19,11.19,0,0,1-3.35-.72c1.81,3.69,4.71,5.72,9.17,6.5a2.52,2.52,0,0,1,.75,4.71A30.42,30.42,0,0,1,5.45,51.94Z"/></g></g></svg>