<?xml version="1.0" encoding="iso-8859-1"?>
<!-- Generator: Adobe Illustrator 19.0.0, SVG Export Plug-In . SVG Version: 6.00 Build 0)  -->
<svg version="1.1" id="Layer_1" xmlns="http://www.w3.org/2000/svg" xmlns:xlink="http://www.w3.org/1999/xlink" x="0px" y="0px"
	 viewBox="0 0 512 512" style="enable-background:new 0 0 512 512; fill: #ffffff;" xml:space="preserve">
<g>
	<g>
		<g>
			<path d="M136.533,51.2c0-9.412-7.654-17.067-17.067-17.067c-9.404,0-17.067,7.654-17.067,17.067
				c0,9.412,7.663,17.067,17.067,17.067C128.879,68.267,136.533,60.612,136.533,51.2z"/>
			<path d="M119.637,93.867c-4.71,0-8.482,3.823-8.482,8.533c0,4.71,3.857,8.533,8.576,8.533c4.702,0,8.533-3.823,8.533-8.533
				c0-4.71-3.831-8.533-8.533-8.533H119.637z"/>
			<path d="M119.467,170.667c9.412,0,17.067-7.654,17.067-17.067c0-9.412-7.654-17.067-17.067-17.067
				c-9.404,0-17.067,7.654-17.067,17.067C102.4,163.012,110.063,170.667,119.467,170.667z"/>
			<path d="M85.333,102.4c0-9.412-7.654-17.067-17.067-17.067c-9.404,0-17.067,7.654-17.067,17.067
				c0,9.412,7.663,17.067,17.067,17.067C77.679,119.467,85.333,111.812,85.333,102.4z"/>
			<path d="M366.933,187.733h-307.2c-23.518,0-42.667,19.14-42.667,42.667v76.8H8.533c-4.71,0-8.533,3.823-8.533,8.533v51.2
				c0,4.71,3.823,8.533,8.533,8.533h8.533v76.8c0,23.526,19.149,42.667,42.667,42.667h128v8.533c0,4.71,3.823,8.533,8.533,8.533
				c4.719,0,8.533-3.823,8.533-8.533V486.4c0-4.71-3.814-8.533-8.533-8.533H59.733c-14.114,0-25.6-11.486-25.6-25.6v-85.333
				c0-4.71-3.814-8.533-8.533-8.533h-8.533v-34.133H25.6c4.719,0,8.533-3.823,8.533-8.533V230.4c0-14.114,11.486-25.6,25.6-25.6
				h307.2c14.123,0,25.6,11.486,25.6,25.6v221.867c0,14.114-11.477,25.6-25.6,25.6H230.4c-4.71,0-8.533,3.823-8.533,8.533
				s3.823,8.533,8.533,8.533h136.533c23.526,0,42.667-19.14,42.667-42.667V230.4C409.6,206.874,390.46,187.733,366.933,187.733z"/>
			<path d="M170.667,324.267c9.412,0,17.067,7.654,17.067,17.067c0,4.71,3.823,8.533,8.533,8.533c4.719,0,8.533-3.823,8.533-8.533
				c0-18.825-15.3-34.133-34.133-34.133c-18.825,0-34.133,15.309-34.133,34.133c0,18.825,15.309,34.133,34.133,34.133H256
				c18.833,0,34.133-15.309,34.133-34.133c0-18.825-15.3-34.133-34.133-34.133c-18.825,0-34.133,15.309-34.133,34.133
				c0,4.71,3.823,8.533,8.533,8.533c4.719,0,8.533-3.823,8.533-8.533c0-9.412,7.663-17.067,17.067-17.067
				c9.412,0,17.067,7.654,17.067,17.067c0,9.412-7.654,17.067-17.067,17.067h-85.333c-9.404,0-17.067-7.654-17.067-17.067
				C153.6,331.921,161.263,324.267,170.667,324.267z"/>
			<path d="M187.733,102.4c0-9.412-7.654-17.067-17.067-17.067c-9.404,0-17.067,7.654-17.067,17.067
				c0,9.412,7.663,17.067,17.067,17.067C180.079,119.467,187.733,111.812,187.733,102.4z"/>
			<path d="M307.2,0c-41.967,0-78.063,25.395-93.867,61.594C197.538,25.395,161.434,0,119.467,0c-56.465,0-102.4,45.935-102.4,102.4
				c0,23.748,8.32,46.899,23.424,65.169c2.995,3.635,8.371,4.147,12.006,1.143s4.147-8.38,1.143-12.015
				c-12.578-15.224-19.507-34.509-19.507-54.298c0-47.053,38.289-85.333,85.333-85.333c47.053,0,85.333,38.281,85.333,85.333
				c0,19.789-6.921,39.074-19.499,54.298c-3.004,3.635-2.492,9.011,1.143,12.015c1.596,1.314,3.516,1.954,5.427,1.954
				c2.458,0,4.898-1.058,6.579-3.098c6.144-7.433,11.093-15.693,14.882-24.439c3.797,8.747,8.747,17.007,14.891,24.439
				c2.987,3.635,8.363,4.147,12.006,1.143c3.635-3.004,4.147-8.38,1.143-12.015c-12.578-15.224-19.507-34.509-19.507-54.298
				c0-47.053,38.289-85.333,85.333-85.333c47.053,0,85.333,38.281,85.333,85.333c0,19.789-6.921,39.074-19.499,54.298
				c-3.004,3.635-2.492,9.011,1.143,12.015c1.596,1.314,3.516,1.954,5.427,1.954c2.458,0,4.898-1.058,6.579-3.098
				c15.104-18.27,23.415-41.421,23.415-65.169C409.6,45.935,363.674,0,307.2,0z"/>
			<path d="M375.467,102.4c0-9.412-7.654-17.067-17.067-17.067c-9.404,0-17.067,7.654-17.067,17.067
				c0,9.412,7.663,17.067,17.067,17.067C367.812,119.467,375.467,111.812,375.467,102.4z"/>
			<path d="M503.996,249.677c-5.069-3.004-11.213-2.944-17.007,0.222l-56.004,31.872c-4.096,2.321-5.53,7.535-3.2,11.631
				c2.338,4.096,7.561,5.521,11.639,3.2l55.509-31.497v167.851l-55.492-31.71c-4.105-2.355-9.31-0.922-11.648,3.174
				c-2.338,4.087-0.913,9.301,3.174,11.639l55.791,31.881c2.543,1.544,5.393,2.33,8.269,2.33c2.816,0,5.666-0.742,8.311-2.227
				c5.265-2.961,8.661-8.371,8.661-13.79V263.586C512,258.014,508.86,252.561,503.996,249.677z"/>
			<path d="M307.371,93.867c-4.71,0-8.482,3.823-8.482,8.533c0,4.71,3.857,8.533,8.576,8.533c4.702,0,8.533-3.823,8.533-8.533
				c0-4.71-3.831-8.533-8.533-8.533H307.371z"/>
			<path d="M324.267,51.2c0-9.412-7.654-17.067-17.067-17.067c-9.404,0-17.067,7.654-17.067,17.067
				c0,9.412,7.663,17.067,17.067,17.067C316.612,68.267,324.267,60.612,324.267,51.2z"/>
			<path d="M307.2,170.667c9.412,0,17.067-7.654,17.067-17.067c0-9.412-7.654-17.067-17.067-17.067
				c-9.404,0-17.067,7.654-17.067,17.067C290.133,163.012,297.796,170.667,307.2,170.667z"/>
			<path d="M273.067,102.4c0-9.412-7.654-17.067-17.067-17.067c-9.404,0-17.067,7.654-17.067,17.067
				c0,9.412,7.663,17.067,17.067,17.067C265.412,119.467,273.067,111.812,273.067,102.4z"/>
		</g>
	</g>
</g>
<g>
</g>
<g>
</g>
<g>
</g>
<g>
</g>
<g>
</g>
<g>
</g>
<g>
</g>
<g>
</g>
<g>
</g>
<g>
</g>
<g>
</g>
<g>
</g>
<g>
</g>
<g>
</g>
<g>
</g>
</svg>
